%TF.GenerationSoftware,KiCad,Pcbnew,10.0.3*%
%TF.CreationDate,2026-05-28T14:10:26-06:00*%
%TF.ProjectId,daughterboard,64617567-6874-4657-9262-6f6172642e6b,rev?*%
%TF.SameCoordinates,Original*%
%TF.FileFunction,Copper,L1,Top*%
%TF.FilePolarity,Positive*%
%FSLAX46Y46*%
G04 Gerber Fmt 4.6, Leading zero omitted, Abs format (unit mm)*
G04 Created by KiCad (PCBNEW 10.0.3) date 2026-05-28 14:10:26*
%MOMM*%
%LPD*%
G01*
G04 APERTURE LIST*
G04 Aperture macros list*
%AMRoundRect*
0 Rectangle with rounded corners*
0 $1 Rounding radius*
0 $2 $3 $4 $5 $6 $7 $8 $9 X,Y pos of 4 corners*
0 Add a 4 corners polygon primitive as box body*
4,1,4,$2,$3,$4,$5,$6,$7,$8,$9,$2,$3,0*
0 Add four circle primitives for the rounded corners*
1,1,$1+$1,$2,$3*
1,1,$1+$1,$4,$5*
1,1,$1+$1,$6,$7*
1,1,$1+$1,$8,$9*
0 Add four rect primitives between the rounded corners*
20,1,$1+$1,$2,$3,$4,$5,0*
20,1,$1+$1,$4,$5,$6,$7,0*
20,1,$1+$1,$6,$7,$8,$9,0*
20,1,$1+$1,$8,$9,$2,$3,0*%
G04 Aperture macros list end*
%TA.AperFunction,ComponentPad*%
%ADD10R,1.700000X1.700000*%
%TD*%
%TA.AperFunction,ComponentPad*%
%ADD11C,1.700000*%
%TD*%
%TA.AperFunction,ComponentPad*%
%ADD12R,0.850000X0.850000*%
%TD*%
%TA.AperFunction,ComponentPad*%
%ADD13C,0.850000*%
%TD*%
%TA.AperFunction,ComponentPad*%
%ADD14RoundRect,0.250000X-0.350000X-0.625000X0.350000X-0.625000X0.350000X0.625000X-0.350000X0.625000X0*%
%TD*%
%TA.AperFunction,ComponentPad*%
%ADD15O,1.200000X1.750000*%
%TD*%
%TA.AperFunction,SMDPad,CuDef*%
%ADD16C,1.500000*%
%TD*%
%TA.AperFunction,ViaPad*%
%ADD17C,0.600000*%
%TD*%
%TA.AperFunction,Conductor*%
%ADD18C,0.200000*%
%TD*%
%TA.AperFunction,Conductor*%
%ADD19C,0.250000*%
%TD*%
G04 APERTURE END LIST*
D10*
%TO.P,J22,1,Pin_1_1*%
%TO.N,/3v3_SW*%
X222960000Y-101500000D03*
D11*
%TO.P,J22,2,Pin_2_2*%
%TO.N,/GND*%
X225500000Y-101500000D03*
%TO.P,J22,3,Pin_3_3*%
%TO.N,/I2C_SCL*%
X228040000Y-101500000D03*
%TO.P,J22,4,Pin_4_4*%
%TO.N,/I2C_SDA*%
X230580000Y-101500000D03*
%TO.P,J22,5,Pin_5_5*%
%TO.N,/NC*%
X233120000Y-101500000D03*
%TD*%
D10*
%TO.P,J15,1,Pin_1_1*%
%TO.N,/VBUS*%
X85190000Y-108500000D03*
D11*
%TO.P,J15,2,Pin_2_2*%
%TO.N,/GND*%
X87730000Y-108500000D03*
%TO.P,J15,3,Pin_3_3*%
%TO.N,/D-*%
X90270000Y-108500000D03*
%TO.P,J15,4,Pin_4_4*%
%TO.N,/D+*%
X92810000Y-108500000D03*
%TD*%
D12*
%TO.P,J3,1,Pin_1_1*%
%TO.N,/GPIO2*%
X199000000Y-107000000D03*
D13*
%TO.P,J3,2,Pin_2_2*%
%TO.N,/GPIO3*%
X198000000Y-107000000D03*
%TO.P,J3,3,Pin_3_3*%
%TO.N,/GPIO14*%
X197000000Y-107000000D03*
%TO.P,J3,4,Pin_4_4*%
%TO.N,/GPIO21*%
X196000000Y-107000000D03*
%TD*%
D10*
%TO.P,U2,1,Pin_1_1*%
%TO.N,/3v3_SW*%
X113000000Y-119500000D03*
D11*
%TO.P,U2,2,Pin_2_2*%
%TO.N,/GND*%
X115540000Y-119500000D03*
%TO.P,U2,3,Pin_3_3*%
%TO.N,/I2C_SCL*%
X118080000Y-119500000D03*
%TO.P,U2,4,Pin_4_4*%
%TO.N,/I2C_SDA*%
X120620000Y-119500000D03*
%TO.P,U2,5,Pin_5_5*%
X123160000Y-119500000D03*
%TO.P,U2,6,Pin_6_6*%
%TO.N,/ALRT*%
X125700000Y-119500000D03*
%TO.P,U2,7,Pin_7_7*%
%TO.N,/A0_B*%
X128240000Y-119500000D03*
%TO.P,U2,8,Pin_8_8*%
%TO.N,/A1_B*%
X130780000Y-119500000D03*
%TO.P,U2,9,Pin_9_9*%
%TO.N,/A2_B*%
X133320000Y-119500000D03*
%TO.P,U2,10,Pin_10_10*%
%TO.N,/A3_B*%
X135860000Y-119500000D03*
%TD*%
D14*
%TO.P,J8,1,Pin_1_1*%
%TO.N,/BATT-*%
X107000000Y-99500000D03*
D15*
%TO.P,J8,2,Pin_2_2*%
%TO.N,/BATT+*%
X109000000Y-99500000D03*
%TD*%
D12*
%TO.P,J23,1,Pin_1_1*%
%TO.N,/GND*%
X97000000Y-114375000D03*
D13*
%TO.P,J23,2,Pin_2_2*%
%TO.N,/A2_B*%
X98000000Y-114375000D03*
%TO.P,J23,3,Pin_3_3*%
%TO.N,/3v3_SW*%
X99000000Y-114375000D03*
%TO.P,J23,4,Pin_4_4*%
%TO.N,/GND*%
X100000000Y-114375000D03*
%TO.P,J23,5,Pin_5_5*%
%TO.N,/A3_B*%
X101000000Y-114375000D03*
%TO.P,J23,6,Pin_6_6*%
%TO.N,/3v3_SW*%
X102000000Y-114375000D03*
%TD*%
D16*
%TO.P,TP5,1,Pin_1_1*%
%TO.N,/I2C_SCL*%
X225000000Y-117500000D03*
%TD*%
D12*
%TO.P,J19,1,Pin_1_1*%
%TO.N,/P06*%
X214875000Y-129000000D03*
D13*
%TO.P,J19,2,Pin_2_2*%
%TO.N,/P07*%
X214875000Y-128000000D03*
%TO.P,J19,3,Pin_3_3*%
%TO.N,/P08*%
X214875000Y-127000000D03*
%TO.P,J19,4,Pin_4_4*%
%TO.N,/P09*%
X214875000Y-126000000D03*
%TD*%
D12*
%TO.P,J2,1,Pin_1_1*%
%TO.N,/3v3*%
X196000000Y-100375000D03*
D13*
%TO.P,J2,2,Pin_2_2*%
%TO.N,/GND*%
X197000000Y-100375000D03*
%TO.P,J2,3,Pin_3_3*%
%TO.N,/I2C_SCL*%
X198000000Y-100375000D03*
%TO.P,J2,4,Pin_4_4*%
%TO.N,/I2C_SDA*%
X199000000Y-100375000D03*
%TD*%
D12*
%TO.P,J4,1,Pin_1_1*%
%TO.N,/GND*%
X128125000Y-101500000D03*
D13*
%TO.P,J4,2,Pin_2_2*%
%TO.N,/A0_A*%
X128125000Y-102500000D03*
%TO.P,J4,3,Pin_3_3*%
%TO.N,/3v3_SW*%
X128125000Y-103500000D03*
%TO.P,J4,4,Pin_4_4*%
%TO.N,/GND*%
X128125000Y-104500000D03*
%TO.P,J4,5,Pin_5_5*%
%TO.N,/A1_A*%
X128125000Y-105500000D03*
%TO.P,J4,6,Pin_6_6*%
%TO.N,/3v3_SW*%
X128125000Y-106500000D03*
%TD*%
D10*
%TO.P,J24,1,Pin_1_1*%
%TO.N,/3v3*%
X161960000Y-134500000D03*
D11*
%TO.P,J24,2,Pin_2_2*%
X164500000Y-134500000D03*
%TO.P,J24,3,Pin_3_3*%
%TO.N,/GND*%
X167040000Y-134500000D03*
%TO.P,J24,4,Pin_4_4*%
X169580000Y-134500000D03*
%TO.P,J24,5,Pin_5_5*%
%TO.N,/ON*%
X172120000Y-134500000D03*
%TO.P,J24,6,Pin_6_6*%
%TO.N,/OFF*%
X174660000Y-134500000D03*
%TO.P,J24,7,Pin_7_7*%
%TO.N,/GPIO21*%
X177200000Y-134500000D03*
%TD*%
D14*
%TO.P,J16,1,Pin_1_1*%
%TO.N,/BATT-*%
X96500000Y-99500000D03*
D15*
%TO.P,J16,2,Pin_2_2*%
%TO.N,/BATT+*%
X98500000Y-99500000D03*
%TD*%
D12*
%TO.P,J11,1,Pin_1_1*%
%TO.N,/GPIO2*%
X216500000Y-97000000D03*
D13*
%TO.P,J11,2,Pin_2_2*%
%TO.N,/GPIO3*%
X215500000Y-97000000D03*
%TD*%
D16*
%TO.P,TP7,1,Pin_1_1*%
%TO.N,/UART_RX*%
X231500000Y-122500000D03*
%TD*%
%TO.P,TP4,1,Pin_1_1*%
%TO.N,/I2C_SDA*%
X231000000Y-117500000D03*
%TD*%
D12*
%TO.P,J12,1,Pin_1_1*%
%TO.N,/P05*%
X211000000Y-97125000D03*
D13*
%TO.P,J12,2,Pin_2_2*%
%TO.N,/GND*%
X210000000Y-97125000D03*
%TD*%
D12*
%TO.P,J21,1,Pin_1_1*%
%TO.N,/P14*%
X215000000Y-116000000D03*
D13*
%TO.P,J21,2,Pin_2_2*%
%TO.N,/P15*%
X215000000Y-115000000D03*
%TO.P,J21,3,Pin_3_3*%
%TO.N,/P16*%
X215000000Y-114000000D03*
%TO.P,J21,4,Pin_4_4*%
%TO.N,/P17*%
X215000000Y-113000000D03*
%TD*%
D10*
%TO.P,J14,1,Pin_1_1*%
%TO.N,/P00*%
X186500000Y-117500000D03*
D11*
%TO.P,J14,2,Pin_2_2*%
%TO.N,/P01*%
X186500000Y-120040000D03*
%TO.P,J14,3,Pin_3_3*%
%TO.N,/P02*%
X186500000Y-122580000D03*
%TO.P,J14,4,Pin_4_4*%
%TO.N,/P03*%
X186500000Y-125120000D03*
%TO.P,J14,5,Pin_5_5*%
%TO.N,/P04*%
X186500000Y-127660000D03*
%TO.P,J14,6,Pin_6_6*%
%TO.N,/5v_SW*%
X186500000Y-130200000D03*
%TO.P,J14,7,Pin_7_7*%
%TO.N,/GND*%
X186500000Y-132740000D03*
%TD*%
D10*
%TO.P,J25,1,Pin_1_1*%
%TO.N,/5v*%
X141500000Y-134500000D03*
D11*
%TO.P,J25,2,Pin_2_2*%
X144040000Y-134500000D03*
%TO.P,J25,3,Pin_3_3*%
%TO.N,/GND*%
X146580000Y-134500000D03*
%TO.P,J25,4,Pin_4_4*%
X149120000Y-134500000D03*
%TO.P,J25,5,Pin_5_5*%
%TO.N,/ON*%
X151660000Y-134500000D03*
%TO.P,J25,6,Pin_6_6*%
%TO.N,/OFF*%
X154200000Y-134500000D03*
%TO.P,J25,7,Pin_7_7*%
%TO.N,/GPIO14*%
X156740000Y-134500000D03*
%TD*%
D16*
%TO.P,TP1,1,Pin_1_1*%
%TO.N,/5v*%
X225000000Y-112500000D03*
%TD*%
%TO.P,TP6,1,Pin_1_1*%
%TO.N,/UART_TX*%
X225000000Y-122500000D03*
%TD*%
D10*
%TO.P,U3,1,Pin_1_1*%
%TO.N,/GND*%
X218500000Y-108500000D03*
D11*
%TO.P,U3,2,Pin_2_2*%
%TO.N,/3v3_SW*%
X218500000Y-111040000D03*
%TO.P,U3,3,Pin_3_3*%
%TO.N,/P00*%
X218500000Y-113580000D03*
%TO.P,U3,4,Pin_4_4*%
%TO.N,/P01*%
X218500000Y-116120000D03*
%TO.P,U3,5,Pin_5_5*%
%TO.N,/P02*%
X218500000Y-118660000D03*
%TO.P,U3,6,Pin_6_6*%
%TO.N,/P03*%
X218500000Y-121200000D03*
%TO.P,U3,7,Pin_7_7*%
%TO.N,/P04*%
X218500000Y-123740000D03*
%TO.P,U3,8,Pin_8_8*%
%TO.N,/P05*%
X218500000Y-126280000D03*
%TO.P,U3,9,Pin_9_9*%
%TO.N,/P06*%
X218500000Y-128820000D03*
%TO.P,U3,10,Pin_10_10*%
%TO.N,/P07*%
X218500000Y-131360000D03*
%TO.P,U3,11,Pin_11_11*%
%TO.N,/P08*%
X218500000Y-133900000D03*
%TD*%
D10*
%TO.P,U4,1,Pin_1_1*%
%TO.N,/GND*%
X237500000Y-108500000D03*
D11*
%TO.P,U4,2,Pin_2_2*%
%TO.N,/3v3_SW*%
X237500000Y-111040000D03*
%TO.P,U4,3,Pin_3_3*%
%TO.N,/P17*%
X237500000Y-113580000D03*
%TO.P,U4,4,Pin_4_4*%
%TO.N,/P16*%
X237500000Y-116120000D03*
%TO.P,U4,5,Pin_5_5*%
%TO.N,/P15*%
X237500000Y-118660000D03*
%TO.P,U4,6,Pin_6_6*%
%TO.N,/P14*%
X237500000Y-121200000D03*
%TO.P,U4,7,Pin_7_7*%
%TO.N,/P13*%
X237500000Y-123740000D03*
%TO.P,U4,8,Pin_8_8*%
%TO.N,/P12*%
X237500000Y-126280000D03*
%TO.P,U4,9,Pin_9_9*%
%TO.N,/P11*%
X237500000Y-128820000D03*
%TO.P,U4,10,Pin_10_10*%
%TO.N,/P10*%
X237500000Y-131360000D03*
%TO.P,U4,11,Pin_11_11*%
%TO.N,/P09*%
X237500000Y-133900000D03*
%TD*%
D16*
%TO.P,TP2,1,Pin_1_1*%
%TO.N,/3v3*%
X231000000Y-112500000D03*
%TD*%
D10*
%TO.P,J17,1,Pin_1_1*%
%TO.N,/NC*%
X85725000Y-99500000D03*
D11*
%TO.P,J17,2,Pin_2_2*%
X88265000Y-99500000D03*
%TD*%
D10*
%TO.P,J10,1,Pin_1_1*%
%TO.N,/5v_SW*%
X141500000Y-120000000D03*
D11*
%TO.P,J10,2,Pin_2_2*%
X144040000Y-120000000D03*
%TO.P,J10,3,Pin_3_3*%
%TO.N,/GND*%
X146580000Y-120000000D03*
%TO.P,J10,4,Pin_4_4*%
X149120000Y-120000000D03*
%TO.P,J10,5,Pin_5_5*%
%TO.N,/NC*%
X151660000Y-120000000D03*
%TO.P,J10,6,Pin_6_6*%
X154200000Y-120000000D03*
%TO.P,J10,7,Pin_7_7*%
X156740000Y-120000000D03*
%TD*%
D12*
%TO.P,J13,1,Pin_1_1*%
%TO.N,/GND*%
X108500000Y-114375000D03*
D13*
%TO.P,J13,2,Pin_2_2*%
%TO.N,/A0_B*%
X109500000Y-114375000D03*
%TO.P,J13,3,Pin_3_3*%
%TO.N,/3v3_SW*%
X110500000Y-114375000D03*
%TO.P,J13,4,Pin_4_4*%
%TO.N,/GND*%
X111500000Y-114375000D03*
%TO.P,J13,5,Pin_5_5*%
%TO.N,/A1_B*%
X112500000Y-114375000D03*
%TO.P,J13,6,Pin_6_6*%
%TO.N,/3v3_SW*%
X113500000Y-114375000D03*
%TD*%
D12*
%TO.P,J1,1,Pin_1_1*%
%TO.N,/5v*%
X118000000Y-100375000D03*
D13*
%TO.P,J1,2,Pin_2_2*%
%TO.N,/GND*%
X119000000Y-100375000D03*
%TO.P,J1,3,Pin_3_3*%
%TO.N,/UART_TX*%
X120000000Y-100375000D03*
%TO.P,J1,4,Pin_4_4*%
%TO.N,/UART_RX*%
X121000000Y-100375000D03*
%TD*%
D12*
%TO.P,J20,1,Pin_1_1*%
%TO.N,/P10*%
X214875000Y-122500000D03*
D13*
%TO.P,J20,2,Pin_2_2*%
%TO.N,/P11*%
X214875000Y-121500000D03*
%TO.P,J20,3,Pin_3_3*%
%TO.N,/P12*%
X214875000Y-120500000D03*
%TO.P,J20,4,Pin_4_4*%
%TO.N,/P13*%
X214875000Y-119500000D03*
%TD*%
D12*
%TO.P,J5,1,Pin_1_1*%
%TO.N,/GND*%
X188875000Y-106500000D03*
D13*
%TO.P,J5,2,Pin_2_2*%
%TO.N,/A2_A*%
X188875000Y-105500000D03*
%TO.P,J5,3,Pin_3_3*%
%TO.N,/3v3_SW*%
X188875000Y-104500000D03*
%TO.P,J5,4,Pin_4_4*%
%TO.N,/GND*%
X188875000Y-103500000D03*
%TO.P,J5,5,Pin_5_5*%
%TO.N,/A3_A*%
X188875000Y-102500000D03*
%TO.P,J5,6,Pin_6_6*%
%TO.N,/3v3_SW*%
X188875000Y-101500000D03*
%TD*%
D10*
%TO.P,J7,1,Pin_1_1*%
%TO.N,/VBUS*%
X196000000Y-134000000D03*
D11*
%TO.P,J7,2,Pin_2_2*%
%TO.N,/GND*%
X198540000Y-134000000D03*
%TO.P,J7,3,Pin_3_3*%
%TO.N,/CC1*%
X201080000Y-134000000D03*
%TO.P,J7,4,Pin_4_4*%
%TO.N,/D-*%
X203620000Y-134000000D03*
%TO.P,J7,5,Pin_5_5*%
%TO.N,/D+*%
X206160000Y-134000000D03*
%TO.P,J7,6,Pin_6_6*%
%TO.N,/CC2*%
X208700000Y-134000000D03*
%TD*%
D12*
%TO.P,J18,1,Pin_1_1*%
%TO.N,/P05*%
X205500000Y-97125000D03*
D13*
%TO.P,J18,2,Pin_2_2*%
%TO.N,/GND*%
X204500000Y-97125000D03*
%TD*%
D16*
%TO.P,TP3,1,Pin_1_1*%
%TO.N,/GND*%
X228000000Y-128000000D03*
%TD*%
D12*
%TO.P,J6,1,Pin_1_1*%
%TO.N,/5v_SW*%
X121000000Y-108000000D03*
D13*
%TO.P,J6,2,Pin_2_2*%
%TO.N,/GND*%
X120000000Y-108000000D03*
%TO.P,J6,3,Pin_3_3*%
%TO.N,/UART_RX*%
X119000000Y-108000000D03*
%TO.P,J6,4,Pin_4_4*%
%TO.N,/UART_TX*%
X118000000Y-108000000D03*
%TD*%
D10*
%TO.P,U1,1,Pin_1_1*%
%TO.N,/3v3_SW*%
X83000000Y-119500000D03*
D11*
%TO.P,U1,2,Pin_2_2*%
%TO.N,/GND*%
X85540000Y-119500000D03*
%TO.P,U1,3,Pin_3_3*%
%TO.N,/I2C_SCL*%
X88080000Y-119500000D03*
%TO.P,U1,4,Pin_4_4*%
%TO.N,/I2C_SDA*%
X90620000Y-119500000D03*
%TO.P,U1,5,Pin_5_5*%
%TO.N,/GND*%
X93160000Y-119500000D03*
%TO.P,U1,6,Pin_6_6*%
%TO.N,/ALRT*%
X95700000Y-119500000D03*
%TO.P,U1,7,Pin_7_7*%
%TO.N,/A0_A*%
X98240000Y-119500000D03*
%TO.P,U1,8,Pin_8_8*%
%TO.N,/A1_A*%
X100780000Y-119500000D03*
%TO.P,U1,9,Pin_9_9*%
%TO.N,/A2_A*%
X103320000Y-119500000D03*
%TO.P,U1,10,Pin_10_10*%
%TO.N,/A3_A*%
X105860000Y-119500000D03*
%TD*%
D10*
%TO.P,J9,1,Pin_1_1*%
%TO.N,/3v3_SW*%
X161960000Y-120000000D03*
D11*
%TO.P,J9,2,Pin_2_2*%
X164500000Y-120000000D03*
%TO.P,J9,3,Pin_3_3*%
%TO.N,/GND*%
X167040000Y-120000000D03*
%TO.P,J9,4,Pin_4_4*%
X169580000Y-120000000D03*
%TO.P,J9,5,Pin_5_5*%
%TO.N,/NC*%
X172120000Y-120000000D03*
%TO.P,J9,6,Pin_6_6*%
X174660000Y-120000000D03*
%TO.P,J9,7,Pin_7_7*%
X177200000Y-120000000D03*
%TD*%
D17*
%TO.N,/3v3_SW*%
X92598100Y-121661400D03*
X123274000Y-113009600D03*
%TO.N,/GND*%
X109000000Y-116000000D03*
X131000000Y-112000000D03*
X176000000Y-130000000D03*
X208000000Y-98000000D03*
X146000000Y-118000000D03*
X197000000Y-98000000D03*
X229264300Y-128154900D03*
X170000000Y-130000000D03*
X112000000Y-116000000D03*
X165000000Y-130000000D03*
%TO.N,/I2C_SCL*%
X225585300Y-116052200D03*
%TO.N,/I2C_SDA*%
X202760800Y-100364800D03*
X197224500Y-121521200D03*
X229387600Y-115870100D03*
%TO.N,/VBUS*%
X93851500Y-132188100D03*
%TO.N,/D-*%
X90252900Y-127253100D03*
%TO.N,/D+*%
X102122100Y-133287300D03*
%TO.N,/GPIO2*%
X203115200Y-99130400D03*
%TO.N,/GPIO14*%
X168310000Y-133530200D03*
%TO.N,/3v3*%
X229241200Y-112629700D03*
X227040900Y-104828000D03*
%TO.N,/UART_RX*%
X120017400Y-120961700D03*
%TO.N,/P14*%
X217046900Y-117175400D03*
%TO.N,/P17*%
X220823900Y-113457300D03*
%TO.N,/P00*%
X216457800Y-114716700D03*
%TO.N,/5v_SW*%
X133085900Y-120907400D03*
X176353100Y-127301600D03*
%TO.N,/5v*%
X205310300Y-112987700D03*
%TO.N,/UART_TX*%
X188588600Y-123884300D03*
X185571400Y-121591300D03*
%TO.N,/A2_A*%
X111921700Y-129245700D03*
X178851200Y-129363700D03*
X195107100Y-107624800D03*
%TO.N,/A3_A*%
X182301100Y-122221500D03*
X194525400Y-108301100D03*
X147112300Y-122189100D03*
%TD*%
%TO.N,/3v3_SW*%
D18*
X237500000Y-111040000D02*
X218500000Y-111040000D01*
X218500000Y-111040000D02*
X211960000Y-104500000D01*
X86025200Y-121661400D02*
X92598100Y-121661400D01*
X121908600Y-114375000D02*
X123274000Y-113009600D01*
X110500000Y-114450200D02*
X110500000Y-114375000D01*
X211960000Y-104500000D02*
X188875000Y-104500000D01*
X83000000Y-119500000D02*
X84151700Y-119500000D01*
X84151700Y-119787900D02*
X86025200Y-121661400D01*
X113500000Y-114375000D02*
X121908600Y-114375000D01*
X164500000Y-120000000D02*
X161960000Y-120000000D01*
X109796100Y-115154100D02*
X110500000Y-114450200D01*
X102779100Y-115154100D02*
X109796100Y-115154100D01*
X102000000Y-114375000D02*
X102779100Y-115154100D01*
X84151700Y-119500000D02*
X84151700Y-119787900D01*
%TO.N,/GND*%
X128125000Y-104500000D02*
X128150305Y-104500000D01*
X123050000Y-104500000D02*
X128125000Y-104500000D01*
X228154900Y-128154900D02*
X228000000Y-128000000D01*
D19*
X100000000Y-114375000D02*
X101375000Y-113000000D01*
D18*
X111500000Y-115500000D02*
X112000000Y-116000000D01*
X112000000Y-116000000D02*
X109000000Y-116000000D01*
D19*
X107125000Y-113000000D02*
X108500000Y-114375000D01*
D18*
X120000000Y-107974695D02*
X120000000Y-108000000D01*
D19*
X97700000Y-113675000D02*
X99300000Y-113675000D01*
D18*
X170000000Y-130000000D02*
X176000000Y-130000000D01*
X120000000Y-108000000D02*
X120000000Y-107550000D01*
D19*
X109200000Y-113675000D02*
X110800000Y-113675000D01*
D18*
X204500000Y-97726040D02*
X204773960Y-98000000D01*
X210000000Y-97125000D02*
X208875000Y-97125000D01*
X111500000Y-114375000D02*
X111500000Y-115500000D01*
D19*
X101375000Y-113000000D02*
X107125000Y-113000000D01*
X147000000Y-120000000D02*
X147000000Y-119000000D01*
D18*
X204773960Y-98000000D02*
X208000000Y-98000000D01*
D19*
X108500000Y-114375000D02*
X109200000Y-113675000D01*
D18*
X128850000Y-101600000D02*
X128750000Y-101500000D01*
X208875000Y-97125000D02*
X208000000Y-98000000D01*
X119000000Y-100375000D02*
X119000000Y-106974695D01*
X204500000Y-97125000D02*
X204500000Y-97726040D01*
X165000000Y-130000000D02*
X170000000Y-130000000D01*
D19*
X146580000Y-120000000D02*
X147000000Y-120000000D01*
D18*
X120000000Y-107550000D02*
X123050000Y-104500000D01*
X119000000Y-106974695D02*
X120000000Y-107974695D01*
X128125000Y-104500000D02*
X131000000Y-107375000D01*
D19*
X147000000Y-119000000D02*
X146000000Y-118000000D01*
X97000000Y-114375000D02*
X97700000Y-113675000D01*
X110800000Y-113675000D02*
X111500000Y-114375000D01*
D18*
X197000000Y-100375000D02*
X197000000Y-98000000D01*
X128850000Y-103800305D02*
X128850000Y-101600000D01*
X128150305Y-104500000D02*
X128850000Y-103800305D01*
X119000000Y-100375000D02*
X119000000Y-100000000D01*
D19*
X99300000Y-113675000D02*
X100000000Y-114375000D01*
D18*
X128750000Y-101500000D02*
X128125000Y-101500000D01*
X229264300Y-128154900D02*
X228154900Y-128154900D01*
X131000000Y-107375000D02*
X131000000Y-112000000D01*
%TO.N,/I2C_SCL*%
X200177500Y-102675600D02*
X198000000Y-100498100D01*
X94739600Y-121059700D02*
X116520300Y-121059700D01*
X225585300Y-116914700D02*
X225585300Y-116052200D01*
X116520300Y-121059700D02*
X118080000Y-119500000D01*
X94337700Y-120657800D02*
X94739600Y-121059700D01*
X226864400Y-102675600D02*
X200177500Y-102675600D01*
X198000000Y-100498100D02*
X198000000Y-100375000D01*
X225000000Y-117500000D02*
X225585300Y-116914700D01*
X92689000Y-120657800D02*
X94337700Y-120657800D01*
X91889900Y-119858700D02*
X92689000Y-120657800D01*
X88080000Y-119500000D02*
X89270700Y-118309300D01*
X89270700Y-118309300D02*
X91137900Y-118309300D01*
X91889900Y-119061300D02*
X91889900Y-119858700D01*
X91137900Y-118309300D02*
X91889900Y-119061300D01*
X228040000Y-101500000D02*
X226864400Y-102675600D01*
%TO.N,/I2C_SDA*%
X202760800Y-100364800D02*
X199010200Y-100364800D01*
X199010200Y-100364800D02*
X199000000Y-100375000D01*
X93922100Y-121059600D02*
X94373700Y-121511200D01*
X90620000Y-119500000D02*
X92179600Y-121059600D01*
X94373700Y-121511200D02*
X118608800Y-121511200D01*
D19*
X123160000Y-119500000D02*
X120620000Y-119500000D01*
D18*
X187117300Y-123850000D02*
X180899500Y-123850000D01*
X230580000Y-101500000D02*
X229371600Y-100291600D01*
X229371600Y-100291600D02*
X202834000Y-100291600D01*
X231000000Y-117482500D02*
X231000000Y-117500000D01*
X176825900Y-127923600D02*
X129043600Y-127923600D01*
X92179600Y-121059600D02*
X93922100Y-121059600D01*
X189446100Y-121521200D02*
X187117300Y-123850000D01*
X197224500Y-121521200D02*
X189446100Y-121521200D01*
X180899500Y-123850000D02*
X176825900Y-127923600D01*
X202834000Y-100291600D02*
X202760800Y-100364800D01*
X229387600Y-115870100D02*
X231000000Y-117482500D01*
X118608800Y-121511200D02*
X120620000Y-119500000D01*
X129043600Y-127923600D02*
X120620000Y-119500000D01*
%TO.N,/VBUS*%
X183163900Y-132188100D02*
X184975800Y-134000000D01*
X93851500Y-132188100D02*
X183163900Y-132188100D01*
X184975800Y-134000000D02*
X196000000Y-134000000D01*
%TO.N,/D-*%
X94552900Y-131553100D02*
X201173100Y-131553100D01*
X201173100Y-131553100D02*
X203620000Y-134000000D01*
X90252900Y-127253100D02*
X94552900Y-131553100D01*
%TO.N,/D+*%
X206160000Y-134000000D02*
X205000500Y-135159500D01*
X181165700Y-135159500D02*
X178891800Y-132885600D01*
X178891800Y-132885600D02*
X102523800Y-132885600D01*
X205000500Y-135159500D02*
X181165700Y-135159500D01*
X102523800Y-132885600D02*
X102122100Y-133287300D01*
%TO.N,/GPIO2*%
X216500000Y-97000000D02*
X216500000Y-97726700D01*
X215096300Y-99130400D02*
X203115200Y-99130400D01*
X216500000Y-97726700D02*
X215096300Y-99130400D01*
%TO.N,/GPIO14*%
X157902700Y-133337300D02*
X168117100Y-133337300D01*
X156740000Y-134500000D02*
X157902700Y-133337300D01*
X168117100Y-133337300D02*
X168310000Y-133530200D01*
%TO.N,/A2_B*%
X98000000Y-114467200D02*
X98000000Y-114375000D01*
X133320000Y-119500000D02*
X130920100Y-117100100D01*
X130920100Y-117100100D02*
X100632900Y-117100100D01*
X100632900Y-117100100D02*
X98000000Y-114467200D01*
%TO.N,/A3_B*%
X133058400Y-116698400D02*
X103232800Y-116698400D01*
X101000000Y-114465600D02*
X101000000Y-114375000D01*
X135860000Y-119500000D02*
X133058400Y-116698400D01*
X103232800Y-116698400D02*
X101000000Y-114465600D01*
%TO.N,/P06*%
X218500000Y-128820000D02*
X215781700Y-128820000D01*
X215781700Y-128820000D02*
X215601700Y-129000000D01*
X214875000Y-129000000D02*
X215601700Y-129000000D01*
%TO.N,/3v3*%
X164500000Y-134500000D02*
X161960000Y-134500000D01*
X196000000Y-100375000D02*
X196000000Y-101101700D01*
X230870300Y-112629700D02*
X231000000Y-112500000D01*
X225290200Y-103077300D02*
X227040900Y-104828000D01*
X196000000Y-101101700D02*
X197975600Y-103077300D01*
X197975600Y-103077300D02*
X225290200Y-103077300D01*
X229241200Y-112629700D02*
X230870300Y-112629700D01*
%TO.N,/UART_RX*%
X210401700Y-128822000D02*
X179160400Y-128822000D01*
X179160400Y-128822000D02*
X179100400Y-128762000D01*
X179100400Y-128762000D02*
X127817700Y-128762000D01*
X214109700Y-125114000D02*
X210401700Y-128822000D01*
X231500000Y-122500000D02*
X228886000Y-125114000D01*
X127817700Y-128762000D02*
X120017400Y-120961700D01*
X228886000Y-125114000D02*
X214109700Y-125114000D01*
%TO.N,/P14*%
X220650300Y-119181500D02*
X218977100Y-117508300D01*
X217379800Y-117508300D02*
X217046900Y-117175400D01*
X235481500Y-119181500D02*
X220650300Y-119181500D01*
X218977100Y-117508300D02*
X217379800Y-117508300D01*
X237500000Y-121200000D02*
X235481500Y-119181500D01*
%TO.N,/P16*%
X216592000Y-114000000D02*
X215000000Y-114000000D01*
X236123700Y-114743700D02*
X217335700Y-114743700D01*
X237500000Y-116120000D02*
X236123700Y-114743700D01*
X217335700Y-114743700D02*
X216592000Y-114000000D01*
%TO.N,/P17*%
X237500000Y-113580000D02*
X220946600Y-113580000D01*
X220946600Y-113580000D02*
X220823900Y-113457300D01*
%TO.N,/P00*%
X216457800Y-115833600D02*
X215527800Y-116763600D01*
X216457800Y-114716700D02*
X216457800Y-115833600D01*
X186500000Y-117500000D02*
X187651700Y-117500000D01*
X215527800Y-116763600D02*
X188388100Y-116763600D01*
X188388100Y-116763600D02*
X187651700Y-117500000D01*
%TO.N,/P01*%
X216068500Y-117294700D02*
X217243200Y-116120000D01*
X217243200Y-116120000D02*
X218500000Y-116120000D01*
X189245300Y-117294700D02*
X216068500Y-117294700D01*
X186500000Y-120040000D02*
X189245300Y-117294700D01*
%TO.N,/P02*%
X218500000Y-118660000D02*
X190420000Y-118660000D01*
X190420000Y-118660000D02*
X186500000Y-122580000D01*
%TO.N,/P03*%
X216417400Y-123282600D02*
X218500000Y-121200000D01*
X186500000Y-125120000D02*
X188337400Y-123282600D01*
X188337400Y-123282600D02*
X216417400Y-123282600D01*
%TO.N,/P04*%
X186500000Y-127660000D02*
X189616600Y-124543400D01*
X217696600Y-124543400D02*
X218500000Y-123740000D01*
X189616600Y-124543400D02*
X217696600Y-124543400D01*
%TO.N,/5v_SW*%
X140348300Y-120000000D02*
X139440900Y-120907400D01*
X151341600Y-127301600D02*
X144040000Y-120000000D01*
X176353100Y-127301600D02*
X151341600Y-127301600D01*
X144040000Y-120000000D02*
X141500000Y-120000000D01*
X141500000Y-120000000D02*
X140348300Y-120000000D01*
X139440900Y-120907400D02*
X133085900Y-120907400D01*
%TO.N,/5v*%
X225000000Y-112500000D02*
X224721800Y-112221800D01*
X144040000Y-134500000D02*
X141500000Y-134500000D01*
X224721800Y-112221800D02*
X206076200Y-112221800D01*
X206076200Y-112221800D02*
X205310300Y-112987700D01*
%TO.N,/UART_TX*%
X146202900Y-121310000D02*
X185290100Y-121310000D01*
X134944100Y-117938400D02*
X143623300Y-117938400D01*
X225000000Y-122500000D02*
X218026600Y-122500000D01*
X121141700Y-111233900D02*
X128239600Y-111233900D01*
X145428300Y-119743400D02*
X145428300Y-120535400D01*
X118000000Y-108092200D02*
X121141700Y-111233900D01*
X128239600Y-111233900D02*
X134944100Y-117938400D01*
X185290100Y-121310000D02*
X185571400Y-121591300D01*
X216642300Y-123884300D02*
X188588600Y-123884300D01*
X145428300Y-120535400D02*
X146202900Y-121310000D01*
X118000000Y-108000000D02*
X118000000Y-108092200D01*
X218026600Y-122500000D02*
X216642300Y-123884300D01*
X143623300Y-117938400D02*
X145428300Y-119743400D01*
%TO.N,/P13*%
X233690000Y-119930000D02*
X237500000Y-123740000D01*
X215332800Y-119930000D02*
X233690000Y-119930000D01*
X214875000Y-119500000D02*
X214902800Y-119500000D01*
X214902800Y-119500000D02*
X215332800Y-119930000D01*
%TO.N,/A2_A*%
X178851200Y-129363700D02*
X112039700Y-129363700D01*
X188875000Y-105500000D02*
X192982300Y-105500000D01*
X112039700Y-129363700D02*
X111921700Y-129245700D01*
X192982300Y-105500000D02*
X195107100Y-107624800D01*
%TO.N,/A3_A*%
X188148300Y-103136100D02*
X188148300Y-107096000D01*
X147144700Y-122221500D02*
X147112300Y-122189100D01*
X188784400Y-102500000D02*
X188148300Y-103136100D01*
X182301100Y-122221500D02*
X147144700Y-122221500D01*
X188875000Y-102500000D02*
X188784400Y-102500000D01*
X189353400Y-108301100D02*
X194525400Y-108301100D01*
X188148300Y-107096000D02*
X189353400Y-108301100D01*
%TD*%
M02*
