M48
; DRILL file KiCad 10.0.3 date 2026-07-14T20:39:37
; FORMAT={-:-/ absolute / metric / decimal}
; #@! TF.CreationDate,2026-07-14T20:39:37-06:00
; #@! TF.GenerationSoftware,Kicad,Pcbnew,10.0.3
; #@! TF.FileFunction,Plated,1,4,PTH
FMAT,2
METRIC
; #@! TA.AperFunction,Plated,PTH,ViaDrill
T1C0.300
; #@! TA.AperFunction,Plated,PTH,ViaDrill
T2C0.350
; #@! TA.AperFunction,Plated,PTH,ViaDrill
T3C0.400
; #@! TA.AperFunction,Plated,PTH,ViaDrill
T4C0.500
; #@! TA.AperFunction,Plated,PTH,ComponentDrill
T5C0.600
; #@! TA.AperFunction,Plated,PTH,ComponentDrill
T6C0.950
; #@! TA.AperFunction,Plated,PTH,ComponentDrill
T7C1.000
; #@! TA.AperFunction,Plated,PTH,ComponentDrill
T8C1.020
%
G90
G05
T1
X14.75Y-32.302
X17.321Y-54.644
X17.912Y-71.112
X18.945Y-16.755
X20.003Y-55.872
X20.451Y-73.788
X20.877Y-17.307
X22.356Y-25.234
X23.232Y-69.918
X23.827Y-66.128
X25.592Y-58.919
X25.743Y-36.543
X25.873Y-61.819
X25.981Y-34.216
X25.99Y-26.604
X26.363Y-32.92
X26.505Y-74.028
X26.572Y-75.748
X27.043Y-30.791
X27.109Y-33.416
X27.2Y-31.7
X27.831Y-64.438
X28.0Y-40.6
X28.092Y-31.793
X28.207Y-55.51
X28.535Y-37.176
X29.191Y-65.27
X29.289Y-60.401
X29.742Y-37.839
X29.742Y-44.565
X30.613Y-38.437
X30.803Y-53.803
X30.945Y-16.755
X31.75Y-43.511
X31.902Y-31.738
X32.008Y-36.626
X32.42Y-29.351
X33.543Y-17.222
X33.603Y-35.2
X33.741Y-45.451
X35.321Y-41.204
X36.8Y-32.596
X38.905Y-38.25
X38.911Y-44.681
X44.217Y-49.4
X44.432Y-35.887
X44.453Y-44.32
X44.789Y-34.615
X47.4Y-45.96
X47.572Y-42.034
X48.181Y-46.314
X49.229Y-36.058
X49.925Y-32.347
X50.851Y-49.366
X52.375Y-31.752
X55.706Y-35.045
X57.584Y-34.76
X58.5Y-28.745
X59.138Y-41.725
X59.139Y-26.802
X60.2Y-29.0
X60.65Y-30.15
X61.0Y-35.9
X61.8Y-28.3
X61.9Y-49.5
X62.4Y-34.5
X62.667Y-27.533
X65.013Y-36.018
X65.594Y-26.534
X66.0Y-38.6
X66.953Y-20.378
X67.2Y-25.2
X67.2Y-32.2
X68.0Y-28.1
X68.1Y-34.3
X68.4Y-26.7
X69.4Y-25.9
X70.719Y-29.969
X71.29Y-24.31
X71.794Y-45.94
X72.8Y-21.7
X80.748Y-45.17
X83.01Y-51.904
X84.579Y-24.388
X85.855Y-16.42
X86.736Y-28.608
X89.191Y-21.776
X89.598Y-26.002
X90.103Y-21.772
X91.149Y-16.493
X92.64Y-22.384
X92.657Y-23.301
X92.809Y-25.187
X93.157Y-21.765
X94.827Y-52.954
X95.15Y-23.7
X100.56Y-27.542
X101.465Y-26.916
X102.305Y-53.398
X103.9Y-54.9
X108.733Y-53.298
X117.061Y-14.191
X118.483Y-30.081
X119.131Y-26.454
X120.739Y-18.767
X124.445Y-14.714
X128.087Y-14.411
X128.157Y-17.383
X128.963Y-33.06
X130.131Y-29.006
X130.166Y-24.222
X130.199Y-44.549
X130.465Y-36.429
X131.582Y-24.452
X132.49Y-44.565
X132.769Y-33.9
X132.785Y-27.25
X132.8Y-15.654
X132.8Y-34.85
X132.855Y-26.406
X132.871Y-43.123
X133.571Y-35.8
X134.202Y-28.049
X136.198Y-42.27
X136.242Y-20.307
X136.935Y-16.786
X136.986Y-43.721
X137.675Y-26.812
X138.75Y-19.537
X139.0Y-17.307
X139.457Y-50.305
X139.555Y-37.769
X139.815Y-41.776
X139.888Y-27.252
X139.942Y-29.454
X140.0Y-34.8
X140.6Y-20.758
X141.731Y-56.291
X142.362Y-59.284
X142.4Y-35.1
X142.562Y-20.375
X142.993Y-57.259
X143.208Y-37.511
X144.257Y-28.176
X144.45Y-50.305
X144.533Y-53.242
X144.588Y-42.174
X145.394Y-22.871
X145.599Y-40.866
X146.166Y-37.555
X146.309Y-71.537
X146.485Y-28.416
X147.034Y-67.137
X147.559Y-59.375
X147.579Y-37.714
X147.731Y-26.379
X148.209Y-46.712
X148.928Y-16.629
X149.439Y-50.929
X149.747Y-23.933
X150.711Y-26.469
X151.081Y-14.56
X153.343Y-67.308
X153.737Y-43.305
X154.435Y-50.305
X154.476Y-38.502
X154.882Y-68.261
X156.717Y-60.805
X157.613Y-61.673
X157.644Y-21.2
X159.15Y-23.607
X159.183Y-20.91
X159.462Y-20.049
X160.597Y-55.922
T2
X37.18Y-24.133
X73.891Y-28.966
X150.345Y-24.9
T3
X23.075Y-64.482
X24.226Y-62.004
X37.978Y-57.145
X40.795Y-38.334
X77.6Y-28.789
X85.995Y-53.816
T4
X14.0Y-54.0
X16.8Y-51.3
X18.2Y-25.7
X20.344Y-65.27
X20.6Y-42.4
X21.721Y-50.979
X21.9Y-33.6
X23.575Y-35.581
X25.967Y-29.385
X28.1Y-47.0
X34.0Y-43.0
X39.5Y-46.3
X55.1Y-39.5
X56.7Y-46.0
X61.0Y-17.0
X74.68Y-48.688
X77.8Y-48.707
T6
X65.6Y-16.5
X68.1Y-16.5
X70.6Y-16.5
T7
X122.6Y-24.8
X122.6Y-27.34
X122.6Y-29.88
X122.6Y-32.42
X123.0Y-38.86
X123.0Y-41.4
T8
X39.65Y-12.38
X39.65Y-14.92
X39.65Y-17.46
X39.65Y-20.0
X39.65Y-27.62
X52.35Y-12.38
X52.35Y-14.92
X52.35Y-17.46
X52.35Y-20.0
X82.9Y-31.8
X82.9Y-34.34
X82.9Y-36.88
X82.9Y-39.42
X82.9Y-47.04
X95.6Y-31.8
X95.6Y-34.34
X95.6Y-36.88
X95.6Y-39.42
T5
X71.96Y-49.9G85X71.96Y-50.5
G05
X71.96Y-53.7G85X71.96Y-54.3
G05
X80.6Y-49.9G85X80.6Y-50.5
G05
X80.6Y-53.7G85X80.6Y-54.3
G05
M30
