%TF.GenerationSoftware,KiCad,Pcbnew,10.0.3*%
%TF.CreationDate,2026-07-08T03:45:09-06:00*%
%TF.ProjectId,Daughterboard,44617567-6874-4657-9262-6f6172642e6b,rev?*%
%TF.SameCoordinates,Original*%
%TF.FileFunction,Copper,L3,Inr*%
%TF.FilePolarity,Positive*%
%FSLAX46Y46*%
G04 Gerber Fmt 4.6, Leading zero omitted, Abs format (unit mm)*
G04 Created by KiCad (PCBNEW 10.0.3) date 2026-07-08 03:45:09*
%MOMM*%
%LPD*%
G01*
G04 APERTURE LIST*
G04 Aperture macros list*
%AMRoundRect*
0 Rectangle with rounded corners*
0 $1 Rounding radius*
0 $2 $3 $4 $5 $6 $7 $8 $9 X,Y pos of 4 corners*
0 Add a 4 corners polygon primitive as box body*
4,1,4,$2,$3,$4,$5,$6,$7,$8,$9,$2,$3,0*
0 Add four circle primitives for the rounded corners*
1,1,$1+$1,$2,$3*
1,1,$1+$1,$4,$5*
1,1,$1+$1,$6,$7*
1,1,$1+$1,$8,$9*
0 Add four rect primitives between the rounded corners*
20,1,$1+$1,$2,$3,$4,$5,0*
20,1,$1+$1,$4,$5,$6,$7,0*
20,1,$1+$1,$6,$7,$8,$9,0*
20,1,$1+$1,$8,$9,$2,$3,0*%
G04 Aperture macros list end*
%TA.AperFunction,ComponentPad*%
%ADD10R,1.700000X1.700000*%
%TD*%
%TA.AperFunction,ComponentPad*%
%ADD11C,1.700000*%
%TD*%
%TA.AperFunction,ComponentPad*%
%ADD12R,1.800000X1.800000*%
%TD*%
%TA.AperFunction,ComponentPad*%
%ADD13C,1.800000*%
%TD*%
%TA.AperFunction,ComponentPad*%
%ADD14O,1.100000X1.700000*%
%TD*%
%TA.AperFunction,ComponentPad*%
%ADD15RoundRect,0.250000X-0.600000X-0.725000X0.600000X-0.725000X0.600000X0.725000X-0.600000X0.725000X0*%
%TD*%
%TA.AperFunction,ComponentPad*%
%ADD16O,1.700000X1.950000*%
%TD*%
%TA.AperFunction,ViaPad*%
%ADD17C,0.600000*%
%TD*%
%TA.AperFunction,ViaPad*%
%ADD18C,1.000000*%
%TD*%
%TA.AperFunction,ViaPad*%
%ADD19C,0.800000*%
%TD*%
%TA.AperFunction,ViaPad*%
%ADD20C,0.700000*%
%TD*%
%TA.AperFunction,Conductor*%
%ADD21C,0.200000*%
%TD*%
%TA.AperFunction,Conductor*%
%ADD22C,1.000000*%
%TD*%
%TA.AperFunction,Conductor*%
%ADD23C,0.750000*%
%TD*%
%TA.AperFunction,Conductor*%
%ADD24C,0.500000*%
%TD*%
G04 APERTURE END LIST*
D10*
%TO.N,+3V3_SW*%
%TO.C,J5*%
X122600000Y-24800000D03*
D11*
%TO.N,GND*%
X122600000Y-27340000D03*
%TO.N,I2C_SDA*%
X122600000Y-29880000D03*
%TO.N,I2C_SCL*%
X122600000Y-32420000D03*
%TD*%
D12*
%TO.N,+5V*%
%TO.C,SW1*%
X39650000Y-12380000D03*
D13*
X39650000Y-14920000D03*
%TO.N,+5V_SW*%
X52350000Y-12380000D03*
X52350000Y-14920000D03*
%TO.N,GND*%
X39650000Y-17460000D03*
X39650000Y-20000000D03*
X52350000Y-17460000D03*
X52350000Y-20000000D03*
%TO.N,CTRL_5V_SW*%
X39650000Y-27620000D03*
%TD*%
D12*
%TO.N,+3V3*%
%TO.C,SW2*%
X82900000Y-31800000D03*
D13*
X82900000Y-34340000D03*
%TO.N,+3V3_SW*%
X95600000Y-31800000D03*
X95600000Y-34340000D03*
%TO.N,GND*%
X82900000Y-36880000D03*
X82900000Y-39420000D03*
X95600000Y-36880000D03*
X95600000Y-39420000D03*
%TO.N,CTRL_3V3_SW*%
X82900000Y-47040000D03*
%TD*%
D14*
%TO.N,GND*%
%TO.C,J1*%
X71960000Y-50200000D03*
X71960000Y-54000000D03*
X80600000Y-50200000D03*
X80600000Y-54000000D03*
%TD*%
D10*
%TO.N,GPIO14*%
%TO.C,J6*%
X123000000Y-38860000D03*
D11*
%TO.N,GPIO21*%
X123000000Y-41400000D03*
%TD*%
D15*
%TO.N,BATT_RAW_N*%
%TO.C,J7*%
X70600000Y-16500000D03*
D16*
%TO.N,CELL_MID*%
X68100000Y-16500000D03*
%TO.N,PACK_P*%
X65600000Y-16500000D03*
%TD*%
D17*
%TO.N,GND*%
X91148700Y-16493200D03*
X30803000Y-53803000D03*
X23982100Y-34482800D03*
X155136200Y-21200000D03*
X80748400Y-45169800D03*
X95883500Y-55185700D03*
X39156100Y-39309300D03*
X29191000Y-65269900D03*
X149438900Y-50928900D03*
X148946900Y-16753100D03*
X27822500Y-64437600D03*
X132783000Y-34850000D03*
X18500000Y-70950200D03*
X84594900Y-24357200D03*
X144728000Y-53542700D03*
X29290500Y-60400800D03*
X108732800Y-53297900D03*
X31536900Y-44261900D03*
X25990500Y-26603700D03*
X71793900Y-45940000D03*
X86759800Y-28740000D03*
X136935300Y-16787400D03*
X31901900Y-31737600D03*
X93900000Y-25379400D03*
X85854900Y-16419600D03*
X74597500Y-24173800D03*
X59825000Y-54108400D03*
X59753700Y-29798000D03*
X56420000Y-47047900D03*
X44463400Y-43796400D03*
X15577000Y-53977000D03*
X138750000Y-19536600D03*
X36800000Y-32598800D03*
X28093200Y-31793500D03*
X132840700Y-42920600D03*
X137009800Y-45143100D03*
X30944600Y-16755400D03*
X137212200Y-44302700D03*
X139456600Y-50304900D03*
X95144400Y-23700000D03*
X32419600Y-29353900D03*
X26819400Y-60013500D03*
X144233600Y-51158600D03*
X31542200Y-47342200D03*
X22355200Y-25232700D03*
X146309300Y-71537400D03*
X102304900Y-53397600D03*
X28205600Y-55509700D03*
X132798700Y-27248400D03*
X139941500Y-29355100D03*
X44963000Y-33929400D03*
X143240900Y-56290900D03*
X18944600Y-16755400D03*
X154434600Y-50304900D03*
X136190600Y-42053800D03*
X21987800Y-55459700D03*
%TO.N,+3V3_SW_LOGIC*%
X92913400Y-28398800D03*
X109600500Y-50012600D03*
X162194600Y-19797500D03*
X139597400Y-43441500D03*
X133571600Y-25551600D03*
X156839500Y-19464000D03*
X157637500Y-27166600D03*
X135358300Y-33162400D03*
%TO.N,AIN6*%
X160669600Y-23607300D03*
X158818900Y-19235500D03*
%TO.N,I2C_SDA*%
X86946300Y-24200000D03*
X124847400Y-26070000D03*
X66208700Y-29088000D03*
X118294100Y-22345800D03*
X27111400Y-34250000D03*
X159279700Y-21339600D03*
%TO.N,I2C_SCL*%
X26874000Y-35720000D03*
X91464600Y-26421400D03*
X68748100Y-28989700D03*
X115396800Y-26360900D03*
X128018800Y-18661200D03*
X160036900Y-19536900D03*
D18*
%TO.N,PACK_P*%
X55288600Y-38463300D03*
X39466500Y-43717500D03*
D17*
%TO.N,EXP_GPB2*%
X127742100Y-14067500D03*
X147863300Y-26513300D03*
X129491200Y-29005600D03*
%TO.N,MCP_INTB*%
X146579700Y-55422200D03*
X142138700Y-42060100D03*
D19*
%TO.N,+5V*%
X38106200Y-57278700D03*
X21340400Y-59283900D03*
D17*
%TO.N,EXP_GPA2*%
X134079000Y-15797600D03*
X136365800Y-21555300D03*
D19*
%TO.N,BAT_SYS*%
X40874600Y-33377700D03*
X77961900Y-25935300D03*
D18*
%TO.N,USB_VBUS*%
X18089900Y-50304900D03*
X74760000Y-48507300D03*
X77931200Y-48656900D03*
%TO.N,CHG_IN*%
X20344400Y-70617000D03*
X20600000Y-40279100D03*
D20*
%TO.N,+3V3_SW*%
X39111100Y-23846700D03*
X127081300Y-16179400D03*
X122177700Y-22267900D03*
X75000000Y-27873500D03*
D17*
%TO.N,GPIO2*%
X49207700Y-48098800D03*
X118463200Y-29988500D03*
%TO.N,TS*%
X26987400Y-38457900D03*
X26987400Y-47111700D03*
X67566000Y-31007900D03*
X28116300Y-36213000D03*
%TO.N,EXP_GPB3*%
X130883800Y-29021900D03*
X145221700Y-27524200D03*
X157613000Y-61915200D03*
%TO.N,EXP_GPA7*%
X132530700Y-44484900D03*
X155034400Y-41075100D03*
%TO.N,MCP_RESET*%
X143662700Y-55392600D03*
X139603600Y-41997500D03*
%TO.N,CBSET*%
X29489600Y-38184100D03*
X37300700Y-50212600D03*
%TO.N,EXP_GPB0*%
X134493300Y-24493600D03*
X124300000Y-13994100D03*
%TO.N,EXP_GPA3*%
X160597100Y-55920600D03*
X149748500Y-23933000D03*
%TO.N,PMID*%
X26166500Y-29699900D03*
X28601800Y-26130200D03*
%TO.N,EXP_GPB4*%
X135945800Y-28878700D03*
X135960000Y-35822800D03*
X160077500Y-64161700D03*
%TO.N,EXP_GPB5*%
X153343400Y-67308200D03*
X145676600Y-32434500D03*
X144324100Y-28329900D03*
%TO.N,EXP_GPB6*%
X130651600Y-32497500D03*
X154835500Y-68895100D03*
%TO.N,EXP_GPB7*%
X140222400Y-25772000D03*
X151995800Y-65159800D03*
X139708400Y-35314800D03*
%TO.N,FB_3V3*%
X79080100Y-23342100D03*
X81064600Y-29988200D03*
%TO.N,EXP_GPB1*%
X131487000Y-14414000D03*
X150401600Y-25499600D03*
X132825800Y-25162800D03*
%TO.N,CELL_MID*%
X50112100Y-32803400D03*
X41032800Y-40459300D03*
X29822800Y-37200800D03*
D19*
%TO.N,+5V_SW*%
X94827100Y-53633900D03*
D17*
%TO.N,PROT_VDD*%
X55735800Y-40332800D03*
X62491400Y-31900000D03*
X62537800Y-28245800D03*
%TO.N,MCP_GPA1*%
X131842900Y-21741100D03*
X134156000Y-38965700D03*
%TO.N,BQ_PACK*%
X64585300Y-27247500D03*
X56551800Y-37288700D03*
%TO.N,REGN*%
X36300000Y-36900000D03*
X32776200Y-38223800D03*
%TO.N,LED_PGOOD_A*%
X49313100Y-36758500D03*
X24084100Y-76159100D03*
%TO.N,CTRL_5V_SW*%
X50185400Y-50202400D03*
%TO.N,EXP_GPA0*%
X140511600Y-20535600D03*
X145109200Y-43933300D03*
X115835600Y-15805900D03*
%TO.N,PG_STAT*%
X27287700Y-32000200D03*
X24641100Y-73838300D03*
X31888600Y-36343100D03*
X57590700Y-39340100D03*
%TO.N,UART_TX*%
X98300000Y-52700000D03*
X65039600Y-20122900D03*
%TO.N,BATT_RAW_N*%
X52400000Y-43100000D03*
X54300000Y-51700000D03*
%TO.N,LED_CHG_A*%
X17227500Y-74248900D03*
X37244100Y-29353900D03*
%TO.N,CHG_STAT*%
X57153600Y-34121700D03*
X16463800Y-75081200D03*
X24401200Y-33250000D03*
%TO.N,AIN2*%
X136927500Y-15258500D03*
X89508500Y-21514200D03*
%TO.N,MCP_INTA*%
X146809300Y-59375000D03*
X144630200Y-42137900D03*
%TO.N,BTST*%
X35300000Y-36900000D03*
X32800000Y-37200000D03*
%TO.N,MCP_GPA2*%
X144563600Y-37331400D03*
X145464500Y-20516500D03*
%TO.N,MCP_GPA3*%
X142922200Y-21532700D03*
X148051500Y-37767900D03*
%TO.N,AIN1*%
X33544500Y-17222300D03*
X92641700Y-22483200D03*
%TO.N,AIN3*%
X151119700Y-17316800D03*
X90625500Y-21510400D03*
%TO.N,UART_RX*%
X83010500Y-52528000D03*
X59939900Y-25393000D03*
%TO.N,BQ_SRN*%
X71521000Y-23575400D03*
X71998000Y-27622600D03*
%TO.N,BQ_SRP*%
X73606500Y-27990400D03*
X75095400Y-23351400D03*
%TO.N,DO_GATE*%
X58506000Y-50941000D03*
X64569000Y-35339900D03*
%TO.N,AIN0*%
X91227300Y-22127300D03*
X21000000Y-14564400D03*
%TO.N,BQ_DSG*%
X64569000Y-37443200D03*
X63855800Y-28772500D03*
%TO.N,BQ_CHG*%
X47630900Y-40270900D03*
X62190500Y-30178000D03*
X50944800Y-31387300D03*
%TO.N,BQ_PBI*%
X61441600Y-31633800D03*
X65417900Y-34791200D03*
%TD*%
%TO.N,I2C_SDA*%
D21*
X27111400Y-34250000D02*
X27231900Y-34129500D01*
X27231900Y-34129500D02*
X41968600Y-34129500D01*
X95327600Y-22345800D02*
X118294100Y-22345800D01*
X133771600Y-21139200D02*
X134789400Y-22157000D01*
X41968600Y-34129500D02*
X47010100Y-29088000D01*
X47010100Y-29088000D02*
X63320500Y-29088000D01*
X134789400Y-22157000D02*
X158462300Y-22157000D01*
X86946300Y-24200000D02*
X93473400Y-24200000D01*
X65890100Y-29406600D02*
X66208700Y-29088000D01*
X118294100Y-22345800D02*
X119500700Y-21139200D01*
X119500700Y-21139200D02*
X133771600Y-21139200D01*
X158462300Y-22157000D02*
X159279700Y-21339600D01*
X63639100Y-29406600D02*
X65890100Y-29406600D01*
X93473400Y-24200000D02*
X95327600Y-22345800D01*
X63320500Y-29088000D02*
X63639100Y-29406600D01*
%TO.N,I2C_SCL*%
X58586000Y-34189500D02*
X57440900Y-35334600D01*
X30838200Y-35334600D02*
X29358000Y-36814800D01*
X147948200Y-18661200D02*
X149924200Y-16685200D01*
X29358000Y-36814800D02*
X27851900Y-36814800D01*
X26874000Y-35836900D02*
X26874000Y-35720000D01*
X65282400Y-34189500D02*
X58586000Y-34189500D01*
X27851900Y-36814800D02*
X26874000Y-35836900D01*
X128018800Y-18661200D02*
X147948200Y-18661200D01*
X157185200Y-16685200D02*
X160036900Y-19536900D01*
X68748100Y-28989700D02*
X68748100Y-30723800D01*
X149924200Y-16685200D02*
X157185200Y-16685200D01*
X68748100Y-30723800D02*
X65282400Y-34189500D01*
X57440900Y-35334600D02*
X30838200Y-35334600D01*
%TO.N,PACK_P*%
D22*
X55288600Y-38463300D02*
X44720700Y-38463300D01*
X44720700Y-38463300D02*
X39466500Y-43717500D01*
%TO.N,EXP_GPB2*%
D21*
X147863300Y-26513300D02*
X131983500Y-26513300D01*
X131983500Y-26513300D02*
X129491200Y-29005600D01*
%TO.N,+5V*%
D23*
X38106200Y-57278700D02*
X23345600Y-57278700D01*
X23345600Y-57278700D02*
X21340400Y-59283900D01*
%TO.N,BAT_SYS*%
X40874600Y-33377700D02*
X47932600Y-26319700D01*
X77577500Y-26319700D02*
X77961900Y-25935300D01*
X47932600Y-26319700D02*
X77577500Y-26319700D01*
%TO.N,USB_VBUS*%
D22*
X62649600Y-49150600D02*
X65099000Y-51600000D01*
X69400000Y-51600000D02*
X69400000Y-50499800D01*
X74760000Y-48541900D02*
X77816200Y-48541900D01*
X69400000Y-50499800D02*
X71357900Y-48541900D01*
X65099000Y-51600000D02*
X69400000Y-51600000D01*
X71357900Y-48541900D02*
X74760000Y-48541900D01*
X77816200Y-48541900D02*
X77931200Y-48656900D01*
X19244200Y-49150600D02*
X62649600Y-49150600D01*
X18089900Y-50304900D02*
X19244200Y-49150600D01*
X74760000Y-48541900D02*
X74760000Y-48507300D01*
%TO.N,+3V3_SW*%
D24*
X95600000Y-31800000D02*
X112645600Y-31800000D01*
X60656500Y-24975700D02*
X59527500Y-23846700D01*
X91254300Y-27873500D02*
X95180800Y-31800000D01*
X75000000Y-27873500D02*
X78906500Y-27873500D01*
X59527500Y-23846700D02*
X39111100Y-23846700D01*
X78906500Y-27873500D02*
X91254300Y-27873500D01*
X95180800Y-31800000D02*
X95600000Y-31800000D01*
X112645600Y-31800000D02*
X122177700Y-22267900D01*
X78906500Y-25589300D02*
X78292900Y-24975700D01*
X78906500Y-27873500D02*
X78906500Y-25589300D01*
X78292900Y-24975700D02*
X60656500Y-24975700D01*
%TO.N,GPIO2*%
D21*
X49760400Y-48098800D02*
X59709200Y-38150000D01*
X49207700Y-48098800D02*
X49760400Y-48098800D01*
X59709200Y-38150000D02*
X110301700Y-38150000D01*
X110301700Y-38150000D02*
X118463200Y-29988500D01*
%TO.N,TS*%
X57195400Y-34932900D02*
X61120400Y-31007900D01*
X28116300Y-36213000D02*
X29396400Y-34932900D01*
X29396400Y-34932900D02*
X57195400Y-34932900D01*
X61120400Y-31007900D02*
X67566000Y-31007900D01*
%TO.N,EXP_GPB3*%
X144279000Y-27524200D02*
X143953000Y-27850200D01*
X132055500Y-27850200D02*
X130883800Y-29021900D01*
X145221700Y-27524200D02*
X144279000Y-27524200D01*
X143953000Y-27850200D02*
X132055500Y-27850200D01*
%TO.N,EXP_GPA7*%
X155034400Y-41075100D02*
X135940500Y-41075100D01*
X135940500Y-41075100D02*
X132530700Y-44484900D01*
%TO.N,EXP_GPB1*%
X149997300Y-25095300D02*
X150401600Y-25499600D01*
X133051500Y-24937100D02*
X134086000Y-24937100D01*
X134086000Y-24937100D02*
X134244200Y-25095300D01*
X132825800Y-25162800D02*
X133051500Y-24937100D01*
X134244200Y-25095300D02*
X149997300Y-25095300D01*
%TO.N,CELL_MID*%
X33081300Y-40459300D02*
X29822800Y-37200800D01*
X41032800Y-40459300D02*
X33081300Y-40459300D01*
%TO.N,EXP_GPA0*%
X140511600Y-20535600D02*
X140311800Y-20335800D01*
X140311800Y-20335800D02*
X120365500Y-20335800D01*
X120365500Y-20335800D02*
X115835600Y-15805900D01*
%TO.N,PG_STAT*%
X32074900Y-36156800D02*
X31888600Y-36343100D01*
X57590700Y-39340100D02*
X54407400Y-36156800D01*
X54407400Y-36156800D02*
X32074900Y-36156800D01*
%TO.N,CHG_STAT*%
X23713400Y-35084500D02*
X27993500Y-35084500D01*
X24324100Y-33250000D02*
X23372800Y-34201300D01*
X27993500Y-35084500D02*
X28546800Y-34531200D01*
X24401200Y-33250000D02*
X24324100Y-33250000D01*
X23372800Y-34201300D02*
X23372800Y-34743900D01*
X23372800Y-34743900D02*
X23713400Y-35084500D01*
X28546800Y-34531200D02*
X56744100Y-34531200D01*
X56744100Y-34531200D02*
X57153600Y-34121700D01*
%TO.N,AIN2*%
X136927500Y-15258500D02*
X136864900Y-15195900D01*
X95826800Y-15195900D02*
X89508500Y-21514200D01*
X136864900Y-15195900D02*
X95826800Y-15195900D01*
%TO.N,AIN1*%
X92641700Y-22483200D02*
X92395900Y-22729000D01*
X39051200Y-22729000D02*
X33544500Y-17222300D01*
X92395900Y-22729000D02*
X39051200Y-22729000D01*
%TO.N,AIN3*%
X91398400Y-20737500D02*
X90625500Y-21510400D01*
X147297300Y-21139200D02*
X143379600Y-21139200D01*
X141668100Y-20931000D02*
X141459900Y-21139200D01*
X141459900Y-21139200D02*
X136800600Y-21139200D01*
X136398900Y-20737500D02*
X91398400Y-20737500D01*
X151119700Y-17316800D02*
X147297300Y-21139200D01*
X136800600Y-21139200D02*
X136398900Y-20737500D01*
X143171400Y-20931000D02*
X141668100Y-20931000D01*
X143379600Y-21139200D02*
X143171400Y-20931000D01*
%TO.N,AIN0*%
X39415200Y-22127300D02*
X91227300Y-22127300D01*
X21000000Y-14564400D02*
X31852300Y-14564400D01*
X31852300Y-14564400D02*
X39415200Y-22127300D01*
%TO.N,BQ_CHG*%
X61382100Y-30178000D02*
X62190500Y-30178000D01*
X50944800Y-31387300D02*
X60172800Y-31387300D01*
X60172800Y-31387300D02*
X61382100Y-30178000D01*
%TD*%
M02*
