%TF.GenerationSoftware,KiCad,Pcbnew,10.0.3*%
%TF.CreationDate,2026-07-14T20:39:37-06:00*%
%TF.ProjectId,Daughterboard,44617567-6874-4657-9262-6f6172642e6b,rev?*%
%TF.SameCoordinates,Original*%
%TF.FileFunction,Copper,L1,Top*%
%TF.FilePolarity,Positive*%
%FSLAX46Y46*%
G04 Gerber Fmt 4.6, Leading zero omitted, Abs format (unit mm)*
G04 Created by KiCad (PCBNEW 10.0.3) date 2026-07-14 20:39:37*
%MOMM*%
%LPD*%
G01*
G04 APERTURE LIST*
G04 Aperture macros list*
%AMRoundRect*
0 Rectangle with rounded corners*
0 $1 Rounding radius*
0 $2 $3 $4 $5 $6 $7 $8 $9 X,Y pos of 4 corners*
0 Add a 4 corners polygon primitive as box body*
4,1,4,$2,$3,$4,$5,$6,$7,$8,$9,$2,$3,0*
0 Add four circle primitives for the rounded corners*
1,1,$1+$1,$2,$3*
1,1,$1+$1,$4,$5*
1,1,$1+$1,$6,$7*
1,1,$1+$1,$8,$9*
0 Add four rect primitives between the rounded corners*
20,1,$1+$1,$2,$3,$4,$5,0*
20,1,$1+$1,$4,$5,$6,$7,0*
20,1,$1+$1,$6,$7,$8,$9,0*
20,1,$1+$1,$8,$9,$2,$3,0*%
G04 Aperture macros list end*
%TA.AperFunction,Conductor*%
%ADD10C,0.200000*%
%TD*%
%TA.AperFunction,SMDPad,CuDef*%
%ADD11RoundRect,0.200000X0.275000X-0.200000X0.275000X0.200000X-0.275000X0.200000X-0.275000X-0.200000X0*%
%TD*%
%TA.AperFunction,SMDPad,CuDef*%
%ADD12RoundRect,0.075000X-0.650000X-0.075000X0.650000X-0.075000X0.650000X0.075000X-0.650000X0.075000X0*%
%TD*%
%TA.AperFunction,SMDPad,CuDef*%
%ADD13RoundRect,0.250000X-0.475000X0.250000X-0.475000X-0.250000X0.475000X-0.250000X0.475000X0.250000X0*%
%TD*%
%TA.AperFunction,SMDPad,CuDef*%
%ADD14RoundRect,0.200000X-0.275000X0.200000X-0.275000X-0.200000X0.275000X-0.200000X0.275000X0.200000X0*%
%TD*%
%TA.AperFunction,SMDPad,CuDef*%
%ADD15R,1.500000X1.500000*%
%TD*%
%TA.AperFunction,SMDPad,CuDef*%
%ADD16C,1.000000*%
%TD*%
%TA.AperFunction,SMDPad,CuDef*%
%ADD17RoundRect,0.250000X-0.375000X-0.625000X0.375000X-0.625000X0.375000X0.625000X-0.375000X0.625000X0*%
%TD*%
%TA.AperFunction,SMDPad,CuDef*%
%ADD18RoundRect,0.112500X0.187500X0.112500X-0.187500X0.112500X-0.187500X-0.112500X0.187500X-0.112500X0*%
%TD*%
%TA.AperFunction,ComponentPad*%
%ADD19R,1.700000X1.700000*%
%TD*%
%TA.AperFunction,ComponentPad*%
%ADD20C,1.700000*%
%TD*%
%TA.AperFunction,SMDPad,CuDef*%
%ADD21RoundRect,0.106500X0.443500X0.248500X-0.443500X0.248500X-0.443500X-0.248500X0.443500X-0.248500X0*%
%TD*%
%TA.AperFunction,SMDPad,CuDef*%
%ADD22RoundRect,0.108000X0.252000X0.252000X-0.252000X0.252000X-0.252000X-0.252000X0.252000X-0.252000X0*%
%TD*%
%TA.AperFunction,SMDPad,CuDef*%
%ADD23RoundRect,0.133200X2.086800X2.126800X-2.086800X2.126800X-2.086800X-2.126800X2.086800X-2.126800X0*%
%TD*%
%TA.AperFunction,SMDPad,CuDef*%
%ADD24RoundRect,0.200000X-0.200000X-0.275000X0.200000X-0.275000X0.200000X0.275000X-0.200000X0.275000X0*%
%TD*%
%TA.AperFunction,SMDPad,CuDef*%
%ADD25RoundRect,0.150000X0.512500X0.150000X-0.512500X0.150000X-0.512500X-0.150000X0.512500X-0.150000X0*%
%TD*%
%TA.AperFunction,SMDPad,CuDef*%
%ADD26RoundRect,0.225000X-0.225000X-0.250000X0.225000X-0.250000X0.225000X0.250000X-0.225000X0.250000X0*%
%TD*%
%TA.AperFunction,SMDPad,CuDef*%
%ADD27RoundRect,0.250000X-0.250000X-0.475000X0.250000X-0.475000X0.250000X0.475000X-0.250000X0.475000X0*%
%TD*%
%TA.AperFunction,SMDPad,CuDef*%
%ADD28RoundRect,0.150000X-0.512500X-0.150000X0.512500X-0.150000X0.512500X0.150000X-0.512500X0.150000X0*%
%TD*%
%TA.AperFunction,SMDPad,CuDef*%
%ADD29RoundRect,0.225000X0.225000X0.250000X-0.225000X0.250000X-0.225000X-0.250000X0.225000X-0.250000X0*%
%TD*%
%TA.AperFunction,SMDPad,CuDef*%
%ADD30RoundRect,0.225000X0.250000X-0.225000X0.250000X0.225000X-0.250000X0.225000X-0.250000X-0.225000X0*%
%TD*%
%TA.AperFunction,SMDPad,CuDef*%
%ADD31RoundRect,0.150000X0.150000X-0.512500X0.150000X0.512500X-0.150000X0.512500X-0.150000X-0.512500X0*%
%TD*%
%TA.AperFunction,ComponentPad*%
%ADD32R,1.800000X1.800000*%
%TD*%
%TA.AperFunction,ComponentPad*%
%ADD33C,1.800000*%
%TD*%
%TA.AperFunction,SMDPad,CuDef*%
%ADD34RoundRect,0.200000X0.200000X0.275000X-0.200000X0.275000X-0.200000X-0.275000X0.200000X-0.275000X0*%
%TD*%
%TA.AperFunction,SMDPad,CuDef*%
%ADD35RoundRect,0.225000X-0.250000X0.225000X-0.250000X-0.225000X0.250000X-0.225000X0.250000X0.225000X0*%
%TD*%
%TA.AperFunction,SMDPad,CuDef*%
%ADD36RoundRect,0.050000X-0.050000X0.250000X-0.050000X-0.250000X0.050000X-0.250000X0.050000X0.250000X0*%
%TD*%
%TA.AperFunction,SMDPad,CuDef*%
%ADD37R,0.725000X0.200000*%
%TD*%
%TA.AperFunction,SMDPad,CuDef*%
%ADD38R,1.450000X2.400000*%
%TD*%
%TA.AperFunction,SMDPad,CuDef*%
%ADD39RoundRect,0.151200X-0.478800X-1.698800X0.478800X-1.698800X0.478800X1.698800X-0.478800X1.698800X0*%
%TD*%
%TA.AperFunction,SMDPad,CuDef*%
%ADD40RoundRect,0.175000X-0.175000X-0.425000X0.175000X-0.425000X0.175000X0.425000X-0.175000X0.425000X0*%
%TD*%
%TA.AperFunction,SMDPad,CuDef*%
%ADD41RoundRect,0.190000X0.190000X0.410000X-0.190000X0.410000X-0.190000X-0.410000X0.190000X-0.410000X0*%
%TD*%
%TA.AperFunction,SMDPad,CuDef*%
%ADD42RoundRect,0.200000X0.200000X0.400000X-0.200000X0.400000X-0.200000X-0.400000X0.200000X-0.400000X0*%
%TD*%
%TA.AperFunction,SMDPad,CuDef*%
%ADD43RoundRect,0.175000X0.175000X0.425000X-0.175000X0.425000X-0.175000X-0.425000X0.175000X-0.425000X0*%
%TD*%
%TA.AperFunction,SMDPad,CuDef*%
%ADD44RoundRect,0.190000X-0.190000X-0.410000X0.190000X-0.410000X0.190000X0.410000X-0.190000X0.410000X0*%
%TD*%
%TA.AperFunction,SMDPad,CuDef*%
%ADD45RoundRect,0.200000X-0.200000X-0.400000X0.200000X-0.400000X0.200000X0.400000X-0.200000X0.400000X0*%
%TD*%
%TA.AperFunction,ComponentPad*%
%ADD46O,1.100000X1.700000*%
%TD*%
%TA.AperFunction,SMDPad,CuDef*%
%ADD47RoundRect,0.150000X-0.150000X0.512500X-0.150000X-0.512500X0.150000X-0.512500X0.150000X0.512500X0*%
%TD*%
%TA.AperFunction,SMDPad,CuDef*%
%ADD48RoundRect,0.250000X-0.312500X-0.625000X0.312500X-0.625000X0.312500X0.625000X-0.312500X0.625000X0*%
%TD*%
%TA.AperFunction,SMDPad,CuDef*%
%ADD49RoundRect,0.218750X-0.218750X-0.256250X0.218750X-0.256250X0.218750X0.256250X-0.218750X0.256250X0*%
%TD*%
%TA.AperFunction,SMDPad,CuDef*%
%ADD50RoundRect,0.106500X-0.443500X-0.248500X0.443500X-0.248500X0.443500X0.248500X-0.443500X0.248500X0*%
%TD*%
%TA.AperFunction,SMDPad,CuDef*%
%ADD51RoundRect,0.108000X-0.252000X-0.252000X0.252000X-0.252000X0.252000X0.252000X-0.252000X0.252000X0*%
%TD*%
%TA.AperFunction,SMDPad,CuDef*%
%ADD52RoundRect,0.133200X-2.086800X-2.126800X2.086800X-2.126800X2.086800X2.126800X-2.086800X2.126800X0*%
%TD*%
%TA.AperFunction,SMDPad,CuDef*%
%ADD53RoundRect,0.250000X0.250000X0.475000X-0.250000X0.475000X-0.250000X-0.475000X0.250000X-0.475000X0*%
%TD*%
%TA.AperFunction,SMDPad,CuDef*%
%ADD54RoundRect,0.150000X-0.150000X-0.700000X0.150000X-0.700000X0.150000X0.700000X-0.150000X0.700000X0*%
%TD*%
%TA.AperFunction,SMDPad,CuDef*%
%ADD55RoundRect,0.250000X-0.250000X-1.150000X0.250000X-1.150000X0.250000X1.150000X-0.250000X1.150000X0*%
%TD*%
%TA.AperFunction,SMDPad,CuDef*%
%ADD56RoundRect,0.250000X-0.362500X-1.425000X0.362500X-1.425000X0.362500X1.425000X-0.362500X1.425000X0*%
%TD*%
%TA.AperFunction,ComponentPad*%
%ADD57RoundRect,0.250000X-0.600000X-0.725000X0.600000X-0.725000X0.600000X0.725000X-0.600000X0.725000X0*%
%TD*%
%TA.AperFunction,ComponentPad*%
%ADD58O,1.700000X1.950000*%
%TD*%
%TA.AperFunction,SMDPad,CuDef*%
%ADD59RoundRect,0.150000X-0.150000X0.875000X-0.150000X-0.875000X0.150000X-0.875000X0.150000X0.875000X0*%
%TD*%
%TA.AperFunction,SMDPad,CuDef*%
%ADD60RoundRect,0.250000X0.475000X-0.250000X0.475000X0.250000X-0.475000X0.250000X-0.475000X-0.250000X0*%
%TD*%
%TA.AperFunction,SMDPad,CuDef*%
%ADD61RoundRect,0.150000X-0.600000X-1.100000X0.600000X-1.100000X0.600000X1.100000X-0.600000X1.100000X0*%
%TD*%
%TA.AperFunction,SMDPad,CuDef*%
%ADD62RoundRect,0.249999X-0.450001X-1.850001X0.450001X-1.850001X0.450001X1.850001X-0.450001X1.850001X0*%
%TD*%
%TA.AperFunction,SMDPad,CuDef*%
%ADD63RoundRect,0.062500X-0.350000X-0.062500X0.350000X-0.062500X0.350000X0.062500X-0.350000X0.062500X0*%
%TD*%
%TA.AperFunction,SMDPad,CuDef*%
%ADD64RoundRect,0.062500X-0.062500X-0.350000X0.062500X-0.350000X0.062500X0.350000X-0.062500X0.350000X0*%
%TD*%
%TA.AperFunction,HeatsinkPad*%
%ADD65R,2.700000X2.700000*%
%TD*%
%TA.AperFunction,SMDPad,CuDef*%
%ADD66RoundRect,0.075000X0.650000X0.075000X-0.650000X0.075000X-0.650000X-0.075000X0.650000X-0.075000X0*%
%TD*%
%TA.AperFunction,ViaPad*%
%ADD67C,0.600000*%
%TD*%
%TA.AperFunction,ViaPad*%
%ADD68C,1.000000*%
%TD*%
%TA.AperFunction,ViaPad*%
%ADD69C,0.800000*%
%TD*%
%TA.AperFunction,ViaPad*%
%ADD70C,0.700000*%
%TD*%
%TA.AperFunction,Conductor*%
%ADD71C,0.500000*%
%TD*%
%TA.AperFunction,Conductor*%
%ADD72C,1.000000*%
%TD*%
%TA.AperFunction,Conductor*%
%ADD73C,0.750000*%
%TD*%
%TA.AperFunction,Conductor*%
%ADD74C,0.250200*%
%TD*%
%TA.AperFunction,Conductor*%
%ADD75C,0.761200*%
%TD*%
G04 APERTURE END LIST*
%TO.N,CHG_IN*%
D10*
X29200000Y-31100000D02*
X28400000Y-30800000D01*
X29200000Y-31100000D02*
X28500000Y-30600000D01*
X29300000Y-31700000D02*
X29200000Y-31100000D01*
%TD*%
D11*
%TO.P,R3,1*%
%TO.N,ILIM*%
X25000000Y-35800000D03*
%TO.P,R3,2*%
%TO.N,GND*%
X25000000Y-34150000D03*
%TD*%
D12*
%TO.P,U6,1*%
%TO.N,+3V3_SW_LOGIC*%
X156400000Y-20200000D03*
%TO.P,U6,2*%
%TO.N,N/C*%
X156400000Y-20700000D03*
%TO.P,U6,3*%
%TO.N,GND*%
X156400000Y-21200000D03*
%TO.P,U6,4*%
%TO.N,AIN4*%
X156400000Y-21700000D03*
%TO.P,U6,5*%
%TO.N,AIN5*%
X156400000Y-22200000D03*
%TO.P,U6,6*%
%TO.N,AIN6*%
X160700000Y-22200000D03*
%TO.P,U6,7*%
%TO.N,AIN7*%
X160700000Y-21700000D03*
%TO.P,U6,8*%
%TO.N,+3V3_SW_LOGIC*%
X160700000Y-21200000D03*
%TO.P,U6,9*%
%TO.N,I2C_SDA*%
X160700000Y-20700000D03*
%TO.P,U6,10*%
%TO.N,I2C_SCL*%
X160700000Y-20200000D03*
%TD*%
D13*
%TO.P,C5,1*%
%TO.N,BAT_SYS*%
X37800000Y-37300000D03*
%TO.P,C5,2*%
%TO.N,GND*%
X37800000Y-39200000D03*
%TD*%
D14*
%TO.P,R33,1*%
%TO.N,MCP_GPB2*%
X148600000Y-25600000D03*
%TO.P,R33,2*%
%TO.N,EXP_GPB2*%
X148600000Y-27250000D03*
%TD*%
D11*
%TO.P,R49,1*%
%TO.N,DO_GATE*%
X12400000Y-30250000D03*
%TO.P,R49,2*%
%TO.N,FET_SRC_COMMON*%
X12400000Y-28600000D03*
%TD*%
%TO.P,R39,1*%
%TO.N,MCP_A0*%
X135200000Y-43650000D03*
%TO.P,R39,2*%
%TO.N,GND*%
X135200000Y-42000000D03*
%TD*%
D15*
%TO.P,J926,1*%
%TO.N,MCP_INTB*%
X147200000Y-56800000D03*
%TD*%
D11*
%TO.P,R8,1*%
%TO.N,+5V*%
X16100000Y-59850000D03*
%TO.P,R8,2*%
%TO.N,FB_5V*%
X16100000Y-58200000D03*
%TD*%
D15*
%TO.P,J93,1*%
%TO.N,EXP_GPA2*%
X126000000Y-14400000D03*
%TD*%
D16*
%TO.P,TP5,1*%
%TO.N,BAT_SYS*%
X24800000Y-47600000D03*
%TD*%
D11*
%TO.P,R28,1*%
%TO.N,MCP_GPA5*%
X149200000Y-43650000D03*
%TO.P,R28,2*%
%TO.N,EXP_GPA5*%
X149200000Y-42000000D03*
%TD*%
D17*
%TO.P,F1,1*%
%TO.N,USB_VBUS*%
X19200000Y-40000000D03*
%TO.P,F1,2*%
%TO.N,CHG_IN*%
X22000000Y-40000000D03*
%TD*%
D18*
%TO.P,D1,1*%
%TO.N,CHG_IN*%
X20600000Y-71700000D03*
%TO.P,D1,2*%
%TO.N,GND*%
X18500000Y-71700000D03*
%TD*%
D19*
%TO.P,J5,1*%
%TO.N,+3V3_SW*%
X122600000Y-24800000D03*
D20*
%TO.P,J5,2*%
%TO.N,GND*%
X122600000Y-27340000D03*
%TO.P,J5,3*%
%TO.N,I2C_SDA*%
X122600000Y-29880000D03*
%TO.P,J5,4*%
%TO.N,I2C_SCL*%
X122600000Y-32420000D03*
%TD*%
D21*
%TO.P,Q2,1*%
%TO.N,FET_SRC_COMMON*%
X14750000Y-27600000D03*
%TO.P,Q2,2*%
X14750000Y-28870000D03*
%TO.P,Q2,3*%
X14750000Y-30140000D03*
%TO.P,Q2,4*%
%TO.N,DO_GATE*%
X14750000Y-31410000D03*
D22*
%TO.P,Q2,5*%
%TO.N,FET_BATT_P*%
X20000000Y-31410000D03*
D23*
X17950000Y-29505000D03*
D22*
%TO.P,Q2,6*%
X20000000Y-30140000D03*
%TO.P,Q2,7*%
X20000000Y-28870000D03*
%TO.P,Q2,8*%
X20000000Y-27600000D03*
%TD*%
D15*
%TO.P,J35,1*%
%TO.N,GPIO2*%
X117200000Y-30200000D03*
%TD*%
D16*
%TO.P,TP7,1*%
%TO.N,+3V3*%
X102900000Y-33600000D03*
%TD*%
D24*
%TO.P,TH1,1*%
%TO.N,TS*%
X32750000Y-40800000D03*
%TO.P,TH1,2*%
%TO.N,GND*%
X34400000Y-40800000D03*
%TD*%
D15*
%TO.P,J912,1*%
%TO.N,EXP_GPB3*%
X157400000Y-63800000D03*
%TD*%
D16*
%TO.P,TP15,1*%
%TO.N,AIN4*%
X158600000Y-13300000D03*
%TD*%
D25*
%TO.P,D5,1*%
%TO.N,EXP_GPA4*%
X131675000Y-43750000D03*
%TO.P,D5,2*%
%TO.N,GND*%
X131675000Y-42800000D03*
%TO.P,D5,3*%
%TO.N,EXP_GPA5*%
X131675000Y-41850000D03*
%TO.P,D5,4*%
%TO.N,EXP_GPA6*%
X129400000Y-41850000D03*
%TO.P,D5,5*%
%TO.N,+3V3_SW_LOGIC*%
X129400000Y-42800000D03*
%TO.P,D5,6*%
%TO.N,EXP_GPA7*%
X129400000Y-43750000D03*
%TD*%
D15*
%TO.P,J927,1*%
%TO.N,MCP_RESET*%
X147200000Y-64800000D03*
%TD*%
D26*
%TO.P,C8,1*%
%TO.N,CBSET*%
X29225000Y-43500000D03*
%TO.P,C8,2*%
%TO.N,GND*%
X30775000Y-43500000D03*
%TD*%
D16*
%TO.P,TP17,1*%
%TO.N,AIN6*%
X158600000Y-16600000D03*
%TD*%
D15*
%TO.P,J99,1*%
%TO.N,EXP_GPB0*%
X122600000Y-14400000D03*
%TD*%
%TO.P,J94,1*%
%TO.N,EXP_GPA3*%
X162000000Y-57800000D03*
%TD*%
D27*
%TO.P,C3,1*%
%TO.N,PMID*%
X29500000Y-29400000D03*
%TO.P,C3,2*%
%TO.N,GND*%
X31400000Y-29400000D03*
%TD*%
D25*
%TO.P,D7,1*%
%TO.N,EXP_GPB4*%
X131600000Y-35800000D03*
%TO.P,D7,2*%
%TO.N,GND*%
X131600000Y-34850000D03*
%TO.P,D7,3*%
%TO.N,EXP_GPB5*%
X131600000Y-33900000D03*
%TO.P,D7,4*%
%TO.N,EXP_GPB6*%
X129325000Y-33900000D03*
%TO.P,D7,5*%
%TO.N,+3V3_SW_LOGIC*%
X129325000Y-34850000D03*
%TO.P,D7,6*%
%TO.N,EXP_GPB7*%
X129325000Y-35800000D03*
%TD*%
D28*
%TO.P,U4,1*%
%TO.N,FB_3V3*%
X81125000Y-22800000D03*
%TO.P,U4,2*%
%TO.N,EN_3V3*%
X81125000Y-23750000D03*
%TO.P,U4,3*%
%TO.N,BAT_SYS*%
X81125000Y-24700000D03*
%TO.P,U4,4*%
%TO.N,GND*%
X83400000Y-24700000D03*
%TO.P,U4,5*%
%TO.N,SW_3V3*%
X83400000Y-23750000D03*
%TO.P,U4,6*%
%TO.N,BST_3V3*%
X83400000Y-22800000D03*
%TD*%
D11*
%TO.P,R50,1*%
%TO.N,CO_GATE*%
X28100000Y-49450000D03*
%TO.P,R50,2*%
%TO.N,FET_SRC_COMMON*%
X28100000Y-47800000D03*
%TD*%
D15*
%TO.P,J39,1*%
%TO.N,GND*%
X58500000Y-30000000D03*
%TD*%
D11*
%TO.P,R32,1*%
%TO.N,MCP_GPB1*%
X151400000Y-27250000D03*
%TO.P,R32,2*%
%TO.N,EXP_GPB1*%
X151400000Y-25600000D03*
%TD*%
D17*
%TO.P,F2,1*%
%TO.N,CELL1_P*%
X19200000Y-36200000D03*
%TO.P,F2,2*%
%TO.N,CELL_MID*%
X22000000Y-36200000D03*
%TD*%
D15*
%TO.P,J30,1*%
%TO.N,+5V_SW*%
X58500000Y-15000000D03*
%TD*%
D29*
%TO.P,C25,1*%
%TO.N,PROT_VDD*%
X66250000Y-25500000D03*
%TO.P,C25,2*%
%TO.N,PROT_VC*%
X64700000Y-25500000D03*
%TD*%
D14*
%TO.P,R24,1*%
%TO.N,MCP_GPA1*%
X132700000Y-21050000D03*
%TO.P,R24,2*%
%TO.N,EXP_GPA1*%
X132700000Y-22700000D03*
%TD*%
D11*
%TO.P,R9,1*%
%TO.N,FB_5V*%
X21000000Y-57050000D03*
%TO.P,R9,2*%
%TO.N,GND*%
X21000000Y-55400000D03*
%TD*%
D15*
%TO.P,J96,1*%
%TO.N,EXP_GPA5*%
X162000000Y-47800000D03*
%TD*%
D24*
%TO.P,R16,1*%
%TO.N,BAT_SYS*%
X42250000Y-38600000D03*
%TO.P,R16,2*%
%TO.N,BQ_PACK*%
X43900000Y-38600000D03*
%TD*%
%TO.P,R11,1*%
%TO.N,+3V3*%
X79175000Y-29000000D03*
%TO.P,R11,2*%
%TO.N,FB_3V3*%
X80825000Y-29000000D03*
%TD*%
D30*
%TO.P,C32,1*%
%TO.N,BAT_SYS*%
X38500000Y-49350000D03*
%TO.P,C32,2*%
%TO.N,FET_SRC_COMMON*%
X38500000Y-47800000D03*
%TD*%
D31*
%TO.P,U3,1*%
%TO.N,FB_5V*%
X25500000Y-57475000D03*
%TO.P,U3,2*%
%TO.N,EN_5V*%
X26450000Y-57475000D03*
%TO.P,U3,3*%
%TO.N,BAT_SYS*%
X27400000Y-57475000D03*
%TO.P,U3,4*%
%TO.N,GND*%
X27400000Y-55200000D03*
%TO.P,U3,5*%
%TO.N,SW_5V*%
X26450000Y-55200000D03*
%TO.P,U3,6*%
%TO.N,BST_5V*%
X25500000Y-55200000D03*
%TD*%
D11*
%TO.P,R41,1*%
%TO.N,MCP_A2*%
X138000000Y-46800000D03*
%TO.P,R41,2*%
%TO.N,GND*%
X138000000Y-45150000D03*
%TD*%
D24*
%TO.P,R7,1*%
%TO.N,REGN*%
X46650000Y-36200000D03*
%TO.P,R7,2*%
%TO.N,LED_PGOOD_A*%
X48300000Y-36200000D03*
%TD*%
D15*
%TO.P,J915,1*%
%TO.N,EXP_GPB6*%
X157400000Y-68800000D03*
%TD*%
D26*
%TO.P,C12,1*%
%TO.N,BAT_SYS*%
X25050000Y-61000000D03*
%TO.P,C12,2*%
%TO.N,GND*%
X26600000Y-61000000D03*
%TD*%
D15*
%TO.P,J92,1*%
%TO.N,EXP_GPA1*%
X119200000Y-14400000D03*
%TD*%
D32*
%TO.P,SW1,1*%
%TO.N,+5V*%
X39650000Y-12380000D03*
D33*
X39650000Y-14920000D03*
%TO.P,SW1,2*%
%TO.N,+5V_SW*%
X52350000Y-12380000D03*
X52350000Y-14920000D03*
%TO.P,SW1,3*%
%TO.N,GND*%
X39650000Y-17460000D03*
X39650000Y-20000000D03*
X52350000Y-17460000D03*
X52350000Y-20000000D03*
%TO.P,SW1,4*%
%TO.N,CTRL_5V_SW*%
X39650000Y-27620000D03*
%TD*%
D15*
%TO.P,J34,1*%
%TO.N,I2C_SCL*%
X117200000Y-25200000D03*
%TD*%
D11*
%TO.P,R30,1*%
%TO.N,MCP_GPA7*%
X154800000Y-43650000D03*
%TO.P,R30,2*%
%TO.N,EXP_GPA7*%
X154800000Y-42000000D03*
%TD*%
D15*
%TO.P,J916,1*%
%TO.N,EXP_GPB7*%
X161800000Y-68800000D03*
%TD*%
D11*
%TO.P,R44,1*%
%TO.N,+3V3_SW_LOGIC*%
X140800000Y-43650000D03*
%TO.P,R44,2*%
%TO.N,MCP_INTB*%
X140800000Y-42000000D03*
%TD*%
D16*
%TO.P,TP18,1*%
%TO.N,AIN7*%
X162400000Y-16600000D03*
%TD*%
D34*
%TO.P,R5,1*%
%TO.N,REGN*%
X29650000Y-39400000D03*
%TO.P,R5,2*%
%TO.N,TS*%
X28000000Y-39400000D03*
%TD*%
D32*
%TO.P,SW2,1*%
%TO.N,+3V3*%
X82900000Y-31800000D03*
D33*
X82900000Y-34340000D03*
%TO.P,SW2,2*%
%TO.N,+3V3_SW*%
X95600000Y-31800000D03*
X95600000Y-34340000D03*
%TO.P,SW2,3*%
%TO.N,GND*%
X82900000Y-36880000D03*
X82900000Y-39420000D03*
X95600000Y-36880000D03*
X95600000Y-39420000D03*
%TO.P,SW2,4*%
%TO.N,CTRL_3V3_SW*%
X82900000Y-47040000D03*
%TD*%
D15*
%TO.P,J928,1*%
%TO.N,+3V3_SW_LOGIC*%
X147000000Y-68800000D03*
%TD*%
%TO.P,J38,1*%
%TO.N,GPIO21*%
X117200000Y-45200000D03*
%TD*%
D35*
%TO.P,C4,1*%
%TO.N,PMID*%
X27000000Y-25250000D03*
%TO.P,C4,2*%
%TO.N,GND*%
X27000000Y-26800000D03*
%TD*%
D14*
%TO.P,R34,1*%
%TO.N,MCP_GPB3*%
X146200000Y-25600000D03*
%TO.P,R34,2*%
%TO.N,EXP_GPB3*%
X146200000Y-27250000D03*
%TD*%
D26*
%TO.P,C9,1*%
%TO.N,BATT_RAW_P*%
X36225000Y-43500000D03*
%TO.P,C9,2*%
%TO.N,CELL_MID*%
X37775000Y-43500000D03*
%TD*%
D15*
%TO.P,J913,1*%
%TO.N,EXP_GPB4*%
X161800000Y-63800000D03*
%TD*%
%TO.P,J929,1*%
%TO.N,GND*%
X147000000Y-72800000D03*
%TD*%
D16*
%TO.P,TP4,1*%
%TO.N,CELL_MID*%
X41400000Y-57800000D03*
%TD*%
D15*
%TO.P,J33,1*%
%TO.N,I2C_SDA*%
X117200000Y-20200000D03*
%TD*%
D36*
%TO.P,U2,1*%
%TO.N,BATT_RAW_N*%
X65662500Y-29550000D03*
%TO.P,U2,2*%
%TO.N,BQ_SRN*%
X65262500Y-29550000D03*
%TO.P,U2,3*%
%TO.N,BQ_SRP*%
X64862500Y-29550000D03*
%TO.P,U2,4*%
%TO.N,TS*%
X64462500Y-29550000D03*
%TO.P,U2,5*%
%TO.N,I2C_SCL*%
X64062500Y-29550000D03*
%TO.P,U2,6*%
%TO.N,I2C_SDA*%
X63662500Y-29550000D03*
%TO.P,U2,7*%
%TO.N,BQ_DSG*%
X63662500Y-32750000D03*
%TO.P,U2,8*%
%TO.N,BQ_PACK*%
X64062500Y-32750000D03*
%TO.P,U2,9*%
%TO.N,BQ_CHG*%
X64462500Y-32750000D03*
%TO.P,U2,10*%
%TO.N,BQ_PBI*%
X64862500Y-32750000D03*
%TO.P,U2,11*%
%TO.N,PROT_VDD*%
X65262500Y-32750000D03*
%TO.P,U2,12*%
%TO.N,PROT_VC*%
X65662500Y-32750000D03*
D37*
%TO.P,U2,13*%
%TO.N,BATT_RAW_N*%
X65750000Y-30050000D03*
X63575000Y-30050000D03*
D38*
X64662500Y-31150000D03*
D37*
X65750000Y-32250000D03*
X63575000Y-32250000D03*
%TD*%
D11*
%TO.P,R29,1*%
%TO.N,MCP_GPA6*%
X152000000Y-43650000D03*
%TO.P,R29,2*%
%TO.N,EXP_GPA6*%
X152000000Y-42000000D03*
%TD*%
D26*
%TO.P,C6,1*%
%TO.N,REGN*%
X42450000Y-33900000D03*
%TO.P,C6,2*%
%TO.N,GND*%
X44000000Y-33900000D03*
%TD*%
D39*
%TO.P,L1,1*%
%TO.N,SW_5V*%
X19020000Y-61600000D03*
%TO.P,L1,2*%
%TO.N,+5V*%
X22780000Y-61600000D03*
%TD*%
D26*
%TO.P,C28,1*%
%TO.N,+3V3_SW_LOGIC*%
X142225000Y-54000000D03*
%TO.P,C28,2*%
%TO.N,GND*%
X143775000Y-54000000D03*
%TD*%
D24*
%TO.P,R2,1*%
%TO.N,CC2*%
X78150000Y-45000000D03*
%TO.P,R2,2*%
%TO.N,GND*%
X79800000Y-45000000D03*
%TD*%
D15*
%TO.P,J98,1*%
%TO.N,EXP_GPA7*%
X162000000Y-37800000D03*
%TD*%
D40*
%TO.P,J1,A5*%
%TO.N,CC1*%
X75780000Y-50120000D03*
D41*
%TO.P,J1,A9*%
%TO.N,USB_VBUS*%
X77800000Y-50120000D03*
D42*
%TO.P,J1,A12*%
%TO.N,GND*%
X79030000Y-50120000D03*
D43*
%TO.P,J1,B5*%
%TO.N,CC2*%
X76780000Y-50120000D03*
D44*
%TO.P,J1,B9*%
%TO.N,USB_VBUS*%
X74760000Y-50120000D03*
D45*
%TO.P,J1,B12*%
%TO.N,GND*%
X73530000Y-50120000D03*
D46*
%TO.P,J1,SH*%
X71960000Y-50200000D03*
X71960000Y-54000000D03*
X80600000Y-50200000D03*
X80600000Y-54000000D03*
%TD*%
D11*
%TO.P,R23,1*%
%TO.N,MCP_GPA0*%
X146400000Y-43650000D03*
%TO.P,R23,2*%
%TO.N,EXP_GPA0*%
X146400000Y-42000000D03*
%TD*%
D47*
%TO.P,D4,1*%
%TO.N,EXP_GPA0*%
X139700000Y-20725000D03*
%TO.P,D4,2*%
%TO.N,GND*%
X138750000Y-20725000D03*
%TO.P,D4,3*%
%TO.N,EXP_GPA1*%
X137800000Y-20725000D03*
%TO.P,D4,4*%
%TO.N,EXP_GPA2*%
X137800000Y-23000000D03*
%TO.P,D4,5*%
%TO.N,+3V3_SW_LOGIC*%
X138750000Y-23000000D03*
%TO.P,D4,6*%
%TO.N,EXP_GPA3*%
X139700000Y-23000000D03*
%TD*%
D19*
%TO.P,J6,1*%
%TO.N,GPIO14*%
X123000000Y-38860000D03*
D20*
%TO.P,J6,2*%
%TO.N,GPIO21*%
X123000000Y-41400000D03*
%TD*%
D16*
%TO.P,TP11,1*%
%TO.N,PG_STAT*%
X61500000Y-41200000D03*
%TD*%
%TO.P,TP16,1*%
%TO.N,AIN5*%
X162400000Y-13300000D03*
%TD*%
%TO.P,TP2,1*%
%TO.N,CHG_IN*%
X24800000Y-39800000D03*
%TD*%
D34*
%TO.P,R20,1*%
%TO.N,I2C_SCL*%
X126650000Y-18200000D03*
%TO.P,R20,2*%
%TO.N,+3V3_SW_LOGIC*%
X125000000Y-18200000D03*
%TD*%
D15*
%TO.P,J911,1*%
%TO.N,EXP_GPB2*%
X129400000Y-14400000D03*
%TD*%
%TO.P,J36,1*%
%TO.N,GPIO3*%
X117200000Y-35200000D03*
%TD*%
%TO.P,J910,1*%
%TO.N,EXP_GPB1*%
X132800000Y-14400000D03*
%TD*%
%TO.P,J31,1*%
%TO.N,UART_TX*%
X58500000Y-20000000D03*
%TD*%
D48*
%TO.P,R46,1*%
%TO.N,BATT_RAW_N*%
X52400000Y-46300000D03*
%TO.P,R46,2*%
%TO.N,GND*%
X55325000Y-46300000D03*
%TD*%
D14*
%TO.P,R36,1*%
%TO.N,MCP_GPB5*%
X143800000Y-25600000D03*
%TO.P,R36,2*%
%TO.N,EXP_GPB5*%
X143800000Y-27250000D03*
%TD*%
D26*
%TO.P,C10,1*%
%TO.N,CELL_MID*%
X51650000Y-36100000D03*
%TO.P,C10,2*%
%TO.N,BATT_RAW_N*%
X53200000Y-36100000D03*
%TD*%
D49*
%TO.P,D3,1*%
%TO.N,LED_PGOOD_A*%
X23325000Y-75400000D03*
%TO.P,D3,2*%
%TO.N,PG_STAT*%
X24900000Y-75400000D03*
%TD*%
D27*
%TO.P,C11,1*%
%TO.N,BAT_SYS*%
X24900000Y-64700000D03*
%TO.P,C11,2*%
%TO.N,GND*%
X26800000Y-64700000D03*
%TD*%
D49*
%TO.P,D2,1*%
%TO.N,LED_CHG_A*%
X19025000Y-75300000D03*
%TO.P,D2,2*%
%TO.N,CHG_STAT*%
X20600000Y-75300000D03*
%TD*%
D16*
%TO.P,TP13,1*%
%TO.N,BATT_RAW_P*%
X61900000Y-52500000D03*
%TD*%
D26*
%TO.P,C24,1*%
%TO.N,BST_3V3*%
X89150000Y-19400000D03*
%TO.P,C24,2*%
%TO.N,SW_3V3*%
X90700000Y-19400000D03*
%TD*%
D24*
%TO.P,R19,1*%
%TO.N,I2C_SDA*%
X159150000Y-26000000D03*
%TO.P,R19,2*%
%TO.N,+3V3_SW_LOGIC*%
X160800000Y-26000000D03*
%TD*%
D14*
%TO.P,R42,1*%
%TO.N,+3V3_SW_LOGIC*%
X151000000Y-55800000D03*
%TO.P,R42,2*%
%TO.N,MCP_RESET*%
X151000000Y-57450000D03*
%TD*%
D50*
%TO.P,Q1,1*%
%TO.N,FET_SRC_COMMON*%
X35250000Y-50410000D03*
%TO.P,Q1,2*%
X35250000Y-49140000D03*
%TO.P,Q1,3*%
X35250000Y-47870000D03*
%TO.P,Q1,4*%
%TO.N,CO_GATE*%
X35250000Y-46600000D03*
D51*
%TO.P,Q1,5*%
%TO.N,BAT_SYS*%
X30000000Y-46600000D03*
D52*
X32050000Y-48505000D03*
D51*
%TO.P,Q1,6*%
X30000000Y-47870000D03*
%TO.P,Q1,7*%
X30000000Y-49140000D03*
%TO.P,Q1,8*%
X30000000Y-50410000D03*
%TD*%
D13*
%TO.P,C22,1*%
%TO.N,+3V3*%
X87100000Y-14700000D03*
%TO.P,C22,2*%
%TO.N,GND*%
X87100000Y-16600000D03*
%TD*%
D53*
%TO.P,C14,1*%
%TO.N,+5V*%
X32100000Y-64700000D03*
%TO.P,C14,2*%
%TO.N,GND*%
X30200000Y-64700000D03*
%TD*%
D34*
%TO.P,R10,1*%
%TO.N,EN_5V*%
X26650000Y-69500000D03*
%TO.P,R10,2*%
%TO.N,BAT_SYS*%
X25000000Y-69500000D03*
%TD*%
D25*
%TO.P,D6,1*%
%TO.N,EXP_GPB0*%
X131600000Y-28200000D03*
%TO.P,D6,2*%
%TO.N,GND*%
X131600000Y-27250000D03*
%TO.P,D6,3*%
%TO.N,EXP_GPB1*%
X131600000Y-26300000D03*
%TO.P,D6,4*%
%TO.N,EXP_GPB2*%
X129325000Y-26300000D03*
%TO.P,D6,5*%
%TO.N,+3V3_SW_LOGIC*%
X129325000Y-27250000D03*
%TO.P,D6,6*%
%TO.N,EXP_GPB3*%
X129325000Y-28200000D03*
%TD*%
D54*
%TO.P,J41,1*%
%TO.N,GND*%
X137750000Y-15950000D03*
%TO.P,J41,2*%
%TO.N,AIN2*%
X139000000Y-15950000D03*
%TO.P,J41,3*%
%TO.N,+3V3_SW*%
X140250000Y-15950000D03*
D55*
%TO.P,J41,MP*%
%TO.N,N/C*%
X135900000Y-12600000D03*
X142100000Y-12600000D03*
%TD*%
D56*
%TO.P,R4,1*%
%TO.N,CBSET*%
X44775000Y-51600000D03*
%TO.P,R4,2*%
%TO.N,CELL_MID*%
X50700000Y-51600000D03*
%TD*%
D17*
%TO.P,F4,1*%
%TO.N,FET_BATT_P*%
X19400000Y-47800000D03*
%TO.P,F4,2*%
%TO.N,BATT_RAW_P*%
X22200000Y-47800000D03*
%TD*%
D34*
%TO.P,R1,1*%
%TO.N,CC1*%
X74025000Y-45000000D03*
%TO.P,R1,2*%
%TO.N,GND*%
X72375000Y-45000000D03*
%TD*%
D26*
%TO.P,C15,1*%
%TO.N,BST_5V*%
X25250000Y-51900000D03*
%TO.P,C15,2*%
%TO.N,SW_5V*%
X26800000Y-51900000D03*
%TD*%
D16*
%TO.P,TP12,1*%
%TO.N,BATT_RAW_N*%
X58600000Y-44400000D03*
%TD*%
D14*
%TO.P,R14,1*%
%TO.N,BATT_RAW_P*%
X53500000Y-38850000D03*
%TO.P,R14,2*%
%TO.N,PROT_VDD*%
X53500000Y-40500000D03*
%TD*%
D24*
%TO.P,R45,1*%
%TO.N,+3V3_SW*%
X155975000Y-26000000D03*
%TO.P,R45,2*%
%TO.N,+3V3_SW_LOGIC*%
X157625000Y-26000000D03*
%TD*%
D17*
%TO.P,F3,1*%
%TO.N,CELL2_P*%
X19200000Y-44000000D03*
%TO.P,F3,2*%
%TO.N,BATT_RAW_P*%
X22000000Y-44000000D03*
%TD*%
D26*
%TO.P,C17,1*%
%TO.N,+3V3_SW_LOGIC*%
X136925000Y-50400000D03*
%TO.P,C17,2*%
%TO.N,GND*%
X138475000Y-50400000D03*
%TD*%
D14*
%TO.P,R38,1*%
%TO.N,MCP_GPB7*%
X141200000Y-25600000D03*
%TO.P,R38,2*%
%TO.N,EXP_GPB7*%
X141200000Y-27250000D03*
%TD*%
D11*
%TO.P,R43,1*%
%TO.N,+3V3_SW_LOGIC*%
X143600000Y-43650000D03*
%TO.P,R43,2*%
%TO.N,MCP_INTA*%
X143600000Y-42000000D03*
%TD*%
D16*
%TO.P,TP6,1*%
%TO.N,+5V*%
X36800000Y-57800000D03*
%TD*%
%TO.P,TP14,1*%
%TO.N,GND*%
X16300000Y-54700000D03*
%TD*%
D26*
%TO.P,C2,1*%
%TO.N,CHG_IN*%
X35250000Y-31600000D03*
%TO.P,C2,2*%
%TO.N,GND*%
X36800000Y-31600000D03*
%TD*%
D24*
%TO.P,R12,1*%
%TO.N,FB_3V3*%
X84175000Y-29000000D03*
%TO.P,R12,2*%
%TO.N,GND*%
X85825000Y-29000000D03*
%TD*%
D57*
%TO.P,J7,1*%
%TO.N,BATT_RAW_N*%
X70600000Y-16500000D03*
D58*
%TO.P,J7,2*%
%TO.N,CELL_MID*%
X68100000Y-16500000D03*
%TO.P,J7,3*%
%TO.N,BATT_RAW_P*%
X65600000Y-16500000D03*
%TD*%
D30*
%TO.P,C7,1*%
%TO.N,BTST*%
X34600000Y-35200000D03*
%TO.P,C7,2*%
%TO.N,CHG_SW*%
X34600000Y-33650000D03*
%TD*%
D59*
%TO.P,U7,1*%
%TO.N,MCP_GPB0*%
X152200000Y-30000000D03*
%TO.P,U7,2*%
%TO.N,MCP_GPB1*%
X150930000Y-30000000D03*
%TO.P,U7,3*%
%TO.N,MCP_GPB2*%
X149660000Y-30000000D03*
%TO.P,U7,4*%
%TO.N,MCP_GPB3*%
X148390000Y-30000000D03*
%TO.P,U7,5*%
%TO.N,MCP_GPB4*%
X147120000Y-30000000D03*
%TO.P,U7,6*%
%TO.N,MCP_GPB5*%
X145850000Y-30000000D03*
%TO.P,U7,7*%
%TO.N,MCP_GPB6*%
X144580000Y-30000000D03*
%TO.P,U7,8*%
%TO.N,MCP_GPB7*%
X143310000Y-30000000D03*
%TO.P,U7,9*%
%TO.N,+3V3_SW_LOGIC*%
X142040000Y-30000000D03*
%TO.P,U7,10*%
%TO.N,GND*%
X140770000Y-30000000D03*
%TO.P,U7,12*%
%TO.N,I2C_SCL*%
X138230000Y-30000000D03*
%TO.P,U7,13*%
%TO.N,I2C_SDA*%
X136960000Y-30000000D03*
%TO.P,U7,15*%
%TO.N,MCP_A0*%
X135690000Y-39300000D03*
%TO.P,U7,16*%
%TO.N,MCP_A1*%
X136960000Y-39300000D03*
%TO.P,U7,17*%
%TO.N,MCP_A2*%
X138230000Y-39300000D03*
%TO.P,U7,18*%
%TO.N,MCP_RESET*%
X139500000Y-39300000D03*
%TO.P,U7,19*%
%TO.N,MCP_INTB*%
X140770000Y-39300000D03*
%TO.P,U7,20*%
%TO.N,MCP_INTA*%
X142040000Y-39300000D03*
%TO.P,U7,21*%
%TO.N,MCP_GPA0*%
X143310000Y-39300000D03*
%TO.P,U7,22*%
%TO.N,MCP_GPA1*%
X144580000Y-39300000D03*
%TO.P,U7,23*%
%TO.N,MCP_GPA2*%
X145850000Y-39300000D03*
%TO.P,U7,24*%
%TO.N,MCP_GPA3*%
X147120000Y-39300000D03*
%TO.P,U7,25*%
%TO.N,MCP_GPA4*%
X148390000Y-39300000D03*
%TO.P,U7,26*%
%TO.N,MCP_GPA5*%
X149660000Y-39300000D03*
%TO.P,U7,27*%
%TO.N,MCP_GPA6*%
X150930000Y-39300000D03*
%TO.P,U7,28*%
%TO.N,MCP_GPA7*%
X152200000Y-39300000D03*
%TD*%
D60*
%TO.P,C1,1*%
%TO.N,CHG_IN*%
X23600000Y-27000000D03*
%TO.P,C1,2*%
%TO.N,GND*%
X23600000Y-25100000D03*
%TD*%
D30*
%TO.P,C33,1*%
%TO.N,FET_BATT_P*%
X22800000Y-30650000D03*
%TO.P,C33,2*%
%TO.N,FET_SRC_COMMON*%
X22800000Y-29100000D03*
%TD*%
D61*
%TO.P,L2,1*%
%TO.N,SW_3V3*%
X99550000Y-24000000D03*
%TO.P,L2,2*%
%TO.N,+3V3*%
X103250000Y-24000000D03*
%TD*%
D54*
%TO.P,J40,1*%
%TO.N,GND*%
X31750000Y-15950000D03*
%TO.P,J40,2*%
%TO.N,AIN1*%
X33000000Y-15950000D03*
%TO.P,J40,3*%
%TO.N,+3V3_SW*%
X34250000Y-15950000D03*
D55*
%TO.P,J40,MP*%
%TO.N,N/C*%
X29900000Y-12600000D03*
X36100000Y-12600000D03*
%TD*%
D24*
%TO.P,R15,1*%
%TO.N,CELL_MID*%
X51550000Y-32400000D03*
%TO.P,R15,2*%
%TO.N,PROT_VC*%
X53200000Y-32400000D03*
%TD*%
D54*
%TO.P,J42,1*%
%TO.N,GND*%
X149750000Y-15950000D03*
%TO.P,J42,2*%
%TO.N,AIN3*%
X151000000Y-15950000D03*
%TO.P,J42,3*%
%TO.N,+3V3_SW*%
X152250000Y-15950000D03*
D55*
%TO.P,J42,MP*%
%TO.N,N/C*%
X147900000Y-12600000D03*
X154100000Y-12600000D03*
%TD*%
D54*
%TO.P,J4,1*%
%TO.N,+5V_SW*%
X96500000Y-53950000D03*
%TO.P,J4,2*%
%TO.N,GND*%
X97750000Y-53950000D03*
%TO.P,J4,3*%
%TO.N,UART_TX*%
X99000000Y-53950000D03*
%TO.P,J4,4*%
%TO.N,UART_RX*%
X100250000Y-53950000D03*
%TO.P,J4,5*%
%TO.N,GND*%
X101500000Y-53950000D03*
D55*
%TO.P,J4,MP*%
%TO.N,N/C*%
X94650000Y-50600000D03*
X103350000Y-50600000D03*
%TD*%
D26*
%TO.P,C20,1*%
%TO.N,+3V3_SW_LOGIC*%
X151925000Y-50400000D03*
%TO.P,C20,2*%
%TO.N,GND*%
X153475000Y-50400000D03*
%TD*%
D13*
%TO.P,C23,1*%
%TO.N,+3V3*%
X92400000Y-14700000D03*
%TO.P,C23,2*%
%TO.N,GND*%
X92400000Y-16600000D03*
%TD*%
D16*
%TO.P,TP9,1*%
%TO.N,+3V3_SW*%
X75000000Y-29000000D03*
%TD*%
D11*
%TO.P,R47,1*%
%TO.N,GND*%
X70000000Y-24825000D03*
%TO.P,R47,2*%
%TO.N,BQ_SRN*%
X70000000Y-23175000D03*
%TD*%
D14*
%TO.P,R25,1*%
%TO.N,MCP_GPA2*%
X144400000Y-20950000D03*
%TO.P,R25,2*%
%TO.N,EXP_GPA2*%
X144400000Y-22600000D03*
%TD*%
D11*
%TO.P,R48,1*%
%TO.N,BATT_RAW_N*%
X73800000Y-24850000D03*
%TO.P,R48,2*%
%TO.N,BQ_SRP*%
X73800000Y-23200000D03*
%TD*%
D26*
%TO.P,C26,1*%
%TO.N,PROT_VC*%
X64725000Y-22000000D03*
%TO.P,C26,2*%
%TO.N,BATT_RAW_N*%
X66275000Y-22000000D03*
%TD*%
D62*
%TO.P,L3,1*%
%TO.N,PMID*%
X30100000Y-24200000D03*
%TO.P,L3,2*%
%TO.N,CHG_SW*%
X33800000Y-24200000D03*
%TD*%
D15*
%TO.P,J925,1*%
%TO.N,MCP_INTA*%
X147200000Y-60800000D03*
%TD*%
D24*
%TO.P,R17,1*%
%TO.N,GPIO2*%
X47400000Y-47200000D03*
%TO.P,R17,2*%
%TO.N,CTRL_5V_SW*%
X49050000Y-47200000D03*
%TD*%
D16*
%TO.P,TP3,1*%
%TO.N,BAT_SYS*%
X24800000Y-43600000D03*
%TD*%
D14*
%TO.P,R13,1*%
%TO.N,EN_3V3*%
X77600000Y-23150000D03*
%TO.P,R13,2*%
%TO.N,BAT_SYS*%
X77600000Y-24800000D03*
%TD*%
D15*
%TO.P,J32,1*%
%TO.N,UART_RX*%
X58500000Y-25000000D03*
%TD*%
D26*
%TO.P,C21,1*%
%TO.N,BAT_SYS*%
X41950000Y-43900000D03*
%TO.P,C21,2*%
%TO.N,GND*%
X43500000Y-43900000D03*
%TD*%
D16*
%TO.P,TP10,1*%
%TO.N,CHG_STAT*%
X58600000Y-34400000D03*
%TD*%
D63*
%TO.P,U1,1*%
%TO.N,PG_STAT*%
X28037500Y-32750000D03*
%TO.P,U1,2*%
%TO.N,CHG_STAT*%
X28037500Y-33250000D03*
%TO.P,U1,3*%
%TO.N,GND*%
X28037500Y-33750000D03*
%TO.P,U1,4*%
%TO.N,I2C_SDA*%
X28037500Y-34250000D03*
%TO.P,U1,5*%
%TO.N,I2C_SCL*%
X28037500Y-34750000D03*
%TO.P,U1,6*%
%TO.N,N/C*%
X28037500Y-35250000D03*
D64*
%TO.P,U1,7*%
%TO.N,TS*%
X28750000Y-35962500D03*
%TO.P,U1,8*%
%TO.N,ILIM*%
X29250000Y-35962500D03*
%TO.P,U1,9*%
%TO.N,CELL_MID*%
X29750000Y-35962500D03*
%TO.P,U1,10*%
%TO.N,CBSET*%
X30250000Y-35962500D03*
%TO.P,U1,11*%
%TO.N,REGN*%
X30750000Y-35962500D03*
%TO.P,U1,12*%
%TO.N,BTST*%
X31250000Y-35962500D03*
D63*
%TO.P,U1,13*%
%TO.N,BAT_SYS*%
X31962500Y-35250000D03*
%TO.P,U1,14*%
X31962500Y-34750000D03*
%TO.P,U1,15*%
X31962500Y-34250000D03*
%TO.P,U1,16*%
X31962500Y-33750000D03*
%TO.P,U1,17*%
%TO.N,CHG_SW*%
X31962500Y-33250000D03*
%TO.P,U1,18*%
X31962500Y-32750000D03*
D64*
%TO.P,U1,19*%
%TO.N,GND*%
X31250000Y-32037500D03*
%TO.P,U1,20*%
X30750000Y-32037500D03*
%TO.P,U1,21*%
%TO.N,PMID*%
X30250000Y-32037500D03*
%TO.P,U1,22*%
X29750000Y-32037500D03*
%TO.P,U1,23*%
%TO.N,CHG_IN*%
X29250000Y-32037500D03*
%TO.P,U1,24*%
%TO.N,GND*%
X28750000Y-32037500D03*
D65*
%TO.P,U1,25*%
X30000000Y-34000000D03*
%TD*%
D14*
%TO.P,R26,1*%
%TO.N,MCP_GPA3*%
X149700000Y-20950000D03*
%TO.P,R26,2*%
%TO.N,EXP_GPA3*%
X149700000Y-22600000D03*
%TD*%
D53*
%TO.P,C13,1*%
%TO.N,+5V*%
X32200000Y-60600000D03*
%TO.P,C13,2*%
%TO.N,GND*%
X30300000Y-60600000D03*
%TD*%
D26*
%TO.P,C18,1*%
%TO.N,+3V3_SW_LOGIC*%
X141925000Y-50400000D03*
%TO.P,C18,2*%
%TO.N,GND*%
X143475000Y-50400000D03*
%TD*%
D15*
%TO.P,J95,1*%
%TO.N,EXP_GPA4*%
X162000000Y-52800000D03*
%TD*%
D60*
%TO.P,C16,1*%
%TO.N,BAT_SYS*%
X31700000Y-56600000D03*
%TO.P,C16,2*%
%TO.N,GND*%
X31700000Y-54700000D03*
%TD*%
D54*
%TO.P,J8,1*%
%TO.N,GND*%
X19750000Y-15950000D03*
%TO.P,J8,2*%
%TO.N,AIN0*%
X21000000Y-15950000D03*
%TO.P,J8,3*%
%TO.N,+3V3_SW*%
X22250000Y-15950000D03*
D55*
%TO.P,J8,MP*%
%TO.N,N/C*%
X17900000Y-12600000D03*
X24100000Y-12600000D03*
%TD*%
D26*
%TO.P,C19,1*%
%TO.N,+3V3_SW_LOGIC*%
X146925000Y-50400000D03*
%TO.P,C19,2*%
%TO.N,GND*%
X148475000Y-50400000D03*
%TD*%
D24*
%TO.P,R18,1*%
%TO.N,GPIO3*%
X88350000Y-42600000D03*
%TO.P,R18,2*%
%TO.N,CTRL_3V3_SW*%
X90000000Y-42600000D03*
%TD*%
%TO.P,R6,1*%
%TO.N,REGN*%
X46650000Y-31100000D03*
%TO.P,R6,2*%
%TO.N,LED_CHG_A*%
X48300000Y-31100000D03*
%TD*%
D26*
%TO.P,C27,1*%
%TO.N,+3V3_SW_LOGIC*%
X106200000Y-53600000D03*
%TO.P,C27,2*%
%TO.N,GND*%
X107750000Y-53600000D03*
%TD*%
D30*
%TO.P,C30,1*%
%TO.N,BQ_PBI*%
X70800000Y-34975000D03*
%TO.P,C30,2*%
%TO.N,BATT_RAW_N*%
X70800000Y-33425000D03*
%TD*%
%TO.P,C31,1*%
%TO.N,BQ_SRN*%
X71800000Y-30175000D03*
%TO.P,C31,2*%
%TO.N,BQ_SRP*%
X71800000Y-28625000D03*
%TD*%
%TO.P,C29,1*%
%TO.N,MCP_RESET*%
X144000000Y-58600000D03*
%TO.P,C29,2*%
%TO.N,GND*%
X144000000Y-57050000D03*
%TD*%
D14*
%TO.P,R35,1*%
%TO.N,MCP_GPB4*%
X136400000Y-25600000D03*
%TO.P,R35,2*%
%TO.N,EXP_GPB4*%
X136400000Y-27250000D03*
%TD*%
D66*
%TO.P,U5,1*%
%TO.N,GND*%
X93900000Y-24700000D03*
%TO.P,U5,2*%
%TO.N,N/C*%
X93900000Y-24200000D03*
%TO.P,U5,3*%
%TO.N,GND*%
X93900000Y-23700000D03*
%TO.P,U5,4*%
%TO.N,AIN0*%
X93900000Y-23200000D03*
%TO.P,U5,5*%
%TO.N,AIN1*%
X93900000Y-22700000D03*
%TO.P,U5,6*%
%TO.N,AIN2*%
X89600000Y-22700000D03*
%TO.P,U5,7*%
%TO.N,AIN3*%
X89600000Y-23200000D03*
%TO.P,U5,8*%
%TO.N,+3V3_SW_LOGIC*%
X89600000Y-23700000D03*
%TO.P,U5,9*%
%TO.N,I2C_SDA*%
X89600000Y-24200000D03*
%TO.P,U5,10*%
%TO.N,I2C_SCL*%
X89600000Y-24700000D03*
%TD*%
D14*
%TO.P,R27,1*%
%TO.N,MCP_GPA4*%
X149200000Y-45150000D03*
%TO.P,R27,2*%
%TO.N,EXP_GPA4*%
X149200000Y-46800000D03*
%TD*%
D15*
%TO.P,J914,1*%
%TO.N,EXP_GPB5*%
X152800000Y-68600000D03*
%TD*%
D14*
%TO.P,R40,1*%
%TO.N,MCP_A1*%
X138000000Y-41950000D03*
%TO.P,R40,2*%
%TO.N,GND*%
X138000000Y-43600000D03*
%TD*%
D15*
%TO.P,J91,1*%
%TO.N,EXP_GPA0*%
X115800000Y-14400000D03*
%TD*%
D11*
%TO.P,R31,1*%
%TO.N,MCP_GPB0*%
X154200000Y-27250000D03*
%TO.P,R31,2*%
%TO.N,EXP_GPB0*%
X154200000Y-25600000D03*
%TD*%
D15*
%TO.P,J97,1*%
%TO.N,EXP_GPA6*%
X162000000Y-42800000D03*
%TD*%
D14*
%TO.P,R37,1*%
%TO.N,MCP_GPB6*%
X138800000Y-25550000D03*
%TO.P,R37,2*%
%TO.N,EXP_GPB6*%
X138800000Y-27200000D03*
%TD*%
D15*
%TO.P,J37,1*%
%TO.N,GPIO14*%
X117200000Y-40200000D03*
%TD*%
D16*
%TO.P,TP1,1*%
%TO.N,USB_VBUS*%
X20800000Y-51900000D03*
%TD*%
D11*
%TO.P,R21,1*%
%TO.N,BQ_DSG*%
X66000000Y-37650000D03*
%TO.P,R21,2*%
%TO.N,DO_GATE*%
X66000000Y-36000000D03*
%TD*%
D24*
%TO.P,R22,1*%
%TO.N,BQ_CHG*%
X46850000Y-41100000D03*
%TO.P,R22,2*%
%TO.N,CO_GATE*%
X48500000Y-41100000D03*
%TD*%
D67*
%TO.N,ILIM*%
X28535300Y-37175700D03*
X25742800Y-36542800D03*
%TO.N,GND*%
X136986300Y-43720700D03*
X58500000Y-28745200D03*
X136198400Y-42269600D03*
X85854900Y-16419600D03*
X35321300Y-41204000D03*
X139941900Y-29454400D03*
X22356400Y-25233800D03*
X157644200Y-21200000D03*
X30944600Y-16755400D03*
X44452800Y-44320500D03*
X139456600Y-50304900D03*
X132784600Y-27250000D03*
X69400000Y-25900000D03*
X92809100Y-25186800D03*
D68*
X56700000Y-46000000D03*
D67*
X136935300Y-16785800D03*
X144532600Y-53242400D03*
X71793900Y-45940000D03*
X44789300Y-34614600D03*
X84578600Y-24388300D03*
X142400000Y-35100000D03*
X132800500Y-34850000D03*
X142993200Y-57259400D03*
X146309300Y-71537400D03*
X102304900Y-53397600D03*
X29288900Y-60400800D03*
X28091600Y-31793500D03*
X30803400Y-53803400D03*
X103900000Y-54900000D03*
X86736400Y-28607800D03*
X140000000Y-34800000D03*
X80748400Y-45169800D03*
X95149900Y-23700000D03*
X149438900Y-50928900D03*
X91148700Y-16493200D03*
X28206600Y-55509700D03*
X25990500Y-26603700D03*
X25981200Y-34215800D03*
X17912300Y-71112300D03*
X154434600Y-50304900D03*
X17321000Y-54643600D03*
X25873400Y-61818900D03*
X18944600Y-16755400D03*
X38904700Y-38250000D03*
X148927700Y-16629300D03*
X29191000Y-65269900D03*
X20003100Y-55872200D03*
X32419600Y-29350700D03*
X31749600Y-43510600D03*
X27831300Y-64437600D03*
X144449700Y-50304900D03*
X36800000Y-32595500D03*
X132871300Y-43122700D03*
X138750000Y-19536600D03*
X31901900Y-31737600D03*
X108732800Y-53297900D03*
%TO.N,+3V3_SW_LOGIC*%
X120739100Y-18766600D03*
X93156800Y-21765000D03*
%TO.N,I2C_SDA*%
X159150000Y-23607300D03*
X159183500Y-20910200D03*
X60650000Y-30150000D03*
X27200000Y-31700000D03*
X100559800Y-27541800D03*
X89597950Y-26002050D03*
%TO.N,I2C_SCL*%
X159462000Y-20048600D03*
X119130900Y-26453700D03*
X128157400Y-17383500D03*
X27042500Y-30790700D03*
X101465500Y-26915800D03*
X60200000Y-29000000D03*
X65594300Y-26534500D03*
D69*
%TO.N,BAT_SYS*%
X24226000Y-62004200D03*
X23074500Y-64481800D03*
X40795100Y-38334500D03*
X77600000Y-28789200D03*
D67*
%TO.N,EXP_GPB2*%
X128087000Y-14410800D03*
X130166400Y-24222400D03*
X147730700Y-26379300D03*
%TO.N,DO_GATE*%
X65012600Y-36018400D03*
X14750000Y-32301700D03*
D68*
%TO.N,FET_SRC_COMMON*%
X39500000Y-46300000D03*
X28100000Y-47000000D03*
X16800000Y-51300000D03*
D67*
%TO.N,MCP_INTB*%
X139815100Y-41775700D03*
X141731400Y-56290900D03*
D69*
%TO.N,+5V*%
X37978000Y-57144500D03*
D68*
%TO.N,USB_VBUS*%
X77800000Y-48707000D03*
X21721200Y-50978800D03*
X74680100Y-48687600D03*
%TO.N,CHG_IN*%
X20344400Y-65269900D03*
X23575100Y-35580500D03*
X25966700Y-29384900D03*
D70*
%TO.N,+3V3_SW*%
X150345200Y-24900300D03*
X73891400Y-28966200D03*
X37180000Y-24132500D03*
D68*
%TO.N,FET_BATT_P*%
X21900000Y-33600000D03*
X18200000Y-25700000D03*
X20600000Y-42400000D03*
D67*
%TO.N,GPIO2*%
X118482900Y-30081400D03*
X47400000Y-45960100D03*
%TO.N,TS*%
X61800000Y-28300000D03*
X28000000Y-40600000D03*
%TO.N,EXP_GPB3*%
X146485000Y-28415900D03*
X130130700Y-29005700D03*
X157613000Y-61673400D03*
%TO.N,EXP_GPA4*%
X132489700Y-44564700D03*
X148209400Y-46712300D03*
%TO.N,EXP_GPA7*%
X130198700Y-44548700D03*
X153737100Y-43305200D03*
%TO.N,MCP_RESET*%
X139554800Y-37768900D03*
X142362300Y-59283900D03*
%TO.N,CBSET*%
X29741900Y-37839300D03*
X44217200Y-49399700D03*
X29741900Y-44565100D03*
%TO.N,EXP_GPB0*%
X150711400Y-26469100D03*
X132855300Y-26405900D03*
X124444600Y-14714100D03*
%TO.N,EXP_GPA3*%
X149747300Y-23932600D03*
X160597100Y-55922200D03*
%TO.N,EXP_GPB4*%
X154476200Y-38502500D03*
X133571000Y-35800000D03*
X156717000Y-60805400D03*
X134202200Y-28049400D03*
%TO.N,EXP_GPB5*%
X144257500Y-28176500D03*
X153343400Y-67308200D03*
X132769200Y-33900000D03*
%TO.N,EXP_GPB6*%
X137675000Y-26812500D03*
X128963000Y-33059700D03*
X147034300Y-67136600D03*
%TO.N,EXP_GPB7*%
X130465400Y-36429500D03*
X139888200Y-27252400D03*
X154882200Y-68261300D03*
%TO.N,CO_GATE*%
X47572400Y-42033800D03*
X33741500Y-45451500D03*
%TO.N,EXP_GPB1*%
X132800000Y-15653600D03*
X131582400Y-24451600D03*
%TO.N,CELL_MID*%
X52375000Y-31752300D03*
X38910800Y-44680800D03*
X50851200Y-49366200D03*
D69*
%TO.N,+5V_SW*%
X85994600Y-53815600D03*
D67*
%TO.N,PROT_VDD*%
X67200000Y-25200000D03*
X68100000Y-34300000D03*
X61000000Y-35900000D03*
%TO.N,PROT_VC*%
X62666700Y-27533300D03*
X67200000Y-32200000D03*
%TO.N,MCP_GPA1*%
X136242400Y-20307500D03*
X143208400Y-37511000D03*
%TO.N,EN_5V*%
X25592400Y-58918700D03*
X23826800Y-66128200D03*
%TO.N,REGN*%
X30612600Y-38437400D03*
X44432100Y-35887000D03*
%TO.N,LED_PGOOD_A*%
X26505400Y-74028500D03*
X49228600Y-36058300D03*
%TO.N,CTRL_5V_SW*%
X48180900Y-46313900D03*
D68*
%TO.N,BATT_RAW_P*%
X14000000Y-54000000D03*
X34000000Y-43000000D03*
D67*
X61900000Y-49500000D03*
D68*
X55100000Y-39500000D03*
X61000000Y-17000000D03*
D67*
%TO.N,BQ_SRN*%
X71290200Y-24310500D03*
X70718800Y-29968900D03*
X68000000Y-28100000D03*
%TO.N,BQ_SRP*%
X68400000Y-26700000D03*
X72800000Y-21700000D03*
%TO.N,BQ_DSG*%
X62400000Y-34500000D03*
X66000000Y-38600000D03*
%TO.N,EXP_GPA0*%
X145598500Y-40865800D03*
X117060800Y-14190900D03*
X140600500Y-20757800D03*
%TO.N,PG_STAT*%
X59137700Y-41725000D03*
X55706000Y-35045500D03*
X23232400Y-69918500D03*
X26363200Y-32919600D03*
%TO.N,UART_TX*%
X66953400Y-20377600D03*
X94827100Y-52954400D03*
%TO.N,LED_CHG_A*%
X49925000Y-32346900D03*
X26571500Y-75747900D03*
%TO.N,CHG_STAT*%
X20451400Y-73788300D03*
X27109100Y-33416000D03*
X57584500Y-34759600D03*
%TO.N,AIN2*%
X139000000Y-17307500D03*
X90103400Y-21771700D03*
%TO.N,MCP_INTA*%
X147559300Y-59375000D03*
X144588300Y-42173600D03*
%TO.N,BTST*%
X33602900Y-35200000D03*
X32007700Y-36626300D03*
%TO.N,MCP_GPA2*%
X146165800Y-37555400D03*
X142562300Y-20374900D03*
%TO.N,MCP_GPA3*%
X147578900Y-37713800D03*
X145394500Y-22871100D03*
%TO.N,AIN1*%
X92639800Y-22384100D03*
X33542900Y-17222300D03*
%TO.N,AIN3*%
X151080600Y-14560100D03*
X89191100Y-21775600D03*
%TO.N,UART_RX*%
X83010500Y-51904300D03*
X59138800Y-26801600D03*
%TO.N,AIN0*%
X20877100Y-17306800D03*
X92656800Y-23300600D03*
%TD*%
%TO.N,ILIM*%
D10*
X29250000Y-36461000D02*
X29250000Y-35962500D01*
X28535300Y-37175700D02*
X29250000Y-36461000D01*
X25000000Y-35800000D02*
X25742800Y-36542800D01*
%TO.N,GND*%
X30100800Y-60400800D02*
X30300000Y-60600000D01*
X156400000Y-21200000D02*
X157644200Y-21200000D01*
X20527800Y-55872200D02*
X21000000Y-55400000D01*
X93900000Y-24700000D02*
X93413200Y-25186800D01*
X147000000Y-72800000D02*
X147000000Y-71748300D01*
D71*
X95149900Y-23700000D02*
X97149900Y-25700000D01*
D10*
X95149900Y-23700000D02*
X93900000Y-23700000D01*
X23466200Y-25233800D02*
X22356400Y-25233800D01*
X137879300Y-43720700D02*
X138000000Y-43600000D01*
X92293200Y-16493200D02*
X92400000Y-16600000D01*
X28206600Y-55509700D02*
X27709700Y-55509700D01*
X28750000Y-32037500D02*
X28506000Y-31793500D01*
D71*
X97149900Y-25700000D02*
X100402684Y-25700000D01*
D10*
X29288900Y-60400800D02*
X30100800Y-60400800D01*
X20003100Y-55872200D02*
X20527800Y-55872200D01*
X16356400Y-54643600D02*
X16300000Y-54700000D01*
X136986300Y-43720700D02*
X137879300Y-43720700D01*
X44714600Y-34614600D02*
X44789300Y-34614600D01*
X139456600Y-50304900D02*
X138570100Y-50304900D01*
X38750000Y-38250000D02*
X37800000Y-39200000D01*
X91148700Y-16493200D02*
X92293200Y-16493200D01*
X153570100Y-50304900D02*
X154434600Y-50304900D01*
X31449300Y-29350700D02*
X32419600Y-29350700D01*
X138750000Y-20725000D02*
X138750000Y-19536600D01*
D71*
X100750000Y-22647316D02*
X94702684Y-16600000D01*
D10*
X143570100Y-50304900D02*
X143475000Y-50400000D01*
X25000000Y-34150000D02*
X25065800Y-34215800D01*
X30750000Y-32037500D02*
X30750000Y-33250000D01*
X69400000Y-25425000D02*
X70000000Y-24825000D01*
X137879300Y-45029300D02*
X138000000Y-45150000D01*
X143790600Y-57259400D02*
X144000000Y-57050000D01*
D71*
X73530000Y-50120000D02*
X72040000Y-50120000D01*
D10*
X30750000Y-33250000D02*
X30000000Y-34000000D01*
X149070700Y-16629300D02*
X149750000Y-15950000D01*
X103700000Y-55100000D02*
X103900000Y-54900000D01*
X153475000Y-50400000D02*
X153570100Y-50304900D01*
X18944600Y-16755400D02*
X19750000Y-15950000D01*
X148927700Y-16629300D02*
X149070700Y-16629300D01*
X142993200Y-57259400D02*
X143790600Y-57259400D01*
X144449700Y-50304900D02*
X143570100Y-50304900D01*
X137750000Y-15971100D02*
X136935300Y-16785800D01*
X28506000Y-31793500D02*
X28091600Y-31793500D01*
D71*
X79030000Y-50120000D02*
X80520000Y-50120000D01*
D10*
X85854900Y-16419600D02*
X86919600Y-16419600D01*
X27831300Y-64437600D02*
X27062400Y-64437600D01*
D71*
X82900000Y-39420000D02*
X82900000Y-43018200D01*
D10*
X71793900Y-45940000D02*
X72375000Y-45358900D01*
X86919600Y-16419600D02*
X87100000Y-16600000D01*
X31400000Y-29400000D02*
X31449300Y-29350700D01*
D71*
X80520000Y-50120000D02*
X80600000Y-50200000D01*
D10*
X79969800Y-45169800D02*
X79800000Y-45000000D01*
X97750000Y-53950000D02*
X97750000Y-54799999D01*
X30000000Y-34000000D02*
X29750000Y-33750000D01*
X132800500Y-34850000D02*
X131600000Y-34850000D01*
X31549900Y-31737600D02*
X31901900Y-31737600D01*
D72*
X55325000Y-46300000D02*
X56400000Y-46300000D01*
D10*
X69400000Y-25900000D02*
X69400000Y-25425000D01*
X132871300Y-43122700D02*
X131997700Y-43122700D01*
X135469600Y-42269600D02*
X135200000Y-42000000D01*
X43500000Y-43900000D02*
X43920500Y-44320500D01*
X18500000Y-71700000D02*
X17912300Y-71112300D01*
X31250000Y-32037500D02*
X31549900Y-31737600D01*
X80748400Y-45169800D02*
X79969800Y-45169800D01*
X98050001Y-55100000D02*
X103700000Y-55100000D01*
X26600000Y-61092300D02*
X26600000Y-61000000D01*
X30785600Y-43510600D02*
X30775000Y-43500000D01*
X28750000Y-32037500D02*
X28750000Y-32750000D01*
X31250000Y-32037500D02*
X30750000Y-32037500D01*
X137750000Y-15950000D02*
X137750000Y-15971100D01*
X83711700Y-24388300D02*
X84578600Y-24388300D01*
X28750000Y-32750000D02*
X30000000Y-34000000D01*
X149438900Y-50928900D02*
X149003900Y-50928900D01*
X149003900Y-50928900D02*
X148475000Y-50400000D01*
X31700000Y-54700000D02*
X30803400Y-53803400D01*
X38904700Y-38250000D02*
X38750000Y-38250000D01*
D71*
X100750000Y-25352684D02*
X100750000Y-22647316D01*
D10*
X137879300Y-43720700D02*
X137879300Y-45029300D01*
X17321000Y-54643600D02*
X16356400Y-54643600D01*
X132784600Y-27250000D02*
X131600000Y-27250000D01*
X72375000Y-45358900D02*
X72375000Y-45000000D01*
X25065800Y-34215800D02*
X25981200Y-34215800D01*
X140224400Y-29454400D02*
X139941900Y-29454400D01*
D71*
X82900000Y-43018200D02*
X80748400Y-45169800D01*
D10*
X34400000Y-40800000D02*
X34804000Y-41204000D01*
X146309300Y-71537400D02*
X146520200Y-71748300D01*
X23600000Y-25100000D02*
X23466200Y-25233800D01*
X108052100Y-53297900D02*
X108732800Y-53297900D01*
X26803700Y-26603700D02*
X27000000Y-26800000D01*
X36800000Y-31600000D02*
X36800000Y-32595500D01*
X29191000Y-65269900D02*
X29630100Y-65269900D01*
X143775000Y-54000000D02*
X144532600Y-53242400D01*
X93413200Y-25186800D02*
X92809100Y-25186800D01*
X31749600Y-43510600D02*
X30785600Y-43510600D01*
X102052400Y-53397600D02*
X101500000Y-53950000D01*
X29750000Y-33750000D02*
X28037500Y-33750000D01*
X131997700Y-43122700D02*
X131675000Y-42800000D01*
X107750000Y-53600000D02*
X108052100Y-53297900D01*
X25873400Y-61818900D02*
X26600000Y-61092300D01*
X136198400Y-42269600D02*
X135469600Y-42269600D01*
X97750000Y-54799999D02*
X98050001Y-55100000D01*
X58500000Y-28745200D02*
X58500000Y-30000000D01*
X86736400Y-28607800D02*
X86217200Y-28607800D01*
X27062400Y-64437600D02*
X26800000Y-64700000D01*
X146520200Y-71748300D02*
X147000000Y-71748300D01*
D71*
X100402684Y-25700000D02*
X100750000Y-25352684D01*
D10*
X102304900Y-53397600D02*
X102052400Y-53397600D01*
X138570100Y-50304900D02*
X138475000Y-50400000D01*
X83400000Y-24700000D02*
X83711700Y-24388300D01*
X44000000Y-33900000D02*
X44714600Y-34614600D01*
X29630100Y-65269900D02*
X30200000Y-64700000D01*
X30944600Y-16755400D02*
X31750000Y-15950000D01*
X34804000Y-41204000D02*
X35321300Y-41204000D01*
X25990500Y-26603700D02*
X26803700Y-26603700D01*
D72*
X56400000Y-46300000D02*
X56700000Y-46000000D01*
D10*
X140770000Y-30000000D02*
X140224400Y-29454400D01*
X86217200Y-28607800D02*
X85825000Y-29000000D01*
D71*
X94702684Y-16600000D02*
X92400000Y-16600000D01*
D10*
X27709700Y-55509700D02*
X27400000Y-55200000D01*
X43920500Y-44320500D02*
X44452800Y-44320500D01*
D71*
X72040000Y-50120000D02*
X71960000Y-50200000D01*
%TO.N,+3V3_SW_LOGIC*%
D10*
X130426100Y-33733500D02*
X130426100Y-34124800D01*
X136925000Y-50400000D02*
X137722400Y-49602600D01*
X128316800Y-42069000D02*
X129047800Y-42800000D01*
X120064300Y-50321500D02*
X127345200Y-43040600D01*
X128707800Y-21907800D02*
X130816700Y-24016700D01*
X152608900Y-31813200D02*
X157625000Y-26797100D01*
X130816700Y-24016700D02*
X130816700Y-25735100D01*
X127345200Y-43040600D02*
X128316800Y-42069000D01*
X136336600Y-28823400D02*
X130916500Y-28823400D01*
X157551000Y-20200000D02*
X159112800Y-21761800D01*
X160002900Y-26797100D02*
X160800000Y-26000000D01*
X129047800Y-42800000D02*
X129400000Y-42800000D01*
X129700900Y-27250000D02*
X129325000Y-27250000D01*
X151137000Y-49612000D02*
X151925000Y-50400000D01*
X127345200Y-43040600D02*
X134704500Y-50400000D01*
X141098100Y-28650600D02*
X136509400Y-28650600D01*
X141743300Y-30746700D02*
X142809800Y-31813200D01*
X125000000Y-18342000D02*
X128565800Y-21907800D01*
X138094500Y-24016700D02*
X131998400Y-24016700D01*
X130916500Y-28823400D02*
X130364600Y-28271500D01*
X129700900Y-34850000D02*
X129325000Y-34850000D01*
X138750000Y-23361200D02*
X138094500Y-24016700D01*
X159744600Y-21200000D02*
X160700000Y-21200000D01*
X146262500Y-51062500D02*
X151000000Y-55800000D01*
X140800000Y-49602600D02*
X140800000Y-43650000D01*
X141925000Y-50400000D02*
X142616600Y-51091600D01*
X146117700Y-51207300D02*
X146262500Y-51062500D01*
X142616600Y-53608400D02*
X142225000Y-54000000D01*
X130426100Y-34124800D02*
X129700900Y-34850000D01*
X136509400Y-28650600D02*
X136336600Y-28823400D01*
X138750000Y-23000000D02*
X138750000Y-23361200D01*
X142809800Y-31813200D02*
X152608900Y-31813200D01*
X139397700Y-33092300D02*
X131067300Y-33092300D01*
X159182800Y-21761800D02*
X159744600Y-21200000D01*
X142616600Y-51207300D02*
X142616600Y-53608400D01*
X146406700Y-66897000D02*
X147252000Y-66051700D01*
X156400000Y-20200000D02*
X157551000Y-20200000D01*
X125000000Y-18200000D02*
X125000000Y-18342000D01*
X143600000Y-43650000D02*
X140800000Y-43650000D01*
X141127600Y-49602600D02*
X141925000Y-50400000D01*
X130364600Y-27913700D02*
X129700900Y-27250000D01*
X147252000Y-66051700D02*
X147875900Y-66051700D01*
X142040000Y-30000000D02*
X142040000Y-29592500D01*
X120739100Y-18766600D02*
X121305700Y-18200000D01*
X146777400Y-67748300D02*
X146406700Y-67377600D01*
X147000000Y-68800000D02*
X147000000Y-67748300D01*
X141743300Y-30746700D02*
X139397700Y-33092300D01*
X137722400Y-49602600D02*
X140800000Y-49602600D01*
X131998400Y-24016700D02*
X131831600Y-23849900D01*
X128911100Y-34850000D02*
X128316800Y-35444300D01*
X157625000Y-26797100D02*
X157625000Y-26000000D01*
X142040000Y-29592500D02*
X141098100Y-28650600D01*
X159112800Y-21761800D02*
X159182800Y-21761800D01*
X121305700Y-18200000D02*
X125000000Y-18200000D01*
X130364600Y-28271500D02*
X130364600Y-27913700D01*
X157625000Y-26797100D02*
X160002900Y-26797100D01*
X147000000Y-67748300D02*
X146777400Y-67748300D01*
X109478500Y-50321500D02*
X120064300Y-50321500D01*
X131067300Y-33092300D02*
X130426100Y-33733500D01*
X90358200Y-23700000D02*
X92293200Y-21765000D01*
X128565800Y-21907800D02*
X128707800Y-21907800D01*
X146406700Y-67377600D02*
X146406700Y-66897000D01*
X130426100Y-26125700D02*
X130426100Y-26524800D01*
X92293200Y-21765000D02*
X93156800Y-21765000D01*
X147875900Y-66051700D02*
X151778500Y-62149100D01*
X128316800Y-35444300D02*
X128316800Y-42069000D01*
X89600000Y-23700000D02*
X90358200Y-23700000D01*
X130426100Y-26524800D02*
X129700900Y-27250000D01*
X151778500Y-56578500D02*
X151000000Y-55800000D01*
X130983500Y-23849900D02*
X130816700Y-24016700D01*
X157625000Y-23249600D02*
X157625000Y-26000000D01*
X130816700Y-25735100D02*
X130426100Y-26125700D01*
X147713000Y-49612000D02*
X151137000Y-49612000D01*
X151778500Y-62149100D02*
X151778500Y-56578500D01*
X146262500Y-51062500D02*
X146925000Y-50400000D01*
X142040000Y-30450000D02*
X141743300Y-30746700D01*
X142616600Y-51091600D02*
X142616600Y-51207300D01*
X159112800Y-21761800D02*
X157625000Y-23249600D01*
X129325000Y-34850000D02*
X128911100Y-34850000D01*
X142040000Y-30000000D02*
X142040000Y-30450000D01*
X142616600Y-51207300D02*
X146117700Y-51207300D01*
X134704500Y-50400000D02*
X136925000Y-50400000D01*
X140800000Y-49602600D02*
X141127600Y-49602600D01*
X131831600Y-23849900D02*
X130983500Y-23849900D01*
X106200000Y-53600000D02*
X109478500Y-50321500D01*
X146925000Y-50400000D02*
X147713000Y-49612000D01*
%TO.N,AIN4*%
X155373000Y-21431100D02*
X155373000Y-16527000D01*
X155373000Y-16527000D02*
X158600000Y-13300000D01*
X155641900Y-21700000D02*
X155373000Y-21431100D01*
X156400000Y-21700000D02*
X155641900Y-21700000D01*
%TO.N,AIN5*%
X161569700Y-12469700D02*
X158292600Y-12469700D01*
X162400000Y-13300000D02*
X161569700Y-12469700D01*
X154964600Y-15797700D02*
X154964600Y-21631300D01*
X155533300Y-22200000D02*
X156400000Y-22200000D01*
X154964600Y-21631300D02*
X155533300Y-22200000D01*
X158292600Y-12469700D02*
X154964600Y-15797700D01*
%TO.N,AIN6*%
X161619500Y-22200000D02*
X163203900Y-20615600D01*
X163203900Y-16190800D02*
X162803300Y-15790200D01*
X162803300Y-15790200D02*
X159409800Y-15790200D01*
X159409800Y-15790200D02*
X158600000Y-16600000D01*
X163203900Y-20615600D02*
X163203900Y-16190800D01*
X160700000Y-22200000D02*
X161619500Y-22200000D01*
%TO.N,AIN7*%
X161510700Y-21700000D02*
X162400000Y-20810700D01*
X162400000Y-20810700D02*
X162400000Y-16600000D01*
X160700000Y-21700000D02*
X161510700Y-21700000D01*
%TO.N,I2C_SDA*%
X60650000Y-30150000D02*
X60600000Y-30200000D01*
X26114671Y-33519600D02*
X25763200Y-33168129D01*
X89600000Y-24200000D02*
X88831300Y-24200000D01*
X28037500Y-34250000D02*
X26863929Y-34250000D01*
X122600000Y-29880000D02*
X119825000Y-27105000D01*
X88525500Y-24505800D02*
X88525500Y-24929600D01*
X25763200Y-33168129D02*
X25763200Y-32671071D01*
X159183500Y-20910200D02*
X159393700Y-20700000D01*
X91137700Y-27541800D02*
X100559800Y-27541800D01*
X26863929Y-34250000D02*
X26133529Y-33519600D01*
X26734271Y-31700000D02*
X27200000Y-31700000D01*
X122720000Y-30000000D02*
X122600000Y-29880000D01*
X63662500Y-29550000D02*
X61250000Y-29550000D01*
X88525500Y-24929600D02*
X89597950Y-26002050D01*
X61250000Y-29550000D02*
X60650000Y-30150000D01*
X159393700Y-20700000D02*
X160700000Y-20700000D01*
X136960000Y-30000000D02*
X122720000Y-30000000D01*
X117200000Y-20200000D02*
X117200000Y-21251700D01*
X88831300Y-24200000D02*
X88525500Y-24505800D01*
X25763200Y-32671071D02*
X26734271Y-31700000D01*
X26133529Y-33519600D02*
X26114671Y-33519600D01*
X89597950Y-26002050D02*
X91137700Y-27541800D01*
X119825000Y-27105000D02*
X119825000Y-23876700D01*
X159150000Y-26000000D02*
X159150000Y-23607300D01*
X119825000Y-23876700D02*
X117200000Y-21251700D01*
%TO.N,I2C_SCL*%
X136217700Y-32420000D02*
X122600000Y-32420000D01*
X119130900Y-26453700D02*
X118251700Y-25574500D01*
X27176900Y-34750000D02*
X28037500Y-34750000D01*
X138230000Y-30407700D02*
X136217700Y-32420000D01*
X138230000Y-30000000D02*
X138230000Y-30407700D01*
X117200000Y-25200000D02*
X118251700Y-25200000D01*
X24176800Y-33656400D02*
X24176800Y-34522800D01*
X64062500Y-29550000D02*
X64062500Y-29295060D01*
X159613400Y-20200000D02*
X159462000Y-20048600D01*
X27064400Y-34862500D02*
X27176900Y-34750000D01*
X160700000Y-20200000D02*
X159613400Y-20200000D01*
X101465500Y-26915800D02*
X91815800Y-26915800D01*
X24516500Y-34862500D02*
X27064400Y-34862500D01*
X118251700Y-25574500D02*
X118251700Y-25200000D01*
X127466500Y-17383500D02*
X128157400Y-17383500D01*
X27042500Y-30790700D02*
X24176800Y-33656400D01*
X91815800Y-26915800D02*
X89600000Y-24700000D01*
X24176800Y-34522800D02*
X24516500Y-34862500D01*
X126650000Y-18200000D02*
X127466500Y-17383500D01*
X64062500Y-29295060D02*
X63767440Y-29000000D01*
X63767440Y-29000000D02*
X60200000Y-29000000D01*
%TO.N,BAT_SYS*%
D73*
X31700000Y-56600000D02*
X28275000Y-56600000D01*
D74*
X31976900Y-35250000D02*
X31962500Y-35250000D01*
D73*
X27400000Y-58421700D02*
X27400000Y-57475000D01*
X23292700Y-64700000D02*
X23074500Y-64481800D01*
X38500000Y-49350000D02*
X38710000Y-49350000D01*
X31700000Y-56600000D02*
X31800000Y-56600000D01*
X38500000Y-49350000D02*
X34276200Y-53573800D01*
X24900000Y-64700000D02*
X23292700Y-64700000D01*
X30000000Y-50410000D02*
X30000000Y-49140000D01*
X41950000Y-46110000D02*
X41950000Y-43900000D01*
D74*
X31962500Y-34750000D02*
X31962500Y-34250000D01*
D73*
X30000000Y-47870000D02*
X30000000Y-46600000D01*
X41950000Y-43900000D02*
X41950000Y-38900000D01*
X25050000Y-61000000D02*
X25050000Y-60771700D01*
X77600000Y-24800000D02*
X77600000Y-28789200D01*
X25050000Y-61180200D02*
X25050000Y-61000000D01*
X29000000Y-45600000D02*
X26800000Y-45600000D01*
D74*
X31962500Y-34250000D02*
X31962500Y-33750000D01*
D73*
X24900000Y-64700000D02*
X24900000Y-69400000D01*
X33163800Y-55236200D02*
X33163800Y-53573800D01*
X81025000Y-24800000D02*
X77600000Y-24800000D01*
X25050000Y-60771700D02*
X27400000Y-58421700D01*
X41950000Y-38900000D02*
X42250000Y-38600000D01*
X38710000Y-49350000D02*
X41950000Y-46110000D01*
D74*
X31962500Y-35250000D02*
X31962500Y-34750000D01*
D73*
X26800000Y-45600000D02*
X24800000Y-43600000D01*
X30000000Y-47870000D02*
X31415000Y-47870000D01*
X41984500Y-38334500D02*
X40795100Y-38334500D01*
X24900000Y-69400000D02*
X25000000Y-69500000D01*
X26800000Y-45600000D02*
X24800000Y-47600000D01*
X37800000Y-37300000D02*
X39760600Y-37300000D01*
X34276200Y-53573800D02*
X33163800Y-53573800D01*
X31415000Y-47870000D02*
X32050000Y-48505000D01*
X42250000Y-38600000D02*
X41984500Y-38334500D01*
X33163800Y-53573800D02*
X30000000Y-50410000D01*
X31800000Y-56600000D02*
X33163800Y-55236200D01*
X24226000Y-62004200D02*
X25050000Y-61180200D01*
X81125000Y-24700000D02*
X81025000Y-24800000D01*
X31976900Y-35250000D02*
X34026900Y-37300000D01*
X39760600Y-37300000D02*
X40795100Y-38334500D01*
X34026900Y-37300000D02*
X37800000Y-37300000D01*
X30000000Y-49140000D02*
X31415000Y-49140000D01*
X28275000Y-56600000D02*
X27400000Y-57475000D01*
X31415000Y-49140000D02*
X32050000Y-48505000D01*
X30000000Y-46600000D02*
X29000000Y-45600000D01*
%TO.N,MCP_GPB2*%
D10*
X149660000Y-26660000D02*
X148600000Y-25600000D01*
X149660000Y-30000000D02*
X149660000Y-26660000D01*
%TO.N,EXP_GPB2*%
X130166400Y-25458600D02*
X130166400Y-24222400D01*
X148600000Y-27250000D02*
X147730700Y-26380700D01*
X129325000Y-26300000D02*
X130166400Y-25458600D01*
X129400000Y-14400000D02*
X128348300Y-14400000D01*
X128097800Y-14400000D02*
X128087000Y-14410800D01*
X128348300Y-14400000D02*
X128097800Y-14400000D01*
X147730700Y-26380700D02*
X147730700Y-26379300D01*
%TO.N,DO_GATE*%
X66000000Y-36000000D02*
X65031000Y-36000000D01*
X14750000Y-32301700D02*
X14750000Y-31410000D01*
X14750000Y-31410000D02*
X13560000Y-31410000D01*
X65031000Y-36000000D02*
X65012600Y-36018400D01*
X13560000Y-31410000D02*
X12400000Y-30250000D01*
%TO.N,FET_SRC_COMMON*%
D72*
X12400000Y-28600000D02*
X13750000Y-28600000D01*
X13677654Y-33351700D02*
X11175000Y-30849046D01*
X13677654Y-48177654D02*
X16800000Y-51300000D01*
X35250000Y-47870000D02*
X36360000Y-48980000D01*
X35250000Y-50410000D02*
X36130000Y-49530000D01*
X11925000Y-28600000D02*
X12400000Y-28600000D01*
X11175000Y-30849046D02*
X11175000Y-29350000D01*
X14750000Y-29600000D02*
X13750000Y-28600000D01*
X13750000Y-28600000D02*
X14750000Y-27600000D01*
X19630390Y-33500000D02*
X13825954Y-33500000D01*
X21110000Y-32020390D02*
X19630390Y-33500000D01*
X36680000Y-48980000D02*
X37860000Y-47800000D01*
X36360000Y-48980000D02*
X36680000Y-48980000D01*
X14750000Y-30140000D02*
X14750000Y-29600000D01*
X35250000Y-49140000D02*
X35640000Y-49530000D01*
X36130000Y-49530000D02*
X36680000Y-48980000D01*
X13825954Y-33500000D02*
X13677654Y-33351700D01*
X35250000Y-50410000D02*
X35250000Y-47870000D01*
X21110000Y-29940390D02*
X21110000Y-32020390D01*
X38500000Y-47300000D02*
X39500000Y-46300000D01*
X21950390Y-29100000D02*
X21110000Y-29940390D01*
X13677654Y-33351700D02*
X13677654Y-48177654D01*
X37860000Y-47800000D02*
X38500000Y-47800000D01*
X38500000Y-47800000D02*
X38500000Y-47300000D01*
X14750000Y-27600000D02*
X14750000Y-30140000D01*
X35640000Y-49530000D02*
X36130000Y-49530000D01*
X11175000Y-29350000D02*
X11925000Y-28600000D01*
X28100000Y-47800000D02*
X28100000Y-47000000D01*
X22800000Y-29100000D02*
X21950390Y-29100000D01*
%TO.N,MCP_A0*%
D10*
X134421500Y-42871500D02*
X135200000Y-43650000D01*
X135690000Y-39300000D02*
X134421500Y-40568500D01*
X134421500Y-40568500D02*
X134421500Y-42871500D01*
%TO.N,MCP_INTB*%
X145639200Y-56290900D02*
X141731400Y-56290900D01*
X140575700Y-41775700D02*
X139815100Y-41775700D01*
X140800000Y-42000000D02*
X140575700Y-41775700D01*
X140770000Y-39300000D02*
X140770000Y-41970000D01*
X147200000Y-56800000D02*
X146148300Y-56800000D01*
X146148300Y-56800000D02*
X145639200Y-56290900D01*
X140770000Y-41970000D02*
X140800000Y-42000000D01*
%TO.N,+5V*%
D73*
X16850000Y-59100000D02*
X16100000Y-59850000D01*
X22780000Y-61600000D02*
X20280000Y-59100000D01*
X20280000Y-59100000D02*
X16850000Y-59100000D01*
X22780000Y-62010100D02*
X23800800Y-63030900D01*
X37978000Y-57144600D02*
X37978000Y-57144500D01*
X34000000Y-60600000D02*
X36800000Y-57800000D01*
X23800800Y-63030900D02*
X32100000Y-63030900D01*
X37455400Y-57144600D02*
X37978000Y-57144600D01*
X32200000Y-60600000D02*
X34000000Y-60600000D01*
X32100000Y-60700000D02*
X32200000Y-60600000D01*
X36800000Y-57800000D02*
X37455400Y-57144600D01*
X32100000Y-63030900D02*
X32100000Y-60700000D01*
X32100000Y-64700000D02*
X32100000Y-63030900D01*
X22780000Y-61600000D02*
X22780000Y-62010100D01*
%TO.N,FB_5V*%
D10*
X16100000Y-58200000D02*
X19850000Y-58200000D01*
X19850000Y-58200000D02*
X21000000Y-57050000D01*
X25075000Y-57050000D02*
X21000000Y-57050000D01*
X25500000Y-57475000D02*
X25075000Y-57050000D01*
%TO.N,EXP_GPA2*%
X130882200Y-18230500D02*
X138974700Y-18230500D01*
X141219000Y-20474800D02*
X141219000Y-21954700D01*
X126000000Y-14400000D02*
X127051700Y-14400000D01*
X138974700Y-18230500D02*
X141219000Y-20474800D01*
X137800000Y-23000000D02*
X137800000Y-22644700D01*
X141219000Y-21954700D02*
X143754700Y-21954700D01*
X127051700Y-14400000D02*
X130882200Y-18230500D01*
X138490000Y-21954700D02*
X141219000Y-21954700D01*
X143754700Y-21954700D02*
X144400000Y-22600000D01*
X137800000Y-22644700D02*
X138490000Y-21954700D01*
%TO.N,MCP_GPA5*%
X148390000Y-41284600D02*
X148390000Y-42840000D01*
X148390000Y-42840000D02*
X149200000Y-43650000D01*
X149660000Y-40014600D02*
X148390000Y-41284600D01*
X149660000Y-39300000D02*
X149660000Y-40014600D01*
%TO.N,EXP_GPA5*%
X131675000Y-41623100D02*
X131675000Y-41850000D01*
X162000000Y-47800000D02*
X160948300Y-47800000D01*
X148930700Y-36893200D02*
X136404900Y-36893200D01*
X152362800Y-45287300D02*
X149200000Y-42124500D01*
X158435600Y-45287300D02*
X152362800Y-45287300D01*
X149200000Y-42124500D02*
X149200000Y-42000000D01*
X160948300Y-47800000D02*
X158435600Y-45287300D01*
X150293500Y-38256000D02*
X148930700Y-36893200D01*
X150293500Y-40906500D02*
X150293500Y-38256000D01*
X136404900Y-36893200D02*
X131675000Y-41623100D01*
X149200000Y-42000000D02*
X150293500Y-40906500D01*
%TO.N,USB_VBUS*%
D72*
X19200000Y-40000000D02*
X17816900Y-41383100D01*
X74680100Y-48868000D02*
X74680100Y-48687600D01*
X17816900Y-48916900D02*
X20800000Y-51900000D01*
X20800000Y-51900000D02*
X21721200Y-50978800D01*
X17816900Y-41383100D02*
X17816900Y-48916900D01*
D75*
X74680100Y-48868000D02*
X74680100Y-50040100D01*
X77800000Y-48788100D02*
X77800000Y-50120000D01*
X74680100Y-50040100D02*
X74760000Y-50120000D01*
D72*
X77800000Y-48788100D02*
X77800000Y-48707000D01*
%TO.N,CHG_IN*%
X20766600Y-71700000D02*
X21525200Y-70941400D01*
X21525200Y-66450700D02*
X20344400Y-65269900D01*
X25966700Y-29366700D02*
X23600000Y-27000000D01*
X21525200Y-70941400D02*
X21525200Y-66450700D01*
X20600000Y-71700000D02*
X20766600Y-71700000D01*
X23575100Y-38575100D02*
X23575100Y-35580500D01*
X35337200Y-21987600D02*
X35337200Y-31512800D01*
X21286200Y-24816500D02*
X24762600Y-21340100D01*
X27121625Y-29384900D02*
X28092500Y-30355775D01*
X21286200Y-25689900D02*
X21286200Y-24816500D01*
X22596300Y-27000000D02*
X21286200Y-25689900D01*
X25966700Y-29384900D02*
X25966700Y-29366700D01*
X34689700Y-21340100D02*
X35337200Y-21987600D01*
X24600000Y-40000000D02*
X24800000Y-39800000D01*
X23600000Y-27000000D02*
X22596300Y-27000000D01*
X28092500Y-30355775D02*
X28092500Y-30500000D01*
X22000000Y-40000000D02*
X24600000Y-40000000D01*
X24762600Y-21340100D02*
X34689700Y-21340100D01*
X24800000Y-39800000D02*
X23575100Y-38575100D01*
X25966700Y-29384900D02*
X27121625Y-29384900D01*
%TO.N,+3V3_SW*%
D71*
X151308300Y-17431000D02*
X152250000Y-16489300D01*
X152250000Y-16489300D02*
X152250000Y-15950000D01*
X34250000Y-15950000D02*
X37180000Y-18880000D01*
X151308300Y-23982400D02*
X151308300Y-17431000D01*
X22250000Y-15950000D02*
X23642800Y-14557200D01*
X23642800Y-14557200D02*
X33403900Y-14557200D01*
X155975000Y-25873900D02*
X154083500Y-23982400D01*
X34250000Y-15403300D02*
X34250000Y-15950000D01*
X74966200Y-28966200D02*
X75000000Y-29000000D01*
X73891400Y-28966200D02*
X74966200Y-28966200D01*
X37180000Y-18880000D02*
X37180000Y-24132500D01*
X151263100Y-23982400D02*
X150345200Y-24900300D01*
X155975000Y-26000000D02*
X155975000Y-25873900D01*
X154083500Y-23982400D02*
X151308300Y-23982400D01*
X33403900Y-14557200D02*
X34250000Y-15403300D01*
X141731000Y-17431000D02*
X151308300Y-17431000D01*
X151308300Y-23982400D02*
X151263100Y-23982400D01*
X140250000Y-15950000D02*
X141731000Y-17431000D01*
%TO.N,FET_BATT_P*%
D72*
X19400000Y-47800000D02*
X20600000Y-46600000D01*
X20600000Y-46600000D02*
X20600000Y-42400000D01*
X17950000Y-29505000D02*
X17950000Y-25950000D01*
X22800000Y-30650000D02*
X22800000Y-32700000D01*
X17950000Y-25950000D02*
X18200000Y-25700000D01*
X22800000Y-32700000D02*
X21900000Y-33600000D01*
%TO.N,GPIO2*%
D10*
X118370300Y-30081400D02*
X118251700Y-30200000D01*
X117200000Y-30200000D02*
X118251700Y-30200000D01*
X47400000Y-47200000D02*
X47400000Y-45960100D01*
X118482900Y-30081400D02*
X118370300Y-30081400D01*
%TO.N,+3V3*%
D71*
X82900000Y-34340000D02*
X86842300Y-30397700D01*
X92400000Y-14700000D02*
X87100000Y-14700000D01*
X86842300Y-30397700D02*
X102900000Y-30397700D01*
X102900000Y-24350000D02*
X102900000Y-30397700D01*
X79175000Y-29000000D02*
X79175000Y-29476700D01*
X79175000Y-29476700D02*
X81498300Y-31800000D01*
X103250000Y-24000000D02*
X93950000Y-14700000D01*
X82900000Y-31800000D02*
X81498300Y-31800000D01*
X93950000Y-14700000D02*
X92400000Y-14700000D01*
X102900000Y-30397700D02*
X102900000Y-33600000D01*
X103250000Y-24000000D02*
X102900000Y-24350000D01*
%TO.N,TS*%
D10*
X64462500Y-29550000D02*
X64462500Y-29129374D01*
X29204600Y-40800000D02*
X28000000Y-39595400D01*
X32750000Y-40800000D02*
X29204600Y-40800000D01*
X28750000Y-35962500D02*
X27885900Y-36826600D01*
X28000000Y-39595400D02*
X28000000Y-39400000D01*
X63633126Y-28300000D02*
X61800000Y-28300000D01*
X64462500Y-29129374D02*
X63633126Y-28300000D01*
X27885900Y-36826600D02*
X27885900Y-39285900D01*
X28000000Y-39400000D02*
X28000000Y-40600000D01*
X27885900Y-39285900D02*
X28000000Y-39400000D01*
%TO.N,EXP_GPB3*%
X157400000Y-62748300D02*
X157613000Y-62535300D01*
X129325000Y-28200000D02*
X130130700Y-29005700D01*
X157613000Y-62535300D02*
X157613000Y-61673400D01*
X146485000Y-28415900D02*
X146485000Y-27535000D01*
X157400000Y-63800000D02*
X157400000Y-62748300D01*
X146485000Y-27535000D02*
X146200000Y-27250000D01*
%TO.N,EXP_GPA4*%
X154948300Y-46800000D02*
X149200000Y-46800000D01*
X162000000Y-52800000D02*
X160948300Y-52800000D01*
X160948300Y-52800000D02*
X154948300Y-46800000D01*
X148297100Y-46800000D02*
X148209400Y-46712300D01*
X149200000Y-46800000D02*
X148297100Y-46800000D01*
X132489700Y-44564700D02*
X131675000Y-43750000D01*
%TO.N,EXP_GPA6*%
X152000000Y-42418900D02*
X153335400Y-43754300D01*
X151597700Y-41597700D02*
X151597700Y-38270400D01*
X152000000Y-42000000D02*
X152000000Y-42418900D01*
X152000000Y-42000000D02*
X151597700Y-41597700D01*
X158975200Y-44773100D02*
X160948300Y-42800000D01*
X134758500Y-36491500D02*
X129400000Y-41850000D01*
X149818800Y-36491500D02*
X134758500Y-36491500D01*
X151597700Y-38270400D02*
X149818800Y-36491500D01*
X153335400Y-43985100D02*
X154123400Y-44773100D01*
X153335400Y-43754300D02*
X153335400Y-43985100D01*
X162000000Y-42800000D02*
X160948300Y-42800000D01*
X154123400Y-44773100D02*
X158975200Y-44773100D01*
%TO.N,EXP_GPA7*%
X154800000Y-42000000D02*
X155577500Y-42777500D01*
X155577500Y-44058200D02*
X155264300Y-44371400D01*
X129400000Y-43750000D02*
X130198700Y-44548700D01*
X162000000Y-37800000D02*
X159000000Y-37800000D01*
X155577500Y-42777500D02*
X155577500Y-44058200D01*
X159000000Y-37800000D02*
X154800000Y-42000000D01*
X154289700Y-44371400D02*
X153737100Y-43818800D01*
X153737100Y-43818800D02*
X153737100Y-43305200D01*
X155264300Y-44371400D02*
X154289700Y-44371400D01*
%TO.N,MCP_RESET*%
X143316100Y-59864400D02*
X143316100Y-59283900D01*
X139500000Y-39300000D02*
X139554800Y-39245200D01*
X147200000Y-64800000D02*
X147200000Y-63748300D01*
X144000000Y-58600000D02*
X149850000Y-58600000D01*
X143316100Y-59283900D02*
X144000000Y-58600000D01*
X139554800Y-39245200D02*
X139554800Y-37768900D01*
X142362300Y-59283900D02*
X143316100Y-59283900D01*
X149850000Y-58600000D02*
X151000000Y-57450000D01*
X147200000Y-63748300D02*
X143316100Y-59864400D01*
%TO.N,CBSET*%
X29225000Y-44048200D02*
X29741900Y-44565100D01*
X30250000Y-37331200D02*
X29741900Y-37839300D01*
X44775000Y-51600000D02*
X44217200Y-51042200D01*
X30250000Y-35962500D02*
X30250000Y-37331200D01*
X29225000Y-43500000D02*
X29225000Y-44048200D01*
X44217200Y-51042200D02*
X44217200Y-49399700D01*
%TO.N,EXP_GPB0*%
X131600000Y-28200000D02*
X132688100Y-28200000D01*
X132688100Y-28200000D02*
X133432500Y-27455600D01*
X133432500Y-26983100D02*
X132855300Y-26405900D01*
X150711400Y-26469100D02*
X153330900Y-26469100D01*
X153330900Y-26469100D02*
X154200000Y-25600000D01*
X123965800Y-14714100D02*
X123651700Y-14400000D01*
X133432500Y-27455600D02*
X133432500Y-26983100D01*
X124444600Y-14714100D02*
X123965800Y-14714100D01*
X122600000Y-14400000D02*
X123651700Y-14400000D01*
%TO.N,EXP_GPA3*%
X140003700Y-23303700D02*
X144976300Y-23303700D01*
X139700000Y-23000000D02*
X140003700Y-23303700D01*
X162000000Y-56748300D02*
X161423200Y-56748300D01*
X148996300Y-23303700D02*
X149057400Y-23242600D01*
X149747300Y-23932600D02*
X149057400Y-23242600D01*
X149057400Y-23242600D02*
X149700000Y-22600000D01*
X161423200Y-56748300D02*
X160597100Y-55922200D01*
X145812800Y-23303700D02*
X148996300Y-23303700D01*
X144976300Y-23303700D02*
X145145400Y-23472800D01*
X145643700Y-23472800D02*
X145812800Y-23303700D01*
X162000000Y-57800000D02*
X162000000Y-56748300D01*
X145145400Y-23472800D02*
X145643700Y-23472800D01*
%TO.N,PMID*%
X29750000Y-29650000D02*
X29500000Y-29400000D01*
X28863000Y-24200000D02*
X27813000Y-25250000D01*
X29750000Y-32037500D02*
X30250000Y-32037500D01*
X27813000Y-25250000D02*
X27813000Y-27713000D01*
X29750000Y-32037500D02*
X29750000Y-29650000D01*
X30100000Y-24200000D02*
X28863000Y-24200000D01*
X27813000Y-25250000D02*
X27000000Y-25250000D01*
X27813000Y-27713000D02*
X29500000Y-29400000D01*
%TO.N,EXP_GPB4*%
X156717000Y-60805500D02*
X156717000Y-60805400D01*
X161800000Y-63800000D02*
X160748300Y-63800000D01*
X135600600Y-28049400D02*
X134202200Y-28049400D01*
X131600000Y-35800000D02*
X133571000Y-35800000D01*
X136400000Y-27250000D02*
X135600600Y-28049400D01*
X160748300Y-63800000D02*
X157753800Y-60805500D01*
X157753800Y-60805500D02*
X156717000Y-60805500D01*
%TO.N,EXP_GPB5*%
X143800000Y-27250000D02*
X143800000Y-27719000D01*
X131600000Y-33900000D02*
X132769200Y-33900000D01*
X152800000Y-67548300D02*
X153103300Y-67548300D01*
X152800000Y-68600000D02*
X152800000Y-67548300D01*
X143800000Y-27719000D02*
X144257500Y-28176500D01*
X153103300Y-67548300D02*
X153343400Y-67308200D01*
%TO.N,EXP_GPB6*%
X156348300Y-68800000D02*
X155448300Y-69700000D01*
X155448300Y-69700000D02*
X151233600Y-69700000D01*
X137675000Y-26812500D02*
X138412500Y-26812500D01*
X148670200Y-67136600D02*
X147034300Y-67136600D01*
X138412500Y-26812500D02*
X138800000Y-27200000D01*
X129325000Y-33900000D02*
X128963000Y-33538000D01*
X151233600Y-69700000D02*
X148670200Y-67136600D01*
X128963000Y-33538000D02*
X128963000Y-33059700D01*
X157400000Y-68800000D02*
X156348300Y-68800000D01*
%TO.N,EXP_GPB7*%
X160748300Y-68800000D02*
X159696600Y-67748300D01*
X155395200Y-67748300D02*
X154882200Y-68261300D01*
X141197600Y-27252400D02*
X141200000Y-27250000D01*
X129325000Y-35800000D02*
X129954500Y-36429500D01*
X159696600Y-67748300D02*
X155395200Y-67748300D01*
X129954500Y-36429500D02*
X130465400Y-36429500D01*
X161800000Y-68800000D02*
X160748300Y-68800000D01*
X139888200Y-27252400D02*
X141197600Y-27252400D01*
%TO.N,FB_3V3*%
X82419700Y-27244700D02*
X84175000Y-29000000D01*
X81125000Y-22800000D02*
X81579600Y-22800000D01*
X81579600Y-22800000D02*
X82419700Y-23640100D01*
X82419700Y-23640100D02*
X82419700Y-27244700D01*
X84175000Y-29000000D02*
X80825000Y-29000000D01*
%TO.N,EN_3V3*%
X78200000Y-23750000D02*
X77600000Y-23150000D01*
X81125000Y-23750000D02*
X78200000Y-23750000D01*
%TO.N,SW_3V3*%
X94950000Y-19400000D02*
X90700000Y-19400000D01*
X99550000Y-24000000D02*
X94950000Y-19400000D01*
X83400000Y-23750000D02*
X86350000Y-23750000D01*
X86350000Y-23750000D02*
X90700000Y-19400000D01*
%TO.N,BST_3V3*%
X86800000Y-19400000D02*
X89150000Y-19400000D01*
X83400000Y-22800000D02*
X86800000Y-19400000D01*
%TO.N,CO_GATE*%
X30000000Y-43969000D02*
X31482500Y-45451500D01*
X25710900Y-42730900D02*
X26063500Y-43083500D01*
X26063500Y-43083500D02*
X26561800Y-43083500D01*
X24463800Y-42730900D02*
X25710900Y-42730900D01*
X48500000Y-41100000D02*
X48500000Y-41106200D01*
X48500000Y-41106200D02*
X47572400Y-42033800D01*
X34101500Y-45451500D02*
X35250000Y-46600000D01*
X30000000Y-43053900D02*
X30000000Y-43969000D01*
X23931800Y-43262900D02*
X24463800Y-42730900D01*
X28100000Y-49450000D02*
X25381700Y-49450000D01*
X29627400Y-42681300D02*
X30000000Y-43053900D01*
X26964000Y-42681300D02*
X29627400Y-42681300D01*
X26561800Y-43083500D02*
X26964000Y-42681300D01*
X33741500Y-45451500D02*
X34101500Y-45451500D01*
X31482500Y-45451500D02*
X33741500Y-45451500D01*
X25381700Y-49450000D02*
X23931800Y-48000100D01*
X23931800Y-48000100D02*
X23931800Y-43262900D01*
%TO.N,MCP_GPB1*%
X150930000Y-27720000D02*
X151400000Y-27250000D01*
X150930000Y-30000000D02*
X150930000Y-27720000D01*
%TO.N,EXP_GPB1*%
X151345500Y-25654500D02*
X149842200Y-25654500D01*
X131590500Y-24459700D02*
X131582400Y-24451600D01*
X132800000Y-15653600D02*
X132800000Y-14400000D01*
X149842200Y-25654500D02*
X148647400Y-24459700D01*
X131600000Y-24459700D02*
X131600000Y-26300000D01*
X131600000Y-24459700D02*
X131590500Y-24459700D01*
X151400000Y-25600000D02*
X151345500Y-25654500D01*
X148647400Y-24459700D02*
X131600000Y-24459700D01*
%TO.N,CELL_MID*%
X26728100Y-41476800D02*
X21598500Y-41476800D01*
X28931300Y-39880700D02*
X28931300Y-37668600D01*
X33557700Y-41178000D02*
X34218700Y-41839000D01*
X31190100Y-39999700D02*
X30990200Y-40199600D01*
X26828800Y-41577500D02*
X26728100Y-41476800D01*
X44500000Y-57800000D02*
X41400000Y-57800000D01*
X36114000Y-41839000D02*
X37775000Y-43500000D01*
X28931300Y-37668600D02*
X29750000Y-36849900D01*
X21000100Y-37199900D02*
X22000000Y-36200000D01*
X50700000Y-51600000D02*
X50851200Y-51448800D01*
X21000100Y-40878400D02*
X21000100Y-37199900D01*
X33158200Y-41577500D02*
X26828800Y-41577500D01*
X29750000Y-36849900D02*
X29750000Y-35962500D01*
X51550000Y-32400000D02*
X51727300Y-32400000D01*
X30990200Y-40199600D02*
X29250200Y-40199600D01*
X37775000Y-43545000D02*
X37775000Y-43500000D01*
X33557700Y-41178000D02*
X33158200Y-41577500D01*
X29250200Y-40199600D02*
X28931300Y-39880700D01*
X51550000Y-36000000D02*
X51650000Y-36100000D01*
X50851200Y-51448800D02*
X50851200Y-49366200D01*
X33204700Y-39999700D02*
X31190100Y-39999700D01*
X50700000Y-51600000D02*
X44500000Y-57800000D01*
X33557700Y-41178000D02*
X33557700Y-40352700D01*
X34218700Y-41839000D02*
X36114000Y-41839000D01*
X38910800Y-44680800D02*
X37775000Y-43545000D01*
X21598500Y-41476800D02*
X21000100Y-40878400D01*
X51727300Y-32400000D02*
X52375000Y-31752300D01*
X51550000Y-32400000D02*
X51550000Y-36000000D01*
X33557700Y-40352700D02*
X33204700Y-39999700D01*
%TO.N,+5V_SW*%
D73*
X52350000Y-14920000D02*
X57043300Y-14920000D01*
X57043300Y-14920000D02*
X57123300Y-15000000D01*
X58500000Y-15000000D02*
X57123300Y-15000000D01*
X85994600Y-53815600D02*
X86129000Y-53950000D01*
X86129000Y-53950000D02*
X96500000Y-53950000D01*
%TO.N,PROT_VDD*%
D10*
X65565686Y-34300000D02*
X68100000Y-34300000D01*
X65262500Y-32750000D02*
X65262500Y-33996814D01*
X56400000Y-40500000D02*
X61000000Y-35900000D01*
X65262500Y-33996814D02*
X65565686Y-34300000D01*
X53500000Y-40500000D02*
X56400000Y-40500000D01*
X66250000Y-25500000D02*
X66900000Y-25500000D01*
X66900000Y-25500000D02*
X67200000Y-25200000D01*
%TO.N,PROT_VC*%
X64725000Y-25475000D02*
X64700000Y-25500000D01*
X62666700Y-27533300D02*
X58066700Y-27533300D01*
X66650000Y-32750000D02*
X67200000Y-32200000D01*
X65662500Y-32750000D02*
X66650000Y-32750000D01*
X64725000Y-22000000D02*
X64725000Y-25475000D01*
X64700000Y-25500000D02*
X62666700Y-27533300D01*
X58066700Y-27533300D02*
X53200000Y-32400000D01*
%TO.N,MCP_GPA1*%
X132700000Y-21050000D02*
X133442500Y-20307500D01*
X133442500Y-20307500D02*
X136242400Y-20307500D01*
X143208400Y-37511000D02*
X144580000Y-38882600D01*
X144580000Y-38882600D02*
X144580000Y-39300000D01*
%TO.N,EXP_GPA1*%
X119200000Y-14400000D02*
X120251700Y-14400000D01*
X128719600Y-21464900D02*
X125825000Y-18570300D01*
X125825000Y-18570300D02*
X125825000Y-17812400D01*
X125825000Y-17812400D02*
X123464300Y-15451700D01*
X137800000Y-20725000D02*
X135825000Y-22700000D01*
X135825000Y-22700000D02*
X132700000Y-22700000D01*
X132700000Y-22700000D02*
X131464900Y-21464900D01*
X131464900Y-21464900D02*
X128719600Y-21464900D01*
X123464300Y-15451700D02*
X121303400Y-15451700D01*
X121303400Y-15451700D02*
X120251700Y-14400000D01*
%TO.N,BQ_PACK*%
X64062500Y-40139582D02*
X56677082Y-47525000D01*
X64062500Y-32750000D02*
X64062500Y-40139582D01*
X51832044Y-47525000D02*
X43900000Y-39592956D01*
X56677082Y-47525000D02*
X51832044Y-47525000D01*
X43900000Y-39592956D02*
X43900000Y-38600000D01*
%TO.N,EN_5V*%
X24553800Y-70384500D02*
X23826800Y-69657500D01*
X26650000Y-69500000D02*
X25765500Y-70384500D01*
X25765500Y-70384500D02*
X24553800Y-70384500D01*
X26450000Y-58061100D02*
X26450000Y-57475000D01*
X23826800Y-69657500D02*
X23826800Y-66128200D01*
X25592400Y-58918700D02*
X26450000Y-58061100D01*
%TO.N,SW_5V*%
X19020000Y-61600000D02*
X16582800Y-61600000D01*
X16516200Y-56561100D02*
X20238400Y-56561100D01*
X26450000Y-52250000D02*
X26800000Y-51900000D01*
X20238400Y-56561100D02*
X20498400Y-56301100D01*
X15251600Y-60268800D02*
X15251600Y-57825700D01*
X26450000Y-55200000D02*
X26450000Y-52250000D01*
X16582800Y-61600000D02*
X15251600Y-60268800D01*
X26450000Y-55575900D02*
X26450000Y-55200000D01*
X15251600Y-57825700D02*
X16516200Y-56561100D01*
X20498400Y-56301100D02*
X25724800Y-56301100D01*
X25724800Y-56301100D02*
X26450000Y-55575900D01*
%TO.N,BST_5V*%
X25250000Y-54950000D02*
X25500000Y-55200000D01*
X25250000Y-51900000D02*
X25250000Y-54950000D01*
%TO.N,MCP_A2*%
X138230000Y-39300000D02*
X138802500Y-39872500D01*
X138802500Y-39872500D02*
X138802500Y-45997500D01*
X138802500Y-45997500D02*
X138000000Y-46800000D01*
%TO.N,REGN*%
X42450000Y-33900000D02*
X44432900Y-35882900D01*
X44432900Y-35886200D02*
X46336200Y-35886200D01*
X44432900Y-35882900D02*
X44432900Y-35886200D01*
X29650000Y-39400000D02*
X30612600Y-38437400D01*
X30750000Y-38300000D02*
X30750000Y-35962500D01*
X46336200Y-35886200D02*
X46650000Y-36200000D01*
X42450000Y-33900000D02*
X45250000Y-31100000D01*
X45250000Y-31100000D02*
X46650000Y-31100000D01*
X30612600Y-38437400D02*
X30750000Y-38300000D01*
X44432900Y-35886200D02*
X44432100Y-35887000D01*
%TO.N,LED_PGOOD_A*%
X26505400Y-74028600D02*
X26505400Y-74028500D01*
X48441700Y-36058300D02*
X49228600Y-36058300D01*
X48300000Y-36200000D02*
X48441700Y-36058300D01*
X24696400Y-74028600D02*
X26505400Y-74028600D01*
X23325000Y-75400000D02*
X24696400Y-74028600D01*
%TO.N,CTRL_5V_SW*%
X48180900Y-46313900D02*
X49050000Y-47183000D01*
X49050000Y-47183000D02*
X49050000Y-47200000D01*
%TO.N,MCP_GPA7*%
X152200000Y-40917200D02*
X152200000Y-39300000D01*
X154800000Y-43517200D02*
X152200000Y-40917200D01*
X154800000Y-43650000D02*
X154800000Y-43517200D01*
%TO.N,CTRL_3V3_SW*%
X85560000Y-47040000D02*
X90000000Y-42600000D01*
X82900000Y-47040000D02*
X85560000Y-47040000D01*
%TO.N,GPIO21*%
X123000000Y-41400000D02*
X122051700Y-41400000D01*
X117200000Y-45200000D02*
X118251700Y-45200000D01*
X122051700Y-41400000D02*
X118251700Y-45200000D01*
%TO.N,MCP_GPB3*%
X147149000Y-27015500D02*
X148390000Y-28256500D01*
X146200000Y-25701000D02*
X147149000Y-26650000D01*
X148390000Y-28256500D02*
X148390000Y-30000000D01*
X146200000Y-25600000D02*
X146200000Y-25701000D01*
X147149000Y-26650000D02*
X147149000Y-27015500D01*
%TO.N,BATT_RAW_P*%
D72*
X22971200Y-52028800D02*
X21000000Y-54000000D01*
X20282233Y-53150000D02*
X20132234Y-53000000D01*
X36225000Y-43500000D02*
X34500000Y-43500000D01*
X22200000Y-47800000D02*
X22971200Y-48571200D01*
X20282233Y-53282233D02*
X20282233Y-53150000D01*
X34500000Y-43500000D02*
X34000000Y-43000000D01*
X65600000Y-16500000D02*
X61500000Y-16500000D01*
X20132234Y-53000000D02*
X15000000Y-53000000D01*
X22971200Y-48571200D02*
X22971200Y-52028800D01*
X15000000Y-53000000D02*
X14000000Y-54000000D01*
D10*
X61900000Y-52500000D02*
X61900000Y-49500000D01*
D72*
X54450000Y-38850000D02*
X55100000Y-39500000D01*
X21000000Y-54000000D02*
X20282233Y-53282233D01*
X22200000Y-44200000D02*
X22000000Y-44000000D01*
D10*
X53500000Y-38850000D02*
X54450000Y-38850000D01*
D72*
X61500000Y-16500000D02*
X61000000Y-17000000D01*
X22200000Y-47800000D02*
X22200000Y-44200000D01*
X54450000Y-38850000D02*
X53522400Y-38850000D01*
%TO.N,BATT_RAW_N*%
X72340200Y-25244725D02*
X69150000Y-28434925D01*
X52272400Y-37425000D02*
X52272400Y-42372400D01*
X68960200Y-20266600D02*
X73543600Y-24850000D01*
X63082300Y-31757300D02*
X58739600Y-36100000D01*
X65875200Y-30325200D02*
X65875200Y-31774800D01*
X73572200Y-24850000D02*
X73800000Y-24850000D01*
X64662500Y-31150000D02*
X64662500Y-31137500D01*
X52400000Y-46300000D02*
X54300000Y-44400000D01*
X68097000Y-30325200D02*
X73572200Y-24850000D01*
X67226800Y-22000000D02*
X68960200Y-20266600D01*
D10*
X65712500Y-30025000D02*
X65712500Y-29550000D01*
X65750000Y-32250000D02*
X65750000Y-30200000D01*
D72*
X52272400Y-42372400D02*
X54300000Y-44400000D01*
X69150000Y-28434925D02*
X69150000Y-31464908D01*
X58739600Y-36100000D02*
X53200000Y-36100000D01*
X65800000Y-31850000D02*
X65750000Y-31850000D01*
X53200000Y-36100000D02*
X53200000Y-36497400D01*
X63800000Y-31700000D02*
X63800000Y-30450000D01*
X68097000Y-30325200D02*
X68097000Y-30722000D01*
X63082300Y-31757300D02*
X63742700Y-31757300D01*
X70600000Y-18626800D02*
X70600000Y-16500000D01*
X64662500Y-31137500D02*
X64886700Y-30913300D01*
D10*
X64886700Y-30913300D02*
X64899200Y-30913300D01*
D72*
X73543600Y-24850000D02*
X73800000Y-24850000D01*
X68097000Y-30722000D02*
X70800000Y-33425000D01*
X68097000Y-30325200D02*
X65875200Y-30325200D01*
X66275000Y-22000000D02*
X67226800Y-22000000D01*
X53200000Y-36497400D02*
X52272400Y-37425000D01*
X72340200Y-23875575D02*
X72340200Y-25244725D01*
X68960200Y-20266600D02*
X70600000Y-18626800D01*
X65875200Y-31774800D02*
X65800000Y-31850000D01*
X54300000Y-44400000D02*
X58600000Y-44400000D01*
X63742700Y-31757300D02*
X63800000Y-31700000D01*
%TO.N,BQ_SRN*%
D10*
X71800000Y-30175000D02*
X70924900Y-30175000D01*
X65900000Y-28100000D02*
X68000000Y-28100000D01*
X71290200Y-24310500D02*
X70154700Y-23175000D01*
X70924900Y-30175000D02*
X70718800Y-29968900D01*
X65262500Y-28737500D02*
X65900000Y-28100000D01*
X70154700Y-23175000D02*
X70000000Y-23175000D01*
X65262500Y-29550000D02*
X65262500Y-28737500D01*
%TO.N,BQ_SRP*%
X75390500Y-29874900D02*
X73049900Y-29874900D01*
X75888100Y-25288100D02*
X75888100Y-29377300D01*
X73800000Y-23200000D02*
X75888100Y-25288100D01*
X73800000Y-23200000D02*
X73800000Y-22700000D01*
X73049900Y-29874900D02*
X71800000Y-28625000D01*
X64862500Y-29550000D02*
X64862500Y-28571814D01*
X73800000Y-22700000D02*
X72800000Y-21700000D01*
X75888100Y-29377300D02*
X75390500Y-29874900D01*
X66734314Y-26700000D02*
X68400000Y-26700000D01*
X64862500Y-28571814D02*
X66734314Y-26700000D01*
%TO.N,BQ_DSG*%
X63662500Y-32750000D02*
X62400000Y-34012500D01*
X62400000Y-34012500D02*
X62400000Y-34500000D01*
X66000000Y-37650000D02*
X66000000Y-38600000D01*
%TO.N,BQ_CHG*%
X43200000Y-38112352D02*
X43200000Y-39458642D01*
X64462500Y-40305268D02*
X64462500Y-37637500D01*
X66775000Y-36412648D02*
X66775000Y-35587352D01*
X46850000Y-40362352D02*
X44312648Y-37825000D01*
X65400000Y-36700000D02*
X66487648Y-36700000D01*
X51666358Y-47925000D02*
X56842767Y-47925000D01*
X64800000Y-35300000D02*
X64462500Y-34962500D01*
X43200000Y-39458642D02*
X51666358Y-47925000D01*
X56842767Y-47925000D02*
X64462500Y-40305268D01*
X66487648Y-36700000D02*
X66775000Y-36412648D01*
X44312648Y-37825000D02*
X43487352Y-37825000D01*
X64462500Y-34962500D02*
X64462500Y-32750000D01*
X46850000Y-41100000D02*
X46850000Y-40362352D01*
X66775000Y-35587352D02*
X66487648Y-35300000D01*
X64462500Y-37637500D02*
X65400000Y-36700000D01*
X43487352Y-37825000D02*
X43200000Y-38112352D01*
X66487648Y-35300000D02*
X64800000Y-35300000D01*
%TO.N,BQ_PBI*%
X64862500Y-34162500D02*
X65600000Y-34900000D01*
X70725000Y-34900000D02*
X70800000Y-34975000D01*
X65600000Y-34900000D02*
X70725000Y-34900000D01*
X64862500Y-32750000D02*
X64862500Y-34162500D01*
%TO.N,MCP_GPA6*%
X150930000Y-42580000D02*
X150930000Y-39300000D01*
X152000000Y-43650000D02*
X150930000Y-42580000D01*
%TO.N,CC2*%
D71*
X76780000Y-46370000D02*
X78150000Y-45000000D01*
X76780000Y-50120000D02*
X76780000Y-46370000D01*
%TO.N,CC1*%
X75780000Y-46755000D02*
X74025000Y-45000000D01*
X75780000Y-50120000D02*
X75780000Y-46755000D01*
%TO.N,MCP_GPA0*%
D10*
X145230700Y-42480700D02*
X145230700Y-41883800D01*
X145230700Y-41883800D02*
X143310000Y-39963100D01*
X146400000Y-43650000D02*
X145230700Y-42480700D01*
X143310000Y-39963100D02*
X143310000Y-39300000D01*
%TO.N,EXP_GPA0*%
X145598500Y-40865800D02*
X146400000Y-41667300D01*
X116851700Y-14400000D02*
X117060800Y-14190900D01*
X140567700Y-20725000D02*
X140600500Y-20757800D01*
X146400000Y-41667300D02*
X146400000Y-42000000D01*
X139700000Y-20725000D02*
X140567700Y-20725000D01*
X115800000Y-14400000D02*
X116851700Y-14400000D01*
%TO.N,GPIO14*%
X123000000Y-38860000D02*
X119591700Y-38860000D01*
X119591700Y-38860000D02*
X118251700Y-40200000D01*
X117200000Y-40200000D02*
X118251700Y-40200000D01*
%TO.N,PG_STAT*%
X23232400Y-69918600D02*
X23232400Y-69918500D01*
X60975000Y-41725000D02*
X61500000Y-41200000D01*
X25985100Y-75400000D02*
X27153800Y-74231300D01*
X26532800Y-32750000D02*
X26363200Y-32919600D01*
X27153800Y-73805700D02*
X23266700Y-69918600D01*
X59137700Y-41725000D02*
X60975000Y-41725000D01*
X23266700Y-69918600D02*
X23232400Y-69918600D01*
X27153800Y-74231300D02*
X27153800Y-73805700D01*
X28037500Y-32750000D02*
X26532800Y-32750000D01*
X24900000Y-75400000D02*
X25985100Y-75400000D01*
%TO.N,GPIO3*%
X90285600Y-40664400D02*
X101545600Y-40664400D01*
X101545600Y-40664400D02*
X107010000Y-35200000D01*
X88350000Y-42600000D02*
X90285600Y-40664400D01*
X107010000Y-35200000D02*
X117200000Y-35200000D01*
%TO.N,UART_TX*%
X98003900Y-52714200D02*
X95067300Y-52714200D01*
X99000000Y-53710300D02*
X98003900Y-52714200D01*
X99000000Y-53950000D02*
X99000000Y-53710300D01*
X66575800Y-20000000D02*
X66953400Y-20377600D01*
X58500000Y-20000000D02*
X66575800Y-20000000D01*
X95067300Y-52714200D02*
X94827100Y-52954400D01*
%TO.N,MCP_GPB5*%
X144749000Y-26549000D02*
X144749000Y-27017500D01*
X145850000Y-28118500D02*
X145850000Y-30000000D01*
X144749000Y-27017500D02*
X145850000Y-28118500D01*
X143800000Y-25600000D02*
X144749000Y-26549000D01*
%TO.N,LED_CHG_A*%
X49925000Y-32346900D02*
X49546900Y-32346900D01*
X49546900Y-32346900D02*
X48300000Y-31100000D01*
X26127600Y-76191800D02*
X26571500Y-75747900D01*
X19916800Y-76191800D02*
X26127600Y-76191800D01*
X19025000Y-75300000D02*
X19916800Y-76191800D01*
%TO.N,CHG_STAT*%
X58240400Y-34759600D02*
X57584500Y-34759600D01*
X27275100Y-33250000D02*
X27109100Y-33416000D01*
X58600000Y-34400000D02*
X58240400Y-34759600D01*
X20600000Y-73936900D02*
X20451400Y-73788300D01*
X28037500Y-33250000D02*
X27275100Y-33250000D01*
X20600000Y-75300000D02*
X20600000Y-73936900D01*
%TO.N,AIN2*%
X90103400Y-22196600D02*
X90103400Y-21771700D01*
X139000000Y-17307500D02*
X139000000Y-15950000D01*
X89600000Y-22700000D02*
X90103400Y-22196600D01*
%TO.N,MCP_GPB7*%
X142379200Y-26675500D02*
X141303700Y-25600000D01*
X143310000Y-30000000D02*
X143310000Y-28742400D01*
X141303700Y-25600000D02*
X141200000Y-25600000D01*
X143310000Y-28742400D02*
X142379200Y-27811600D01*
X142379200Y-27811600D02*
X142379200Y-26675500D01*
%TO.N,MCP_INTA*%
X142040000Y-39300000D02*
X142040000Y-40440000D01*
X143600000Y-42000000D02*
X143773600Y-42173600D01*
X143773600Y-42173600D02*
X144588300Y-42173600D01*
X142040000Y-40440000D02*
X143600000Y-42000000D01*
X147200000Y-60800000D02*
X147200000Y-59748300D01*
X147200000Y-59748300D02*
X147559300Y-59389000D01*
X147559300Y-59389000D02*
X147559300Y-59375000D01*
%TO.N,BTST*%
X34600000Y-35200000D02*
X33602900Y-35200000D01*
X31913800Y-36626300D02*
X32007700Y-36626300D01*
X31250000Y-35962500D02*
X31913800Y-36626300D01*
%TO.N,CHG_SW*%
X33800000Y-24200000D02*
X33800000Y-30912500D01*
X34200000Y-33250000D02*
X34600000Y-33650000D01*
X33800000Y-30912500D02*
X31962500Y-32750000D01*
X31962500Y-32750000D02*
X31962500Y-33250000D01*
X31962500Y-33250000D02*
X34200000Y-33250000D01*
%TO.N,MCP_GPB0*%
X154200000Y-28000000D02*
X154200000Y-27250000D01*
X152200000Y-30000000D02*
X154200000Y-28000000D01*
%TO.N,MCP_GPB4*%
X147120000Y-30000000D02*
X147120000Y-30414300D01*
X146134700Y-31399600D02*
X143030300Y-31399600D01*
X141977500Y-26841800D02*
X141683200Y-26547500D01*
X142675000Y-31044300D02*
X142675000Y-28944300D01*
X138088400Y-26375000D02*
X137313400Y-25600000D01*
X143030300Y-31399600D02*
X142675000Y-31044300D01*
X139227800Y-26375000D02*
X138088400Y-26375000D01*
X137313400Y-25600000D02*
X136400000Y-25600000D01*
X141977500Y-28246800D02*
X141977500Y-26841800D01*
X147120000Y-30414300D02*
X146134700Y-31399600D01*
X139400300Y-26547500D02*
X139227800Y-26375000D01*
X142675000Y-28944300D02*
X141977500Y-28246800D01*
X141683200Y-26547500D02*
X139400300Y-26547500D01*
%TO.N,MCP_GPB6*%
X141756900Y-24880100D02*
X142928200Y-26051400D01*
X139469900Y-24880100D02*
X141756900Y-24880100D01*
X142928200Y-26051400D02*
X142928200Y-27698000D01*
X138800000Y-25550000D02*
X139469900Y-24880100D01*
X144580000Y-29349800D02*
X144580000Y-30000000D01*
X142928200Y-27698000D02*
X144580000Y-29349800D01*
%TO.N,MCP_A1*%
X136960000Y-39300000D02*
X136960000Y-40910000D01*
X136960000Y-40910000D02*
X138000000Y-41950000D01*
%TO.N,MCP_GPA2*%
X145850000Y-39300000D02*
X146165800Y-38984200D01*
X143824900Y-20374900D02*
X144400000Y-20950000D01*
X142562300Y-20374900D02*
X143824900Y-20374900D01*
X146165800Y-38984200D02*
X146165800Y-37555400D01*
%TO.N,MCP_GPA3*%
X147315600Y-20950000D02*
X145394500Y-22871100D01*
X149700000Y-20950000D02*
X147315600Y-20950000D01*
X147120000Y-38172700D02*
X147120000Y-39300000D01*
X147578900Y-37713800D02*
X147120000Y-38172700D01*
%TO.N,MCP_GPA4*%
X147988300Y-39701700D02*
X147988300Y-43938300D01*
X148390000Y-39300000D02*
X147988300Y-39701700D01*
X147988300Y-43938300D02*
X149200000Y-45150000D01*
%TO.N,AIN1*%
X33000000Y-15950000D02*
X33000000Y-16679400D01*
X93584100Y-22384100D02*
X92639800Y-22384100D01*
X33000000Y-16679400D02*
X33542900Y-17222300D01*
X93900000Y-22700000D02*
X93584100Y-22384100D01*
%TO.N,AIN3*%
X88838400Y-23200000D02*
X88536700Y-22898300D01*
X151000000Y-14640700D02*
X151000000Y-15950000D01*
X88536700Y-22898300D02*
X88536700Y-22430000D01*
X151080600Y-14560100D02*
X151000000Y-14640700D01*
X88536700Y-22430000D02*
X89191100Y-21775600D01*
X89600000Y-23200000D02*
X88838400Y-23200000D01*
%TO.N,UART_RX*%
X83418700Y-52312500D02*
X83010500Y-51904300D01*
X98900200Y-52312500D02*
X83418700Y-52312500D01*
X58500000Y-26162800D02*
X59138800Y-26801600D01*
X58500000Y-25000000D02*
X58500000Y-26162800D01*
X100250000Y-53950000D02*
X100250000Y-53662300D01*
X100250000Y-53662300D02*
X98900200Y-52312500D01*
%TO.N,AIN0*%
X92757400Y-23200000D02*
X92656800Y-23300600D01*
X20877100Y-17306800D02*
X21000000Y-17183900D01*
X93900000Y-23200000D02*
X92757400Y-23200000D01*
X21000000Y-17183900D02*
X21000000Y-15950000D01*
%TD*%
M02*
