%TF.GenerationSoftware,KiCad,Pcbnew,10.0.3*%
%TF.CreationDate,2026-07-14T20:39:37-06:00*%
%TF.ProjectId,Daughterboard,44617567-6874-4657-9262-6f6172642e6b,rev?*%
%TF.SameCoordinates,Original*%
%TF.FileFunction,Copper,L3,Inr*%
%TF.FilePolarity,Positive*%
%FSLAX46Y46*%
G04 Gerber Fmt 4.6, Leading zero omitted, Abs format (unit mm)*
G04 Created by KiCad (PCBNEW 10.0.3) date 2026-07-14 20:39:37*
%MOMM*%
%LPD*%
G01*
G04 APERTURE LIST*
G04 Aperture macros list*
%AMRoundRect*
0 Rectangle with rounded corners*
0 $1 Rounding radius*
0 $2 $3 $4 $5 $6 $7 $8 $9 X,Y pos of 4 corners*
0 Add a 4 corners polygon primitive as box body*
4,1,4,$2,$3,$4,$5,$6,$7,$8,$9,$2,$3,0*
0 Add four circle primitives for the rounded corners*
1,1,$1+$1,$2,$3*
1,1,$1+$1,$4,$5*
1,1,$1+$1,$6,$7*
1,1,$1+$1,$8,$9*
0 Add four rect primitives between the rounded corners*
20,1,$1+$1,$2,$3,$4,$5,0*
20,1,$1+$1,$4,$5,$6,$7,0*
20,1,$1+$1,$6,$7,$8,$9,0*
20,1,$1+$1,$8,$9,$2,$3,0*%
G04 Aperture macros list end*
%TA.AperFunction,ComponentPad*%
%ADD10R,1.700000X1.700000*%
%TD*%
%TA.AperFunction,ComponentPad*%
%ADD11C,1.700000*%
%TD*%
%TA.AperFunction,ComponentPad*%
%ADD12R,1.800000X1.800000*%
%TD*%
%TA.AperFunction,ComponentPad*%
%ADD13C,1.800000*%
%TD*%
%TA.AperFunction,ComponentPad*%
%ADD14O,1.100000X1.700000*%
%TD*%
%TA.AperFunction,ComponentPad*%
%ADD15RoundRect,0.250000X-0.600000X-0.725000X0.600000X-0.725000X0.600000X0.725000X-0.600000X0.725000X0*%
%TD*%
%TA.AperFunction,ComponentPad*%
%ADD16O,1.700000X1.950000*%
%TD*%
%TA.AperFunction,ViaPad*%
%ADD17C,0.600000*%
%TD*%
%TA.AperFunction,ViaPad*%
%ADD18C,1.000000*%
%TD*%
%TA.AperFunction,ViaPad*%
%ADD19C,0.800000*%
%TD*%
%TA.AperFunction,ViaPad*%
%ADD20C,0.700000*%
%TD*%
%TA.AperFunction,Conductor*%
%ADD21C,0.200000*%
%TD*%
%TA.AperFunction,Conductor*%
%ADD22C,0.750000*%
%TD*%
%TA.AperFunction,Conductor*%
%ADD23C,1.000000*%
%TD*%
%TA.AperFunction,Conductor*%
%ADD24C,0.500000*%
%TD*%
G04 APERTURE END LIST*
D10*
%TO.N,+3V3_SW*%
%TO.C,J5*%
X122600000Y-24800000D03*
D11*
%TO.N,GND*%
X122600000Y-27340000D03*
%TO.N,I2C_SDA*%
X122600000Y-29880000D03*
%TO.N,I2C_SCL*%
X122600000Y-32420000D03*
%TD*%
D12*
%TO.N,+5V*%
%TO.C,SW1*%
X39650000Y-12380000D03*
D13*
X39650000Y-14920000D03*
%TO.N,+5V_SW*%
X52350000Y-12380000D03*
X52350000Y-14920000D03*
%TO.N,GND*%
X39650000Y-17460000D03*
X39650000Y-20000000D03*
X52350000Y-17460000D03*
X52350000Y-20000000D03*
%TO.N,CTRL_5V_SW*%
X39650000Y-27620000D03*
%TD*%
D12*
%TO.N,+3V3*%
%TO.C,SW2*%
X82900000Y-31800000D03*
D13*
X82900000Y-34340000D03*
%TO.N,+3V3_SW*%
X95600000Y-31800000D03*
X95600000Y-34340000D03*
%TO.N,GND*%
X82900000Y-36880000D03*
X82900000Y-39420000D03*
X95600000Y-36880000D03*
X95600000Y-39420000D03*
%TO.N,CTRL_3V3_SW*%
X82900000Y-47040000D03*
%TD*%
D14*
%TO.N,GND*%
%TO.C,J1*%
X71960000Y-50200000D03*
X71960000Y-54000000D03*
X80600000Y-50200000D03*
X80600000Y-54000000D03*
%TD*%
D10*
%TO.N,GPIO14*%
%TO.C,J6*%
X123000000Y-38860000D03*
D11*
%TO.N,GPIO21*%
X123000000Y-41400000D03*
%TD*%
D15*
%TO.N,BATT_RAW_N*%
%TO.C,J7*%
X70600000Y-16500000D03*
D16*
%TO.N,CELL_MID*%
X68100000Y-16500000D03*
%TO.N,BATT_RAW_P*%
X65600000Y-16500000D03*
%TD*%
D17*
%TO.N,ILIM*%
X28535300Y-37175700D03*
X25742800Y-36542800D03*
%TO.N,GND*%
X136986300Y-43720700D03*
X58500000Y-28745200D03*
X136198400Y-42269600D03*
X85854900Y-16419600D03*
X35321300Y-41204000D03*
X139941900Y-29454400D03*
X22356400Y-25233800D03*
X157644200Y-21200000D03*
X30944600Y-16755400D03*
X44452800Y-44320500D03*
X139456600Y-50304900D03*
X132784600Y-27250000D03*
X69400000Y-25900000D03*
X92809100Y-25186800D03*
D18*
X56700000Y-46000000D03*
D17*
X136935300Y-16785800D03*
X144532600Y-53242400D03*
X71793900Y-45940000D03*
X44789300Y-34614600D03*
X84578600Y-24388300D03*
X142400000Y-35100000D03*
X132800500Y-34850000D03*
X142993200Y-57259400D03*
X146309300Y-71537400D03*
X102304900Y-53397600D03*
X29288900Y-60400800D03*
X28091600Y-31793500D03*
X30803400Y-53803400D03*
X103900000Y-54900000D03*
X86736400Y-28607800D03*
X140000000Y-34800000D03*
X80748400Y-45169800D03*
X95149900Y-23700000D03*
X149438900Y-50928900D03*
X91148700Y-16493200D03*
X28206600Y-55509700D03*
X25990500Y-26603700D03*
X25981200Y-34215800D03*
X17912300Y-71112300D03*
X154434600Y-50304900D03*
X17321000Y-54643600D03*
X25873400Y-61818900D03*
X18944600Y-16755400D03*
X38904700Y-38250000D03*
X148927700Y-16629300D03*
X29191000Y-65269900D03*
X20003100Y-55872200D03*
X32419600Y-29350700D03*
X31749600Y-43510600D03*
X27831300Y-64437600D03*
X144449700Y-50304900D03*
X36800000Y-32595500D03*
X132871300Y-43122700D03*
X138750000Y-19536600D03*
X31901900Y-31737600D03*
X108732800Y-53297900D03*
%TO.N,+3V3_SW_LOGIC*%
X120739100Y-18766600D03*
X93156800Y-21765000D03*
%TO.N,I2C_SDA*%
X159150000Y-23607300D03*
X159183500Y-20910200D03*
X60650000Y-30150000D03*
X27200000Y-31700000D03*
X100559800Y-27541800D03*
X89597950Y-26002050D03*
%TO.N,I2C_SCL*%
X159462000Y-20048600D03*
X119130900Y-26453700D03*
X128157400Y-17383500D03*
X27042500Y-30790700D03*
X101465500Y-26915800D03*
X60200000Y-29000000D03*
X65594300Y-26534500D03*
D19*
%TO.N,BAT_SYS*%
X24226000Y-62004200D03*
X23074500Y-64481800D03*
X40795100Y-38334500D03*
X77600000Y-28789200D03*
D17*
%TO.N,EXP_GPB2*%
X128087000Y-14410800D03*
X130166400Y-24222400D03*
X147730700Y-26379300D03*
%TO.N,DO_GATE*%
X65012600Y-36018400D03*
X14750000Y-32301700D03*
D18*
%TO.N,FET_SRC_COMMON*%
X39500000Y-46300000D03*
X28100000Y-47000000D03*
X16800000Y-51300000D03*
D17*
%TO.N,MCP_INTB*%
X139815100Y-41775700D03*
X141731400Y-56290900D03*
D19*
%TO.N,+5V*%
X37978000Y-57144500D03*
D18*
%TO.N,USB_VBUS*%
X77800000Y-48707000D03*
X21721200Y-50978800D03*
X74680100Y-48687600D03*
%TO.N,CHG_IN*%
X20344400Y-65269900D03*
X23575100Y-35580500D03*
X25966700Y-29384900D03*
D20*
%TO.N,+3V3_SW*%
X150345200Y-24900300D03*
X73891400Y-28966200D03*
X37180000Y-24132500D03*
D18*
%TO.N,FET_BATT_P*%
X21900000Y-33600000D03*
X18200000Y-25700000D03*
X20600000Y-42400000D03*
D17*
%TO.N,GPIO2*%
X118482900Y-30081400D03*
X47400000Y-45960100D03*
%TO.N,TS*%
X61800000Y-28300000D03*
X28000000Y-40600000D03*
%TO.N,EXP_GPB3*%
X146485000Y-28415900D03*
X130130700Y-29005700D03*
X157613000Y-61673400D03*
%TO.N,EXP_GPA4*%
X132489700Y-44564700D03*
X148209400Y-46712300D03*
%TO.N,EXP_GPA7*%
X130198700Y-44548700D03*
X153737100Y-43305200D03*
%TO.N,MCP_RESET*%
X139554800Y-37768900D03*
X142362300Y-59283900D03*
%TO.N,CBSET*%
X29741900Y-37839300D03*
X44217200Y-49399700D03*
X29741900Y-44565100D03*
%TO.N,EXP_GPB0*%
X150711400Y-26469100D03*
X132855300Y-26405900D03*
X124444600Y-14714100D03*
%TO.N,EXP_GPA3*%
X149747300Y-23932600D03*
X160597100Y-55922200D03*
%TO.N,EXP_GPB4*%
X154476200Y-38502500D03*
X133571000Y-35800000D03*
X156717000Y-60805400D03*
X134202200Y-28049400D03*
%TO.N,EXP_GPB5*%
X144257500Y-28176500D03*
X153343400Y-67308200D03*
X132769200Y-33900000D03*
%TO.N,EXP_GPB6*%
X137675000Y-26812500D03*
X128963000Y-33059700D03*
X147034300Y-67136600D03*
%TO.N,EXP_GPB7*%
X130465400Y-36429500D03*
X139888200Y-27252400D03*
X154882200Y-68261300D03*
%TO.N,CO_GATE*%
X47572400Y-42033800D03*
X33741500Y-45451500D03*
%TO.N,EXP_GPB1*%
X132800000Y-15653600D03*
X131582400Y-24451600D03*
%TO.N,CELL_MID*%
X52375000Y-31752300D03*
X38910800Y-44680800D03*
X50851200Y-49366200D03*
D19*
%TO.N,+5V_SW*%
X85994600Y-53815600D03*
D17*
%TO.N,PROT_VDD*%
X67200000Y-25200000D03*
X68100000Y-34300000D03*
X61000000Y-35900000D03*
%TO.N,PROT_VC*%
X62666700Y-27533300D03*
X67200000Y-32200000D03*
%TO.N,MCP_GPA1*%
X136242400Y-20307500D03*
X143208400Y-37511000D03*
%TO.N,EN_5V*%
X25592400Y-58918700D03*
X23826800Y-66128200D03*
%TO.N,REGN*%
X30612600Y-38437400D03*
X44432100Y-35887000D03*
%TO.N,LED_PGOOD_A*%
X26505400Y-74028500D03*
X49228600Y-36058300D03*
%TO.N,CTRL_5V_SW*%
X48180900Y-46313900D03*
D18*
%TO.N,BATT_RAW_P*%
X14000000Y-54000000D03*
X34000000Y-43000000D03*
D17*
X61900000Y-49500000D03*
D18*
X55100000Y-39500000D03*
X61000000Y-17000000D03*
D17*
%TO.N,BQ_SRN*%
X71290200Y-24310500D03*
X70718800Y-29968900D03*
X68000000Y-28100000D03*
%TO.N,BQ_SRP*%
X68400000Y-26700000D03*
X72800000Y-21700000D03*
%TO.N,BQ_DSG*%
X62400000Y-34500000D03*
X66000000Y-38600000D03*
%TO.N,EXP_GPA0*%
X145598500Y-40865800D03*
X117060800Y-14190900D03*
X140600500Y-20757800D03*
%TO.N,PG_STAT*%
X59137700Y-41725000D03*
X55706000Y-35045500D03*
X23232400Y-69918500D03*
X26363200Y-32919600D03*
%TO.N,UART_TX*%
X66953400Y-20377600D03*
X94827100Y-52954400D03*
%TO.N,LED_CHG_A*%
X49925000Y-32346900D03*
X26571500Y-75747900D03*
%TO.N,CHG_STAT*%
X20451400Y-73788300D03*
X27109100Y-33416000D03*
X57584500Y-34759600D03*
%TO.N,AIN2*%
X139000000Y-17307500D03*
X90103400Y-21771700D03*
%TO.N,MCP_INTA*%
X147559300Y-59375000D03*
X144588300Y-42173600D03*
%TO.N,BTST*%
X33602900Y-35200000D03*
X32007700Y-36626300D03*
%TO.N,MCP_GPA2*%
X146165800Y-37555400D03*
X142562300Y-20374900D03*
%TO.N,MCP_GPA3*%
X147578900Y-37713800D03*
X145394500Y-22871100D03*
%TO.N,AIN1*%
X92639800Y-22384100D03*
X33542900Y-17222300D03*
%TO.N,AIN3*%
X151080600Y-14560100D03*
X89191100Y-21775600D03*
%TO.N,UART_RX*%
X83010500Y-51904300D03*
X59138800Y-26801600D03*
%TO.N,AIN0*%
X20877100Y-17306800D03*
X92656800Y-23300600D03*
%TD*%
%TO.N,ILIM*%
D21*
X28535300Y-37175700D02*
X26375700Y-37175700D01*
X26375700Y-37175700D02*
X25742800Y-36542800D01*
%TO.N,GND*%
X47132300Y-47000000D02*
X44452800Y-44320500D01*
X56700000Y-46000000D02*
X55700000Y-47000000D01*
X55700000Y-47000000D02*
X47132300Y-47000000D01*
X132800500Y-38871700D02*
X136198400Y-42269600D01*
X132800500Y-34850000D02*
X132800500Y-38871700D01*
%TO.N,+3V3_SW_LOGIC*%
X120739100Y-18766600D02*
X117740700Y-21765000D01*
X117740700Y-21765000D02*
X93156800Y-21765000D01*
%TO.N,I2C_SDA*%
X26318782Y-28534900D02*
X25614618Y-28534900D01*
X25116700Y-29032818D02*
X25116700Y-30516700D01*
X25116700Y-30516700D02*
X26300000Y-31700000D01*
X156995500Y-25761800D02*
X159150000Y-23607300D01*
X120261800Y-27541800D02*
X122600000Y-29880000D01*
X27933882Y-30150000D02*
X26318782Y-28534900D01*
X100559800Y-27541800D02*
X120261800Y-27541800D01*
X25614618Y-28534900D02*
X25116700Y-29032818D01*
X128138900Y-29880000D02*
X132257100Y-25761800D01*
X132257100Y-25761800D02*
X156995500Y-25761800D01*
X26300000Y-31700000D02*
X27200000Y-31700000D01*
X60650000Y-30150000D02*
X27933882Y-30150000D01*
X122600000Y-29880000D02*
X128138900Y-29880000D01*
%TO.N,I2C_SCL*%
X101465500Y-26915800D02*
X118668800Y-26915800D01*
X60900000Y-29000000D02*
X62014400Y-30114400D01*
X60200000Y-29000000D02*
X60900000Y-29000000D01*
X62014400Y-30114400D02*
X65594300Y-26534500D01*
X128854100Y-18080200D02*
X157493600Y-18080200D01*
X61338100Y-30790700D02*
X62014400Y-30114400D01*
X27042500Y-30790700D02*
X61338100Y-30790700D01*
X118668800Y-26915800D02*
X119130900Y-26453700D01*
X157493600Y-18080200D02*
X159462000Y-20048600D01*
X128157400Y-17383500D02*
X128854100Y-18080200D01*
%TO.N,BAT_SYS*%
D22*
X48418000Y-38334500D02*
X49782900Y-36969600D01*
X49782900Y-36969600D02*
X69419600Y-36969600D01*
X40795100Y-38334500D02*
X48418000Y-38334500D01*
X69419600Y-36969600D02*
X77600000Y-28789200D01*
%TO.N,DO_GATE*%
D21*
X28454000Y-33424000D02*
X62418200Y-33424000D01*
X27331700Y-32301700D02*
X28454000Y-33424000D01*
X62418200Y-33424000D02*
X65012600Y-36018400D01*
X14750000Y-32301700D02*
X27331700Y-32301700D01*
%TO.N,FET_SRC_COMMON*%
D23*
X21100000Y-47000000D02*
X28100000Y-47000000D01*
X16800000Y-51300000D02*
X21100000Y-47000000D01*
%TO.N,USB_VBUS*%
X21721200Y-50978800D02*
X22111600Y-50588400D01*
X71302200Y-48597600D02*
X74590100Y-48597600D01*
X22111600Y-50588400D02*
X35081300Y-50588400D01*
X77780600Y-48687600D02*
X77800000Y-48707000D01*
X74590100Y-48597600D02*
X74680100Y-48687600D01*
X35276500Y-50783600D02*
X69116200Y-50783600D01*
X69116200Y-50783600D02*
X71302200Y-48597600D01*
X35081300Y-50588400D02*
X35276500Y-50783600D01*
X74680100Y-48687600D02*
X77780600Y-48687600D01*
%TO.N,+3V3_SW*%
D24*
X124405000Y-25253300D02*
X131914600Y-25253300D01*
X91578300Y-27778300D02*
X75079300Y-27778300D01*
X102167800Y-24800000D02*
X95600000Y-31367800D01*
X69057700Y-24132500D02*
X37180000Y-24132500D01*
X73891400Y-28966200D02*
X69057700Y-24132500D01*
X122600000Y-24800000D02*
X102167800Y-24800000D01*
X131914600Y-25253300D02*
X132267600Y-24900300D01*
X95600000Y-31367800D02*
X95600000Y-31800000D01*
X95600000Y-31800000D02*
X91578300Y-27778300D01*
X122600000Y-24800000D02*
X123951700Y-24800000D01*
X132267600Y-24900300D02*
X150345200Y-24900300D01*
X75079300Y-27778300D02*
X73891400Y-28966200D01*
X123951700Y-24800000D02*
X124405000Y-25253300D01*
%TO.N,GPIO2*%
D21*
X64572400Y-40527600D02*
X65400000Y-39700000D01*
X47400000Y-45960100D02*
X52832500Y-40527600D01*
X112919000Y-35645300D02*
X118482900Y-30081400D01*
X69237300Y-39700000D02*
X73292000Y-35645300D01*
X65400000Y-39700000D02*
X69237300Y-39700000D01*
X73292000Y-35645300D02*
X112919000Y-35645300D01*
X52832500Y-40527600D02*
X64572400Y-40527600D01*
%TO.N,EXP_GPB3*%
X140162500Y-28852500D02*
X141491600Y-27523400D01*
X145592500Y-27523400D02*
X146485000Y-28415900D01*
X139430000Y-28852500D02*
X140162500Y-28852500D01*
X141491600Y-27523400D02*
X145592500Y-27523400D01*
X139229700Y-29052800D02*
X139430000Y-28852500D01*
X130130700Y-29005700D02*
X130177800Y-29052800D01*
X130177800Y-29052800D02*
X139229700Y-29052800D01*
%TO.N,EXP_GPA4*%
X134637300Y-46712300D02*
X148209400Y-46712300D01*
X132489700Y-44564700D02*
X134637300Y-46712300D01*
%TO.N,EXP_GPA7*%
X152690200Y-44352100D02*
X153737100Y-43305200D01*
X130786300Y-43961100D02*
X132861000Y-43961100D01*
X132861000Y-43961100D02*
X133252000Y-44352100D01*
X130198700Y-44548700D02*
X130786300Y-43961100D01*
X133252000Y-44352100D02*
X152690200Y-44352100D01*
%TO.N,CBSET*%
X34576500Y-49399700D02*
X44217200Y-49399700D01*
X29741900Y-44565100D02*
X34576500Y-49399700D01*
%TO.N,EXP_GPB0*%
X150199400Y-26981100D02*
X150711400Y-26469100D01*
X134906200Y-28247100D02*
X140129200Y-28247100D01*
X140129200Y-28247100D02*
X141395200Y-26981100D01*
X132759200Y-26405900D02*
X132141000Y-27024100D01*
X133302800Y-28651100D02*
X134502200Y-28651100D01*
X132141000Y-27024100D02*
X132141000Y-27489300D01*
X132141000Y-27489300D02*
X133302800Y-28651100D01*
X134502200Y-28651100D02*
X134906200Y-28247100D01*
X132855300Y-26405900D02*
X132759200Y-26405900D01*
X141395200Y-26981100D02*
X150199400Y-26981100D01*
%TO.N,EXP_GPB4*%
X154476200Y-38502500D02*
X151773700Y-35800000D01*
X151773700Y-35800000D02*
X133571000Y-35800000D01*
%TO.N,EXP_GPB5*%
X138534000Y-33900000D02*
X132769200Y-33900000D01*
X144257500Y-28176500D02*
X138534000Y-33900000D01*
%TO.N,CO_GATE*%
X45887500Y-43718700D02*
X47572400Y-42033800D01*
X33741500Y-45451500D02*
X35474300Y-43718700D01*
X35474300Y-43718700D02*
X45887500Y-43718700D01*
%TO.N,CELL_MID*%
X46475900Y-49366200D02*
X41790500Y-44680800D01*
X50851200Y-49366200D02*
X46475900Y-49366200D01*
X41790500Y-44680800D02*
X38910800Y-44680800D01*
%TO.N,PROT_VDD*%
X68100000Y-29048529D02*
X67200000Y-28148529D01*
X68100000Y-34300000D02*
X68100000Y-29048529D01*
X67200000Y-28148529D02*
X67200000Y-25200000D01*
%TO.N,REGN*%
X30612600Y-38437400D02*
X36690800Y-38437400D01*
X39241200Y-35887000D02*
X44432100Y-35887000D01*
X36690800Y-38437400D02*
X39241200Y-35887000D01*
%TO.N,BATT_RAW_P*%
D23*
X33460600Y-42460600D02*
X34000000Y-43000000D01*
X23871634Y-42460600D02*
X33460600Y-42460600D01*
X35010225Y-43000000D02*
X34000000Y-43000000D01*
X55100000Y-39500000D02*
X38510225Y-39500000D01*
X14000000Y-52332234D02*
X23871634Y-42460600D01*
X14000000Y-54000000D02*
X14000000Y-52332234D01*
X38510225Y-39500000D02*
X35010225Y-43000000D01*
%TO.N,EXP_GPA0*%
D21*
X137017800Y-18991300D02*
X121861200Y-18991300D01*
X140600500Y-20757800D02*
X138784300Y-20757800D01*
X121861200Y-18991300D02*
X117060800Y-14190900D01*
X138784300Y-20757800D02*
X137017800Y-18991300D01*
%TO.N,PG_STAT*%
X55518100Y-35233400D02*
X39251700Y-35233400D01*
X55706000Y-35045500D02*
X55518100Y-35233400D01*
X39251700Y-35233400D02*
X38433100Y-34414800D01*
X26363200Y-33599800D02*
X26363200Y-32919600D01*
X27178200Y-34414800D02*
X26363200Y-33599800D01*
X38433100Y-34414800D02*
X27178200Y-34414800D01*
%TO.N,CHG_STAT*%
X27660000Y-33966900D02*
X27109100Y-33416000D01*
X57584500Y-34759600D02*
X56791800Y-33966900D01*
X56791800Y-33966900D02*
X27660000Y-33966900D01*
%TO.N,AIN2*%
X135268800Y-13576300D02*
X98298800Y-13576300D01*
X139000000Y-17307500D02*
X135268800Y-13576300D01*
X98298800Y-13576300D02*
X90103400Y-21771700D01*
%TO.N,AIN1*%
X92639800Y-22384100D02*
X38704700Y-22384100D01*
X38704700Y-22384100D02*
X33542900Y-17222300D01*
%TO.N,AIN3*%
X149695100Y-13174600D02*
X97792100Y-13174600D01*
X151080600Y-14560100D02*
X149695100Y-13174600D01*
X97792100Y-13174600D02*
X89191100Y-21775600D01*
%TO.N,AIN0*%
X92656800Y-23300600D02*
X26870900Y-23300600D01*
X26870900Y-23300600D02*
X20877100Y-17306800D01*
%TD*%
M02*
