M48
; DRILL file KiCad 10.0.4 date 2026-07-11T15:12:43
; FORMAT={-:-/ absolute / metric / decimal}
; #@! TF.CreationDate,2026-07-11T15:12:43-06:00
; #@! TF.GenerationSoftware,Kicad,Pcbnew,10.0.4
; #@! TF.FileFunction,MixedPlating,1,4
FMAT,2
METRIC
; #@! TA.AperFunction,Plated,PTH,ViaDrill
T1C0.300
; #@! TA.AperFunction,Plated,PTH,ViaDrill
T2C0.350
; #@! TA.AperFunction,Plated,PTH,ViaDrill
T3C0.400
; #@! TA.AperFunction,Plated,PTH,ViaDrill
T4C0.500
; #@! TA.AperFunction,Plated,PTH,ComponentDrill
T5C0.600
; #@! TA.AperFunction,Plated,PTH,ComponentDrill
T6C0.950
; #@! TA.AperFunction,Plated,PTH,ComponentDrill
T7C1.000
; #@! TA.AperFunction,Plated,PTH,ComponentDrill
T8C1.020
%
G90
G05
T1
X14.75Y-32.302
X15.577Y-53.977
X18.5Y-70.95
X18.945Y-16.755
X20.877Y-17.307
X22.0Y-55.848
X22.356Y-25.234
X22.362Y-75.046
X23.845Y-29.305
X24.006Y-34.197
X25.4Y-32.453
X25.99Y-26.604
X26.163Y-73.841
X26.324Y-43.773
X26.496Y-32.442
X26.6Y-60.019
X26.687Y-75.077
X26.8Y-65.94
X27.098Y-33.713
X27.133Y-29.835
X28.095Y-31.793
X28.097Y-35.999
X28.206Y-55.51
X28.26Y-43.307
X28.715Y-46.41
X29.1Y-49.705
X29.191Y-65.27
X29.29Y-60.401
X29.297Y-41.743
X30.802Y-53.802
X30.945Y-16.755
X31.748Y-43.507
X31.902Y-31.738
X32.42Y-29.354
X32.467Y-52.97
X32.965Y-70.533
X33.0Y-17.305
X35.142Y-41.542
X35.265Y-38.92
X36.225Y-42.491
X36.313Y-46.953
X36.8Y-32.597
X37.246Y-33.37
X37.246Y-47.754
X39.078Y-38.752
X39.406Y-43.816
X44.453Y-44.319
X44.99Y-33.733
X45.494Y-49.421
X47.4Y-46.217
X48.3Y-39.2
X48.433Y-46.302
X49.224Y-31.287
X49.547Y-35.397
X50.492Y-32.98
X54.131Y-31.744
X55.343Y-26.068
X56.125Y-37.714
X56.396Y-46.422
X57.586Y-34.4
X58.448Y-21.311
X59.612Y-39.511
X59.804Y-29.967
X59.94Y-25.04
X60.208Y-31.695
X61.2Y-29.9
X61.898Y-32.123
X62.122Y-25.522
X62.122Y-49.705
X64.4Y-27.9
X64.569Y-38.333
X65.888Y-29.292
X65.89Y-28.425
X66.061Y-35.087
X67.44Y-35.143
X67.586Y-30.9
X68.061Y-24.087
X70.644Y-30.478
X70.756Y-24.069
X71.794Y-45.94
X72.904Y-28.544
X74.944Y-24.056
X80.748Y-45.171
X84.595Y-24.356
X85.234Y-52.353
X85.855Y-16.42
X86.736Y-28.608
X87.351Y-53.205
X88.508Y-25.183
X88.998Y-22.036
X89.931Y-20.791
X90.469Y-21.393
X90.831Y-22.607
X90.985Y-24.152
X91.149Y-16.493
X92.634Y-23.202
X93.9Y-25.381
X95.128Y-23.7
X95.156Y-54.966
X99.6Y-46.7
X100.5Y-47.5
X101.414Y-27.072
X102.341Y-53.398
X108.733Y-53.298
X115.937Y-29.894
X117.889Y-14.389
X119.131Y-26.454
X121.347Y-14.848
X124.059Y-18.36
X127.868Y-17.674
X128.125Y-14.546
X130.128Y-29.003
X130.199Y-44.549
X130.221Y-25.36
X131.118Y-33.06
X131.586Y-25.062
X131.991Y-39.572
X132.769Y-33.9
X132.785Y-27.25
X132.802Y-34.85
X132.845Y-41.745
X132.871Y-43.123
X133.019Y-26.248
X133.528Y-17.649
X134.099Y-21.348
X135.764Y-28.422
X135.874Y-41.195
X136.931Y-16.775
X137.288Y-44.372
X137.424Y-32.64
X137.675Y-26.814
X138.538Y-34.593
X138.75Y-19.537
X139.082Y-17.326
X139.457Y-50.305
X139.556Y-37.77
X139.815Y-41.776
X139.885Y-27.219
X139.942Y-29.354
X140.594Y-21.248
X141.731Y-56.291
X141.9Y-35.0
X142.362Y-59.284
X142.562Y-20.373
X142.692Y-68.263
X142.993Y-57.259
X144.257Y-28.175
X144.45Y-50.305
X144.533Y-53.242
X144.589Y-42.172
X145.6Y-40.866
X146.022Y-20.375
X146.166Y-37.555
X146.309Y-71.537
X146.485Y-28.416
X147.559Y-59.375
X147.579Y-37.714
X147.863Y-26.513
X148.935Y-16.48
X149.439Y-50.929
X149.747Y-23.933
X150.215Y-43.349
X150.403Y-25.634
X151.0Y-14.593
X151.645Y-65.27
X153.343Y-67.308
X153.74Y-43.308
X154.433Y-50.305
X154.882Y-68.263
X155.159Y-21.185
X155.166Y-22.034
X157.613Y-61.915
X157.776Y-21.279
X158.21Y-17.715
X159.464Y-20.169
X159.646Y-27.001
X160.597Y-55.922
X162.195Y-20.602
X162.348Y-14.843
T2
X73.816Y-28.807
X143.759Y-17.326
T3
X21.34Y-59.284
X26.808Y-62.625
X28.824Y-58.918
X33.072Y-35.181
X38.11Y-57.277
X40.795Y-37.635
X77.6Y-28.803
X95.86Y-52.45
T4
X20.344Y-70.617
X21.081Y-41.849
X21.912Y-51.102
X26.059Y-29.607
X74.76Y-48.507
X77.938Y-48.65
T6
X65.6Y-16.5
X68.1Y-16.5
X70.6Y-16.5
T7
X122.6Y-24.8
X122.6Y-27.34
X122.6Y-29.88
X122.6Y-32.42
X123.0Y-38.86
X123.0Y-41.4
T8
X39.65Y-12.38
X39.65Y-14.92
X39.65Y-17.46
X39.65Y-20.0
X39.65Y-27.62
X52.35Y-12.38
X52.35Y-14.92
X52.35Y-17.46
X52.35Y-20.0
X82.9Y-31.8
X82.9Y-34.34
X82.9Y-36.88
X82.9Y-39.42
X82.9Y-47.04
X95.6Y-31.8
X95.6Y-34.34
X95.6Y-36.88
X95.6Y-39.42
T5
X71.96Y-49.9G85X71.96Y-50.5
G05
X71.96Y-53.7G85X71.96Y-54.3
G05
X80.6Y-49.9G85X80.6Y-50.5
G05
X80.6Y-53.7G85X80.6Y-54.3
G05
M30
