M48
; DRILL file KiCad 10.0.3 date 2026-07-08T03:45:10
; FORMAT={-:-/ absolute / metric / decimal}
; #@! TF.CreationDate,2026-07-08T03:45:10-06:00
; #@! TF.GenerationSoftware,Kicad,Pcbnew,10.0.3
; #@! TF.FileFunction,MixedPlating,1,4
FMAT,2
METRIC
; #@! TA.AperFunction,Plated,PTH,ViaDrill
T1C0.300
; #@! TA.AperFunction,Plated,PTH,ViaDrill
T2C0.350
; #@! TA.AperFunction,Plated,PTH,ViaDrill
T3C0.400
; #@! TA.AperFunction,Plated,PTH,ViaDrill
T4C0.500
; #@! TA.AperFunction,Plated,PTH,ComponentDrill
T5C0.600
; #@! TA.AperFunction,Plated,PTH,ComponentDrill
T6C0.950
; #@! TA.AperFunction,Plated,PTH,ComponentDrill
T7C1.000
; #@! TA.AperFunction,Plated,PTH,ComponentDrill
T8C1.020
%
G90
G05
T1
X15.577Y-53.977
X16.464Y-75.081
X17.227Y-74.249
X18.5Y-70.95
X18.945Y-16.755
X21.0Y-14.564
X21.988Y-55.46
X22.355Y-25.233
X23.982Y-34.483
X24.084Y-76.159
X24.401Y-33.25
X24.641Y-73.838
X25.99Y-26.604
X26.166Y-29.7
X26.819Y-60.014
X26.874Y-35.72
X26.987Y-38.458
X26.987Y-47.112
X27.111Y-34.25
X27.288Y-32.0
X27.822Y-64.438
X28.093Y-31.793
X28.116Y-36.213
X28.206Y-55.51
X28.602Y-26.13
X29.191Y-65.27
X29.29Y-60.401
X29.49Y-38.184
X29.823Y-37.201
X30.803Y-53.803
X30.945Y-16.755
X31.537Y-44.262
X31.542Y-47.342
X31.889Y-36.343
X31.902Y-31.738
X32.42Y-29.354
X32.776Y-38.224
X32.8Y-37.2
X33.544Y-17.222
X35.3Y-36.9
X36.3Y-36.9
X36.8Y-32.599
X37.244Y-29.354
X37.301Y-50.213
X39.156Y-39.309
X41.033Y-40.459
X44.463Y-43.796
X44.963Y-33.929
X47.631Y-40.271
X49.208Y-48.099
X49.313Y-36.758
X50.112Y-32.803
X50.185Y-50.202
X50.945Y-31.387
X52.4Y-43.1
X54.3Y-51.7
X55.736Y-40.333
X56.42Y-47.048
X56.552Y-37.289
X57.154Y-34.122
X57.591Y-39.34
X58.506Y-50.941
X59.754Y-29.798
X59.825Y-54.108
X59.94Y-25.393
X61.442Y-31.634
X62.191Y-30.178
X62.491Y-31.9
X62.538Y-28.246
X63.856Y-28.772
X64.569Y-35.34
X64.569Y-37.443
X64.585Y-27.247
X65.04Y-20.123
X65.418Y-34.791
X66.209Y-29.088
X67.566Y-31.008
X68.748Y-28.99
X71.521Y-23.575
X71.794Y-45.94
X71.998Y-27.623
X73.606Y-27.99
X74.597Y-24.174
X75.095Y-23.351
X79.08Y-23.342
X80.748Y-45.17
X81.065Y-29.988
X83.01Y-52.528
X84.595Y-24.357
X85.855Y-16.42
X86.76Y-28.74
X86.946Y-24.2
X89.508Y-21.514
X90.626Y-21.51
X91.149Y-16.493
X91.227Y-22.127
X91.465Y-26.421
X92.642Y-22.483
X92.913Y-28.399
X93.9Y-25.379
X95.144Y-23.7
X95.883Y-55.186
X98.3Y-52.7
X102.305Y-53.398
X108.733Y-53.298
X109.6Y-50.013
X115.397Y-26.361
X115.836Y-15.806
X118.294Y-22.346
X118.463Y-29.988
X124.3Y-13.994
X124.847Y-26.07
X127.742Y-14.067
X128.019Y-18.661
X129.491Y-29.006
X130.652Y-32.497
X130.884Y-29.022
X131.487Y-14.414
X131.843Y-21.741
X132.531Y-44.485
X132.783Y-34.85
X132.799Y-27.248
X132.826Y-25.163
X132.841Y-42.921
X133.572Y-25.552
X134.079Y-15.798
X134.156Y-38.966
X134.493Y-24.494
X135.358Y-33.162
X135.946Y-28.879
X135.96Y-35.823
X136.191Y-42.054
X136.366Y-21.555
X136.927Y-15.258
X136.935Y-16.787
X137.01Y-45.143
X137.212Y-44.303
X138.75Y-19.537
X139.457Y-50.305
X139.597Y-43.441
X139.604Y-41.997
X139.708Y-35.315
X139.941Y-29.355
X140.222Y-25.772
X140.512Y-20.536
X142.139Y-42.06
X142.922Y-21.533
X143.241Y-56.291
X143.663Y-55.393
X144.234Y-51.159
X144.324Y-28.33
X144.564Y-37.331
X144.63Y-42.138
X144.728Y-53.543
X145.109Y-43.933
X145.222Y-27.524
X145.464Y-20.517
X145.677Y-32.434
X146.309Y-71.537
X146.58Y-55.422
X146.809Y-59.375
X147.863Y-26.513
X148.052Y-37.768
X148.947Y-16.753
X149.439Y-50.929
X149.749Y-23.933
X150.402Y-25.5
X151.12Y-17.317
X151.996Y-65.16
X153.343Y-67.308
X154.435Y-50.305
X154.835Y-68.895
X155.034Y-41.075
X155.136Y-21.2
X156.839Y-19.464
X157.613Y-61.915
X157.637Y-27.167
X158.819Y-19.235
X159.28Y-21.34
X160.037Y-19.537
X160.077Y-64.162
X160.597Y-55.921
X160.67Y-23.607
X162.195Y-19.797
T2
X39.111Y-23.847
X75.0Y-27.873
X122.178Y-22.268
X127.081Y-16.179
T3
X21.34Y-59.284
X38.106Y-57.279
X40.875Y-33.378
X77.962Y-25.935
X94.827Y-53.634
T4
X18.09Y-50.305
X20.344Y-70.617
X20.6Y-40.279
X39.466Y-43.718
X55.289Y-38.463
X74.76Y-48.507
X77.931Y-48.657
T6
X65.6Y-16.5
X68.1Y-16.5
X70.6Y-16.5
T7
X122.6Y-24.8
X122.6Y-27.34
X122.6Y-29.88
X122.6Y-32.42
X123.0Y-38.86
X123.0Y-41.4
T8
X39.65Y-12.38
X39.65Y-14.92
X39.65Y-17.46
X39.65Y-20.0
X39.65Y-27.62
X52.35Y-12.38
X52.35Y-14.92
X52.35Y-17.46
X52.35Y-20.0
X82.9Y-31.8
X82.9Y-34.34
X82.9Y-36.88
X82.9Y-39.42
X82.9Y-47.04
X95.6Y-31.8
X95.6Y-34.34
X95.6Y-36.88
X95.6Y-39.42
T5
X71.96Y-49.9G85X71.96Y-50.5
G05
X71.96Y-53.7G85X71.96Y-54.3
G05
X80.6Y-49.9G85X80.6Y-50.5
G05
X80.6Y-53.7G85X80.6Y-54.3
G05
M30
