%TF.GenerationSoftware,KiCad,Pcbnew,10.0.4*%
%TF.CreationDate,2026-07-11T15:12:43-06:00*%
%TF.ProjectId,daughterboard,64617567-6874-4657-9262-6f6172642e6b,r15*%
%TF.SameCoordinates,Original*%
%TF.FileFunction,Profile,NP*%
%FSLAX46Y46*%
G04 Gerber Fmt 4.6, Leading zero omitted, Abs format (unit mm)*
G04 Created by KiCad (PCBNEW 10.0.4) date 2026-07-11 15:12:43*
%MOMM*%
%LPD*%
G01*
G04 APERTURE LIST*
%TA.AperFunction,Profile*%
%ADD10C,0.150000*%
%TD*%
G04 APERTURE END LIST*
D10*
X10000000Y-10000000D02*
X10000000Y-90610446D01*
X10000000Y-90610446D02*
X13536051Y-90610446D01*
X13536051Y-90610446D02*
X49527298Y-56000000D01*
X17180971Y-79478679D02*
G75*
G02*
X14680971Y-79478679I-1250000J0D01*
G01*
X14680971Y-79478679D02*
G75*
G02*
X17180971Y-79478679I1250000J0D01*
G01*
X18866859Y-22741232D02*
G75*
G02*
X16366859Y-22741232I-1250000J0D01*
G01*
X16366859Y-22741232D02*
G75*
G02*
X18866859Y-22741232I1250000J0D01*
G01*
X49527298Y-56000000D02*
X125410841Y-56000000D01*
X71035697Y-44844737D02*
G75*
G02*
X63035697Y-44844737I-4000000J0D01*
G01*
X63035697Y-44844737D02*
G75*
G02*
X71035697Y-44844737I4000000J0D01*
G01*
X112035697Y-44844737D02*
G75*
G02*
X104035697Y-44844737I-4000000J0D01*
G01*
X104035697Y-44844737D02*
G75*
G02*
X112035697Y-44844737I4000000J0D01*
G01*
X110133408Y-18721661D02*
G75*
G02*
X107633408Y-18721661I-1250000J0D01*
G01*
X107633408Y-18721661D02*
G75*
G02*
X110133408Y-18721661I1250000J0D01*
G01*
X125410841Y-56000000D02*
X161402088Y-90610446D01*
X159819306Y-78330951D02*
G75*
G02*
X157319306Y-78330951I-1250000J0D01*
G01*
X157319306Y-78330951D02*
G75*
G02*
X159819306Y-78330951I1250000J0D01*
G01*
X161402088Y-90610446D02*
X164970425Y-90610446D01*
X164970425Y-10000000D02*
X10000000Y-10000000D01*
X164970425Y-90610446D02*
X164970425Y-10000000D01*
M02*
