%TF.GenerationSoftware,KiCad,Pcbnew,10.0.4*%
%TF.CreationDate,2026-07-11T15:29:55-06:00*%
%TF.ProjectId,daughterboard,64617567-6874-4657-9262-6f6172642e6b,r15*%
%TF.SameCoordinates,Original*%
%TF.FileFunction,Paste,Top*%
%TF.FilePolarity,Positive*%
%FSLAX46Y46*%
G04 Gerber Fmt 4.6, Leading zero omitted, Abs format (unit mm)*
G04 Created by KiCad (PCBNEW 10.0.4) date 2026-07-11 15:29:55*
%MOMM*%
%LPD*%
G01*
G04 APERTURE LIST*
G04 Aperture macros list*
%AMRoundRect*
0 Rectangle with rounded corners*
0 $1 Rounding radius*
0 $2 $3 $4 $5 $6 $7 $8 $9 X,Y pos of 4 corners*
0 Add a 4 corners polygon primitive as box body*
4,1,4,$2,$3,$4,$5,$6,$7,$8,$9,$2,$3,0*
0 Add four circle primitives for the rounded corners*
1,1,$1+$1,$2,$3*
1,1,$1+$1,$4,$5*
1,1,$1+$1,$6,$7*
1,1,$1+$1,$8,$9*
0 Add four rect primitives between the rounded corners*
20,1,$1+$1,$2,$3,$4,$5,0*
20,1,$1+$1,$4,$5,$6,$7,0*
20,1,$1+$1,$6,$7,$8,$9,0*
20,1,$1+$1,$8,$9,$2,$3,0*%
G04 Aperture macros list end*
%ADD10RoundRect,0.200000X0.275000X-0.200000X0.275000X0.200000X-0.275000X0.200000X-0.275000X-0.200000X0*%
%ADD11RoundRect,0.075000X-0.650000X-0.075000X0.650000X-0.075000X0.650000X0.075000X-0.650000X0.075000X0*%
%ADD12RoundRect,0.250000X-0.475000X0.250000X-0.475000X-0.250000X0.475000X-0.250000X0.475000X0.250000X0*%
%ADD13RoundRect,0.200000X-0.275000X0.200000X-0.275000X-0.200000X0.275000X-0.200000X0.275000X0.200000X0*%
%ADD14RoundRect,0.250000X-0.375000X-0.625000X0.375000X-0.625000X0.375000X0.625000X-0.375000X0.625000X0*%
%ADD15RoundRect,0.112500X0.187500X0.112500X-0.187500X0.112500X-0.187500X-0.112500X0.187500X-0.112500X0*%
%ADD16R,1.200000X1.050000*%
%ADD17RoundRect,0.106500X0.443500X0.248500X-0.443500X0.248500X-0.443500X-0.248500X0.443500X-0.248500X0*%
%ADD18RoundRect,0.108000X0.252000X0.252000X-0.252000X0.252000X-0.252000X-0.252000X0.252000X-0.252000X0*%
%ADD19RoundRect,0.200000X-0.200000X-0.275000X0.200000X-0.275000X0.200000X0.275000X-0.200000X0.275000X0*%
%ADD20RoundRect,0.150000X0.512500X0.150000X-0.512500X0.150000X-0.512500X-0.150000X0.512500X-0.150000X0*%
%ADD21RoundRect,0.225000X-0.225000X-0.250000X0.225000X-0.250000X0.225000X0.250000X-0.225000X0.250000X0*%
%ADD22RoundRect,0.250000X-0.250000X-0.475000X0.250000X-0.475000X0.250000X0.475000X-0.250000X0.475000X0*%
%ADD23RoundRect,0.150000X-0.512500X-0.150000X0.512500X-0.150000X0.512500X0.150000X-0.512500X0.150000X0*%
%ADD24RoundRect,0.225000X0.225000X0.250000X-0.225000X0.250000X-0.225000X-0.250000X0.225000X-0.250000X0*%
%ADD25RoundRect,0.225000X0.250000X-0.225000X0.250000X0.225000X-0.250000X0.225000X-0.250000X-0.225000X0*%
%ADD26RoundRect,0.150000X0.150000X-0.512500X0.150000X0.512500X-0.150000X0.512500X-0.150000X-0.512500X0*%
%ADD27RoundRect,0.200000X0.200000X0.275000X-0.200000X0.275000X-0.200000X-0.275000X0.200000X-0.275000X0*%
%ADD28RoundRect,0.225000X-0.250000X0.225000X-0.250000X-0.225000X0.250000X-0.225000X0.250000X0.225000X0*%
%ADD29RoundRect,0.175000X-0.175000X-0.425000X0.175000X-0.425000X0.175000X0.425000X-0.175000X0.425000X0*%
%ADD30RoundRect,0.190000X0.190000X0.410000X-0.190000X0.410000X-0.190000X-0.410000X0.190000X-0.410000X0*%
%ADD31RoundRect,0.200000X0.200000X0.400000X-0.200000X0.400000X-0.200000X-0.400000X0.200000X-0.400000X0*%
%ADD32RoundRect,0.175000X0.175000X0.425000X-0.175000X0.425000X-0.175000X-0.425000X0.175000X-0.425000X0*%
%ADD33RoundRect,0.190000X-0.190000X-0.410000X0.190000X-0.410000X0.190000X0.410000X-0.190000X0.410000X0*%
%ADD34RoundRect,0.200000X-0.200000X-0.400000X0.200000X-0.400000X0.200000X0.400000X-0.200000X0.400000X0*%
%ADD35O,1.100000X1.700000*%
%ADD36RoundRect,0.150000X-0.150000X0.512500X-0.150000X-0.512500X0.150000X-0.512500X0.150000X0.512500X0*%
%ADD37RoundRect,0.250000X-0.312500X-0.625000X0.312500X-0.625000X0.312500X0.625000X-0.312500X0.625000X0*%
%ADD38RoundRect,0.218750X-0.218750X-0.256250X0.218750X-0.256250X0.218750X0.256250X-0.218750X0.256250X0*%
%ADD39RoundRect,0.106500X-0.443500X-0.248500X0.443500X-0.248500X0.443500X0.248500X-0.443500X0.248500X0*%
%ADD40RoundRect,0.108000X-0.252000X-0.252000X0.252000X-0.252000X0.252000X0.252000X-0.252000X0.252000X0*%
%ADD41RoundRect,0.250000X0.250000X0.475000X-0.250000X0.475000X-0.250000X-0.475000X0.250000X-0.475000X0*%
%ADD42RoundRect,0.150000X-0.150000X-0.700000X0.150000X-0.700000X0.150000X0.700000X-0.150000X0.700000X0*%
%ADD43RoundRect,0.250000X-0.250000X-1.150000X0.250000X-1.150000X0.250000X1.150000X-0.250000X1.150000X0*%
%ADD44RoundRect,0.250000X-0.362500X-1.425000X0.362500X-1.425000X0.362500X1.425000X-0.362500X1.425000X0*%
%ADD45RoundRect,0.150000X-0.150000X0.875000X-0.150000X-0.875000X0.150000X-0.875000X0.150000X0.875000X0*%
%ADD46RoundRect,0.250000X0.475000X-0.250000X0.475000X0.250000X-0.475000X0.250000X-0.475000X-0.250000X0*%
%ADD47RoundRect,0.249999X-0.450001X-1.850001X0.450001X-1.850001X0.450001X1.850001X-0.450001X1.850001X0*%
%ADD48RoundRect,0.250000X-0.300000X-1.600000X0.300000X-1.600000X0.300000X1.600000X-0.300000X1.600000X0*%
%ADD49RoundRect,0.250000X-0.295000X-0.295000X0.295000X-0.295000X0.295000X0.295000X-0.295000X0.295000X0*%
%ADD50RoundRect,0.062500X-0.350000X-0.062500X0.350000X-0.062500X0.350000X0.062500X-0.350000X0.062500X0*%
%ADD51RoundRect,0.062500X-0.062500X-0.350000X0.062500X-0.350000X0.062500X0.350000X-0.062500X0.350000X0*%
%ADD52RoundRect,0.050000X0.250000X0.050000X-0.250000X0.050000X-0.250000X-0.050000X0.250000X-0.050000X0*%
%ADD53RoundRect,0.104000X0.546000X0.946000X-0.546000X0.946000X-0.546000X-0.946000X0.546000X-0.946000X0*%
%ADD54RoundRect,0.075000X0.650000X0.075000X-0.650000X0.075000X-0.650000X-0.075000X0.650000X-0.075000X0*%
%ADD55O,0.600000X1.200000*%
G04 APERTURE END LIST*
D10*
%TO.C,R3*%
X25000000Y-35800000D03*
X25000000Y-34150000D03*
%TD*%
D11*
%TO.C,U6*%
X156400000Y-20200000D03*
X156400000Y-20700000D03*
X156400000Y-21200000D03*
X156400000Y-21700000D03*
X156400000Y-22200000D03*
X160700000Y-22200000D03*
X160700000Y-21700000D03*
X160700000Y-21200000D03*
X160700000Y-20700000D03*
X160700000Y-20200000D03*
%TD*%
D12*
%TO.C,C5*%
X37800000Y-37300000D03*
X37800000Y-39200000D03*
%TD*%
D13*
%TO.C,R33*%
X148600000Y-25600000D03*
X148600000Y-27250000D03*
%TD*%
D10*
%TO.C,R49*%
X12400000Y-30250000D03*
X12400000Y-28600000D03*
%TD*%
%TO.C,R39*%
X135200000Y-43650000D03*
X135200000Y-42000000D03*
%TD*%
%TO.C,R8*%
X16100000Y-59850000D03*
X16100000Y-58200000D03*
%TD*%
%TO.C,R28*%
X149200000Y-43650000D03*
X149200000Y-42000000D03*
%TD*%
D14*
%TO.C,F1*%
X19200000Y-40000000D03*
X22000000Y-40000000D03*
%TD*%
D15*
%TO.C,D1*%
X20600000Y-71700000D03*
X18500000Y-71700000D03*
%TD*%
D16*
%TO.C,Q2*%
X18450000Y-30775000D03*
X18450000Y-29505000D03*
X18450000Y-28235000D03*
X17050000Y-30775000D03*
X17050000Y-29505000D03*
X17050000Y-28235000D03*
D17*
X14750000Y-27600000D03*
X14750000Y-28870000D03*
X14750000Y-30140000D03*
X14750000Y-31410000D03*
D18*
X20000000Y-31410000D03*
X20000000Y-30140000D03*
X20000000Y-28870000D03*
X20000000Y-27600000D03*
%TD*%
D19*
%TO.C,TH1*%
X32750000Y-40800000D03*
X34400000Y-40800000D03*
%TD*%
D20*
%TO.C,D5*%
X131675000Y-43750000D03*
X131675000Y-42800000D03*
X131675000Y-41850000D03*
X129400000Y-41850000D03*
X129400000Y-42800000D03*
X129400000Y-43750000D03*
%TD*%
D21*
%TO.C,C8*%
X29225000Y-43500000D03*
X30775000Y-43500000D03*
%TD*%
D22*
%TO.C,C3*%
X29500000Y-29400000D03*
X31400000Y-29400000D03*
%TD*%
D20*
%TO.C,D7*%
X131600000Y-35800000D03*
X131600000Y-34850000D03*
X131600000Y-33900000D03*
X129325000Y-33900000D03*
X129325000Y-34850000D03*
X129325000Y-35800000D03*
%TD*%
D23*
%TO.C,U4*%
X81125000Y-22800000D03*
X81125000Y-23750000D03*
X81125000Y-24700000D03*
X83400000Y-24700000D03*
X83400000Y-23750000D03*
X83400000Y-22800000D03*
%TD*%
D10*
%TO.C,R50*%
X28100000Y-49450000D03*
X28100000Y-47800000D03*
%TD*%
%TO.C,R32*%
X151400000Y-27250000D03*
X151400000Y-25600000D03*
%TD*%
D14*
%TO.C,F2*%
X19200000Y-36200000D03*
X22000000Y-36200000D03*
%TD*%
D24*
%TO.C,C25*%
X66250000Y-25500000D03*
X64700000Y-25500000D03*
%TD*%
D13*
%TO.C,R24*%
X132700000Y-21050000D03*
X132700000Y-22700000D03*
%TD*%
D10*
%TO.C,R9*%
X21000000Y-57050000D03*
X21000000Y-55400000D03*
%TD*%
D19*
%TO.C,R16*%
X42250000Y-38600000D03*
X43900000Y-38600000D03*
%TD*%
%TO.C,R11*%
X79175000Y-29000000D03*
X80825000Y-29000000D03*
%TD*%
D25*
%TO.C,C32*%
X38500000Y-49350000D03*
X38500000Y-47800000D03*
%TD*%
D26*
%TO.C,U3*%
X25500000Y-57475000D03*
X26450000Y-57475000D03*
X27400000Y-57475000D03*
X27400000Y-55200000D03*
X26450000Y-55200000D03*
X25500000Y-55200000D03*
%TD*%
D10*
%TO.C,R41*%
X138000000Y-46800000D03*
X138000000Y-45150000D03*
%TD*%
D19*
%TO.C,R7*%
X46650000Y-36200000D03*
X48300000Y-36200000D03*
%TD*%
D21*
%TO.C,C12*%
X25050000Y-61000000D03*
X26600000Y-61000000D03*
%TD*%
D10*
%TO.C,R30*%
X154800000Y-43650000D03*
X154800000Y-42000000D03*
%TD*%
%TO.C,R44*%
X140800000Y-43650000D03*
X140800000Y-42000000D03*
%TD*%
D27*
%TO.C,R5*%
X29650000Y-39400000D03*
X28000000Y-39400000D03*
%TD*%
D28*
%TO.C,C4*%
X27000000Y-25250000D03*
X27000000Y-26800000D03*
%TD*%
D13*
%TO.C,R34*%
X146200000Y-25600000D03*
X146200000Y-27250000D03*
%TD*%
D21*
%TO.C,C9*%
X36225000Y-43500000D03*
X37775000Y-43500000D03*
%TD*%
D10*
%TO.C,R29*%
X152000000Y-43650000D03*
X152000000Y-42000000D03*
%TD*%
D21*
%TO.C,C6*%
X42450000Y-33900000D03*
X44000000Y-33900000D03*
%TD*%
%TO.C,C28*%
X142225000Y-54000000D03*
X143775000Y-54000000D03*
%TD*%
D19*
%TO.C,R2*%
X78150000Y-45000000D03*
X79800000Y-45000000D03*
%TD*%
D29*
%TO.C,J1*%
X75780000Y-50120000D03*
D30*
X77800000Y-50120000D03*
D31*
X79030000Y-50120000D03*
D32*
X76780000Y-50120000D03*
D33*
X74760000Y-50120000D03*
D34*
X73530000Y-50120000D03*
D35*
X71960000Y-50200000D03*
X71960000Y-54000000D03*
X80600000Y-50200000D03*
X80600000Y-54000000D03*
%TD*%
D10*
%TO.C,R23*%
X146400000Y-43650000D03*
X146400000Y-42000000D03*
%TD*%
D36*
%TO.C,D4*%
X139700000Y-20725000D03*
X138750000Y-20725000D03*
X137800000Y-20725000D03*
X137800000Y-23000000D03*
X138750000Y-23000000D03*
X139700000Y-23000000D03*
%TD*%
D27*
%TO.C,R20*%
X126650000Y-18200000D03*
X125000000Y-18200000D03*
%TD*%
D37*
%TO.C,R46*%
X52400000Y-46300000D03*
X55325000Y-46300000D03*
%TD*%
D13*
%TO.C,R36*%
X143800000Y-25600000D03*
X143800000Y-27250000D03*
%TD*%
D21*
%TO.C,C10*%
X51650000Y-36100000D03*
X53200000Y-36100000D03*
%TD*%
D38*
%TO.C,D3*%
X23325000Y-75400000D03*
X24900000Y-75400000D03*
%TD*%
D22*
%TO.C,C11*%
X24900000Y-64700000D03*
X26800000Y-64700000D03*
%TD*%
D38*
%TO.C,D2*%
X19025000Y-75300000D03*
X20600000Y-75300000D03*
%TD*%
D21*
%TO.C,C24*%
X89150000Y-19400000D03*
X90700000Y-19400000D03*
%TD*%
D19*
%TO.C,R19*%
X159150000Y-26000000D03*
X160800000Y-26000000D03*
%TD*%
D13*
%TO.C,R42*%
X151000000Y-55800000D03*
X151000000Y-57450000D03*
%TD*%
D16*
%TO.C,Q1*%
X31550000Y-47235000D03*
X31550000Y-48505000D03*
X31550000Y-49775000D03*
X32950000Y-47235000D03*
X32950000Y-48505000D03*
X32950000Y-49775000D03*
D39*
X35250000Y-50410000D03*
X35250000Y-49140000D03*
X35250000Y-47870000D03*
X35250000Y-46600000D03*
D40*
X30000000Y-46600000D03*
X30000000Y-47870000D03*
X30000000Y-49140000D03*
X30000000Y-50410000D03*
%TD*%
D12*
%TO.C,C22*%
X87100000Y-14700000D03*
X87100000Y-16600000D03*
%TD*%
D41*
%TO.C,C14*%
X32100000Y-64700000D03*
X30200000Y-64700000D03*
%TD*%
D27*
%TO.C,R10*%
X26650000Y-69500000D03*
X25000000Y-69500000D03*
%TD*%
D20*
%TO.C,D6*%
X131600000Y-28200000D03*
X131600000Y-27250000D03*
X131600000Y-26300000D03*
X129325000Y-26300000D03*
X129325000Y-27250000D03*
X129325000Y-28200000D03*
%TD*%
D42*
%TO.C,J41*%
X137750000Y-15950000D03*
X139000000Y-15950000D03*
X140250000Y-15950000D03*
D43*
X135900000Y-12600000D03*
X142100000Y-12600000D03*
%TD*%
D44*
%TO.C,R4*%
X44775000Y-51600000D03*
X50700000Y-51600000D03*
%TD*%
D14*
%TO.C,F4*%
X19400000Y-47800000D03*
X22200000Y-47800000D03*
%TD*%
D27*
%TO.C,R1*%
X74025000Y-45000000D03*
X72375000Y-45000000D03*
%TD*%
D21*
%TO.C,C15*%
X25250000Y-51900000D03*
X26800000Y-51900000D03*
%TD*%
D13*
%TO.C,R14*%
X53500000Y-38850000D03*
X53500000Y-40500000D03*
%TD*%
D19*
%TO.C,R45*%
X155975000Y-26000000D03*
X157625000Y-26000000D03*
%TD*%
D14*
%TO.C,F3*%
X19200000Y-44000000D03*
X22000000Y-44000000D03*
%TD*%
D21*
%TO.C,C17*%
X136925000Y-50400000D03*
X138475000Y-50400000D03*
%TD*%
D13*
%TO.C,R38*%
X141200000Y-25600000D03*
X141200000Y-27250000D03*
%TD*%
D10*
%TO.C,R43*%
X143600000Y-43650000D03*
X143600000Y-42000000D03*
%TD*%
D21*
%TO.C,C2*%
X35250000Y-31600000D03*
X36800000Y-31600000D03*
%TD*%
D19*
%TO.C,R12*%
X84175000Y-29000000D03*
X85825000Y-29000000D03*
%TD*%
D25*
%TO.C,C7*%
X34600000Y-35200000D03*
X34600000Y-33650000D03*
%TD*%
D45*
%TO.C,U7*%
X152200000Y-30000000D03*
X150930000Y-30000000D03*
X149660000Y-30000000D03*
X148390000Y-30000000D03*
X147120000Y-30000000D03*
X145850000Y-30000000D03*
X144580000Y-30000000D03*
X143310000Y-30000000D03*
X142040000Y-30000000D03*
X140770000Y-30000000D03*
X138230000Y-30000000D03*
X136960000Y-30000000D03*
X135690000Y-39300000D03*
X136960000Y-39300000D03*
X138230000Y-39300000D03*
X139500000Y-39300000D03*
X140770000Y-39300000D03*
X142040000Y-39300000D03*
X143310000Y-39300000D03*
X144580000Y-39300000D03*
X145850000Y-39300000D03*
X147120000Y-39300000D03*
X148390000Y-39300000D03*
X149660000Y-39300000D03*
X150930000Y-39300000D03*
X152200000Y-39300000D03*
%TD*%
D46*
%TO.C,C1*%
X23600000Y-27000000D03*
X23600000Y-25100000D03*
%TD*%
D25*
%TO.C,C33*%
X22800000Y-30650000D03*
X22800000Y-29100000D03*
%TD*%
D42*
%TO.C,J40*%
X31750000Y-15950000D03*
X33000000Y-15950000D03*
X34250000Y-15950000D03*
D43*
X29900000Y-12600000D03*
X36100000Y-12600000D03*
%TD*%
D19*
%TO.C,R15*%
X51550000Y-32400000D03*
X53200000Y-32400000D03*
%TD*%
D42*
%TO.C,J42*%
X149750000Y-15950000D03*
X151000000Y-15950000D03*
X152250000Y-15950000D03*
D43*
X147900000Y-12600000D03*
X154100000Y-12600000D03*
%TD*%
D42*
%TO.C,J4*%
X96500000Y-53950000D03*
X97750000Y-53950000D03*
X99000000Y-53950000D03*
X100250000Y-53950000D03*
X101500000Y-53950000D03*
D43*
X94650000Y-50600000D03*
X103350000Y-50600000D03*
%TD*%
D21*
%TO.C,C20*%
X151925000Y-50400000D03*
X153475000Y-50400000D03*
%TD*%
D12*
%TO.C,C23*%
X92400000Y-14700000D03*
X92400000Y-16600000D03*
%TD*%
D10*
%TO.C,R47*%
X70000000Y-24825000D03*
X70000000Y-23175000D03*
%TD*%
D13*
%TO.C,R25*%
X144400000Y-20950000D03*
X144400000Y-22600000D03*
%TD*%
D10*
%TO.C,R48*%
X73800000Y-24850000D03*
X73800000Y-23200000D03*
%TD*%
D21*
%TO.C,C26*%
X64725000Y-22000000D03*
X66275000Y-22000000D03*
%TD*%
D47*
%TO.C,L3*%
X30100000Y-24200000D03*
X33800000Y-24200000D03*
%TD*%
D19*
%TO.C,R17*%
X47400000Y-47200000D03*
X49050000Y-47200000D03*
%TD*%
D13*
%TO.C,R13*%
X77600000Y-23150000D03*
X77600000Y-24800000D03*
%TD*%
D48*
%TO.C,L1*%
X19400000Y-61600000D03*
X22400000Y-61600000D03*
%TD*%
D21*
%TO.C,C21*%
X41950000Y-43900000D03*
X43500000Y-43900000D03*
%TD*%
D49*
%TO.C,U1*%
X29325000Y-33325000D03*
X29325000Y-34675000D03*
X30675000Y-33325000D03*
X30675000Y-34675000D03*
D50*
X28037500Y-32750000D03*
X28037500Y-33250000D03*
X28037500Y-33750000D03*
X28037500Y-34250000D03*
X28037500Y-34750000D03*
X28037500Y-35250000D03*
D51*
X28750000Y-35962500D03*
X29250000Y-35962500D03*
X29750000Y-35962500D03*
X30250000Y-35962500D03*
X30750000Y-35962500D03*
X31250000Y-35962500D03*
D50*
X31962500Y-35250000D03*
X31962500Y-34750000D03*
X31962500Y-34250000D03*
X31962500Y-33750000D03*
X31962500Y-33250000D03*
X31962500Y-32750000D03*
D51*
X31250000Y-32037500D03*
X30750000Y-32037500D03*
X30250000Y-32037500D03*
X29750000Y-32037500D03*
X29250000Y-32037500D03*
X28750000Y-32037500D03*
%TD*%
D13*
%TO.C,R26*%
X149700000Y-20950000D03*
X149700000Y-22600000D03*
%TD*%
D41*
%TO.C,C13*%
X32200000Y-60600000D03*
X30300000Y-60600000D03*
%TD*%
D21*
%TO.C,C18*%
X141925000Y-50400000D03*
X143475000Y-50400000D03*
%TD*%
D46*
%TO.C,C16*%
X31700000Y-56600000D03*
X31700000Y-54700000D03*
%TD*%
D42*
%TO.C,J8*%
X19750000Y-15950000D03*
X21000000Y-15950000D03*
X22250000Y-15950000D03*
D43*
X17900000Y-12600000D03*
X24100000Y-12600000D03*
%TD*%
D21*
%TO.C,C19*%
X146925000Y-50400000D03*
X148475000Y-50400000D03*
%TD*%
D19*
%TO.C,R18*%
X88350000Y-42600000D03*
X90000000Y-42600000D03*
%TD*%
D52*
%TO.C,U2*%
X65887500Y-32400000D03*
X65887500Y-31900000D03*
X65887500Y-31400000D03*
X65887500Y-30900000D03*
X65887500Y-30400000D03*
X65887500Y-29900000D03*
X63437500Y-29900000D03*
X63437500Y-30400000D03*
X63437500Y-30900000D03*
X63437500Y-31400000D03*
X63437500Y-31900000D03*
X63437500Y-32400000D03*
D53*
X64662500Y-31150000D03*
%TD*%
D19*
%TO.C,R6*%
X46650000Y-31100000D03*
X48300000Y-31100000D03*
%TD*%
D21*
%TO.C,C27*%
X106200000Y-53600000D03*
X107750000Y-53600000D03*
%TD*%
D25*
%TO.C,C30*%
X70800000Y-34975000D03*
X70800000Y-33425000D03*
%TD*%
D48*
%TO.C,L2*%
X99900000Y-24000000D03*
X102900000Y-24000000D03*
%TD*%
D25*
%TO.C,C31*%
X71800000Y-30175000D03*
X71800000Y-28625000D03*
%TD*%
%TO.C,C29*%
X144000000Y-58600000D03*
X144000000Y-57050000D03*
%TD*%
D13*
%TO.C,R35*%
X136400000Y-25600000D03*
X136400000Y-27250000D03*
%TD*%
D54*
%TO.C,U5*%
X93900000Y-24700000D03*
X93900000Y-24200000D03*
X93900000Y-23700000D03*
X93900000Y-23200000D03*
X93900000Y-22700000D03*
X89600000Y-22700000D03*
X89600000Y-23200000D03*
X89600000Y-23700000D03*
X89600000Y-24200000D03*
X89600000Y-24700000D03*
%TD*%
D13*
%TO.C,R27*%
X149200000Y-45150000D03*
X149200000Y-46800000D03*
%TD*%
%TO.C,R40*%
X138000000Y-41950000D03*
X138000000Y-43600000D03*
%TD*%
D10*
%TO.C,R31*%
X154200000Y-27250000D03*
X154200000Y-25600000D03*
%TD*%
D13*
%TO.C,R37*%
X138800000Y-25550000D03*
X138800000Y-27200000D03*
%TD*%
D10*
%TO.C,R21*%
X66000000Y-37650000D03*
X66000000Y-36000000D03*
%TD*%
D19*
%TO.C,R22*%
X46850000Y-41100000D03*
X48500000Y-41100000D03*
%TD*%
D55*
X71960000Y-50200000D03*
X71960000Y-54000000D03*
X80600000Y-50200000D03*
X80600000Y-54000000D03*
M02*
