M48
; DRILL file KiCad 10.0.3 date 2026-05-28T14:11:13
; FORMAT={-:-/ absolute / metric / decimal}
; #@! TF.CreationDate,2026-05-28T14:11:13-06:00
; #@! TF.GenerationSoftware,Kicad,Pcbnew,10.0.3
; #@! TF.FileFunction,MixedPlating,1,2
FMAT,2
METRIC
; #@! TA.AperFunction,Plated,PTH,ViaDrill
T1C0.300
; #@! TA.AperFunction,Plated,PTH,ComponentDrill
T2C0.500
; #@! TA.AperFunction,Plated,PTH,ComponentDrill
T3C0.750
; #@! TA.AperFunction,Plated,PTH,ComponentDrill
T4C1.000
%
G90
G05
T1
X90.253Y-127.253
X92.598Y-121.661
X93.852Y-132.188
X102.122Y-133.287
X109.0Y-116.0
X111.922Y-129.246
X112.0Y-116.0
X120.017Y-120.962
X123.274Y-113.01
X131.0Y-112.0
X133.086Y-120.907
X146.0Y-118.0
X147.112Y-122.189
X165.0Y-130.0
X168.31Y-133.53
X170.0Y-130.0
X176.0Y-130.0
X176.353Y-127.302
X178.851Y-129.364
X182.301Y-122.221
X185.571Y-121.591
X188.589Y-123.884
X194.525Y-108.301
X195.107Y-107.625
X197.0Y-98.0
X197.224Y-121.521
X202.761Y-100.365
X203.115Y-99.13
X205.31Y-112.988
X208.0Y-98.0
X216.458Y-114.717
X217.047Y-117.175
X220.824Y-113.457
X225.585Y-116.052
X227.041Y-104.828
X229.241Y-112.63
X229.264Y-128.155
X229.388Y-115.87
T2
X97.0Y-114.375
X98.0Y-114.375
X99.0Y-114.375
X100.0Y-114.375
X101.0Y-114.375
X102.0Y-114.375
X108.5Y-114.375
X109.5Y-114.375
X110.5Y-114.375
X111.5Y-114.375
X112.5Y-114.375
X113.5Y-114.375
X118.0Y-100.375
X118.0Y-108.0
X119.0Y-100.375
X119.0Y-108.0
X120.0Y-100.375
X120.0Y-108.0
X121.0Y-100.375
X121.0Y-108.0
X128.125Y-101.5
X128.125Y-102.5
X128.125Y-103.5
X128.125Y-104.5
X128.125Y-105.5
X128.125Y-106.5
X188.875Y-101.5
X188.875Y-102.5
X188.875Y-103.5
X188.875Y-104.5
X188.875Y-105.5
X188.875Y-106.5
X196.0Y-100.375
X196.0Y-107.0
X197.0Y-100.375
X197.0Y-107.0
X198.0Y-100.375
X198.0Y-107.0
X199.0Y-100.375
X199.0Y-107.0
X204.5Y-97.125
X205.5Y-97.125
X210.0Y-97.125
X211.0Y-97.125
X214.875Y-119.5
X214.875Y-120.5
X214.875Y-121.5
X214.875Y-122.5
X214.875Y-126.0
X214.875Y-127.0
X214.875Y-128.0
X214.875Y-129.0
X215.0Y-113.0
X215.0Y-114.0
X215.0Y-115.0
X215.0Y-116.0
X215.5Y-97.0
X216.5Y-97.0
T3
X96.5Y-99.5
X98.5Y-99.5
X107.0Y-99.5
X109.0Y-99.5
T4
X83.0Y-119.5
X85.19Y-108.5
X85.54Y-119.5
X85.725Y-99.5
X87.73Y-108.5
X88.08Y-119.5
X88.265Y-99.5
X90.27Y-108.5
X90.62Y-119.5
X92.81Y-108.5
X93.16Y-119.5
X95.7Y-119.5
X98.24Y-119.5
X100.78Y-119.5
X103.32Y-119.5
X105.86Y-119.5
X113.0Y-119.5
X115.54Y-119.5
X118.08Y-119.5
X120.62Y-119.5
X123.16Y-119.5
X125.7Y-119.5
X128.24Y-119.5
X130.78Y-119.5
X133.32Y-119.5
X135.86Y-119.5
X141.5Y-120.0
X141.5Y-134.5
X144.04Y-120.0
X144.04Y-134.5
X146.58Y-120.0
X146.58Y-134.5
X149.12Y-120.0
X149.12Y-134.5
X151.66Y-120.0
X151.66Y-134.5
X154.2Y-120.0
X154.2Y-134.5
X156.74Y-120.0
X156.74Y-134.5
X161.96Y-120.0
X161.96Y-134.5
X164.5Y-120.0
X164.5Y-134.5
X167.04Y-120.0
X167.04Y-134.5
X169.58Y-120.0
X169.58Y-134.5
X172.12Y-120.0
X172.12Y-134.5
X174.66Y-120.0
X174.66Y-134.5
X177.2Y-120.0
X177.2Y-134.5
X186.5Y-117.5
X186.5Y-120.04
X186.5Y-122.58
X186.5Y-125.12
X186.5Y-127.66
X186.5Y-130.2
X186.5Y-132.74
X196.0Y-134.0
X198.54Y-134.0
X201.08Y-134.0
X203.62Y-134.0
X206.16Y-134.0
X208.7Y-134.0
X218.5Y-108.5
X218.5Y-111.04
X218.5Y-113.58
X218.5Y-116.12
X218.5Y-118.66
X218.5Y-121.2
X218.5Y-123.74
X218.5Y-126.28
X218.5Y-128.82
X218.5Y-131.36
X218.5Y-133.9
X222.96Y-101.5
X225.5Y-101.5
X228.04Y-101.5
X230.58Y-101.5
X233.12Y-101.5
X237.5Y-108.5
X237.5Y-111.04
X237.5Y-113.58
X237.5Y-116.12
X237.5Y-118.66
X237.5Y-121.2
X237.5Y-123.74
X237.5Y-126.28
X237.5Y-128.82
X237.5Y-131.36
X237.5Y-133.9
M30
