%TF.GenerationSoftware,KiCad,Pcbnew,10.0.3*%
%TF.CreationDate,2026-07-09T23:27:49-06:00*%
%TF.ProjectId,Daughterboard,44617567-6874-4657-9262-6f6172642e6b,rev?*%
%TF.SameCoordinates,Original*%
%TF.FileFunction,Copper,L4,Bot*%
%TF.FilePolarity,Positive*%
%FSLAX46Y46*%
G04 Gerber Fmt 4.6, Leading zero omitted, Abs format (unit mm)*
G04 Created by KiCad (PCBNEW 10.0.3) date 2026-07-09 23:27:49*
%MOMM*%
%LPD*%
G01*
G04 APERTURE LIST*
G04 Aperture macros list*
%AMRoundRect*
0 Rectangle with rounded corners*
0 $1 Rounding radius*
0 $2 $3 $4 $5 $6 $7 $8 $9 X,Y pos of 4 corners*
0 Add a 4 corners polygon primitive as box body*
4,1,4,$2,$3,$4,$5,$6,$7,$8,$9,$2,$3,0*
0 Add four circle primitives for the rounded corners*
1,1,$1+$1,$2,$3*
1,1,$1+$1,$4,$5*
1,1,$1+$1,$6,$7*
1,1,$1+$1,$8,$9*
0 Add four rect primitives between the rounded corners*
20,1,$1+$1,$2,$3,$4,$5,0*
20,1,$1+$1,$4,$5,$6,$7,0*
20,1,$1+$1,$6,$7,$8,$9,0*
20,1,$1+$1,$8,$9,$2,$3,0*%
G04 Aperture macros list end*
%TA.AperFunction,ComponentPad*%
%ADD10R,1.700000X1.700000*%
%TD*%
%TA.AperFunction,ComponentPad*%
%ADD11C,1.700000*%
%TD*%
%TA.AperFunction,ComponentPad*%
%ADD12R,1.800000X1.800000*%
%TD*%
%TA.AperFunction,ComponentPad*%
%ADD13C,1.800000*%
%TD*%
%TA.AperFunction,ComponentPad*%
%ADD14O,1.100000X1.700000*%
%TD*%
%TA.AperFunction,ComponentPad*%
%ADD15RoundRect,0.250000X-0.600000X-0.725000X0.600000X-0.725000X0.600000X0.725000X-0.600000X0.725000X0*%
%TD*%
%TA.AperFunction,ComponentPad*%
%ADD16O,1.700000X1.950000*%
%TD*%
%TA.AperFunction,ViaPad*%
%ADD17C,0.600000*%
%TD*%
%TA.AperFunction,ViaPad*%
%ADD18C,0.800000*%
%TD*%
%TA.AperFunction,ViaPad*%
%ADD19C,1.000000*%
%TD*%
%TA.AperFunction,ViaPad*%
%ADD20C,0.700000*%
%TD*%
%TA.AperFunction,Conductor*%
%ADD21C,0.200000*%
%TD*%
%TA.AperFunction,Conductor*%
%ADD22C,0.750000*%
%TD*%
G04 APERTURE END LIST*
D10*
%TO.P,J5,1*%
%TO.N,+3V3_SW*%
X122600000Y-24800000D03*
D11*
%TO.P,J5,2*%
%TO.N,GND*%
X122600000Y-27340000D03*
%TO.P,J5,3*%
%TO.N,I2C_SDA*%
X122600000Y-29880000D03*
%TO.P,J5,4*%
%TO.N,I2C_SCL*%
X122600000Y-32420000D03*
%TD*%
D12*
%TO.P,SW1,1*%
%TO.N,+5V*%
X39650000Y-12380000D03*
D13*
X39650000Y-14920000D03*
%TO.P,SW1,2*%
%TO.N,+5V_SW*%
X52350000Y-12380000D03*
X52350000Y-14920000D03*
%TO.P,SW1,3*%
%TO.N,GND*%
X39650000Y-17460000D03*
X39650000Y-20000000D03*
X52350000Y-17460000D03*
X52350000Y-20000000D03*
%TO.P,SW1,4*%
%TO.N,CTRL_5V_SW*%
X39650000Y-27620000D03*
%TD*%
D12*
%TO.P,SW2,1*%
%TO.N,+3V3*%
X82900000Y-31800000D03*
D13*
X82900000Y-34340000D03*
%TO.P,SW2,2*%
%TO.N,+3V3_SW*%
X95600000Y-31800000D03*
X95600000Y-34340000D03*
%TO.P,SW2,3*%
%TO.N,GND*%
X82900000Y-36880000D03*
X82900000Y-39420000D03*
X95600000Y-36880000D03*
X95600000Y-39420000D03*
%TO.P,SW2,4*%
%TO.N,CTRL_3V3_SW*%
X82900000Y-47040000D03*
%TD*%
D14*
%TO.P,J1,SH*%
%TO.N,GND*%
X71960000Y-50200000D03*
X71960000Y-54000000D03*
X80600000Y-50200000D03*
X80600000Y-54000000D03*
%TD*%
D10*
%TO.P,J6,1*%
%TO.N,GPIO14*%
X123000000Y-38860000D03*
D11*
%TO.P,J6,2*%
%TO.N,GPIO21*%
X123000000Y-41400000D03*
%TD*%
D15*
%TO.P,J7,1*%
%TO.N,BATT_RAW_N*%
X70600000Y-16500000D03*
D16*
%TO.P,J7,2*%
%TO.N,CELL_MID*%
X68100000Y-16500000D03*
%TO.P,J7,3*%
%TO.N,BATT_RAW_P*%
X65600000Y-16500000D03*
%TD*%
D17*
%TO.N,GND*%
X155158700Y-21185200D03*
X132871300Y-43122700D03*
X28800000Y-63200000D03*
X136930900Y-16774800D03*
X83400000Y-25503800D03*
X58500000Y-28712000D03*
X144449700Y-50304900D03*
X91148700Y-16493200D03*
X28091600Y-31901200D03*
X18944600Y-16755400D03*
X17912300Y-71112300D03*
X93900000Y-25381000D03*
X15577000Y-53977000D03*
X136195300Y-41991900D03*
X139941900Y-29353900D03*
X146309300Y-71537400D03*
X44452800Y-44320500D03*
X26600000Y-60014400D03*
X85854900Y-16419600D03*
X39037000Y-39485300D03*
X28206100Y-55509700D03*
X31901900Y-31737600D03*
X144534200Y-53240800D03*
X26800000Y-65933700D03*
X31749600Y-43512200D03*
X22356400Y-25233800D03*
X24006100Y-34198200D03*
X142993200Y-57027700D03*
X138750000Y-19536600D03*
X44767400Y-34667400D03*
X148935000Y-16480500D03*
X29290500Y-60400800D03*
X32419600Y-29353900D03*
X30801800Y-53801800D03*
X139456600Y-50304900D03*
X95400000Y-47000000D03*
X29191000Y-65269900D03*
X70749800Y-25574800D03*
X149438900Y-50928900D03*
X132784700Y-27250000D03*
X56395900Y-46422100D03*
X36800000Y-32582400D03*
X30944600Y-16755400D03*
X108732800Y-53297900D03*
X71793900Y-45940000D03*
X25200000Y-77600000D03*
X29300000Y-68300000D03*
X86754800Y-28509400D03*
X137004900Y-43377800D03*
X137001800Y-45150000D03*
X80748400Y-45169800D03*
X19990600Y-55297600D03*
X132802100Y-34850000D03*
X35324000Y-41216400D03*
X102341000Y-53397600D03*
X25990500Y-26603700D03*
X95127600Y-23700000D03*
X154433000Y-50304900D03*
%TO.N,+3V3_SW_LOGIC*%
X124059100Y-18360100D03*
X93831600Y-20840400D03*
%TO.N,AIN4*%
X155165900Y-22034400D03*
X158209800Y-17714900D03*
%TO.N,AIN5*%
X157775700Y-21279100D03*
X162348200Y-14842700D03*
%TO.N,I2C_SDA*%
X158431600Y-25238400D03*
X71377300Y-26255300D03*
X90984600Y-24152500D03*
X26474100Y-33186800D03*
X162194600Y-20631200D03*
%TO.N,I2C_SCL*%
X159463700Y-20168900D03*
X127868300Y-17674200D03*
X119130900Y-26360900D03*
X27100200Y-35022200D03*
X91798500Y-24223200D03*
X67207800Y-30088200D03*
X72060100Y-26944000D03*
D18*
%TO.N,BAT_SYS*%
X77042300Y-30416800D03*
X26494100Y-62624600D03*
X41950000Y-41511900D03*
X28824400Y-58918500D03*
D17*
%TO.N,EXP_GPB2*%
X147863300Y-26513300D03*
X130221300Y-25361300D03*
X128125400Y-14545800D03*
%TO.N,DO_GATE*%
X65015100Y-35739300D03*
X13955900Y-32177700D03*
%TO.N,FET_SRC_COMMON*%
X26154800Y-47132500D03*
X37292900Y-48217700D03*
X21143200Y-30324300D03*
%TO.N,MCP_INTB*%
X141759300Y-56168100D03*
X139815100Y-41775700D03*
D18*
%TO.N,+5V*%
X38082200Y-57288600D03*
X20545800Y-59116100D03*
D19*
%TO.N,USB_VBUS*%
X21896500Y-52664500D03*
X77938400Y-48649700D03*
X74760000Y-48507300D03*
%TO.N,CHG_IN*%
X21205700Y-68262900D03*
X23723300Y-41451700D03*
D20*
%TO.N,+3V3_SW*%
X143759300Y-17325700D03*
X73896000Y-29411400D03*
X38249000Y-23941900D03*
D17*
%TO.N,GPIO2*%
X118482900Y-30081400D03*
X47726300Y-43111200D03*
%TO.N,TS*%
X33140300Y-39492200D03*
X28055000Y-36099800D03*
X67430100Y-30896700D03*
%TO.N,EXP_GPB3*%
X157613000Y-61915200D03*
X146485000Y-28415900D03*
X130128000Y-29003000D03*
%TO.N,EXP_GPA7*%
X130196300Y-44546300D03*
X154838400Y-41065100D03*
%TO.N,MCP_RESET*%
X139554800Y-37768900D03*
X142362300Y-59283900D03*
%TO.N,CBSET*%
X30373800Y-44541100D03*
X37317800Y-51008800D03*
%TO.N,EXP_GPB0*%
X153177200Y-25670700D03*
X128503700Y-24429600D03*
%TO.N,EXP_GPA3*%
X160597100Y-55922200D03*
X149748600Y-23931300D03*
%TO.N,EXP_GPB4*%
X145322100Y-65625900D03*
X134511200Y-29626500D03*
X134167200Y-35203800D03*
%TO.N,EXP_GPB5*%
X153343400Y-67309800D03*
X144257500Y-28174900D03*
X132769200Y-33900000D03*
%TO.N,EXP_GPB6*%
X137675000Y-26812500D03*
X148998000Y-68309600D03*
%TO.N,EXP_GPB7*%
X139885000Y-27219300D03*
X151646400Y-66068100D03*
X130465400Y-36429500D03*
%TO.N,CO_GATE*%
X27281300Y-50116200D03*
X47692300Y-44320100D03*
%TO.N,EXP_GPB1*%
X133528000Y-17649200D03*
X134158500Y-25986700D03*
%TO.N,CELL_MID*%
X25915000Y-40719000D03*
X39014800Y-43500000D03*
X50112500Y-32773900D03*
X50564100Y-47311900D03*
D18*
%TO.N,+5V_SW*%
X88978700Y-53815600D03*
D17*
%TO.N,PROT_VDD*%
X67216800Y-25708500D03*
X60161100Y-31997900D03*
X56935500Y-40701600D03*
%TO.N,PROT_VC*%
X64067100Y-23008200D03*
X65958400Y-26516300D03*
X62562000Y-33005300D03*
%TO.N,MCP_GPA1*%
X133975400Y-38674100D03*
X134640700Y-20901600D03*
%TO.N,REGN*%
X34819600Y-38292900D03*
X44217200Y-36568700D03*
%TO.N,LED_PGOOD_A*%
X29127800Y-71085300D03*
X47201300Y-37714400D03*
%TO.N,CTRL_5V_SW*%
X48180900Y-46313900D03*
%TO.N,BATT_RAW_P*%
X62121800Y-50304900D03*
X28030100Y-42596900D03*
X34164100Y-39496500D03*
X56125400Y-37712800D03*
%TO.N,EXP_GPA0*%
X145598500Y-40865800D03*
X117888800Y-14388900D03*
X140594200Y-21248500D03*
%TO.N,PG_STAT*%
X55691600Y-39554700D03*
X25306200Y-74290400D03*
X26166400Y-32064200D03*
X35730300Y-39642200D03*
%TO.N,UART_TX*%
X68657200Y-19132900D03*
X100300000Y-47900000D03*
%TO.N,LED_CHG_A*%
X49223100Y-31529800D03*
X26571500Y-75746300D03*
%TO.N,CHG_STAT*%
X57579000Y-34400000D03*
X22361600Y-74999300D03*
X27106200Y-33690500D03*
%TO.N,AIN2*%
X90831300Y-22607400D03*
X139081500Y-17326000D03*
%TO.N,FET_BATT_P*%
X20267400Y-32724700D03*
X19576200Y-46399400D03*
%TO.N,MCP_INTA*%
X145463000Y-59283900D03*
X144588300Y-42173600D03*
%TO.N,BTST*%
X33362600Y-35831800D03*
X31091400Y-38306000D03*
%TO.N,MCP_GPA2*%
X142562300Y-20373300D03*
X146165800Y-37555400D03*
%TO.N,MCP_GPA3*%
X147578900Y-37713800D03*
X146022200Y-20374900D03*
%TO.N,AIN1*%
X33000000Y-17304500D03*
X91190100Y-21453100D03*
%TO.N,AIN3*%
X151000000Y-14593500D03*
X91698900Y-22093200D03*
%TO.N,UART_RX*%
X83010500Y-52446800D03*
X102500000Y-47900000D03*
X59137700Y-26805300D03*
%TO.N,BQ_SRN*%
X70844300Y-24044100D03*
X70668000Y-30465800D03*
%TO.N,AIN0*%
X20877100Y-17306800D03*
X92635500Y-23200000D03*
%TO.N,BQ_DSG*%
X61432400Y-29967600D03*
X64142000Y-37364500D03*
%TO.N,BQ_CHG*%
X61024800Y-31605800D03*
X50945000Y-40727800D03*
%TO.N,BQ_PBI*%
X64164500Y-35627200D03*
X62293400Y-31801800D03*
%TD*%
%TO.N,GND*%
D21*
X29300000Y-68300000D02*
X25971500Y-71628500D01*
X25971500Y-71628500D02*
X25971500Y-76828500D01*
X95127600Y-23700000D02*
X95127600Y-20472100D01*
X136195300Y-41991900D02*
X136195300Y-42568200D01*
X25971500Y-76828500D02*
X25200000Y-77600000D01*
X136195300Y-42568200D02*
X137004900Y-43377800D01*
X135087129Y-29353900D02*
X139941900Y-29353900D01*
X29191000Y-68191000D02*
X29300000Y-68300000D01*
X29191000Y-65269900D02*
X29191000Y-68191000D01*
X28800000Y-64878900D02*
X29191000Y-65269900D01*
X95127600Y-20472100D02*
X91148700Y-16493200D01*
X132784700Y-27250000D02*
X132983229Y-27250000D01*
X28800000Y-63200000D02*
X28800000Y-64878900D01*
X132983229Y-27250000D02*
X135087129Y-29353900D01*
%TO.N,+5V_SW*%
D22*
X52350000Y-14920000D02*
X52350000Y-12380000D01*
%TO.N,PROT_VC*%
D21*
X65958400Y-29608900D02*
X62562000Y-33005300D01*
X65958400Y-26516300D02*
X65958400Y-29608900D01*
%TO.N,BATT_RAW_P*%
X56125400Y-24822900D02*
X56125400Y-37712800D01*
X64448300Y-16500000D02*
X56125400Y-24822900D01*
X65600000Y-16500000D02*
X64448300Y-16500000D01*
%TD*%
M02*
