%TF.GenerationSoftware,KiCad,Pcbnew,10.0.3*%
%TF.CreationDate,2026-07-09T23:27:49-06:00*%
%TF.ProjectId,Daughterboard,44617567-6874-4657-9262-6f6172642e6b,rev?*%
%TF.SameCoordinates,Original*%
%TF.FileFunction,Copper,L3,Inr*%
%TF.FilePolarity,Positive*%
%FSLAX46Y46*%
G04 Gerber Fmt 4.6, Leading zero omitted, Abs format (unit mm)*
G04 Created by KiCad (PCBNEW 10.0.3) date 2026-07-09 23:27:49*
%MOMM*%
%LPD*%
G01*
G04 APERTURE LIST*
G04 Aperture macros list*
%AMRoundRect*
0 Rectangle with rounded corners*
0 $1 Rounding radius*
0 $2 $3 $4 $5 $6 $7 $8 $9 X,Y pos of 4 corners*
0 Add a 4 corners polygon primitive as box body*
4,1,4,$2,$3,$4,$5,$6,$7,$8,$9,$2,$3,0*
0 Add four circle primitives for the rounded corners*
1,1,$1+$1,$2,$3*
1,1,$1+$1,$4,$5*
1,1,$1+$1,$6,$7*
1,1,$1+$1,$8,$9*
0 Add four rect primitives between the rounded corners*
20,1,$1+$1,$2,$3,$4,$5,0*
20,1,$1+$1,$4,$5,$6,$7,0*
20,1,$1+$1,$6,$7,$8,$9,0*
20,1,$1+$1,$8,$9,$2,$3,0*%
G04 Aperture macros list end*
%TA.AperFunction,ComponentPad*%
%ADD10R,1.700000X1.700000*%
%TD*%
%TA.AperFunction,ComponentPad*%
%ADD11C,1.700000*%
%TD*%
%TA.AperFunction,ComponentPad*%
%ADD12R,1.800000X1.800000*%
%TD*%
%TA.AperFunction,ComponentPad*%
%ADD13C,1.800000*%
%TD*%
%TA.AperFunction,ComponentPad*%
%ADD14O,1.100000X1.700000*%
%TD*%
%TA.AperFunction,ComponentPad*%
%ADD15RoundRect,0.250000X-0.600000X-0.725000X0.600000X-0.725000X0.600000X0.725000X-0.600000X0.725000X0*%
%TD*%
%TA.AperFunction,ComponentPad*%
%ADD16O,1.700000X1.950000*%
%TD*%
%TA.AperFunction,ViaPad*%
%ADD17C,0.600000*%
%TD*%
%TA.AperFunction,ViaPad*%
%ADD18C,0.800000*%
%TD*%
%TA.AperFunction,ViaPad*%
%ADD19C,1.000000*%
%TD*%
%TA.AperFunction,ViaPad*%
%ADD20C,0.700000*%
%TD*%
%TA.AperFunction,Conductor*%
%ADD21C,0.200000*%
%TD*%
%TA.AperFunction,Conductor*%
%ADD22C,0.750000*%
%TD*%
%TA.AperFunction,Conductor*%
%ADD23C,1.000000*%
%TD*%
%TA.AperFunction,Conductor*%
%ADD24C,0.500000*%
%TD*%
G04 APERTURE END LIST*
D10*
%TO.N,+3V3_SW*%
%TO.C,J5*%
X122600000Y-24800000D03*
D11*
%TO.N,GND*%
X122600000Y-27340000D03*
%TO.N,I2C_SDA*%
X122600000Y-29880000D03*
%TO.N,I2C_SCL*%
X122600000Y-32420000D03*
%TD*%
D12*
%TO.N,+5V*%
%TO.C,SW1*%
X39650000Y-12380000D03*
D13*
X39650000Y-14920000D03*
%TO.N,+5V_SW*%
X52350000Y-12380000D03*
X52350000Y-14920000D03*
%TO.N,GND*%
X39650000Y-17460000D03*
X39650000Y-20000000D03*
X52350000Y-17460000D03*
X52350000Y-20000000D03*
%TO.N,CTRL_5V_SW*%
X39650000Y-27620000D03*
%TD*%
D12*
%TO.N,+3V3*%
%TO.C,SW2*%
X82900000Y-31800000D03*
D13*
X82900000Y-34340000D03*
%TO.N,+3V3_SW*%
X95600000Y-31800000D03*
X95600000Y-34340000D03*
%TO.N,GND*%
X82900000Y-36880000D03*
X82900000Y-39420000D03*
X95600000Y-36880000D03*
X95600000Y-39420000D03*
%TO.N,CTRL_3V3_SW*%
X82900000Y-47040000D03*
%TD*%
D14*
%TO.N,GND*%
%TO.C,J1*%
X71960000Y-50200000D03*
X71960000Y-54000000D03*
X80600000Y-50200000D03*
X80600000Y-54000000D03*
%TD*%
D10*
%TO.N,GPIO14*%
%TO.C,J6*%
X123000000Y-38860000D03*
D11*
%TO.N,GPIO21*%
X123000000Y-41400000D03*
%TD*%
D15*
%TO.N,BATT_RAW_N*%
%TO.C,J7*%
X70600000Y-16500000D03*
D16*
%TO.N,CELL_MID*%
X68100000Y-16500000D03*
%TO.N,BATT_RAW_P*%
X65600000Y-16500000D03*
%TD*%
D17*
%TO.N,GND*%
X155158700Y-21185200D03*
X132871300Y-43122700D03*
X28800000Y-63200000D03*
X136930900Y-16774800D03*
X83400000Y-25503800D03*
X58500000Y-28712000D03*
X144449700Y-50304900D03*
X91148700Y-16493200D03*
X28091600Y-31901200D03*
X18944600Y-16755400D03*
X17912300Y-71112300D03*
X93900000Y-25381000D03*
X15577000Y-53977000D03*
X136195300Y-41991900D03*
X139941900Y-29353900D03*
X146309300Y-71537400D03*
X44452800Y-44320500D03*
X26600000Y-60014400D03*
X85854900Y-16419600D03*
X39037000Y-39485300D03*
X28206100Y-55509700D03*
X31901900Y-31737600D03*
X144534200Y-53240800D03*
X26800000Y-65933700D03*
X31749600Y-43512200D03*
X22356400Y-25233800D03*
X24006100Y-34198200D03*
X142993200Y-57027700D03*
X138750000Y-19536600D03*
X44767400Y-34667400D03*
X148935000Y-16480500D03*
X29290500Y-60400800D03*
X32419600Y-29353900D03*
X30801800Y-53801800D03*
X139456600Y-50304900D03*
X95400000Y-47000000D03*
X29191000Y-65269900D03*
X70749800Y-25574800D03*
X149438900Y-50928900D03*
X132784700Y-27250000D03*
X56395900Y-46422100D03*
X36800000Y-32582400D03*
X30944600Y-16755400D03*
X108732800Y-53297900D03*
X71793900Y-45940000D03*
X25200000Y-77600000D03*
X29300000Y-68300000D03*
X86754800Y-28509400D03*
X137004900Y-43377800D03*
X137001800Y-45150000D03*
X80748400Y-45169800D03*
X19990600Y-55297600D03*
X132802100Y-34850000D03*
X35324000Y-41216400D03*
X102341000Y-53397600D03*
X25990500Y-26603700D03*
X95127600Y-23700000D03*
X154433000Y-50304900D03*
%TO.N,+3V3_SW_LOGIC*%
X124059100Y-18360100D03*
X93831600Y-20840400D03*
%TO.N,AIN4*%
X155165900Y-22034400D03*
X158209800Y-17714900D03*
%TO.N,AIN5*%
X157775700Y-21279100D03*
X162348200Y-14842700D03*
%TO.N,I2C_SDA*%
X158431600Y-25238400D03*
X71377300Y-26255300D03*
X90984600Y-24152500D03*
X26474100Y-33186800D03*
X162194600Y-20631200D03*
%TO.N,I2C_SCL*%
X159463700Y-20168900D03*
X127868300Y-17674200D03*
X119130900Y-26360900D03*
X27100200Y-35022200D03*
X91798500Y-24223200D03*
X67207800Y-30088200D03*
X72060100Y-26944000D03*
D18*
%TO.N,BAT_SYS*%
X77042300Y-30416800D03*
X26494100Y-62624600D03*
X41950000Y-41511900D03*
X28824400Y-58918500D03*
D17*
%TO.N,EXP_GPB2*%
X147863300Y-26513300D03*
X130221300Y-25361300D03*
X128125400Y-14545800D03*
%TO.N,DO_GATE*%
X65015100Y-35739300D03*
X13955900Y-32177700D03*
%TO.N,FET_SRC_COMMON*%
X26154800Y-47132500D03*
X37292900Y-48217700D03*
X21143200Y-30324300D03*
%TO.N,MCP_INTB*%
X141759300Y-56168100D03*
X139815100Y-41775700D03*
D18*
%TO.N,+5V*%
X38082200Y-57288600D03*
X20545800Y-59116100D03*
D19*
%TO.N,USB_VBUS*%
X21896500Y-52664500D03*
X77938400Y-48649700D03*
X74760000Y-48507300D03*
%TO.N,CHG_IN*%
X21205700Y-68262900D03*
X23723300Y-41451700D03*
D20*
%TO.N,+3V3_SW*%
X143759300Y-17325700D03*
X73896000Y-29411400D03*
X38249000Y-23941900D03*
D17*
%TO.N,GPIO2*%
X118482900Y-30081400D03*
X47726300Y-43111200D03*
%TO.N,TS*%
X33140300Y-39492200D03*
X28055000Y-36099800D03*
X67430100Y-30896700D03*
%TO.N,EXP_GPB3*%
X157613000Y-61915200D03*
X146485000Y-28415900D03*
X130128000Y-29003000D03*
%TO.N,EXP_GPA7*%
X130196300Y-44546300D03*
X154838400Y-41065100D03*
%TO.N,MCP_RESET*%
X139554800Y-37768900D03*
X142362300Y-59283900D03*
%TO.N,CBSET*%
X30373800Y-44541100D03*
X37317800Y-51008800D03*
%TO.N,EXP_GPB0*%
X153177200Y-25670700D03*
X128503700Y-24429600D03*
%TO.N,EXP_GPA3*%
X160597100Y-55922200D03*
X149748600Y-23931300D03*
%TO.N,EXP_GPB4*%
X145322100Y-65625900D03*
X134511200Y-29626500D03*
X134167200Y-35203800D03*
%TO.N,EXP_GPB5*%
X153343400Y-67309800D03*
X144257500Y-28174900D03*
X132769200Y-33900000D03*
%TO.N,EXP_GPB6*%
X137675000Y-26812500D03*
X148998000Y-68309600D03*
%TO.N,EXP_GPB7*%
X139885000Y-27219300D03*
X151646400Y-66068100D03*
X130465400Y-36429500D03*
%TO.N,CO_GATE*%
X27281300Y-50116200D03*
X47692300Y-44320100D03*
%TO.N,EXP_GPB1*%
X133528000Y-17649200D03*
X134158500Y-25986700D03*
%TO.N,CELL_MID*%
X25915000Y-40719000D03*
X39014800Y-43500000D03*
X50112500Y-32773900D03*
X50564100Y-47311900D03*
D18*
%TO.N,+5V_SW*%
X88978700Y-53815600D03*
D17*
%TO.N,PROT_VDD*%
X67216800Y-25708500D03*
X60161100Y-31997900D03*
X56935500Y-40701600D03*
%TO.N,PROT_VC*%
X64067100Y-23008200D03*
X65958400Y-26516300D03*
X62562000Y-33005300D03*
%TO.N,MCP_GPA1*%
X133975400Y-38674100D03*
X134640700Y-20901600D03*
%TO.N,REGN*%
X34819600Y-38292900D03*
X44217200Y-36568700D03*
%TO.N,LED_PGOOD_A*%
X29127800Y-71085300D03*
X47201300Y-37714400D03*
%TO.N,CTRL_5V_SW*%
X48180900Y-46313900D03*
%TO.N,BATT_RAW_P*%
X62121800Y-50304900D03*
X28030100Y-42596900D03*
X34164100Y-39496500D03*
X56125400Y-37712800D03*
%TO.N,EXP_GPA0*%
X145598500Y-40865800D03*
X117888800Y-14388900D03*
X140594200Y-21248500D03*
%TO.N,PG_STAT*%
X55691600Y-39554700D03*
X25306200Y-74290400D03*
X26166400Y-32064200D03*
X35730300Y-39642200D03*
%TO.N,UART_TX*%
X68657200Y-19132900D03*
X100300000Y-47900000D03*
%TO.N,LED_CHG_A*%
X49223100Y-31529800D03*
X26571500Y-75746300D03*
%TO.N,CHG_STAT*%
X57579000Y-34400000D03*
X22361600Y-74999300D03*
X27106200Y-33690500D03*
%TO.N,AIN2*%
X90831300Y-22607400D03*
X139081500Y-17326000D03*
%TO.N,FET_BATT_P*%
X20267400Y-32724700D03*
X19576200Y-46399400D03*
%TO.N,MCP_INTA*%
X145463000Y-59283900D03*
X144588300Y-42173600D03*
%TO.N,BTST*%
X33362600Y-35831800D03*
X31091400Y-38306000D03*
%TO.N,MCP_GPA2*%
X142562300Y-20373300D03*
X146165800Y-37555400D03*
%TO.N,MCP_GPA3*%
X147578900Y-37713800D03*
X146022200Y-20374900D03*
%TO.N,AIN1*%
X33000000Y-17304500D03*
X91190100Y-21453100D03*
%TO.N,AIN3*%
X151000000Y-14593500D03*
X91698900Y-22093200D03*
%TO.N,UART_RX*%
X83010500Y-52446800D03*
X102500000Y-47900000D03*
X59137700Y-26805300D03*
%TO.N,BQ_SRN*%
X70844300Y-24044100D03*
X70668000Y-30465800D03*
%TO.N,AIN0*%
X20877100Y-17306800D03*
X92635500Y-23200000D03*
%TO.N,BQ_DSG*%
X61432400Y-29967600D03*
X64142000Y-37364500D03*
%TO.N,BQ_CHG*%
X61024800Y-31605800D03*
X50945000Y-40727800D03*
%TO.N,BQ_PBI*%
X64164500Y-35627200D03*
X62293400Y-31801800D03*
%TD*%
%TO.N,+3V3_SW_LOGIC*%
D21*
X121578800Y-20840400D02*
X93831600Y-20840400D01*
X124059100Y-18360100D02*
X121578800Y-20840400D01*
%TO.N,I2C_SDA*%
X72904700Y-24727900D02*
X72904700Y-24268700D01*
X35884100Y-23209100D02*
X63417200Y-23209100D01*
X124353500Y-28126500D02*
X140889900Y-28126500D01*
X26474100Y-32619100D02*
X35884100Y-23209100D01*
X156519900Y-27150100D02*
X158431600Y-25238400D01*
X147446600Y-27062200D02*
X147534500Y-27150100D01*
X73020900Y-24152500D02*
X72904700Y-24268700D01*
X63417200Y-23209100D02*
X63818000Y-23609900D01*
X141954200Y-27062200D02*
X147446600Y-27062200D01*
X71377300Y-26255300D02*
X72904700Y-24727900D01*
X122600000Y-29880000D02*
X124353500Y-28126500D01*
X64316300Y-23609900D02*
X64717000Y-23209200D01*
X26474100Y-33186800D02*
X26474100Y-32619100D01*
X71845200Y-23209200D02*
X72904700Y-24268700D01*
X147534500Y-27150100D02*
X156519900Y-27150100D01*
X64717000Y-23209200D02*
X71845200Y-23209200D01*
X140889900Y-28126500D02*
X141954200Y-27062200D01*
X63818000Y-23609900D02*
X64316300Y-23609900D01*
X90984600Y-24152500D02*
X73020900Y-24152500D01*
%TO.N,I2C_SCL*%
X150737300Y-20168900D02*
X159463700Y-20168900D01*
X61974400Y-35321600D02*
X33703300Y-35321600D01*
X127868300Y-17674200D02*
X129379200Y-16163300D01*
X146731700Y-16163300D02*
X150737300Y-20168900D01*
X67207800Y-30088200D02*
X61974400Y-35321600D01*
X91798500Y-24223200D02*
X89077700Y-26944000D01*
X33403900Y-35022200D02*
X27100200Y-35022200D01*
X33703300Y-35321600D02*
X33403900Y-35022200D01*
X89077700Y-26944000D02*
X72060100Y-26944000D01*
X129379200Y-16163300D02*
X146731700Y-16163300D01*
%TO.N,BAT_SYS*%
D22*
X42147000Y-41708900D02*
X61475900Y-41708900D01*
X72768000Y-30416800D02*
X77042300Y-30416800D01*
X61475900Y-41708900D02*
X72768000Y-30416800D01*
X41950000Y-41511900D02*
X42147000Y-41708900D01*
%TO.N,EXP_GPB2*%
D21*
X146711300Y-25361300D02*
X130221300Y-25361300D01*
X147863300Y-26513300D02*
X146711300Y-25361300D01*
%TO.N,DO_GATE*%
X21879600Y-40101400D02*
X35338700Y-40101400D01*
X35338700Y-40101400D02*
X35740400Y-40503100D01*
X56634200Y-39463000D02*
X56634200Y-39462900D01*
X55387500Y-40101400D02*
X55442500Y-40156400D01*
X35740400Y-40503100D02*
X40450600Y-40503100D01*
X64903300Y-35739300D02*
X65015100Y-35739300D01*
X55940800Y-40156400D02*
X56634200Y-39463000D01*
X55442500Y-40156400D02*
X55940800Y-40156400D01*
X61179700Y-39462900D02*
X64903300Y-35739300D01*
X13955900Y-32177700D02*
X21879600Y-40101400D01*
X40852300Y-40101400D02*
X55387500Y-40101400D01*
X40450600Y-40503100D02*
X40852300Y-40101400D01*
X56634200Y-39462900D02*
X61179700Y-39462900D01*
%TO.N,FET_SRC_COMMON*%
X27240000Y-48217700D02*
X37292900Y-48217700D01*
X26154800Y-47132500D02*
X27240000Y-48217700D01*
%TO.N,+5V*%
D22*
X38082200Y-57288600D02*
X22373300Y-57288600D01*
X22373300Y-57288600D02*
X20545800Y-59116100D01*
%TO.N,USB_VBUS*%
D23*
X21896500Y-52664500D02*
X67235300Y-52664500D01*
X77886300Y-48597600D02*
X77938400Y-48649700D01*
X67235300Y-52664500D02*
X71302200Y-48597600D01*
X74760000Y-48597600D02*
X74760000Y-48507300D01*
X71302200Y-48597600D02*
X74760000Y-48597600D01*
X74760000Y-48597600D02*
X77886300Y-48597600D01*
%TO.N,+3V3_SW*%
D24*
X143383300Y-17325700D02*
X137260700Y-23448300D01*
X68193900Y-24211600D02*
X73393700Y-29411400D01*
X125303400Y-23448300D02*
X123951700Y-24800000D01*
X38518700Y-24211600D02*
X68193900Y-24211600D01*
X73393700Y-29411400D02*
X73896000Y-29411400D01*
X95600000Y-31800000D02*
X93211400Y-29411400D01*
X122600000Y-24800000D02*
X102600000Y-24800000D01*
X122600000Y-24800000D02*
X123951700Y-24800000D01*
X93211400Y-29411400D02*
X73896000Y-29411400D01*
X38249000Y-23941900D02*
X38518700Y-24211600D01*
X143759300Y-17325700D02*
X143383300Y-17325700D01*
X137260700Y-23448300D02*
X125303400Y-23448300D01*
X102600000Y-24800000D02*
X95600000Y-31800000D01*
%TO.N,GPIO2*%
D21*
X61691800Y-43111200D02*
X71733000Y-33070000D01*
X47726300Y-43111200D02*
X61691800Y-43111200D01*
X115494300Y-33070000D02*
X118482900Y-30081400D01*
X71733000Y-33070000D02*
X115494300Y-33070000D01*
%TO.N,TS*%
X67430100Y-30896700D02*
X62359800Y-35967000D01*
X62359800Y-35967000D02*
X36282900Y-35967000D01*
X36282900Y-35967000D02*
X33140300Y-39109600D01*
X33140300Y-39109600D02*
X33140300Y-39492200D01*
%TO.N,EXP_GPB3*%
X130506500Y-28624500D02*
X142208100Y-28624500D01*
X143298500Y-27534100D02*
X145603200Y-27534100D01*
X130128000Y-29003000D02*
X130506500Y-28624500D01*
X145603200Y-27534100D02*
X146485000Y-28415900D01*
X142208100Y-28624500D02*
X143298500Y-27534100D01*
%TO.N,EXP_GPA7*%
X151357200Y-44546300D02*
X154838400Y-41065100D01*
X130196300Y-44546300D02*
X151357200Y-44546300D01*
%TO.N,EXP_GPB0*%
X153177200Y-25670700D02*
X149418800Y-25670700D01*
X148177700Y-24429600D02*
X128503700Y-24429600D01*
X149418800Y-25670700D02*
X148177700Y-24429600D01*
%TO.N,EXP_GPB5*%
X144257500Y-28174900D02*
X138532400Y-33900000D01*
X138532400Y-33900000D02*
X132769200Y-33900000D01*
%TO.N,CO_GATE*%
X27281300Y-50116200D02*
X41896200Y-50116200D01*
X41896200Y-50116200D02*
X47692300Y-44320100D01*
%TO.N,CELL_MID*%
X39014800Y-43500000D02*
X36215200Y-43500000D01*
X50564100Y-46308500D02*
X50564100Y-47311900D01*
X39014800Y-43500000D02*
X39227700Y-43712900D01*
X36215200Y-43500000D02*
X33434200Y-40719000D01*
X47968500Y-43712900D02*
X50564100Y-46308500D01*
X39227700Y-43712900D02*
X47968500Y-43712900D01*
X33434200Y-40719000D02*
X25915000Y-40719000D01*
%TO.N,PROT_VDD*%
X60161100Y-31618700D02*
X60161100Y-31997900D01*
X62386800Y-31004100D02*
X60775700Y-31004100D01*
X67216800Y-25708500D02*
X67216800Y-26174100D01*
X67216800Y-26174100D02*
X62386800Y-31004100D01*
X60775700Y-31004100D02*
X60161100Y-31618700D01*
%TO.N,REGN*%
X44217200Y-36568700D02*
X36543800Y-36568700D01*
X36543800Y-36568700D02*
X34819600Y-38292900D01*
%TO.N,BATT_RAW_P*%
X55399300Y-38438900D02*
X35578400Y-38438900D01*
X35578400Y-38438900D02*
X34520800Y-39496500D01*
X34520800Y-39496500D02*
X34164100Y-39496500D01*
X56125400Y-37712800D02*
X55399300Y-38438900D01*
%TO.N,PG_STAT*%
X40068400Y-40101400D02*
X36189500Y-40101400D01*
X55691600Y-39554700D02*
X40615100Y-39554700D01*
X40615100Y-39554700D02*
X40068400Y-40101400D01*
X36189500Y-40101400D02*
X35730300Y-39642200D01*
%TO.N,CHG_STAT*%
X56869500Y-33690500D02*
X27106200Y-33690500D01*
X57579000Y-34400000D02*
X56869500Y-33690500D01*
%TO.N,AIN2*%
X90918800Y-22694900D02*
X91948100Y-22694900D01*
X91948100Y-22694900D02*
X92227900Y-22415100D01*
X90831300Y-22607400D02*
X90918800Y-22694900D01*
X133992400Y-22415100D02*
X139081500Y-17326000D01*
X92227900Y-22415100D02*
X133992400Y-22415100D01*
%TO.N,BTST*%
X31091400Y-38306000D02*
X33362600Y-36034800D01*
X33362600Y-36034800D02*
X33362600Y-35831800D01*
%TO.N,AIN1*%
X33000000Y-17304500D02*
X37148600Y-21453100D01*
X37148600Y-21453100D02*
X91190100Y-21453100D01*
%TO.N,AIN3*%
X149832000Y-15761500D02*
X151000000Y-14593500D01*
X98030600Y-15761500D02*
X149832000Y-15761500D01*
X91698900Y-22093200D02*
X98030600Y-15761500D01*
%TO.N,UART_RX*%
X83010500Y-52446800D02*
X97953200Y-52446800D01*
X97953200Y-52446800D02*
X102500000Y-47900000D01*
%TO.N,AIN0*%
X20877100Y-17306800D02*
X25976800Y-22406500D01*
X92626400Y-23209100D02*
X92635500Y-23200000D01*
X25976800Y-22406500D02*
X71810600Y-22406500D01*
X72613200Y-23209100D02*
X92626400Y-23209100D01*
X71810600Y-22406500D02*
X72613200Y-23209100D01*
%TD*%
M02*
