%TF.GenerationSoftware,KiCad,Pcbnew,10.0.3*%
%TF.CreationDate,2026-05-28T14:10:26-06:00*%
%TF.ProjectId,daughterboard,64617567-6874-4657-9262-6f6172642e6b,rev?*%
%TF.SameCoordinates,Original*%
%TF.FileFunction,Copper,L2,Bot*%
%TF.FilePolarity,Positive*%
%FSLAX46Y46*%
G04 Gerber Fmt 4.6, Leading zero omitted, Abs format (unit mm)*
G04 Created by KiCad (PCBNEW 10.0.3) date 2026-05-28 14:10:26*
%MOMM*%
%LPD*%
G01*
G04 APERTURE LIST*
G04 Aperture macros list*
%AMRoundRect*
0 Rectangle with rounded corners*
0 $1 Rounding radius*
0 $2 $3 $4 $5 $6 $7 $8 $9 X,Y pos of 4 corners*
0 Add a 4 corners polygon primitive as box body*
4,1,4,$2,$3,$4,$5,$6,$7,$8,$9,$2,$3,0*
0 Add four circle primitives for the rounded corners*
1,1,$1+$1,$2,$3*
1,1,$1+$1,$4,$5*
1,1,$1+$1,$6,$7*
1,1,$1+$1,$8,$9*
0 Add four rect primitives between the rounded corners*
20,1,$1+$1,$2,$3,$4,$5,0*
20,1,$1+$1,$4,$5,$6,$7,0*
20,1,$1+$1,$6,$7,$8,$9,0*
20,1,$1+$1,$8,$9,$2,$3,0*%
G04 Aperture macros list end*
%TA.AperFunction,ComponentPad*%
%ADD10R,1.700000X1.700000*%
%TD*%
%TA.AperFunction,ComponentPad*%
%ADD11C,1.700000*%
%TD*%
%TA.AperFunction,ComponentPad*%
%ADD12R,0.850000X0.850000*%
%TD*%
%TA.AperFunction,ComponentPad*%
%ADD13C,0.850000*%
%TD*%
%TA.AperFunction,ComponentPad*%
%ADD14RoundRect,0.250000X-0.350000X-0.625000X0.350000X-0.625000X0.350000X0.625000X-0.350000X0.625000X0*%
%TD*%
%TA.AperFunction,ComponentPad*%
%ADD15O,1.200000X1.750000*%
%TD*%
%TA.AperFunction,ViaPad*%
%ADD16C,0.600000*%
%TD*%
%TA.AperFunction,Conductor*%
%ADD17C,0.200000*%
%TD*%
%TA.AperFunction,Conductor*%
%ADD18C,0.250000*%
%TD*%
G04 APERTURE END LIST*
D10*
%TO.P,J22,1,Pin_1_1*%
%TO.N,/3v3_SW*%
X222960000Y-101500000D03*
D11*
%TO.P,J22,2,Pin_2_2*%
%TO.N,/GND*%
X225500000Y-101500000D03*
%TO.P,J22,3,Pin_3_3*%
%TO.N,/I2C_SCL*%
X228040000Y-101500000D03*
%TO.P,J22,4,Pin_4_4*%
%TO.N,/I2C_SDA*%
X230580000Y-101500000D03*
%TO.P,J22,5,Pin_5_5*%
%TO.N,/NC*%
X233120000Y-101500000D03*
%TD*%
D10*
%TO.P,J15,1,Pin_1_1*%
%TO.N,/VBUS*%
X85190000Y-108500000D03*
D11*
%TO.P,J15,2,Pin_2_2*%
%TO.N,/GND*%
X87730000Y-108500000D03*
%TO.P,J15,3,Pin_3_3*%
%TO.N,/D-*%
X90270000Y-108500000D03*
%TO.P,J15,4,Pin_4_4*%
%TO.N,/D+*%
X92810000Y-108500000D03*
%TD*%
D12*
%TO.P,J3,1,Pin_1_1*%
%TO.N,/GPIO2*%
X199000000Y-107000000D03*
D13*
%TO.P,J3,2,Pin_2_2*%
%TO.N,/GPIO3*%
X198000000Y-107000000D03*
%TO.P,J3,3,Pin_3_3*%
%TO.N,/GPIO14*%
X197000000Y-107000000D03*
%TO.P,J3,4,Pin_4_4*%
%TO.N,/GPIO21*%
X196000000Y-107000000D03*
%TD*%
D10*
%TO.P,U2,1,Pin_1_1*%
%TO.N,/3v3_SW*%
X113000000Y-119500000D03*
D11*
%TO.P,U2,2,Pin_2_2*%
%TO.N,/GND*%
X115540000Y-119500000D03*
%TO.P,U2,3,Pin_3_3*%
%TO.N,/I2C_SCL*%
X118080000Y-119500000D03*
%TO.P,U2,4,Pin_4_4*%
%TO.N,/I2C_SDA*%
X120620000Y-119500000D03*
%TO.P,U2,5,Pin_5_5*%
X123160000Y-119500000D03*
%TO.P,U2,6,Pin_6_6*%
%TO.N,/ALRT*%
X125700000Y-119500000D03*
%TO.P,U2,7,Pin_7_7*%
%TO.N,/A0_B*%
X128240000Y-119500000D03*
%TO.P,U2,8,Pin_8_8*%
%TO.N,/A1_B*%
X130780000Y-119500000D03*
%TO.P,U2,9,Pin_9_9*%
%TO.N,/A2_B*%
X133320000Y-119500000D03*
%TO.P,U2,10,Pin_10_10*%
%TO.N,/A3_B*%
X135860000Y-119500000D03*
%TD*%
D14*
%TO.P,J8,1,Pin_1_1*%
%TO.N,/BATT-*%
X107000000Y-99500000D03*
D15*
%TO.P,J8,2,Pin_2_2*%
%TO.N,/BATT+*%
X109000000Y-99500000D03*
%TD*%
D12*
%TO.P,J23,1,Pin_1_1*%
%TO.N,/GND*%
X97000000Y-114375000D03*
D13*
%TO.P,J23,2,Pin_2_2*%
%TO.N,/A2_B*%
X98000000Y-114375000D03*
%TO.P,J23,3,Pin_3_3*%
%TO.N,/3v3_SW*%
X99000000Y-114375000D03*
%TO.P,J23,4,Pin_4_4*%
%TO.N,/GND*%
X100000000Y-114375000D03*
%TO.P,J23,5,Pin_5_5*%
%TO.N,/A3_B*%
X101000000Y-114375000D03*
%TO.P,J23,6,Pin_6_6*%
%TO.N,/3v3_SW*%
X102000000Y-114375000D03*
%TD*%
D12*
%TO.P,J19,1,Pin_1_1*%
%TO.N,/P06*%
X214875000Y-129000000D03*
D13*
%TO.P,J19,2,Pin_2_2*%
%TO.N,/P07*%
X214875000Y-128000000D03*
%TO.P,J19,3,Pin_3_3*%
%TO.N,/P08*%
X214875000Y-127000000D03*
%TO.P,J19,4,Pin_4_4*%
%TO.N,/P09*%
X214875000Y-126000000D03*
%TD*%
D12*
%TO.P,J2,1,Pin_1_1*%
%TO.N,/3v3*%
X196000000Y-100375000D03*
D13*
%TO.P,J2,2,Pin_2_2*%
%TO.N,/GND*%
X197000000Y-100375000D03*
%TO.P,J2,3,Pin_3_3*%
%TO.N,/I2C_SCL*%
X198000000Y-100375000D03*
%TO.P,J2,4,Pin_4_4*%
%TO.N,/I2C_SDA*%
X199000000Y-100375000D03*
%TD*%
D12*
%TO.P,J4,1,Pin_1_1*%
%TO.N,/GND*%
X128125000Y-101500000D03*
D13*
%TO.P,J4,2,Pin_2_2*%
%TO.N,/A0_A*%
X128125000Y-102500000D03*
%TO.P,J4,3,Pin_3_3*%
%TO.N,/3v3_SW*%
X128125000Y-103500000D03*
%TO.P,J4,4,Pin_4_4*%
%TO.N,/GND*%
X128125000Y-104500000D03*
%TO.P,J4,5,Pin_5_5*%
%TO.N,/A1_A*%
X128125000Y-105500000D03*
%TO.P,J4,6,Pin_6_6*%
%TO.N,/3v3_SW*%
X128125000Y-106500000D03*
%TD*%
D10*
%TO.P,J24,1,Pin_1_1*%
%TO.N,/3v3*%
X161960000Y-134500000D03*
D11*
%TO.P,J24,2,Pin_2_2*%
X164500000Y-134500000D03*
%TO.P,J24,3,Pin_3_3*%
%TO.N,/GND*%
X167040000Y-134500000D03*
%TO.P,J24,4,Pin_4_4*%
X169580000Y-134500000D03*
%TO.P,J24,5,Pin_5_5*%
%TO.N,/ON*%
X172120000Y-134500000D03*
%TO.P,J24,6,Pin_6_6*%
%TO.N,/OFF*%
X174660000Y-134500000D03*
%TO.P,J24,7,Pin_7_7*%
%TO.N,/GPIO21*%
X177200000Y-134500000D03*
%TD*%
D14*
%TO.P,J16,1,Pin_1_1*%
%TO.N,/BATT-*%
X96500000Y-99500000D03*
D15*
%TO.P,J16,2,Pin_2_2*%
%TO.N,/BATT+*%
X98500000Y-99500000D03*
%TD*%
D12*
%TO.P,J11,1,Pin_1_1*%
%TO.N,/GPIO2*%
X216500000Y-97000000D03*
D13*
%TO.P,J11,2,Pin_2_2*%
%TO.N,/GPIO3*%
X215500000Y-97000000D03*
%TD*%
D12*
%TO.P,J12,1,Pin_1_1*%
%TO.N,/P05*%
X211000000Y-97125000D03*
D13*
%TO.P,J12,2,Pin_2_2*%
%TO.N,/GND*%
X210000000Y-97125000D03*
%TD*%
D12*
%TO.P,J21,1,Pin_1_1*%
%TO.N,/P14*%
X215000000Y-116000000D03*
D13*
%TO.P,J21,2,Pin_2_2*%
%TO.N,/P15*%
X215000000Y-115000000D03*
%TO.P,J21,3,Pin_3_3*%
%TO.N,/P16*%
X215000000Y-114000000D03*
%TO.P,J21,4,Pin_4_4*%
%TO.N,/P17*%
X215000000Y-113000000D03*
%TD*%
D10*
%TO.P,J14,1,Pin_1_1*%
%TO.N,/P00*%
X186500000Y-117500000D03*
D11*
%TO.P,J14,2,Pin_2_2*%
%TO.N,/P01*%
X186500000Y-120040000D03*
%TO.P,J14,3,Pin_3_3*%
%TO.N,/P02*%
X186500000Y-122580000D03*
%TO.P,J14,4,Pin_4_4*%
%TO.N,/P03*%
X186500000Y-125120000D03*
%TO.P,J14,5,Pin_5_5*%
%TO.N,/P04*%
X186500000Y-127660000D03*
%TO.P,J14,6,Pin_6_6*%
%TO.N,/5v_SW*%
X186500000Y-130200000D03*
%TO.P,J14,7,Pin_7_7*%
%TO.N,/GND*%
X186500000Y-132740000D03*
%TD*%
D10*
%TO.P,J25,1,Pin_1_1*%
%TO.N,/5v*%
X141500000Y-134500000D03*
D11*
%TO.P,J25,2,Pin_2_2*%
X144040000Y-134500000D03*
%TO.P,J25,3,Pin_3_3*%
%TO.N,/GND*%
X146580000Y-134500000D03*
%TO.P,J25,4,Pin_4_4*%
X149120000Y-134500000D03*
%TO.P,J25,5,Pin_5_5*%
%TO.N,/ON*%
X151660000Y-134500000D03*
%TO.P,J25,6,Pin_6_6*%
%TO.N,/OFF*%
X154200000Y-134500000D03*
%TO.P,J25,7,Pin_7_7*%
%TO.N,/GPIO14*%
X156740000Y-134500000D03*
%TD*%
D10*
%TO.P,U3,1,Pin_1_1*%
%TO.N,/GND*%
X218500000Y-108500000D03*
D11*
%TO.P,U3,2,Pin_2_2*%
%TO.N,/3v3_SW*%
X218500000Y-111040000D03*
%TO.P,U3,3,Pin_3_3*%
%TO.N,/P00*%
X218500000Y-113580000D03*
%TO.P,U3,4,Pin_4_4*%
%TO.N,/P01*%
X218500000Y-116120000D03*
%TO.P,U3,5,Pin_5_5*%
%TO.N,/P02*%
X218500000Y-118660000D03*
%TO.P,U3,6,Pin_6_6*%
%TO.N,/P03*%
X218500000Y-121200000D03*
%TO.P,U3,7,Pin_7_7*%
%TO.N,/P04*%
X218500000Y-123740000D03*
%TO.P,U3,8,Pin_8_8*%
%TO.N,/P05*%
X218500000Y-126280000D03*
%TO.P,U3,9,Pin_9_9*%
%TO.N,/P06*%
X218500000Y-128820000D03*
%TO.P,U3,10,Pin_10_10*%
%TO.N,/P07*%
X218500000Y-131360000D03*
%TO.P,U3,11,Pin_11_11*%
%TO.N,/P08*%
X218500000Y-133900000D03*
%TD*%
D10*
%TO.P,U4,1,Pin_1_1*%
%TO.N,/GND*%
X237500000Y-108500000D03*
D11*
%TO.P,U4,2,Pin_2_2*%
%TO.N,/3v3_SW*%
X237500000Y-111040000D03*
%TO.P,U4,3,Pin_3_3*%
%TO.N,/P17*%
X237500000Y-113580000D03*
%TO.P,U4,4,Pin_4_4*%
%TO.N,/P16*%
X237500000Y-116120000D03*
%TO.P,U4,5,Pin_5_5*%
%TO.N,/P15*%
X237500000Y-118660000D03*
%TO.P,U4,6,Pin_6_6*%
%TO.N,/P14*%
X237500000Y-121200000D03*
%TO.P,U4,7,Pin_7_7*%
%TO.N,/P13*%
X237500000Y-123740000D03*
%TO.P,U4,8,Pin_8_8*%
%TO.N,/P12*%
X237500000Y-126280000D03*
%TO.P,U4,9,Pin_9_9*%
%TO.N,/P11*%
X237500000Y-128820000D03*
%TO.P,U4,10,Pin_10_10*%
%TO.N,/P10*%
X237500000Y-131360000D03*
%TO.P,U4,11,Pin_11_11*%
%TO.N,/P09*%
X237500000Y-133900000D03*
%TD*%
D10*
%TO.P,J17,1,Pin_1_1*%
%TO.N,/NC*%
X85725000Y-99500000D03*
D11*
%TO.P,J17,2,Pin_2_2*%
X88265000Y-99500000D03*
%TD*%
D10*
%TO.P,J10,1,Pin_1_1*%
%TO.N,/5v_SW*%
X141500000Y-120000000D03*
D11*
%TO.P,J10,2,Pin_2_2*%
X144040000Y-120000000D03*
%TO.P,J10,3,Pin_3_3*%
%TO.N,/GND*%
X146580000Y-120000000D03*
%TO.P,J10,4,Pin_4_4*%
X149120000Y-120000000D03*
%TO.P,J10,5,Pin_5_5*%
%TO.N,/NC*%
X151660000Y-120000000D03*
%TO.P,J10,6,Pin_6_6*%
X154200000Y-120000000D03*
%TO.P,J10,7,Pin_7_7*%
X156740000Y-120000000D03*
%TD*%
D12*
%TO.P,J13,1,Pin_1_1*%
%TO.N,/GND*%
X108500000Y-114375000D03*
D13*
%TO.P,J13,2,Pin_2_2*%
%TO.N,/A0_B*%
X109500000Y-114375000D03*
%TO.P,J13,3,Pin_3_3*%
%TO.N,/3v3_SW*%
X110500000Y-114375000D03*
%TO.P,J13,4,Pin_4_4*%
%TO.N,/GND*%
X111500000Y-114375000D03*
%TO.P,J13,5,Pin_5_5*%
%TO.N,/A1_B*%
X112500000Y-114375000D03*
%TO.P,J13,6,Pin_6_6*%
%TO.N,/3v3_SW*%
X113500000Y-114375000D03*
%TD*%
D12*
%TO.P,J1,1,Pin_1_1*%
%TO.N,/5v*%
X118000000Y-100375000D03*
D13*
%TO.P,J1,2,Pin_2_2*%
%TO.N,/GND*%
X119000000Y-100375000D03*
%TO.P,J1,3,Pin_3_3*%
%TO.N,/UART_TX*%
X120000000Y-100375000D03*
%TO.P,J1,4,Pin_4_4*%
%TO.N,/UART_RX*%
X121000000Y-100375000D03*
%TD*%
D12*
%TO.P,J20,1,Pin_1_1*%
%TO.N,/P10*%
X214875000Y-122500000D03*
D13*
%TO.P,J20,2,Pin_2_2*%
%TO.N,/P11*%
X214875000Y-121500000D03*
%TO.P,J20,3,Pin_3_3*%
%TO.N,/P12*%
X214875000Y-120500000D03*
%TO.P,J20,4,Pin_4_4*%
%TO.N,/P13*%
X214875000Y-119500000D03*
%TD*%
D12*
%TO.P,J5,1,Pin_1_1*%
%TO.N,/GND*%
X188875000Y-106500000D03*
D13*
%TO.P,J5,2,Pin_2_2*%
%TO.N,/A2_A*%
X188875000Y-105500000D03*
%TO.P,J5,3,Pin_3_3*%
%TO.N,/3v3_SW*%
X188875000Y-104500000D03*
%TO.P,J5,4,Pin_4_4*%
%TO.N,/GND*%
X188875000Y-103500000D03*
%TO.P,J5,5,Pin_5_5*%
%TO.N,/A3_A*%
X188875000Y-102500000D03*
%TO.P,J5,6,Pin_6_6*%
%TO.N,/3v3_SW*%
X188875000Y-101500000D03*
%TD*%
D10*
%TO.P,J7,1,Pin_1_1*%
%TO.N,/VBUS*%
X196000000Y-134000000D03*
D11*
%TO.P,J7,2,Pin_2_2*%
%TO.N,/GND*%
X198540000Y-134000000D03*
%TO.P,J7,3,Pin_3_3*%
%TO.N,/CC1*%
X201080000Y-134000000D03*
%TO.P,J7,4,Pin_4_4*%
%TO.N,/D-*%
X203620000Y-134000000D03*
%TO.P,J7,5,Pin_5_5*%
%TO.N,/D+*%
X206160000Y-134000000D03*
%TO.P,J7,6,Pin_6_6*%
%TO.N,/CC2*%
X208700000Y-134000000D03*
%TD*%
D12*
%TO.P,J18,1,Pin_1_1*%
%TO.N,/P05*%
X205500000Y-97125000D03*
D13*
%TO.P,J18,2,Pin_2_2*%
%TO.N,/GND*%
X204500000Y-97125000D03*
%TD*%
D12*
%TO.P,J6,1,Pin_1_1*%
%TO.N,/5v_SW*%
X121000000Y-108000000D03*
D13*
%TO.P,J6,2,Pin_2_2*%
%TO.N,/GND*%
X120000000Y-108000000D03*
%TO.P,J6,3,Pin_3_3*%
%TO.N,/UART_RX*%
X119000000Y-108000000D03*
%TO.P,J6,4,Pin_4_4*%
%TO.N,/UART_TX*%
X118000000Y-108000000D03*
%TD*%
D10*
%TO.P,U1,1,Pin_1_1*%
%TO.N,/3v3_SW*%
X83000000Y-119500000D03*
D11*
%TO.P,U1,2,Pin_2_2*%
%TO.N,/GND*%
X85540000Y-119500000D03*
%TO.P,U1,3,Pin_3_3*%
%TO.N,/I2C_SCL*%
X88080000Y-119500000D03*
%TO.P,U1,4,Pin_4_4*%
%TO.N,/I2C_SDA*%
X90620000Y-119500000D03*
%TO.P,U1,5,Pin_5_5*%
%TO.N,/GND*%
X93160000Y-119500000D03*
%TO.P,U1,6,Pin_6_6*%
%TO.N,/ALRT*%
X95700000Y-119500000D03*
%TO.P,U1,7,Pin_7_7*%
%TO.N,/A0_A*%
X98240000Y-119500000D03*
%TO.P,U1,8,Pin_8_8*%
%TO.N,/A1_A*%
X100780000Y-119500000D03*
%TO.P,U1,9,Pin_9_9*%
%TO.N,/A2_A*%
X103320000Y-119500000D03*
%TO.P,U1,10,Pin_10_10*%
%TO.N,/A3_A*%
X105860000Y-119500000D03*
%TD*%
D10*
%TO.P,J9,1,Pin_1_1*%
%TO.N,/3v3_SW*%
X161960000Y-120000000D03*
D11*
%TO.P,J9,2,Pin_2_2*%
X164500000Y-120000000D03*
%TO.P,J9,3,Pin_3_3*%
%TO.N,/GND*%
X167040000Y-120000000D03*
%TO.P,J9,4,Pin_4_4*%
X169580000Y-120000000D03*
%TO.P,J9,5,Pin_5_5*%
%TO.N,/NC*%
X172120000Y-120000000D03*
%TO.P,J9,6,Pin_6_6*%
X174660000Y-120000000D03*
%TO.P,J9,7,Pin_7_7*%
X177200000Y-120000000D03*
%TD*%
D16*
%TO.N,/3v3_SW*%
X92598100Y-121661400D03*
X123274000Y-113009600D03*
%TO.N,/GND*%
X109000000Y-116000000D03*
X131000000Y-112000000D03*
X176000000Y-130000000D03*
X208000000Y-98000000D03*
X146000000Y-118000000D03*
X197000000Y-98000000D03*
X229264300Y-128154900D03*
X170000000Y-130000000D03*
X112000000Y-116000000D03*
X165000000Y-130000000D03*
%TO.N,/I2C_SCL*%
X225585300Y-116052200D03*
%TO.N,/I2C_SDA*%
X202760800Y-100364800D03*
X197224500Y-121521200D03*
X229387600Y-115870100D03*
%TO.N,/VBUS*%
X93851500Y-132188100D03*
%TO.N,/D-*%
X90252900Y-127253100D03*
%TO.N,/D+*%
X102122100Y-133287300D03*
%TO.N,/GPIO2*%
X203115200Y-99130400D03*
%TO.N,/GPIO14*%
X168310000Y-133530200D03*
%TO.N,/3v3*%
X229241200Y-112629700D03*
X227040900Y-104828000D03*
%TO.N,/UART_RX*%
X120017400Y-120961700D03*
%TO.N,/P14*%
X217046900Y-117175400D03*
%TO.N,/P17*%
X220823900Y-113457300D03*
%TO.N,/P00*%
X216457800Y-114716700D03*
%TO.N,/5v_SW*%
X133085900Y-120907400D03*
X176353100Y-127301600D03*
%TO.N,/5v*%
X205310300Y-112987700D03*
%TO.N,/UART_TX*%
X188588600Y-123884300D03*
X185571400Y-121591300D03*
%TO.N,/A2_A*%
X111921700Y-129245700D03*
X178851200Y-129363700D03*
X195107100Y-107624800D03*
%TO.N,/A3_A*%
X182301100Y-122221500D03*
X194525400Y-108301100D03*
X147112300Y-122189100D03*
%TD*%
%TO.N,/3v3_SW*%
D17*
X189676000Y-103792400D02*
X188968400Y-104500000D01*
X92683000Y-118348300D02*
X92008300Y-119023000D01*
X217331100Y-109871100D02*
X218500000Y-111040000D01*
X186896300Y-106369000D02*
X186896300Y-112832200D01*
X161960000Y-120000000D02*
X160808300Y-120000000D01*
X128196800Y-106500000D02*
X128935400Y-105761400D01*
X128935400Y-104214900D02*
X128220500Y-103500000D01*
X128125000Y-106500000D02*
X123274000Y-111351000D01*
X175930000Y-119625100D02*
X175930000Y-120387600D01*
X102000000Y-114467200D02*
X101320600Y-115146600D01*
X188875000Y-101500000D02*
X189002400Y-101500000D01*
X134708300Y-119246500D02*
X134708300Y-119977000D01*
X111144600Y-113634500D02*
X112833200Y-113634500D01*
X128220500Y-103500000D02*
X128125000Y-103500000D01*
X102000000Y-114375000D02*
X102000000Y-114467200D01*
X188765300Y-104500000D02*
X186896300Y-106369000D01*
X135883000Y-121151700D02*
X159656600Y-121151700D01*
X112833200Y-113634500D02*
X113500000Y-114301300D01*
X189002400Y-101500000D02*
X189676000Y-102173600D01*
X128935400Y-105761400D02*
X128935400Y-104214900D01*
X92008300Y-119023000D02*
X92008300Y-121071600D01*
X110500000Y-115848300D02*
X113000000Y-118348300D01*
X113000000Y-119500000D02*
X113000000Y-118348300D01*
X177077000Y-118478100D02*
X175930000Y-119625100D01*
X99000000Y-114496800D02*
X95148500Y-118348300D01*
X222168200Y-102651700D02*
X217331100Y-107488800D01*
X186896300Y-112832200D02*
X181250400Y-118478100D01*
X189676000Y-102173600D02*
X189676000Y-103792400D01*
X110500000Y-114375000D02*
X110500000Y-114279100D01*
X175930000Y-120387600D02*
X175165900Y-121151700D01*
X113500000Y-114301300D02*
X113500000Y-114375000D01*
X99649800Y-115146600D02*
X99000000Y-114496800D01*
X134708300Y-119977000D02*
X135883000Y-121151700D01*
X181250400Y-118478100D02*
X177077000Y-118478100D01*
X188875000Y-104500000D02*
X188765300Y-104500000D01*
X128125000Y-106500000D02*
X128196800Y-106500000D01*
X222960000Y-102651700D02*
X222168200Y-102651700D01*
X222960000Y-101500000D02*
X222960000Y-102651700D01*
X92008300Y-121071600D02*
X92598100Y-121661400D01*
X159656600Y-121151700D02*
X160808300Y-120000000D01*
X128471400Y-113009600D02*
X134708300Y-119246500D01*
X123274000Y-111351000D02*
X123274000Y-113009600D01*
X99000000Y-114496800D02*
X99000000Y-114375000D01*
X95148500Y-118348300D02*
X92683000Y-118348300D01*
X188968400Y-104500000D02*
X188875000Y-104500000D01*
X165651700Y-121151700D02*
X164500000Y-120000000D01*
X217331100Y-107488800D02*
X217331100Y-109871100D01*
X110500000Y-114279100D02*
X111144600Y-113634500D01*
X175165900Y-121151700D02*
X165651700Y-121151700D01*
X101320600Y-115146600D02*
X99649800Y-115146600D01*
X110500000Y-114375000D02*
X110500000Y-115848300D01*
X123274000Y-113009600D02*
X128471400Y-113009600D01*
%TO.N,/GND*%
X188875000Y-103500000D02*
X187500000Y-103500000D01*
D18*
X176734009Y-135625000D02*
X176000000Y-134890991D01*
X186500000Y-132740000D02*
X183615000Y-135625000D01*
X167040000Y-120000000D02*
X169580000Y-120000000D01*
X133992130Y-118000000D02*
X131000000Y-115007870D01*
X95000000Y-121340000D02*
X95000000Y-122000000D01*
X167040000Y-134500000D02*
X169580000Y-134500000D01*
X93160000Y-119500000D02*
X95000000Y-121340000D01*
X146000000Y-118000000D02*
X133992130Y-118000000D01*
X176000000Y-134890991D02*
X176000000Y-130000000D01*
X146000000Y-119420000D02*
X146580000Y-120000000D01*
X183615000Y-135625000D02*
X176734009Y-135625000D01*
X146580000Y-134500000D02*
X149120000Y-134500000D01*
X146580000Y-120000000D02*
X149120000Y-120000000D01*
X131000000Y-115007870D02*
X131000000Y-112000000D01*
%TO.N,/I2C_SCL*%
D17*
X119231700Y-118348300D02*
X118080000Y-119500000D01*
X193541900Y-106792500D02*
X178751700Y-121582700D01*
X178751700Y-121582700D02*
X123529300Y-121582700D01*
X121890000Y-119943400D02*
X121890000Y-119112500D01*
X123529300Y-121582700D02*
X121890000Y-119943400D01*
X225585300Y-103954700D02*
X228040000Y-101500000D01*
X198000000Y-100241200D02*
X197355000Y-99596200D01*
X121125800Y-118348300D02*
X119231700Y-118348300D01*
X197355000Y-99596200D02*
X195442500Y-99596200D01*
X193541900Y-101496800D02*
X193541900Y-106792500D01*
X225585300Y-116052200D02*
X225585300Y-103954700D01*
X121890000Y-119112500D02*
X121125800Y-118348300D01*
X195442500Y-99596200D02*
X193541900Y-101496800D01*
X198000000Y-100375000D02*
X198000000Y-100241200D01*
%TO.N,/I2C_SDA*%
X202760800Y-100364800D02*
X202760800Y-115984900D01*
X202760800Y-115984900D02*
X197224500Y-121521200D01*
X230580000Y-114677700D02*
X229387600Y-115870100D01*
X230580000Y-101500000D02*
X230580000Y-114677700D01*
%TO.N,/VBUS*%
X84346400Y-122683000D02*
X93851500Y-132188100D01*
X85190000Y-109651700D02*
X84346400Y-110495300D01*
X84346400Y-110495300D02*
X84346400Y-122683000D01*
X85190000Y-108500000D02*
X85190000Y-109651700D01*
%TO.N,/D-*%
X90270000Y-108500000D02*
X86917600Y-111852400D01*
X86917600Y-111852400D02*
X86917600Y-123917800D01*
X86917600Y-123917800D02*
X90252900Y-127253100D01*
%TO.N,/D+*%
X89467800Y-111842200D02*
X92810000Y-108500000D01*
X89467800Y-120633000D02*
X89467800Y-111842200D01*
X102122100Y-133287300D02*
X89467800Y-120633000D01*
%TO.N,/GPIO2*%
X199000000Y-103245600D02*
X199000000Y-107000000D01*
X203115200Y-99130400D02*
X199000000Y-103245600D01*
%TO.N,/GPIO3*%
X198000000Y-107000000D02*
X198000000Y-102525200D01*
X204540100Y-95985100D02*
X214485100Y-95985100D01*
X214485100Y-95985100D02*
X215500000Y-97000000D01*
X198000000Y-102525200D02*
X204540100Y-95985100D01*
%TO.N,/GPIO14*%
X197000000Y-106876200D02*
X197000000Y-107000000D01*
X168310000Y-133530200D02*
X195613100Y-106227100D01*
X196350900Y-106227100D02*
X197000000Y-106876200D01*
X195613100Y-106227100D02*
X196350900Y-106227100D01*
%TO.N,/GPIO21*%
X196000000Y-122382800D02*
X186912800Y-131470000D01*
X186912800Y-131470000D02*
X180230000Y-131470000D01*
X196000000Y-107000000D02*
X196000000Y-122382800D01*
X180230000Y-131470000D02*
X177200000Y-134500000D01*
%TO.N,/A0_B*%
X121972800Y-113232800D02*
X128240000Y-119500000D01*
X109500000Y-114262400D02*
X110529600Y-113232800D01*
X109500000Y-114375000D02*
X109500000Y-114262400D01*
X110529600Y-113232800D02*
X121972800Y-113232800D01*
%TO.N,/A1_B*%
X125237200Y-120674900D02*
X124430000Y-119867700D01*
X122812500Y-117501900D02*
X115534700Y-117501900D01*
X124430000Y-119867700D02*
X124430000Y-119119400D01*
X124430000Y-119119400D02*
X122812500Y-117501900D01*
X129605100Y-120674900D02*
X125237200Y-120674900D01*
X130780000Y-119500000D02*
X129605100Y-120674900D01*
X112500000Y-114467200D02*
X112500000Y-114375000D01*
X115534700Y-117501900D02*
X112500000Y-114467200D01*
%TO.N,/BATT-*%
X105819200Y-100680800D02*
X107000000Y-99500000D01*
X96500000Y-99500000D02*
X97680800Y-100680800D01*
X97680800Y-100680800D02*
X105819200Y-100680800D01*
%TO.N,/BATT+*%
X99401700Y-99500000D02*
X100605700Y-98296000D01*
X108098300Y-98821700D02*
X108098300Y-99500000D01*
X98500000Y-99500000D02*
X99401700Y-99500000D01*
X107572600Y-98296000D02*
X108098300Y-98821700D01*
X109000000Y-99500000D02*
X108098300Y-99500000D01*
X100605700Y-98296000D02*
X107572600Y-98296000D01*
%TO.N,/P07*%
X218500000Y-131286000D02*
X215214000Y-128000000D01*
X215214000Y-128000000D02*
X214875000Y-128000000D01*
X218500000Y-131360000D02*
X218500000Y-131286000D01*
%TO.N,/P08*%
X219652900Y-130847200D02*
X219652900Y-132747100D01*
X219652900Y-132747100D02*
X218500000Y-133900000D01*
X214875000Y-127000000D02*
X215051300Y-127000000D01*
X218141300Y-130090000D02*
X218895700Y-130090000D01*
X218895700Y-130090000D02*
X219652900Y-130847200D01*
X215051300Y-127000000D02*
X218141300Y-130090000D01*
%TO.N,/P09*%
X231150000Y-127550000D02*
X217596500Y-127550000D01*
X216046500Y-126000000D02*
X214875000Y-126000000D01*
X217596500Y-127550000D02*
X216046500Y-126000000D01*
X237500000Y-133900000D02*
X231150000Y-127550000D01*
%TO.N,/3v3*%
X164500000Y-134500000D02*
X175719700Y-123280300D01*
X196000000Y-104957600D02*
X196000000Y-100375000D01*
X227040900Y-110429400D02*
X229241200Y-112629700D01*
X227040900Y-104828000D02*
X227040900Y-110429400D01*
X175719700Y-123280300D02*
X177677300Y-123280300D01*
X177677300Y-123280300D02*
X196000000Y-104957600D01*
%TO.N,/A0_A*%
X124112300Y-99199700D02*
X127399800Y-102487200D01*
X102726700Y-113748700D02*
X117275700Y-99199700D01*
X98240000Y-119500000D02*
X102726700Y-115013300D01*
X128112300Y-102487300D02*
X128125000Y-102500000D01*
X102726700Y-115013300D02*
X102726700Y-113748700D01*
X117275700Y-99199700D02*
X124112300Y-99199700D01*
X127399800Y-102487200D02*
X128112300Y-102487200D01*
X128112300Y-102487200D02*
X128112300Y-102487300D01*
%TO.N,/A1_A*%
X116873100Y-100170500D02*
X116873100Y-103406900D01*
X122182700Y-99648300D02*
X117395300Y-99648300D01*
X117395300Y-99648300D02*
X116873100Y-100170500D01*
X128034400Y-105500000D02*
X122182700Y-99648300D01*
X128125000Y-105500000D02*
X128034400Y-105500000D01*
X116873100Y-103406900D02*
X100780000Y-119500000D01*
%TO.N,/UART_RX*%
X119000000Y-107175000D02*
X119000000Y-108000000D01*
X119000000Y-108000000D02*
X119000000Y-108090600D01*
X107773300Y-116481300D02*
X112253700Y-120961700D01*
X107773300Y-113795700D02*
X107773300Y-116481300D01*
X115726500Y-111364100D02*
X110204900Y-111364100D01*
X121000000Y-105175000D02*
X119000000Y-107175000D01*
X119000000Y-108090600D02*
X115726500Y-111364100D01*
X110204900Y-111364100D02*
X107773300Y-113795700D01*
X112253700Y-120961700D02*
X120017400Y-120961700D01*
X121000000Y-100375000D02*
X121000000Y-105175000D01*
%TO.N,/P05*%
X210394100Y-96398300D02*
X211000000Y-96398300D01*
X205500000Y-97125000D02*
X206226700Y-97125000D01*
X210726700Y-96823900D02*
X210388900Y-96486100D01*
X206226700Y-115199200D02*
X206226700Y-97125000D01*
X210388900Y-96403500D02*
X210394100Y-96398300D01*
X206226700Y-97125000D02*
X208972400Y-97125000D01*
X210726700Y-97426100D02*
X210726700Y-96823900D01*
X211000000Y-97125000D02*
X211000000Y-96398300D01*
X210388900Y-96486100D02*
X210388900Y-96403500D01*
X210301100Y-97851700D02*
X210726700Y-97426100D01*
X208972400Y-97125100D02*
X209699000Y-97851700D01*
X217307500Y-126280000D02*
X206226700Y-115199200D01*
X209699000Y-97851700D02*
X210301100Y-97851700D01*
X218500000Y-126280000D02*
X217307500Y-126280000D01*
X208972400Y-97125000D02*
X208972400Y-97125100D01*
%TO.N,/P14*%
X217046900Y-117175400D02*
X216902100Y-117175400D01*
X216902100Y-117175400D02*
X215726700Y-116000000D01*
X215000000Y-116000000D02*
X215726700Y-116000000D01*
%TO.N,/P15*%
X215034200Y-114965800D02*
X215856100Y-114965800D01*
X215856100Y-114965800D02*
X216208700Y-115318400D01*
X216707000Y-115318400D02*
X217100300Y-114925100D01*
X215000000Y-115000000D02*
X215034200Y-114965800D01*
X220571900Y-114925100D02*
X222643300Y-116996500D01*
X217100300Y-114925100D02*
X220571900Y-114925100D01*
X216208700Y-115318400D02*
X216707000Y-115318400D01*
X235836500Y-116996500D02*
X237500000Y-118660000D01*
X222643300Y-116996500D02*
X235836500Y-116996500D01*
%TO.N,/P17*%
X215000000Y-113000000D02*
X215616600Y-112383400D01*
X215616600Y-112383400D02*
X219750000Y-112383400D01*
X219750000Y-112383400D02*
X220823900Y-113457300D01*
%TO.N,/P00*%
X218500000Y-113580000D02*
X217594500Y-113580000D01*
X217594500Y-113580000D02*
X216457800Y-114716700D01*
%TO.N,/5v_SW*%
X176353100Y-127716400D02*
X178836700Y-130200000D01*
X127835800Y-114922500D02*
X124282000Y-114922500D01*
X121000000Y-111640500D02*
X121000000Y-108000000D01*
X133085900Y-120907400D02*
X132050000Y-119871500D01*
X176353100Y-127301600D02*
X176353100Y-127716400D01*
X132050000Y-119871500D02*
X132050000Y-119136700D01*
X178836700Y-130200000D02*
X186500000Y-130200000D01*
X132050000Y-119136700D02*
X127835800Y-114922500D01*
X124282000Y-114922500D02*
X121000000Y-111640500D01*
%TO.N,/5v*%
X104672100Y-119944900D02*
X104672100Y-116182400D01*
X117295000Y-103559500D02*
X117295000Y-101806700D01*
X119227200Y-134500000D02*
X104672100Y-119944900D01*
X205310300Y-115582500D02*
X205310300Y-112987700D01*
X144040000Y-134500000D02*
X145663000Y-136123000D01*
X104672100Y-116182400D02*
X117295000Y-103559500D01*
X184769800Y-136123000D02*
X205310300Y-115582500D01*
X141500000Y-134500000D02*
X119227200Y-134500000D01*
X117295000Y-101806700D02*
X118000000Y-101101700D01*
X118000000Y-100375000D02*
X118000000Y-101101700D01*
X145663000Y-136123000D02*
X184769800Y-136123000D01*
%TO.N,/UART_TX*%
X185296300Y-123005000D02*
X186175600Y-123884300D01*
X120000000Y-100845900D02*
X120000000Y-100375000D01*
X118000000Y-102845900D02*
X120000000Y-100845900D01*
X185296300Y-121866400D02*
X185296300Y-123005000D01*
X186175600Y-123884300D02*
X188588600Y-123884300D01*
X118000000Y-108000000D02*
X118000000Y-102845900D01*
X185571400Y-121591300D02*
X185296300Y-121866400D01*
%TO.N,/P12*%
X218041600Y-117457800D02*
X214999400Y-120500000D01*
X214999400Y-120500000D02*
X214875000Y-120500000D01*
X228677800Y-117457800D02*
X218041600Y-117457800D01*
X237500000Y-126280000D02*
X228677800Y-117457800D01*
%TO.N,/P11*%
X216046500Y-121500000D02*
X214875000Y-121500000D01*
X237500000Y-128820000D02*
X228674300Y-119994300D01*
X228674300Y-119994300D02*
X217552200Y-119994300D01*
X217552200Y-119994300D02*
X216046500Y-121500000D01*
%TO.N,/P10*%
X228640000Y-122500000D02*
X214875000Y-122500000D01*
X237500000Y-131360000D02*
X228640000Y-122500000D01*
%TO.N,/A2_A*%
X195107100Y-107624800D02*
X195181400Y-107699100D01*
X195181400Y-107699100D02*
X195181400Y-118162700D01*
X103320000Y-120644000D02*
X103320000Y-119500000D01*
X111921700Y-129245700D02*
X103320000Y-120644000D01*
X186954100Y-126390000D02*
X181824900Y-126390000D01*
X181824900Y-126390000D02*
X178851200Y-129363700D01*
X195181400Y-118162700D02*
X186954100Y-126390000D01*
%TO.N,/A3_A*%
X147112300Y-122189100D02*
X108549100Y-122189100D01*
X186977100Y-121191700D02*
X186023000Y-121191700D01*
X194525400Y-113643400D02*
X186977100Y-121191700D01*
X186023000Y-121191700D02*
X185806300Y-120975000D01*
X183547600Y-120975000D02*
X182301100Y-122221500D01*
X108549100Y-122189100D02*
X105860000Y-119500000D01*
X194525400Y-108301100D02*
X194525400Y-113643400D01*
X185806300Y-120975000D02*
X183547600Y-120975000D01*
%TD*%
%TA.AperFunction,Conductor*%
%TO.N,/GND*%
G36*
X130003471Y-95150695D02*
G01*
X130041132Y-95152809D01*
X130312099Y-95168027D01*
X130325898Y-95169581D01*
X130627215Y-95220777D01*
X130640758Y-95223868D01*
X130934439Y-95308476D01*
X130947564Y-95313068D01*
X131229924Y-95430026D01*
X131242438Y-95436052D01*
X131445414Y-95548233D01*
X131509930Y-95583890D01*
X131521704Y-95591288D01*
X131770954Y-95768140D01*
X131781826Y-95776810D01*
X132009708Y-95980458D01*
X132019541Y-95990291D01*
X132223189Y-96218173D01*
X132231859Y-96229045D01*
X132408711Y-96478295D01*
X132416109Y-96490069D01*
X132563943Y-96757554D01*
X132569976Y-96770082D01*
X132686930Y-97052434D01*
X132691523Y-97065560D01*
X132776129Y-97359235D01*
X132779223Y-97372791D01*
X132830416Y-97674090D01*
X132831973Y-97687908D01*
X132849305Y-97996526D01*
X132849500Y-98003478D01*
X132849500Y-113965649D01*
X132849500Y-113965650D01*
X132849500Y-114000000D01*
X132849500Y-114165111D01*
X132884018Y-114493523D01*
X132887904Y-114511807D01*
X132952673Y-114816523D01*
X132952674Y-114816524D01*
X132952675Y-114816528D01*
X132975219Y-114885910D01*
X132993931Y-114943500D01*
X133000000Y-114981818D01*
X133000000Y-116672445D01*
X132980315Y-116739484D01*
X132927511Y-116785239D01*
X132858353Y-116795183D01*
X132794797Y-116766158D01*
X132788319Y-116760126D01*
X128717315Y-112689122D01*
X128717314Y-112689121D01*
X128717313Y-112689120D01*
X128671650Y-112662756D01*
X128625989Y-112636393D01*
X128567035Y-112620597D01*
X128524127Y-112609100D01*
X128524126Y-112609100D01*
X123798500Y-112609100D01*
X123731461Y-112589415D01*
X123685706Y-112536611D01*
X123674500Y-112485100D01*
X123674500Y-111568254D01*
X123694185Y-111501215D01*
X123710814Y-111480578D01*
X127933569Y-107257822D01*
X127994890Y-107224339D01*
X128045441Y-107223888D01*
X128053545Y-107225500D01*
X128196457Y-107225500D01*
X128290751Y-107206742D01*
X128336620Y-107197619D01*
X128468653Y-107142929D01*
X128587479Y-107063532D01*
X128688532Y-106962479D01*
X128767929Y-106843653D01*
X128822619Y-106711620D01*
X128835045Y-106649152D01*
X128850500Y-106571457D01*
X128850500Y-106464054D01*
X128870185Y-106397015D01*
X128886819Y-106376373D01*
X129048780Y-106214412D01*
X129255880Y-106007313D01*
X129308607Y-105915988D01*
X129335900Y-105814127D01*
X129335900Y-105708673D01*
X129335900Y-104162173D01*
X129308607Y-104060313D01*
X129308607Y-104060312D01*
X129255880Y-103968987D01*
X128886819Y-103599926D01*
X128853334Y-103538603D01*
X128850500Y-103512245D01*
X128850500Y-103428542D01*
X128822620Y-103288385D01*
X128822619Y-103288384D01*
X128822619Y-103288380D01*
X128780318Y-103186258D01*
X128767930Y-103156349D01*
X128767925Y-103156340D01*
X128709493Y-103068891D01*
X128688615Y-103002214D01*
X128707099Y-102934833D01*
X128709493Y-102931109D01*
X128767925Y-102843659D01*
X128767925Y-102843658D01*
X128767929Y-102843653D01*
X128822619Y-102711620D01*
X128840412Y-102622170D01*
X128850500Y-102571457D01*
X128850500Y-102428542D01*
X128822620Y-102288385D01*
X128822619Y-102288384D01*
X128822619Y-102288380D01*
X128767929Y-102156347D01*
X128767926Y-102156342D01*
X128767925Y-102156340D01*
X128688532Y-102037521D01*
X128688529Y-102037517D01*
X128587482Y-101936470D01*
X128587478Y-101936467D01*
X128468659Y-101857074D01*
X128468650Y-101857069D01*
X128336620Y-101802381D01*
X128336614Y-101802379D01*
X128196457Y-101774500D01*
X128196455Y-101774500D01*
X128053545Y-101774500D01*
X128053543Y-101774500D01*
X127913385Y-101802379D01*
X127913379Y-101802381D01*
X127781349Y-101857069D01*
X127781340Y-101857074D01*
X127662521Y-101936467D01*
X127662516Y-101936471D01*
X127626670Y-101972317D01*
X127565347Y-102005802D01*
X127495655Y-102000816D01*
X127451309Y-101972316D01*
X124358215Y-98879222D01*
X124358213Y-98879220D01*
X124294372Y-98842361D01*
X124266889Y-98826493D01*
X124215957Y-98812846D01*
X124165027Y-98799200D01*
X117328427Y-98799200D01*
X117222973Y-98799200D01*
X117121110Y-98826493D01*
X117029787Y-98879220D01*
X117029784Y-98879222D01*
X102406222Y-113502784D01*
X102406220Y-113502787D01*
X102353490Y-113594116D01*
X102350382Y-113601621D01*
X102347495Y-113600425D01*
X102318764Y-113647492D01*
X102255897Y-113677980D01*
X102211223Y-113677301D01*
X102071458Y-113649500D01*
X102071455Y-113649500D01*
X101928545Y-113649500D01*
X101928543Y-113649500D01*
X101788385Y-113677379D01*
X101788379Y-113677381D01*
X101656349Y-113732069D01*
X101656342Y-113732073D01*
X101568890Y-113790507D01*
X101502213Y-113811384D01*
X101434833Y-113792899D01*
X101431110Y-113790507D01*
X101343657Y-113732073D01*
X101343650Y-113732069D01*
X101211620Y-113677381D01*
X101211614Y-113677379D01*
X101071457Y-113649500D01*
X101071455Y-113649500D01*
X100928545Y-113649500D01*
X100928543Y-113649500D01*
X100788385Y-113677379D01*
X100788379Y-113677381D01*
X100656349Y-113732069D01*
X100656340Y-113732074D01*
X100537521Y-113811467D01*
X100537517Y-113811470D01*
X100436470Y-113912517D01*
X100436467Y-113912521D01*
X100357074Y-114031340D01*
X100357069Y-114031349D01*
X100302381Y-114163379D01*
X100302379Y-114163385D01*
X100274500Y-114303542D01*
X100274500Y-114303545D01*
X100274500Y-114446455D01*
X100274500Y-114446457D01*
X100274499Y-114446457D01*
X100303569Y-114592594D01*
X100302285Y-114592849D01*
X100302848Y-114655971D01*
X100265600Y-114715084D01*
X100202306Y-114744675D01*
X100183564Y-114746100D01*
X99867055Y-114746100D01*
X99837614Y-114737455D01*
X99807628Y-114730932D01*
X99802612Y-114727177D01*
X99800016Y-114726415D01*
X99779374Y-114709781D01*
X99737616Y-114668023D01*
X99704131Y-114606700D01*
X99703680Y-114556150D01*
X99725500Y-114446457D01*
X99725500Y-114303542D01*
X99697620Y-114163385D01*
X99697619Y-114163384D01*
X99697619Y-114163380D01*
X99652596Y-114054685D01*
X99642930Y-114031349D01*
X99642925Y-114031340D01*
X99563532Y-113912521D01*
X99563529Y-113912517D01*
X99462482Y-113811470D01*
X99462478Y-113811467D01*
X99343659Y-113732074D01*
X99343650Y-113732069D01*
X99211620Y-113677381D01*
X99211614Y-113677379D01*
X99071457Y-113649500D01*
X99071455Y-113649500D01*
X98928545Y-113649500D01*
X98928543Y-113649500D01*
X98788385Y-113677379D01*
X98788379Y-113677381D01*
X98656349Y-113732069D01*
X98656342Y-113732073D01*
X98568890Y-113790507D01*
X98502213Y-113811384D01*
X98434833Y-113792899D01*
X98431110Y-113790507D01*
X98343657Y-113732073D01*
X98343650Y-113732069D01*
X98211620Y-113677381D01*
X98211614Y-113677379D01*
X98071457Y-113649500D01*
X98071455Y-113649500D01*
X97928545Y-113649500D01*
X97928543Y-113649500D01*
X97788385Y-113677379D01*
X97788379Y-113677381D01*
X97656349Y-113732069D01*
X97656340Y-113732074D01*
X97537521Y-113811467D01*
X97537517Y-113811470D01*
X97436470Y-113912517D01*
X97436467Y-113912521D01*
X97357074Y-114031340D01*
X97357069Y-114031349D01*
X97302381Y-114163379D01*
X97302379Y-114163385D01*
X97274500Y-114303542D01*
X97274500Y-114303545D01*
X97274500Y-114446455D01*
X97274500Y-114446457D01*
X97274499Y-114446457D01*
X97302379Y-114586614D01*
X97302381Y-114586620D01*
X97357069Y-114718650D01*
X97357074Y-114718659D01*
X97436467Y-114837478D01*
X97436470Y-114837482D01*
X97537517Y-114938529D01*
X97537521Y-114938532D01*
X97656340Y-115017925D01*
X97656344Y-115017927D01*
X97656347Y-115017929D01*
X97656352Y-115017931D01*
X97666007Y-115021931D01*
X97720409Y-115065773D01*
X97742473Y-115132067D01*
X97725193Y-115199766D01*
X97706233Y-115224172D01*
X95018926Y-117911481D01*
X94957603Y-117944966D01*
X94931245Y-117947800D01*
X92630273Y-117947800D01*
X92528410Y-117975093D01*
X92437087Y-118027820D01*
X92437084Y-118027822D01*
X91691469Y-118773437D01*
X91630146Y-118806922D01*
X91560454Y-118801938D01*
X91504521Y-118760066D01*
X91503472Y-118758644D01*
X91497558Y-118750504D01*
X91369499Y-118622445D01*
X91369494Y-118622441D01*
X91222997Y-118516006D01*
X91222996Y-118516005D01*
X91222994Y-118516004D01*
X91170367Y-118489189D01*
X91061639Y-118433788D01*
X91061636Y-118433787D01*
X90889410Y-118377829D01*
X90710551Y-118349500D01*
X90710546Y-118349500D01*
X90529454Y-118349500D01*
X90529449Y-118349500D01*
X90350589Y-118377829D01*
X90178363Y-118433787D01*
X90178360Y-118433788D01*
X90048595Y-118499908D01*
X89979926Y-118512804D01*
X89915185Y-118486528D01*
X89874928Y-118429421D01*
X89868300Y-118389423D01*
X89868300Y-112059453D01*
X89887985Y-111992414D01*
X89904614Y-111971777D01*
X92270719Y-109605671D01*
X92332040Y-109572188D01*
X92396712Y-109575422D01*
X92489815Y-109605673D01*
X92540590Y-109622171D01*
X92719449Y-109650500D01*
X92719454Y-109650500D01*
X92900551Y-109650500D01*
X92987259Y-109636765D01*
X93079409Y-109622171D01*
X93251639Y-109566211D01*
X93412994Y-109483996D01*
X93559501Y-109377553D01*
X93687553Y-109249501D01*
X93793996Y-109102994D01*
X93876211Y-108941639D01*
X93932171Y-108769409D01*
X93947946Y-108669812D01*
X93960500Y-108590551D01*
X93960500Y-108409448D01*
X93944019Y-108305397D01*
X93932171Y-108230591D01*
X93880466Y-108071457D01*
X93876212Y-108058363D01*
X93876211Y-108058360D01*
X93832686Y-107972939D01*
X93793996Y-107897006D01*
X93715075Y-107788380D01*
X93687558Y-107750505D01*
X93687554Y-107750500D01*
X93559499Y-107622445D01*
X93559494Y-107622441D01*
X93412997Y-107516006D01*
X93412996Y-107516005D01*
X93412994Y-107516004D01*
X93336906Y-107477235D01*
X93251639Y-107433788D01*
X93251636Y-107433787D01*
X93079410Y-107377829D01*
X92900551Y-107349500D01*
X92900546Y-107349500D01*
X92719454Y-107349500D01*
X92719449Y-107349500D01*
X92540589Y-107377829D01*
X92368363Y-107433787D01*
X92368360Y-107433788D01*
X92207002Y-107516006D01*
X92060505Y-107622441D01*
X92060500Y-107622445D01*
X91932445Y-107750500D01*
X91932441Y-107750505D01*
X91826006Y-107897002D01*
X91743788Y-108058360D01*
X91743787Y-108058363D01*
X91687829Y-108230589D01*
X91662473Y-108390678D01*
X91632544Y-108453813D01*
X91573232Y-108490744D01*
X91503369Y-108489746D01*
X91445137Y-108451136D01*
X91417527Y-108390678D01*
X91403740Y-108303639D01*
X91392171Y-108230591D01*
X91340466Y-108071457D01*
X91336212Y-108058363D01*
X91336211Y-108058360D01*
X91292686Y-107972939D01*
X91253996Y-107897006D01*
X91175075Y-107788380D01*
X91147558Y-107750505D01*
X91147554Y-107750500D01*
X91019499Y-107622445D01*
X91019494Y-107622441D01*
X90872997Y-107516006D01*
X90872996Y-107516005D01*
X90872994Y-107516004D01*
X90796906Y-107477235D01*
X90711639Y-107433788D01*
X90711636Y-107433787D01*
X90539410Y-107377829D01*
X90360551Y-107349500D01*
X90360546Y-107349500D01*
X90179454Y-107349500D01*
X90179449Y-107349500D01*
X90000589Y-107377829D01*
X89828363Y-107433787D01*
X89828360Y-107433788D01*
X89667002Y-107516006D01*
X89520505Y-107622441D01*
X89520500Y-107622445D01*
X89392445Y-107750500D01*
X89392441Y-107750505D01*
X89286006Y-107897002D01*
X89203788Y-108058360D01*
X89203787Y-108058363D01*
X89147829Y-108230589D01*
X89119500Y-108409448D01*
X89119500Y-108590551D01*
X89147829Y-108769412D01*
X89194575Y-108913283D01*
X89196570Y-108983124D01*
X89164325Y-109039281D01*
X86597122Y-111606484D01*
X86597118Y-111606490D01*
X86544392Y-111697812D01*
X86544393Y-111697813D01*
X86517100Y-111799673D01*
X86517100Y-123970529D01*
X86517448Y-123973174D01*
X86517100Y-123975404D01*
X86517100Y-123978654D01*
X86516593Y-123978654D01*
X86506679Y-124042209D01*
X86460296Y-124094462D01*
X86393026Y-124113344D01*
X86326227Y-124092860D01*
X86306827Y-124077034D01*
X84783219Y-122553426D01*
X84749734Y-122492103D01*
X84746900Y-122465745D01*
X84746900Y-110712553D01*
X84766585Y-110645514D01*
X84783215Y-110624876D01*
X85425703Y-109982387D01*
X85425708Y-109982384D01*
X85435911Y-109972180D01*
X85435913Y-109972180D01*
X85510480Y-109897613D01*
X85563207Y-109806287D01*
X85580325Y-109742403D01*
X85616689Y-109682745D01*
X85679536Y-109652216D01*
X85700099Y-109650499D01*
X86084856Y-109650499D01*
X86084864Y-109650499D01*
X86084879Y-109650497D01*
X86084882Y-109650497D01*
X86109987Y-109647586D01*
X86109988Y-109647585D01*
X86109991Y-109647585D01*
X86212765Y-109602206D01*
X86292206Y-109522765D01*
X86337585Y-109419991D01*
X86340500Y-109394865D01*
X86340499Y-107605136D01*
X86340477Y-107604945D01*
X86337586Y-107580012D01*
X86337585Y-107580010D01*
X86337585Y-107580009D01*
X86292206Y-107477235D01*
X86212765Y-107397794D01*
X86208281Y-107395814D01*
X86109992Y-107352415D01*
X86084865Y-107349500D01*
X84295143Y-107349500D01*
X84295117Y-107349502D01*
X84270012Y-107352413D01*
X84270008Y-107352415D01*
X84167235Y-107397793D01*
X84087794Y-107477234D01*
X84042415Y-107580006D01*
X84042415Y-107580008D01*
X84039500Y-107605131D01*
X84039500Y-109394856D01*
X84039502Y-109394882D01*
X84042413Y-109419987D01*
X84042415Y-109419991D01*
X84087793Y-109522764D01*
X84087794Y-109522765D01*
X84167235Y-109602206D01*
X84270009Y-109647585D01*
X84295135Y-109650500D01*
X84325443Y-109650499D01*
X84392480Y-109670182D01*
X84438237Y-109722984D01*
X84448182Y-109792142D01*
X84419159Y-109855699D01*
X84413125Y-109862180D01*
X84025922Y-110249384D01*
X84025920Y-110249387D01*
X83973192Y-110340713D01*
X83952428Y-110418209D01*
X83945900Y-110442570D01*
X83945900Y-118225500D01*
X83926215Y-118292539D01*
X83873411Y-118338294D01*
X83821900Y-118349500D01*
X82105143Y-118349500D01*
X82105117Y-118349502D01*
X82080012Y-118352413D01*
X82080008Y-118352415D01*
X81977235Y-118397793D01*
X81897794Y-118477234D01*
X81852415Y-118580006D01*
X81852415Y-118580008D01*
X81849500Y-118605131D01*
X81849500Y-120394856D01*
X81849502Y-120394882D01*
X81852413Y-120419987D01*
X81852415Y-120419991D01*
X81897793Y-120522764D01*
X81897794Y-120522765D01*
X81977235Y-120602206D01*
X82080009Y-120647585D01*
X82105135Y-120650500D01*
X83821900Y-120650499D01*
X83888939Y-120670184D01*
X83934694Y-120722987D01*
X83945900Y-120774499D01*
X83945900Y-122735726D01*
X83973193Y-122837589D01*
X83980018Y-122849410D01*
X84025920Y-122928913D01*
X84025922Y-122928915D01*
X93214681Y-132117674D01*
X93226924Y-132140095D01*
X93242534Y-132160323D01*
X93244930Y-132173072D01*
X93248166Y-132178997D01*
X93250541Y-132194697D01*
X93251000Y-132200017D01*
X93251000Y-132267157D01*
X93259542Y-132299037D01*
X93260481Y-132309919D01*
X93255634Y-132333885D01*
X93255052Y-132358333D01*
X93248830Y-132367524D01*
X93246631Y-132378403D01*
X93229596Y-132395944D01*
X93215890Y-132416196D01*
X93205686Y-132420565D01*
X93197955Y-132428527D01*
X93174140Y-132434074D01*
X93151661Y-132443700D01*
X93140715Y-132441859D01*
X93129907Y-132444377D01*
X93106876Y-132436169D01*
X93082759Y-132432114D01*
X93065386Y-132421383D01*
X93064092Y-132420922D01*
X93063593Y-132420275D01*
X93061460Y-132418958D01*
X93058125Y-132416399D01*
X92842376Y-132291837D01*
X92842361Y-132291830D01*
X92612207Y-132196498D01*
X92605486Y-132194697D01*
X92371565Y-132132018D01*
X92371564Y-132132017D01*
X92371561Y-132132017D01*
X92124575Y-132099501D01*
X92124570Y-132099500D01*
X92124565Y-132099500D01*
X91875435Y-132099500D01*
X91875429Y-132099500D01*
X91875424Y-132099501D01*
X91628438Y-132132017D01*
X91387792Y-132196498D01*
X91157638Y-132291830D01*
X91157623Y-132291837D01*
X90941873Y-132416400D01*
X90744225Y-132568060D01*
X90744218Y-132568066D01*
X90568066Y-132744218D01*
X90568060Y-132744225D01*
X90416400Y-132941873D01*
X90291837Y-133157623D01*
X90291830Y-133157638D01*
X90196498Y-133387792D01*
X90132017Y-133628437D01*
X90099618Y-133874534D01*
X90099500Y-133875427D01*
X90099500Y-134124558D01*
X90099501Y-134124575D01*
X90132017Y-134371561D01*
X90196498Y-134612207D01*
X90291830Y-134842361D01*
X90291837Y-134842376D01*
X90416400Y-135058126D01*
X90568060Y-135255774D01*
X90568066Y-135255781D01*
X90744218Y-135431933D01*
X90744225Y-135431939D01*
X90941873Y-135583599D01*
X91157623Y-135708162D01*
X91157638Y-135708169D01*
X91256825Y-135749253D01*
X91387793Y-135803502D01*
X91628435Y-135867982D01*
X91875435Y-135900500D01*
X91875442Y-135900500D01*
X92124558Y-135900500D01*
X92124565Y-135900500D01*
X92371565Y-135867982D01*
X92612207Y-135803502D01*
X92842373Y-135708164D01*
X93058127Y-135583599D01*
X93255776Y-135431938D01*
X93431938Y-135255776D01*
X93583599Y-135058127D01*
X93708164Y-134842373D01*
X93803502Y-134612207D01*
X93867982Y-134371565D01*
X93900500Y-134124565D01*
X93900500Y-133875435D01*
X93867982Y-133628435D01*
X93803502Y-133387793D01*
X93729130Y-133208243D01*
X93708169Y-133157638D01*
X93708162Y-133157623D01*
X93594032Y-132959943D01*
X93577559Y-132892042D01*
X93600412Y-132826016D01*
X93655333Y-132782825D01*
X93724887Y-132776184D01*
X93733493Y-132778163D01*
X93772443Y-132788600D01*
X93772446Y-132788600D01*
X93930555Y-132788600D01*
X93930557Y-132788600D01*
X94083284Y-132747677D01*
X94220216Y-132668620D01*
X94332020Y-132556816D01*
X94411077Y-132419884D01*
X94452000Y-132267157D01*
X94452000Y-132109043D01*
X94411077Y-131956316D01*
X94361531Y-131870499D01*
X94332024Y-131819390D01*
X94332018Y-131819382D01*
X94220217Y-131707581D01*
X94220209Y-131707575D01*
X94083290Y-131628526D01*
X94083286Y-131628524D01*
X94083284Y-131628523D01*
X93930557Y-131587600D01*
X93930556Y-131587600D01*
X93868755Y-131587600D01*
X93801716Y-131567915D01*
X93781074Y-131551281D01*
X90287788Y-128057995D01*
X90254303Y-127996672D01*
X90259287Y-127926980D01*
X90301159Y-127871047D01*
X90343370Y-127850541D01*
X90484684Y-127812677D01*
X90621616Y-127733620D01*
X90733420Y-127621816D01*
X90812477Y-127484884D01*
X90853400Y-127332157D01*
X90853400Y-127174043D01*
X90812477Y-127021316D01*
X90775808Y-126957803D01*
X90733424Y-126884390D01*
X90733418Y-126884382D01*
X90621617Y-126772581D01*
X90621609Y-126772575D01*
X90484690Y-126693526D01*
X90484686Y-126693524D01*
X90484684Y-126693523D01*
X90331957Y-126652600D01*
X90331956Y-126652600D01*
X90270155Y-126652600D01*
X90203116Y-126632915D01*
X90182474Y-126616281D01*
X87354419Y-123788226D01*
X87320934Y-123726903D01*
X87318100Y-123700545D01*
X87318100Y-120605379D01*
X87337785Y-120538340D01*
X87390589Y-120492585D01*
X87459747Y-120482641D01*
X87498393Y-120494893D01*
X87541222Y-120516716D01*
X87638360Y-120566211D01*
X87638363Y-120566212D01*
X87681640Y-120580273D01*
X87810591Y-120622171D01*
X87893429Y-120635291D01*
X87989449Y-120650500D01*
X87989454Y-120650500D01*
X88170551Y-120650500D01*
X88261180Y-120636145D01*
X88349409Y-120622171D01*
X88521639Y-120566211D01*
X88682994Y-120483996D01*
X88829501Y-120377553D01*
X88855619Y-120351435D01*
X88916942Y-120317950D01*
X88986634Y-120322934D01*
X89042567Y-120364806D01*
X89066984Y-120430270D01*
X89067300Y-120439116D01*
X89067300Y-120580273D01*
X89067300Y-120685727D01*
X89079140Y-120729916D01*
X89094593Y-120787589D01*
X89109733Y-120813811D01*
X89147320Y-120878913D01*
X95325413Y-127057006D01*
X101485281Y-133216873D01*
X101518766Y-133278196D01*
X101521600Y-133304554D01*
X101521600Y-133366357D01*
X101561699Y-133516006D01*
X101562523Y-133519083D01*
X101562526Y-133519090D01*
X101641575Y-133656009D01*
X101641579Y-133656014D01*
X101641580Y-133656016D01*
X101753384Y-133767820D01*
X101753386Y-133767821D01*
X101753390Y-133767824D01*
X101890309Y-133846873D01*
X101890316Y-133846877D01*
X102043043Y-133887800D01*
X102043045Y-133887800D01*
X102201155Y-133887800D01*
X102201157Y-133887800D01*
X102353884Y-133846877D01*
X102490816Y-133767820D01*
X102602620Y-133656016D01*
X102681677Y-133519084D01*
X102722600Y-133366357D01*
X102722600Y-133208243D01*
X102681677Y-133055516D01*
X102657635Y-133013873D01*
X102602624Y-132918590D01*
X102602618Y-132918582D01*
X102490817Y-132806781D01*
X102490809Y-132806775D01*
X102353890Y-132727726D01*
X102353886Y-132727724D01*
X102353884Y-132727723D01*
X102201157Y-132686800D01*
X102201156Y-132686800D01*
X102139354Y-132686800D01*
X102072315Y-132667115D01*
X102051673Y-132650481D01*
X90230878Y-120829685D01*
X90197393Y-120768362D01*
X90202377Y-120698670D01*
X90244249Y-120642737D01*
X90309713Y-120618320D01*
X90347508Y-120621430D01*
X90350583Y-120622168D01*
X90350591Y-120622171D01*
X90350598Y-120622172D01*
X90350602Y-120622173D01*
X90529449Y-120650500D01*
X90529454Y-120650500D01*
X90710551Y-120650500D01*
X90801180Y-120636145D01*
X90889409Y-120622171D01*
X91061639Y-120566211D01*
X91222994Y-120483996D01*
X91369501Y-120377553D01*
X91396119Y-120350935D01*
X91457442Y-120317450D01*
X91527134Y-120322434D01*
X91583067Y-120364306D01*
X91607484Y-120429770D01*
X91607800Y-120438616D01*
X91607800Y-121018873D01*
X91607800Y-121124327D01*
X91615346Y-121152490D01*
X91635093Y-121226189D01*
X91661456Y-121271850D01*
X91687820Y-121317513D01*
X91687822Y-121317515D01*
X91961281Y-121590974D01*
X91994766Y-121652297D01*
X91997600Y-121678655D01*
X91997600Y-121740457D01*
X92038040Y-121891379D01*
X92038523Y-121893183D01*
X92038526Y-121893190D01*
X92117575Y-122030109D01*
X92117579Y-122030114D01*
X92117580Y-122030116D01*
X92229384Y-122141920D01*
X92229386Y-122141921D01*
X92229390Y-122141924D01*
X92321116Y-122194881D01*
X92366316Y-122220977D01*
X92519043Y-122261900D01*
X92519045Y-122261900D01*
X92677155Y-122261900D01*
X92677157Y-122261900D01*
X92829884Y-122220977D01*
X92966816Y-122141920D01*
X93078620Y-122030116D01*
X93157677Y-121893184D01*
X93198600Y-121740457D01*
X93198600Y-121582343D01*
X93157677Y-121429616D01*
X93139723Y-121398519D01*
X93078624Y-121292690D01*
X93078618Y-121292682D01*
X92966817Y-121180881D01*
X92966809Y-121180875D01*
X92829890Y-121101826D01*
X92829886Y-121101824D01*
X92829884Y-121101823D01*
X92677157Y-121060900D01*
X92677156Y-121060900D01*
X92615355Y-121060900D01*
X92585914Y-121052255D01*
X92555928Y-121045732D01*
X92550912Y-121041977D01*
X92548316Y-121041215D01*
X92527674Y-121024581D01*
X92445119Y-120942026D01*
X92411634Y-120880703D01*
X92408800Y-120854345D01*
X92408800Y-119240255D01*
X92428485Y-119173216D01*
X92445119Y-119152574D01*
X92812574Y-118785119D01*
X92873897Y-118751634D01*
X92900255Y-118748800D01*
X94589169Y-118748800D01*
X94656208Y-118768485D01*
X94701963Y-118821289D01*
X94711907Y-118890447D01*
X94699654Y-118929093D01*
X94689793Y-118948447D01*
X94633788Y-119058360D01*
X94633787Y-119058363D01*
X94577829Y-119230589D01*
X94549500Y-119409448D01*
X94549500Y-119590551D01*
X94577829Y-119769410D01*
X94633787Y-119941636D01*
X94633788Y-119941639D01*
X94687059Y-120046186D01*
X94714288Y-120099627D01*
X94716006Y-120102997D01*
X94822441Y-120249494D01*
X94822445Y-120249499D01*
X94950500Y-120377554D01*
X94950505Y-120377558D01*
X95038702Y-120441636D01*
X95097006Y-120483996D01*
X95202484Y-120537740D01*
X95258360Y-120566211D01*
X95258363Y-120566212D01*
X95301640Y-120580273D01*
X95430591Y-120622171D01*
X95513429Y-120635291D01*
X95609449Y-120650500D01*
X95609454Y-120650500D01*
X95790551Y-120650500D01*
X95881180Y-120636145D01*
X95969409Y-120622171D01*
X96141639Y-120566211D01*
X96302994Y-120483996D01*
X96449501Y-120377553D01*
X96577553Y-120249501D01*
X96683996Y-120102994D01*
X96766211Y-119941639D01*
X96822171Y-119769409D01*
X96840925Y-119650999D01*
X96847527Y-119609321D01*
X96877456Y-119546186D01*
X96936768Y-119509255D01*
X97006630Y-119510253D01*
X97064863Y-119548863D01*
X97092473Y-119609321D01*
X97117829Y-119769410D01*
X97173787Y-119941636D01*
X97173788Y-119941639D01*
X97227059Y-120046186D01*
X97254288Y-120099627D01*
X97256006Y-120102997D01*
X97362441Y-120249494D01*
X97362445Y-120249499D01*
X97490500Y-120377554D01*
X97490505Y-120377558D01*
X97578702Y-120441636D01*
X97637006Y-120483996D01*
X97742484Y-120537740D01*
X97798360Y-120566211D01*
X97798363Y-120566212D01*
X97841640Y-120580273D01*
X97970591Y-120622171D01*
X98053429Y-120635291D01*
X98149449Y-120650500D01*
X98149454Y-120650500D01*
X98330551Y-120650500D01*
X98421180Y-120636145D01*
X98509409Y-120622171D01*
X98681639Y-120566211D01*
X98842994Y-120483996D01*
X98989501Y-120377553D01*
X99117553Y-120249501D01*
X99223996Y-120102994D01*
X99306211Y-119941639D01*
X99362171Y-119769409D01*
X99380925Y-119650999D01*
X99387527Y-119609321D01*
X99417456Y-119546186D01*
X99476768Y-119509255D01*
X99546630Y-119510253D01*
X99604863Y-119548863D01*
X99632473Y-119609321D01*
X99657829Y-119769410D01*
X99713787Y-119941636D01*
X99713788Y-119941639D01*
X99767059Y-120046186D01*
X99794288Y-120099627D01*
X99796006Y-120102997D01*
X99902441Y-120249494D01*
X99902445Y-120249499D01*
X100030500Y-120377554D01*
X100030505Y-120377558D01*
X100118702Y-120441636D01*
X100177006Y-120483996D01*
X100282484Y-120537740D01*
X100338360Y-120566211D01*
X100338363Y-120566212D01*
X100381640Y-120580273D01*
X100510591Y-120622171D01*
X100593429Y-120635291D01*
X100689449Y-120650500D01*
X100689454Y-120650500D01*
X100870551Y-120650500D01*
X100961180Y-120636145D01*
X101049409Y-120622171D01*
X101221639Y-120566211D01*
X101382994Y-120483996D01*
X101529501Y-120377553D01*
X101657553Y-120249501D01*
X101763996Y-120102994D01*
X101846211Y-119941639D01*
X101902171Y-119769409D01*
X101920925Y-119650999D01*
X101927527Y-119609321D01*
X101957456Y-119546186D01*
X102016768Y-119509255D01*
X102086630Y-119510253D01*
X102144863Y-119548863D01*
X102172473Y-119609321D01*
X102197829Y-119769410D01*
X102253787Y-119941636D01*
X102253788Y-119941639D01*
X102307059Y-120046186D01*
X102334288Y-120099627D01*
X102336006Y-120102997D01*
X102442441Y-120249494D01*
X102442445Y-120249499D01*
X102570500Y-120377554D01*
X102570505Y-120377558D01*
X102717001Y-120483993D01*
X102717003Y-120483994D01*
X102717006Y-120483996D01*
X102851796Y-120552675D01*
X102902591Y-120600648D01*
X102919500Y-120663159D01*
X102919500Y-120696727D01*
X102931093Y-120739994D01*
X102946793Y-120798589D01*
X102963972Y-120828343D01*
X102999520Y-120889913D01*
X102999522Y-120889915D01*
X111284881Y-129175274D01*
X111318366Y-129236597D01*
X111321200Y-129262955D01*
X111321200Y-129324757D01*
X111360083Y-129469868D01*
X111362123Y-129477483D01*
X111362126Y-129477490D01*
X111441175Y-129614409D01*
X111441179Y-129614414D01*
X111441180Y-129614416D01*
X111552984Y-129726220D01*
X111552986Y-129726221D01*
X111552990Y-129726224D01*
X111645814Y-129779815D01*
X111689916Y-129805277D01*
X111842643Y-129846200D01*
X111842645Y-129846200D01*
X112000755Y-129846200D01*
X112000757Y-129846200D01*
X112153484Y-129805277D01*
X112290416Y-129726220D01*
X112402220Y-129614416D01*
X112481277Y-129477484D01*
X112522200Y-129324757D01*
X112522200Y-129166643D01*
X112481277Y-129013916D01*
X112421597Y-128910546D01*
X112402224Y-128876990D01*
X112402218Y-128876982D01*
X112290417Y-128765181D01*
X112290409Y-128765175D01*
X112153490Y-128686126D01*
X112153486Y-128686124D01*
X112153484Y-128686123D01*
X112000757Y-128645200D01*
X112000756Y-128645200D01*
X111938955Y-128645200D01*
X111871916Y-128625515D01*
X111851274Y-128608881D01*
X103911783Y-120669390D01*
X103878298Y-120608067D01*
X103883282Y-120538375D01*
X103925154Y-120482442D01*
X103926462Y-120481475D01*
X104069501Y-120377553D01*
X104197553Y-120249501D01*
X104201741Y-120243735D01*
X104257068Y-120201068D01*
X104326681Y-120195086D01*
X104388478Y-120227688D01*
X104389743Y-120228936D01*
X118981287Y-134820480D01*
X119072612Y-134873207D01*
X119174473Y-134900500D01*
X140225501Y-134900500D01*
X140292540Y-134920185D01*
X140338295Y-134972989D01*
X140349501Y-135024500D01*
X140349501Y-135394856D01*
X140349502Y-135394882D01*
X140352413Y-135419987D01*
X140352415Y-135419991D01*
X140397793Y-135522764D01*
X140397794Y-135522765D01*
X140477235Y-135602206D01*
X140580009Y-135647585D01*
X140605135Y-135650500D01*
X142394864Y-135650499D01*
X142394879Y-135650497D01*
X142394882Y-135650497D01*
X142419987Y-135647586D01*
X142419988Y-135647585D01*
X142419991Y-135647585D01*
X142522765Y-135602206D01*
X142602206Y-135522765D01*
X142647585Y-135419991D01*
X142650500Y-135394865D01*
X142650499Y-134657125D01*
X142670183Y-134590089D01*
X142722987Y-134544334D01*
X142792146Y-134534390D01*
X142855702Y-134563415D01*
X142893476Y-134622193D01*
X142896972Y-134637729D01*
X142917829Y-134769410D01*
X142973787Y-134941636D01*
X142973788Y-134941639D01*
X143015125Y-135022765D01*
X143055602Y-135102206D01*
X143056006Y-135102997D01*
X143162441Y-135249494D01*
X143162445Y-135249499D01*
X143290500Y-135377554D01*
X143290505Y-135377558D01*
X143365347Y-135431933D01*
X143437006Y-135483996D01*
X143539049Y-135535990D01*
X143598360Y-135566211D01*
X143598363Y-135566212D01*
X143684476Y-135594191D01*
X143770591Y-135622171D01*
X143853429Y-135635291D01*
X143949449Y-135650500D01*
X143949454Y-135650500D01*
X144130551Y-135650500D01*
X144309409Y-135622171D01*
X144360182Y-135605674D01*
X144453284Y-135575423D01*
X144523123Y-135573429D01*
X144579281Y-135605674D01*
X145338179Y-136364571D01*
X145338189Y-136364582D01*
X145342519Y-136368912D01*
X145342520Y-136368913D01*
X145417087Y-136443480D01*
X145508413Y-136496207D01*
X145610273Y-136523501D01*
X145610275Y-136523501D01*
X145723323Y-136523501D01*
X145723339Y-136523500D01*
X184822525Y-136523500D01*
X184822527Y-136523500D01*
X184924388Y-136496207D01*
X185015713Y-136443480D01*
X188354062Y-133105131D01*
X194849500Y-133105131D01*
X194849500Y-134894856D01*
X194849502Y-134894882D01*
X194852413Y-134919987D01*
X194852415Y-134919991D01*
X194897793Y-135022764D01*
X194897794Y-135022765D01*
X194977235Y-135102206D01*
X195080009Y-135147585D01*
X195105135Y-135150500D01*
X196894864Y-135150499D01*
X196894879Y-135150497D01*
X196894882Y-135150497D01*
X196919987Y-135147586D01*
X196919988Y-135147585D01*
X196919991Y-135147585D01*
X197022765Y-135102206D01*
X197102206Y-135022765D01*
X197147585Y-134919991D01*
X197150500Y-134894865D01*
X197150499Y-133909448D01*
X199929500Y-133909448D01*
X199929500Y-134090551D01*
X199957829Y-134269410D01*
X200013787Y-134441636D01*
X200013788Y-134441639D01*
X200067059Y-134546186D01*
X200094288Y-134599627D01*
X200096006Y-134602997D01*
X200202441Y-134749494D01*
X200202445Y-134749499D01*
X200330500Y-134877554D01*
X200330505Y-134877558D01*
X200418008Y-134941132D01*
X200477006Y-134983996D01*
X200582484Y-135037740D01*
X200638360Y-135066211D01*
X200638363Y-135066212D01*
X200724476Y-135094191D01*
X200810591Y-135122171D01*
X200893429Y-135135291D01*
X200989449Y-135150500D01*
X200989454Y-135150500D01*
X201170551Y-135150500D01*
X201257259Y-135136765D01*
X201349409Y-135122171D01*
X201521639Y-135066211D01*
X201682994Y-134983996D01*
X201829501Y-134877553D01*
X201957553Y-134749501D01*
X202063996Y-134602994D01*
X202146211Y-134441639D01*
X202202171Y-134269409D01*
X202218690Y-134165110D01*
X202227527Y-134109321D01*
X202257456Y-134046186D01*
X202316768Y-134009255D01*
X202386630Y-134010253D01*
X202444863Y-134048863D01*
X202472473Y-134109321D01*
X202497829Y-134269410D01*
X202553787Y-134441636D01*
X202553788Y-134441639D01*
X202607059Y-134546186D01*
X202634288Y-134599627D01*
X202636006Y-134602997D01*
X202742441Y-134749494D01*
X202742445Y-134749499D01*
X202870500Y-134877554D01*
X202870505Y-134877558D01*
X202958008Y-134941132D01*
X203017006Y-134983996D01*
X203122484Y-135037740D01*
X203178360Y-135066211D01*
X203178363Y-135066212D01*
X203264476Y-135094191D01*
X203350591Y-135122171D01*
X203433429Y-135135291D01*
X203529449Y-135150500D01*
X203529454Y-135150500D01*
X203710551Y-135150500D01*
X203797259Y-135136765D01*
X203889409Y-135122171D01*
X204061639Y-135066211D01*
X204222994Y-134983996D01*
X204369501Y-134877553D01*
X204497553Y-134749501D01*
X204603996Y-134602994D01*
X204686211Y-134441639D01*
X204742171Y-134269409D01*
X204758690Y-134165110D01*
X204767527Y-134109321D01*
X204797456Y-134046186D01*
X204856768Y-134009255D01*
X204926630Y-134010253D01*
X204984863Y-134048863D01*
X205012473Y-134109321D01*
X205037829Y-134269410D01*
X205093787Y-134441636D01*
X205093788Y-134441639D01*
X205147059Y-134546186D01*
X205174288Y-134599627D01*
X205176006Y-134602997D01*
X205282441Y-134749494D01*
X205282445Y-134749499D01*
X205410500Y-134877554D01*
X205410505Y-134877558D01*
X205498008Y-134941132D01*
X205557006Y-134983996D01*
X205662484Y-135037740D01*
X205718360Y-135066211D01*
X205718363Y-135066212D01*
X205804476Y-135094191D01*
X205890591Y-135122171D01*
X205973429Y-135135291D01*
X206069449Y-135150500D01*
X206069454Y-135150500D01*
X206250551Y-135150500D01*
X206337259Y-135136765D01*
X206429409Y-135122171D01*
X206601639Y-135066211D01*
X206762994Y-134983996D01*
X206909501Y-134877553D01*
X207037553Y-134749501D01*
X207143996Y-134602994D01*
X207226211Y-134441639D01*
X207282171Y-134269409D01*
X207298690Y-134165110D01*
X207307527Y-134109321D01*
X207337456Y-134046186D01*
X207396768Y-134009255D01*
X207466630Y-134010253D01*
X207524863Y-134048863D01*
X207552473Y-134109321D01*
X207577829Y-134269410D01*
X207633787Y-134441636D01*
X207633788Y-134441639D01*
X207687059Y-134546186D01*
X207714288Y-134599627D01*
X207716006Y-134602997D01*
X207822441Y-134749494D01*
X207822445Y-134749499D01*
X207950500Y-134877554D01*
X207950505Y-134877558D01*
X208038008Y-134941132D01*
X208097006Y-134983996D01*
X208202484Y-135037740D01*
X208258360Y-135066211D01*
X208258363Y-135066212D01*
X208344476Y-135094191D01*
X208430591Y-135122171D01*
X208513429Y-135135291D01*
X208609449Y-135150500D01*
X208609454Y-135150500D01*
X208790551Y-135150500D01*
X208877259Y-135136765D01*
X208969409Y-135122171D01*
X209141639Y-135066211D01*
X209302994Y-134983996D01*
X209449501Y-134877553D01*
X209577553Y-134749501D01*
X209683996Y-134602994D01*
X209766211Y-134441639D01*
X209822171Y-134269409D01*
X209838690Y-134165110D01*
X209850500Y-134090551D01*
X209850500Y-133909448D01*
X209825324Y-133750499D01*
X209822171Y-133730591D01*
X209788384Y-133626604D01*
X209766212Y-133558363D01*
X209766211Y-133558360D01*
X209724874Y-133477234D01*
X209683996Y-133397006D01*
X209651599Y-133352415D01*
X209577558Y-133250505D01*
X209577554Y-133250500D01*
X209449499Y-133122445D01*
X209449494Y-133122441D01*
X209302997Y-133016006D01*
X209302996Y-133016005D01*
X209302994Y-133016004D01*
X209226906Y-132977235D01*
X209141639Y-132933788D01*
X209141636Y-132933787D01*
X208969410Y-132877829D01*
X208790551Y-132849500D01*
X208790546Y-132849500D01*
X208609454Y-132849500D01*
X208609449Y-132849500D01*
X208430589Y-132877829D01*
X208258363Y-132933787D01*
X208258360Y-132933788D01*
X208097002Y-133016006D01*
X207950505Y-133122441D01*
X207950500Y-133122445D01*
X207822445Y-133250500D01*
X207822441Y-133250505D01*
X207716006Y-133397002D01*
X207633788Y-133558360D01*
X207633787Y-133558363D01*
X207577829Y-133730589D01*
X207552473Y-133890678D01*
X207522544Y-133953813D01*
X207463232Y-133990744D01*
X207393369Y-133989746D01*
X207335137Y-133951136D01*
X207307527Y-133890678D01*
X207285324Y-133750499D01*
X207282171Y-133730591D01*
X207248384Y-133626604D01*
X207226212Y-133558363D01*
X207226211Y-133558360D01*
X207184874Y-133477234D01*
X207143996Y-133397006D01*
X207111599Y-133352415D01*
X207037558Y-133250505D01*
X207037554Y-133250500D01*
X206909499Y-133122445D01*
X206909494Y-133122441D01*
X206762997Y-133016006D01*
X206762996Y-133016005D01*
X206762994Y-133016004D01*
X206686906Y-132977235D01*
X206601639Y-132933788D01*
X206601636Y-132933787D01*
X206429410Y-132877829D01*
X206250551Y-132849500D01*
X206250546Y-132849500D01*
X206069454Y-132849500D01*
X206069449Y-132849500D01*
X205890589Y-132877829D01*
X205718363Y-132933787D01*
X205718360Y-132933788D01*
X205557002Y-133016006D01*
X205410505Y-133122441D01*
X205410500Y-133122445D01*
X205282445Y-133250500D01*
X205282441Y-133250505D01*
X205176006Y-133397002D01*
X205093788Y-133558360D01*
X205093787Y-133558363D01*
X205037829Y-133730589D01*
X205012473Y-133890678D01*
X204982544Y-133953813D01*
X204923232Y-133990744D01*
X204853369Y-133989746D01*
X204795137Y-133951136D01*
X204767527Y-133890678D01*
X204745324Y-133750499D01*
X204742171Y-133730591D01*
X204708384Y-133626604D01*
X204686212Y-133558363D01*
X204686211Y-133558360D01*
X204644874Y-133477234D01*
X204603996Y-133397006D01*
X204571599Y-133352415D01*
X204497558Y-133250505D01*
X204497554Y-133250500D01*
X204369499Y-133122445D01*
X204369494Y-133122441D01*
X204222997Y-133016006D01*
X204222996Y-133016005D01*
X204222994Y-133016004D01*
X204146906Y-132977235D01*
X204061639Y-132933788D01*
X204061636Y-132933787D01*
X203889410Y-132877829D01*
X203710551Y-132849500D01*
X203710546Y-132849500D01*
X203529454Y-132849500D01*
X203529449Y-132849500D01*
X203350589Y-132877829D01*
X203178363Y-132933787D01*
X203178360Y-132933788D01*
X203017002Y-133016006D01*
X202870505Y-133122441D01*
X202870500Y-133122445D01*
X202742445Y-133250500D01*
X202742441Y-133250505D01*
X202636006Y-133397002D01*
X202553788Y-133558360D01*
X202553787Y-133558363D01*
X202497829Y-133730589D01*
X202472473Y-133890678D01*
X202442544Y-133953813D01*
X202383232Y-133990744D01*
X202313369Y-133989746D01*
X202255137Y-133951136D01*
X202227527Y-133890678D01*
X202205324Y-133750499D01*
X202202171Y-133730591D01*
X202168384Y-133626604D01*
X202146212Y-133558363D01*
X202146211Y-133558360D01*
X202104874Y-133477234D01*
X202063996Y-133397006D01*
X202031599Y-133352415D01*
X201957558Y-133250505D01*
X201957554Y-133250500D01*
X201829499Y-133122445D01*
X201829494Y-133122441D01*
X201682997Y-133016006D01*
X201682996Y-133016005D01*
X201682994Y-133016004D01*
X201606906Y-132977235D01*
X201521639Y-132933788D01*
X201521636Y-132933787D01*
X201349410Y-132877829D01*
X201170551Y-132849500D01*
X201170546Y-132849500D01*
X200989454Y-132849500D01*
X200989449Y-132849500D01*
X200810589Y-132877829D01*
X200638363Y-132933787D01*
X200638360Y-132933788D01*
X200477002Y-133016006D01*
X200330505Y-133122441D01*
X200330500Y-133122445D01*
X200202445Y-133250500D01*
X200202441Y-133250505D01*
X200096006Y-133397002D01*
X200013788Y-133558360D01*
X200013787Y-133558363D01*
X199957829Y-133730589D01*
X199929500Y-133909448D01*
X197150499Y-133909448D01*
X197150499Y-133105136D01*
X197150497Y-133105117D01*
X197147586Y-133080012D01*
X197147585Y-133080010D01*
X197147585Y-133080009D01*
X197102206Y-132977235D01*
X197022765Y-132897794D01*
X197022763Y-132897793D01*
X196919992Y-132852415D01*
X196894865Y-132849500D01*
X195105143Y-132849500D01*
X195105117Y-132849502D01*
X195080012Y-132852413D01*
X195080008Y-132852415D01*
X194977235Y-132897793D01*
X194897794Y-132977234D01*
X194852415Y-133080006D01*
X194852415Y-133080008D01*
X194849500Y-133105131D01*
X188354062Y-133105131D01*
X205546003Y-115913187D01*
X205546008Y-115913184D01*
X205556211Y-115902980D01*
X205556213Y-115902980D01*
X205630780Y-115828413D01*
X205683507Y-115737087D01*
X205688380Y-115718900D01*
X205689289Y-115715510D01*
X205699272Y-115678251D01*
X205710801Y-115635227D01*
X205710801Y-115549055D01*
X205730486Y-115482016D01*
X205783290Y-115436261D01*
X205852448Y-115426317D01*
X205916004Y-115455342D01*
X205922467Y-115461360D01*
X210983872Y-120522764D01*
X215848927Y-125387819D01*
X215882412Y-125449142D01*
X215877428Y-125518834D01*
X215835556Y-125574767D01*
X215770092Y-125599184D01*
X215761246Y-125599500D01*
X215546225Y-125599500D01*
X215479186Y-125579815D01*
X215443124Y-125544392D01*
X215438534Y-125537524D01*
X215438529Y-125537517D01*
X215337482Y-125436470D01*
X215337478Y-125436467D01*
X215218659Y-125357074D01*
X215218650Y-125357069D01*
X215086620Y-125302381D01*
X215086614Y-125302379D01*
X214946457Y-125274500D01*
X214946455Y-125274500D01*
X214803545Y-125274500D01*
X214803543Y-125274500D01*
X214663385Y-125302379D01*
X214663379Y-125302381D01*
X214531349Y-125357069D01*
X214531340Y-125357074D01*
X214412521Y-125436467D01*
X214412517Y-125436470D01*
X214311470Y-125537517D01*
X214311467Y-125537521D01*
X214232074Y-125656340D01*
X214232069Y-125656349D01*
X214177381Y-125788379D01*
X214177379Y-125788385D01*
X214149500Y-125928542D01*
X214149500Y-125928545D01*
X214149500Y-126071455D01*
X214149500Y-126071457D01*
X214149499Y-126071457D01*
X214177379Y-126211614D01*
X214177381Y-126211620D01*
X214232069Y-126343650D01*
X214232073Y-126343657D01*
X214290507Y-126431110D01*
X214311384Y-126497787D01*
X214292899Y-126565167D01*
X214290507Y-126568890D01*
X214232073Y-126656342D01*
X214232069Y-126656349D01*
X214177381Y-126788379D01*
X214177379Y-126788385D01*
X214149500Y-126928542D01*
X214149500Y-126928545D01*
X214149500Y-127071455D01*
X214149500Y-127071457D01*
X214149499Y-127071457D01*
X214177379Y-127211614D01*
X214177381Y-127211620D01*
X214232069Y-127343650D01*
X214232073Y-127343657D01*
X214290507Y-127431110D01*
X214311384Y-127497787D01*
X214292899Y-127565167D01*
X214290507Y-127568890D01*
X214232073Y-127656342D01*
X214232069Y-127656349D01*
X214177381Y-127788379D01*
X214177379Y-127788385D01*
X214149500Y-127928542D01*
X214149500Y-127928545D01*
X214149500Y-128071455D01*
X214149500Y-128071457D01*
X214149499Y-128071457D01*
X214177379Y-128211614D01*
X214177382Y-128211624D01*
X214208558Y-128286890D01*
X214216027Y-128356359D01*
X214201653Y-128391379D01*
X214202435Y-128391725D01*
X214152415Y-128505006D01*
X214152415Y-128505008D01*
X214149500Y-128530131D01*
X214149500Y-129469856D01*
X214149502Y-129469882D01*
X214152413Y-129494987D01*
X214152415Y-129494991D01*
X214197793Y-129597764D01*
X214197794Y-129597765D01*
X214277235Y-129677206D01*
X214380009Y-129722585D01*
X214405135Y-129725500D01*
X215344864Y-129725499D01*
X215344879Y-129725497D01*
X215344882Y-129725497D01*
X215369987Y-129722586D01*
X215369988Y-129722585D01*
X215369991Y-129722585D01*
X215472765Y-129677206D01*
X215552206Y-129597765D01*
X215597585Y-129494991D01*
X215600500Y-129469865D01*
X215600499Y-129252253D01*
X215620183Y-129185215D01*
X215672987Y-129139460D01*
X215742145Y-129129516D01*
X215805701Y-129158541D01*
X215812180Y-129164573D01*
X217414700Y-130767092D01*
X217448185Y-130828415D01*
X217443201Y-130898107D01*
X217437507Y-130911062D01*
X217433790Y-130918356D01*
X217433787Y-130918363D01*
X217377829Y-131090589D01*
X217349500Y-131269448D01*
X217349500Y-131450551D01*
X217377829Y-131629410D01*
X217433787Y-131801636D01*
X217433788Y-131801639D01*
X217487381Y-131906819D01*
X217512601Y-131956316D01*
X217516006Y-131962997D01*
X217622441Y-132109494D01*
X217622445Y-132109499D01*
X217750500Y-132237554D01*
X217750505Y-132237558D01*
X217836293Y-132299886D01*
X217897006Y-132343996D01*
X217998959Y-132395944D01*
X218058360Y-132426211D01*
X218058363Y-132426212D01*
X218144476Y-132454191D01*
X218230591Y-132482171D01*
X218303639Y-132493740D01*
X218390678Y-132507527D01*
X218453813Y-132537456D01*
X218490744Y-132596768D01*
X218489746Y-132666631D01*
X218451136Y-132724863D01*
X218390678Y-132752473D01*
X218230589Y-132777829D01*
X218058363Y-132833787D01*
X218058360Y-132833788D01*
X217897002Y-132916006D01*
X217750505Y-133022441D01*
X217750500Y-133022445D01*
X217622445Y-133150500D01*
X217622441Y-133150505D01*
X217516006Y-133297002D01*
X217433788Y-133458360D01*
X217433787Y-133458363D01*
X217377829Y-133630589D01*
X217349500Y-133809448D01*
X217349500Y-133990551D01*
X217377829Y-134169410D01*
X217433787Y-134341636D01*
X217433788Y-134341639D01*
X217475106Y-134422728D01*
X217511178Y-134493523D01*
X217516006Y-134502997D01*
X217622441Y-134649494D01*
X217622445Y-134649499D01*
X217750500Y-134777554D01*
X217750505Y-134777558D01*
X217878287Y-134870396D01*
X217897006Y-134883996D01*
X217996009Y-134934441D01*
X218058360Y-134966211D01*
X218058363Y-134966212D01*
X218144476Y-134994191D01*
X218230591Y-135022171D01*
X218313429Y-135035291D01*
X218409449Y-135050500D01*
X218409454Y-135050500D01*
X218590551Y-135050500D01*
X218677259Y-135036765D01*
X218769409Y-135022171D01*
X218941639Y-134966211D01*
X219102994Y-134883996D01*
X219249501Y-134777553D01*
X219377553Y-134649501D01*
X219483996Y-134502994D01*
X219566211Y-134341639D01*
X219622171Y-134169409D01*
X219639759Y-134058361D01*
X219650500Y-133990551D01*
X219650500Y-133875427D01*
X223099500Y-133875427D01*
X223099500Y-134124558D01*
X223099501Y-134124575D01*
X223132017Y-134371561D01*
X223196498Y-134612207D01*
X223291830Y-134842361D01*
X223291837Y-134842376D01*
X223416400Y-135058126D01*
X223568060Y-135255774D01*
X223568066Y-135255781D01*
X223744218Y-135431933D01*
X223744225Y-135431939D01*
X223941873Y-135583599D01*
X224157623Y-135708162D01*
X224157638Y-135708169D01*
X224256825Y-135749253D01*
X224387793Y-135803502D01*
X224628435Y-135867982D01*
X224875435Y-135900500D01*
X224875442Y-135900500D01*
X225124558Y-135900500D01*
X225124565Y-135900500D01*
X225371565Y-135867982D01*
X225612207Y-135803502D01*
X225842373Y-135708164D01*
X226058127Y-135583599D01*
X226255776Y-135431938D01*
X226431938Y-135255776D01*
X226583599Y-135058127D01*
X226708164Y-134842373D01*
X226803502Y-134612207D01*
X226867982Y-134371565D01*
X226900500Y-134124565D01*
X226900500Y-133875435D01*
X226867982Y-133628435D01*
X226803502Y-133387793D01*
X226729130Y-133208243D01*
X226708169Y-133157638D01*
X226708162Y-133157623D01*
X226583599Y-132941873D01*
X226431939Y-132744225D01*
X226431933Y-132744218D01*
X226255781Y-132568066D01*
X226255774Y-132568060D01*
X226058126Y-132416400D01*
X225842376Y-132291837D01*
X225842361Y-132291830D01*
X225612207Y-132196498D01*
X225605486Y-132194697D01*
X225371565Y-132132018D01*
X225371564Y-132132017D01*
X225371561Y-132132017D01*
X225124575Y-132099501D01*
X225124570Y-132099500D01*
X225124565Y-132099500D01*
X224875435Y-132099500D01*
X224875429Y-132099500D01*
X224875424Y-132099501D01*
X224628438Y-132132017D01*
X224387792Y-132196498D01*
X224157638Y-132291830D01*
X224157623Y-132291837D01*
X223941873Y-132416400D01*
X223744225Y-132568060D01*
X223744218Y-132568066D01*
X223568066Y-132744218D01*
X223568060Y-132744225D01*
X223416400Y-132941873D01*
X223291837Y-133157623D01*
X223291830Y-133157638D01*
X223196498Y-133387792D01*
X223132017Y-133628437D01*
X223099618Y-133874534D01*
X223099500Y-133875427D01*
X219650500Y-133875427D01*
X219650500Y-133809448D01*
X219626198Y-133656017D01*
X219622171Y-133630591D01*
X219575424Y-133486716D01*
X219573429Y-133416875D01*
X219605672Y-133360719D01*
X219973380Y-132993013D01*
X220026107Y-132901688D01*
X220053400Y-132799827D01*
X220053400Y-132694373D01*
X220053400Y-130909929D01*
X220053401Y-130909916D01*
X220053401Y-130794476D01*
X220053401Y-130794474D01*
X220026107Y-130692613D01*
X219996677Y-130641639D01*
X219973380Y-130601287D01*
X219898813Y-130526720D01*
X219898810Y-130526718D01*
X219581592Y-130209500D01*
X219247254Y-129875161D01*
X219213769Y-129813838D01*
X219218753Y-129744146D01*
X219247254Y-129699798D01*
X219249493Y-129697558D01*
X219249501Y-129697553D01*
X219377553Y-129569501D01*
X219483996Y-129422994D01*
X219566211Y-129261639D01*
X219622171Y-129089409D01*
X219641617Y-128966631D01*
X219650500Y-128910551D01*
X219650500Y-128729448D01*
X219631403Y-128608881D01*
X219622171Y-128550591D01*
X219566211Y-128378361D01*
X219566211Y-128378360D01*
X219483996Y-128217006D01*
X219433414Y-128147385D01*
X219409935Y-128081578D01*
X219425761Y-128013524D01*
X219475867Y-127964830D01*
X219533733Y-127950500D01*
X230932745Y-127950500D01*
X230999784Y-127970185D01*
X231020426Y-127986819D01*
X236394325Y-133360718D01*
X236427810Y-133422041D01*
X236424575Y-133486716D01*
X236377829Y-133630587D01*
X236349500Y-133809448D01*
X236349500Y-133990551D01*
X236377829Y-134169410D01*
X236433787Y-134341636D01*
X236433788Y-134341639D01*
X236475106Y-134422728D01*
X236511178Y-134493523D01*
X236516006Y-134502997D01*
X236622441Y-134649494D01*
X236622445Y-134649499D01*
X236750500Y-134777554D01*
X236750505Y-134777558D01*
X236878287Y-134870396D01*
X236897006Y-134883996D01*
X236996009Y-134934441D01*
X237058360Y-134966211D01*
X237058363Y-134966212D01*
X237144476Y-134994191D01*
X237230591Y-135022171D01*
X237313429Y-135035291D01*
X237409449Y-135050500D01*
X237409454Y-135050500D01*
X237590551Y-135050500D01*
X237677259Y-135036765D01*
X237769409Y-135022171D01*
X237941639Y-134966211D01*
X238102994Y-134883996D01*
X238249501Y-134777553D01*
X238377553Y-134649501D01*
X238483996Y-134502994D01*
X238566211Y-134341639D01*
X238622171Y-134169409D01*
X238639759Y-134058361D01*
X238650500Y-133990551D01*
X238650500Y-133809448D01*
X238626198Y-133656017D01*
X238622171Y-133630591D01*
X238585941Y-133519084D01*
X238566212Y-133458363D01*
X238566211Y-133458360D01*
X238530308Y-133387898D01*
X238483996Y-133297006D01*
X238470330Y-133278196D01*
X238377558Y-133150505D01*
X238377554Y-133150500D01*
X238249499Y-133022445D01*
X238249494Y-133022441D01*
X238102997Y-132916006D01*
X238102996Y-132916005D01*
X238102994Y-132916004D01*
X238028072Y-132877829D01*
X237941639Y-132833788D01*
X237941636Y-132833787D01*
X237769410Y-132777829D01*
X237609321Y-132752473D01*
X237546186Y-132722544D01*
X237509255Y-132663232D01*
X237510253Y-132593370D01*
X237548863Y-132535137D01*
X237609321Y-132507527D01*
X237679425Y-132496422D01*
X237769409Y-132482171D01*
X237941639Y-132426211D01*
X238102994Y-132343996D01*
X238249501Y-132237553D01*
X238377553Y-132109501D01*
X238483996Y-131962994D01*
X238566211Y-131801639D01*
X238622171Y-131629409D01*
X238636765Y-131537259D01*
X238650500Y-131450551D01*
X238650500Y-131269448D01*
X238623153Y-131096793D01*
X238622171Y-131090591D01*
X238566211Y-130918361D01*
X238566211Y-130918360D01*
X238537740Y-130862484D01*
X238483996Y-130757006D01*
X238419479Y-130668205D01*
X238377558Y-130610505D01*
X238377554Y-130610500D01*
X238249499Y-130482445D01*
X238249494Y-130482441D01*
X238102997Y-130376006D01*
X238102996Y-130376005D01*
X238102994Y-130376004D01*
X238051300Y-130349664D01*
X237941639Y-130293788D01*
X237941636Y-130293787D01*
X237769410Y-130237829D01*
X237609321Y-130212473D01*
X237546186Y-130182544D01*
X237509255Y-130123232D01*
X237510253Y-130053370D01*
X237548863Y-129995137D01*
X237609321Y-129967527D01*
X237679425Y-129956422D01*
X237769409Y-129942171D01*
X237941639Y-129886211D01*
X238102994Y-129803996D01*
X238249501Y-129697553D01*
X238377553Y-129569501D01*
X238483996Y-129422994D01*
X238566211Y-129261639D01*
X238622171Y-129089409D01*
X238641617Y-128966631D01*
X238650500Y-128910551D01*
X238650500Y-128729448D01*
X238631403Y-128608881D01*
X238622171Y-128550591D01*
X238566211Y-128378361D01*
X238566211Y-128378360D01*
X238519604Y-128286890D01*
X238483996Y-128217006D01*
X238405953Y-128109588D01*
X238377558Y-128070505D01*
X238377554Y-128070500D01*
X238249499Y-127942445D01*
X238249494Y-127942441D01*
X238102997Y-127836006D01*
X238102996Y-127836005D01*
X238102994Y-127836004D01*
X238051300Y-127809664D01*
X237941639Y-127753788D01*
X237941636Y-127753787D01*
X237769410Y-127697829D01*
X237609321Y-127672473D01*
X237546186Y-127642544D01*
X237509255Y-127583232D01*
X237510253Y-127513370D01*
X237548863Y-127455137D01*
X237609321Y-127427527D01*
X237679425Y-127416422D01*
X237769409Y-127402171D01*
X237941639Y-127346211D01*
X238102994Y-127263996D01*
X238249501Y-127157553D01*
X238377553Y-127029501D01*
X238483996Y-126882994D01*
X238566211Y-126721639D01*
X238622171Y-126549409D01*
X238636765Y-126457259D01*
X238650500Y-126370551D01*
X238650500Y-126189448D01*
X238623153Y-126016793D01*
X238622171Y-126010591D01*
X238566211Y-125838361D01*
X238566211Y-125838360D01*
X238515130Y-125738110D01*
X238483996Y-125677006D01*
X238427685Y-125599500D01*
X238377558Y-125530505D01*
X238377554Y-125530500D01*
X238249499Y-125402445D01*
X238249494Y-125402441D01*
X238102997Y-125296006D01*
X238102996Y-125296005D01*
X238102994Y-125296004D01*
X238051300Y-125269664D01*
X237941639Y-125213788D01*
X237941636Y-125213787D01*
X237769410Y-125157829D01*
X237609321Y-125132473D01*
X237546186Y-125102544D01*
X237509255Y-125043232D01*
X237510253Y-124973370D01*
X237548863Y-124915137D01*
X237609321Y-124887527D01*
X237679425Y-124876422D01*
X237769409Y-124862171D01*
X237941639Y-124806211D01*
X238102994Y-124723996D01*
X238249501Y-124617553D01*
X238377553Y-124489501D01*
X238483996Y-124342994D01*
X238566211Y-124181639D01*
X238622171Y-124009409D01*
X238636765Y-123917259D01*
X238650500Y-123830551D01*
X238650500Y-123649448D01*
X238623814Y-123480966D01*
X238622171Y-123470591D01*
X238576329Y-123329501D01*
X238566212Y-123298363D01*
X238566211Y-123298360D01*
X238527600Y-123222584D01*
X238483996Y-123137006D01*
X238426396Y-123057726D01*
X238377558Y-122990505D01*
X238377554Y-122990500D01*
X238249499Y-122862445D01*
X238249494Y-122862441D01*
X238102997Y-122756006D01*
X238102996Y-122756005D01*
X238102994Y-122756004D01*
X238051300Y-122729664D01*
X237941639Y-122673788D01*
X237941636Y-122673787D01*
X237769410Y-122617829D01*
X237609321Y-122592473D01*
X237546186Y-122562544D01*
X237509255Y-122503232D01*
X237510253Y-122433370D01*
X237548863Y-122375137D01*
X237609321Y-122347527D01*
X237679425Y-122336422D01*
X237769409Y-122322171D01*
X237941639Y-122266211D01*
X238102994Y-122183996D01*
X238249501Y-122077553D01*
X238377553Y-121949501D01*
X238483996Y-121802994D01*
X238566211Y-121641639D01*
X238622171Y-121469409D01*
X238643474Y-121334906D01*
X238650500Y-121290551D01*
X238650500Y-121109448D01*
X238632814Y-120997787D01*
X238622171Y-120930591D01*
X238593923Y-120843650D01*
X238566212Y-120758363D01*
X238566211Y-120758360D01*
X238521282Y-120670184D01*
X238483996Y-120597006D01*
X238466325Y-120572684D01*
X238377558Y-120450505D01*
X238377554Y-120450500D01*
X238249499Y-120322445D01*
X238249494Y-120322441D01*
X238102997Y-120216006D01*
X238102996Y-120216005D01*
X238102994Y-120216004D01*
X238050610Y-120189313D01*
X237941639Y-120133788D01*
X237941636Y-120133787D01*
X237769410Y-120077829D01*
X237609321Y-120052473D01*
X237546186Y-120022544D01*
X237509255Y-119963232D01*
X237510253Y-119893370D01*
X237548863Y-119835137D01*
X237609321Y-119807527D01*
X237679425Y-119796422D01*
X237769409Y-119782171D01*
X237941639Y-119726211D01*
X238102994Y-119643996D01*
X238249501Y-119537553D01*
X238377553Y-119409501D01*
X238483996Y-119262994D01*
X238566211Y-119101639D01*
X238622171Y-118929409D01*
X238636765Y-118837259D01*
X238650500Y-118750551D01*
X238650500Y-118569448D01*
X238631202Y-118447611D01*
X238622171Y-118390591D01*
X238591298Y-118295573D01*
X238566212Y-118218363D01*
X238566211Y-118218360D01*
X238535262Y-118157620D01*
X238483996Y-118057006D01*
X238390918Y-117928894D01*
X238377558Y-117910505D01*
X238377554Y-117910500D01*
X238249499Y-117782445D01*
X238249494Y-117782441D01*
X238102997Y-117676006D01*
X238102996Y-117676005D01*
X238102994Y-117676004D01*
X238051300Y-117649664D01*
X237941639Y-117593788D01*
X237941636Y-117593787D01*
X237769410Y-117537829D01*
X237609321Y-117512473D01*
X237546186Y-117482544D01*
X237509255Y-117423232D01*
X237510253Y-117353370D01*
X237548863Y-117295137D01*
X237609321Y-117267527D01*
X237679425Y-117256422D01*
X237769409Y-117242171D01*
X237941639Y-117186211D01*
X238102994Y-117103996D01*
X238249501Y-116997553D01*
X238377553Y-116869501D01*
X238483996Y-116722994D01*
X238566211Y-116561639D01*
X238622171Y-116389409D01*
X238642027Y-116264045D01*
X238650500Y-116210551D01*
X238650500Y-116029448D01*
X238630469Y-115902981D01*
X238622171Y-115850591D01*
X238585291Y-115737085D01*
X238566212Y-115678363D01*
X238566211Y-115678360D01*
X238526029Y-115599500D01*
X238483996Y-115517006D01*
X238439195Y-115455342D01*
X238377558Y-115370505D01*
X238377554Y-115370500D01*
X238249499Y-115242445D01*
X238249494Y-115242441D01*
X238102997Y-115136006D01*
X238102996Y-115136005D01*
X238102994Y-115136004D01*
X238033314Y-115100500D01*
X237941639Y-115053788D01*
X237941636Y-115053787D01*
X237769410Y-114997829D01*
X237609321Y-114972473D01*
X237546186Y-114942544D01*
X237509255Y-114883232D01*
X237510253Y-114813370D01*
X237548863Y-114755137D01*
X237609321Y-114727527D01*
X237687879Y-114715084D01*
X237769409Y-114702171D01*
X237941639Y-114646211D01*
X238102994Y-114563996D01*
X238249501Y-114457553D01*
X238377553Y-114329501D01*
X238483996Y-114182994D01*
X238566211Y-114021639D01*
X238622171Y-113849409D01*
X238640755Y-113732073D01*
X238650500Y-113670551D01*
X238650500Y-113489448D01*
X238627407Y-113343650D01*
X238622171Y-113310591D01*
X238566211Y-113138361D01*
X238566211Y-113138360D01*
X238529726Y-113066756D01*
X238483996Y-112977006D01*
X238430293Y-112903090D01*
X238377558Y-112830505D01*
X238377554Y-112830500D01*
X238249499Y-112702445D01*
X238249494Y-112702441D01*
X238102997Y-112596006D01*
X238102996Y-112596005D01*
X238102994Y-112596004D01*
X238038048Y-112562912D01*
X237941639Y-112513788D01*
X237941636Y-112513787D01*
X237769410Y-112457829D01*
X237609321Y-112432473D01*
X237546186Y-112402544D01*
X237509255Y-112343232D01*
X237510253Y-112273370D01*
X237548863Y-112215137D01*
X237609321Y-112187527D01*
X237679425Y-112176422D01*
X237769409Y-112162171D01*
X237941639Y-112106211D01*
X238102994Y-112023996D01*
X238249501Y-111917553D01*
X238377553Y-111789501D01*
X238483996Y-111642994D01*
X238566211Y-111481639D01*
X238622171Y-111309409D01*
X238640068Y-111196412D01*
X238650500Y-111130551D01*
X238650500Y-110949448D01*
X238630306Y-110821953D01*
X238622171Y-110770591D01*
X238591214Y-110675313D01*
X238566212Y-110598363D01*
X238566211Y-110598360D01*
X238506986Y-110482127D01*
X238483996Y-110437006D01*
X238440162Y-110376673D01*
X238377558Y-110290505D01*
X238377554Y-110290500D01*
X238249499Y-110162445D01*
X238249494Y-110162441D01*
X238102997Y-110056006D01*
X238102996Y-110056005D01*
X238102994Y-110056004D01*
X238043496Y-110025688D01*
X237941639Y-109973788D01*
X237941636Y-109973787D01*
X237769410Y-109917829D01*
X237590551Y-109889500D01*
X237590546Y-109889500D01*
X237409454Y-109889500D01*
X237409449Y-109889500D01*
X237230589Y-109917829D01*
X237058363Y-109973787D01*
X237058360Y-109973788D01*
X236897002Y-110056006D01*
X236750505Y-110162441D01*
X236750500Y-110162445D01*
X236622445Y-110290500D01*
X236622441Y-110290505D01*
X236516006Y-110437002D01*
X236433788Y-110598360D01*
X236433787Y-110598363D01*
X236377829Y-110770589D01*
X236349500Y-110949448D01*
X236349500Y-111130551D01*
X236377829Y-111309410D01*
X236433787Y-111481636D01*
X236433788Y-111481639D01*
X236516006Y-111642997D01*
X236622441Y-111789494D01*
X236622445Y-111789499D01*
X236750500Y-111917554D01*
X236750505Y-111917558D01*
X236878008Y-112010193D01*
X236897006Y-112023996D01*
X236987535Y-112070123D01*
X237058360Y-112106211D01*
X237058363Y-112106212D01*
X237144476Y-112134191D01*
X237230591Y-112162171D01*
X237303639Y-112173740D01*
X237390678Y-112187527D01*
X237453813Y-112217456D01*
X237490744Y-112276768D01*
X237489746Y-112346631D01*
X237451136Y-112404863D01*
X237390678Y-112432473D01*
X237230589Y-112457829D01*
X237058363Y-112513787D01*
X237058360Y-112513788D01*
X236897002Y-112596006D01*
X236750505Y-112702441D01*
X236750500Y-112702445D01*
X236622445Y-112830500D01*
X236622441Y-112830505D01*
X236516006Y-112977002D01*
X236433788Y-113138360D01*
X236433787Y-113138363D01*
X236377829Y-113310589D01*
X236349500Y-113489448D01*
X236349500Y-113670551D01*
X236377829Y-113849410D01*
X236433787Y-114021636D01*
X236433788Y-114021639D01*
X236489664Y-114131300D01*
X236516003Y-114182993D01*
X236516006Y-114182997D01*
X236622441Y-114329494D01*
X236622445Y-114329499D01*
X236750500Y-114457554D01*
X236750505Y-114457558D01*
X236839203Y-114522000D01*
X236897006Y-114563996D01*
X236971632Y-114602020D01*
X237058360Y-114646211D01*
X237058363Y-114646212D01*
X237144476Y-114674191D01*
X237230591Y-114702171D01*
X237303639Y-114713740D01*
X237390678Y-114727527D01*
X237453813Y-114757456D01*
X237490744Y-114816768D01*
X237489746Y-114886631D01*
X237451136Y-114944863D01*
X237390678Y-114972473D01*
X237230589Y-114997829D01*
X237058363Y-115053787D01*
X237058360Y-115053788D01*
X236897002Y-115136006D01*
X236750505Y-115242441D01*
X236750500Y-115242445D01*
X236622445Y-115370500D01*
X236622441Y-115370505D01*
X236516006Y-115517002D01*
X236433788Y-115678360D01*
X236433787Y-115678363D01*
X236377829Y-115850589D01*
X236349500Y-116029448D01*
X236349500Y-116210551D01*
X236377829Y-116389410D01*
X236433787Y-116561636D01*
X236433788Y-116561639D01*
X236476270Y-116645012D01*
X236515796Y-116722586D01*
X236516006Y-116722997D01*
X236611361Y-116854244D01*
X236611365Y-116854248D01*
X236622447Y-116869501D01*
X236750499Y-116997553D01*
X236765751Y-117008634D01*
X236765755Y-117008638D01*
X236877699Y-117089969D01*
X236897006Y-117103996D01*
X236962408Y-117137320D01*
X237058360Y-117186211D01*
X237058363Y-117186212D01*
X237136751Y-117211681D01*
X237230591Y-117242171D01*
X237303639Y-117253740D01*
X237390678Y-117267527D01*
X237453813Y-117297456D01*
X237490744Y-117356768D01*
X237489746Y-117426631D01*
X237451136Y-117484863D01*
X237390678Y-117512473D01*
X237230587Y-117537829D01*
X237086716Y-117584575D01*
X237016875Y-117586570D01*
X236960718Y-117554325D01*
X236082415Y-116676022D01*
X236082413Y-116676020D01*
X236012905Y-116635889D01*
X235991089Y-116623293D01*
X235923350Y-116605143D01*
X235889227Y-116596000D01*
X235889226Y-116596000D01*
X229794080Y-116596000D01*
X229727041Y-116576315D01*
X229681286Y-116523511D01*
X229671342Y-116454353D01*
X229700367Y-116390797D01*
X229732080Y-116364613D01*
X229754400Y-116351726D01*
X229756316Y-116350620D01*
X229868120Y-116238816D01*
X229947177Y-116101884D01*
X229988100Y-115949157D01*
X229988100Y-115887355D01*
X230007785Y-115820316D01*
X230024419Y-115799674D01*
X230462174Y-115361919D01*
X230900480Y-114923613D01*
X230953207Y-114832288D01*
X230980500Y-114730427D01*
X230980500Y-114624973D01*
X230980500Y-102663159D01*
X231000185Y-102596120D01*
X231048202Y-102552675D01*
X231182994Y-102483996D01*
X231329501Y-102377553D01*
X231457553Y-102249501D01*
X231563996Y-102102994D01*
X231646211Y-101941639D01*
X231702171Y-101769409D01*
X231719073Y-101662693D01*
X231727527Y-101609321D01*
X231757456Y-101546186D01*
X231816768Y-101509255D01*
X231886630Y-101510253D01*
X231944863Y-101548863D01*
X231972473Y-101609321D01*
X231997829Y-101769410D01*
X232053787Y-101941636D01*
X232053788Y-101941639D01*
X232136006Y-102102997D01*
X232242441Y-102249494D01*
X232242445Y-102249499D01*
X232370500Y-102377554D01*
X232370505Y-102377558D01*
X232449056Y-102434628D01*
X232517006Y-102483996D01*
X232593094Y-102522765D01*
X232678360Y-102566211D01*
X232678363Y-102566212D01*
X232733132Y-102584007D01*
X232850591Y-102622171D01*
X232933429Y-102635291D01*
X233029449Y-102650500D01*
X233029454Y-102650500D01*
X233210551Y-102650500D01*
X233297259Y-102636765D01*
X233389409Y-102622171D01*
X233561639Y-102566211D01*
X233722994Y-102483996D01*
X233869501Y-102377553D01*
X233997553Y-102249501D01*
X234103996Y-102102994D01*
X234186211Y-101941639D01*
X234242171Y-101769409D01*
X234259073Y-101662693D01*
X234270500Y-101590551D01*
X234270500Y-101409448D01*
X234254019Y-101305397D01*
X234242171Y-101230591D01*
X234199820Y-101100245D01*
X234186212Y-101058363D01*
X234186211Y-101058360D01*
X234146256Y-100979945D01*
X234103996Y-100897006D01*
X234062767Y-100840259D01*
X233997558Y-100750505D01*
X233997554Y-100750500D01*
X233869499Y-100622445D01*
X233869494Y-100622441D01*
X233722997Y-100516006D01*
X233722996Y-100516005D01*
X233722994Y-100516004D01*
X233646906Y-100477235D01*
X233561639Y-100433788D01*
X233561636Y-100433787D01*
X233389410Y-100377829D01*
X233210551Y-100349500D01*
X233210546Y-100349500D01*
X233029454Y-100349500D01*
X233029449Y-100349500D01*
X232850589Y-100377829D01*
X232678363Y-100433787D01*
X232678360Y-100433788D01*
X232517002Y-100516006D01*
X232370505Y-100622441D01*
X232370500Y-100622445D01*
X232242445Y-100750500D01*
X232242441Y-100750505D01*
X232136006Y-100897002D01*
X232053788Y-101058360D01*
X232053787Y-101058363D01*
X231997829Y-101230589D01*
X231972473Y-101390678D01*
X231942544Y-101453813D01*
X231883232Y-101490744D01*
X231813369Y-101489746D01*
X231755137Y-101451136D01*
X231727527Y-101390678D01*
X231713740Y-101303639D01*
X231702171Y-101230591D01*
X231659820Y-101100245D01*
X231646212Y-101058363D01*
X231646211Y-101058360D01*
X231606256Y-100979945D01*
X231563996Y-100897006D01*
X231522767Y-100840259D01*
X231457558Y-100750505D01*
X231457554Y-100750500D01*
X231329499Y-100622445D01*
X231329494Y-100622441D01*
X231182997Y-100516006D01*
X231182996Y-100516005D01*
X231182994Y-100516004D01*
X231106906Y-100477235D01*
X231021639Y-100433788D01*
X231021636Y-100433787D01*
X230849410Y-100377829D01*
X230670551Y-100349500D01*
X230670546Y-100349500D01*
X230489454Y-100349500D01*
X230489449Y-100349500D01*
X230310589Y-100377829D01*
X230138363Y-100433787D01*
X230138360Y-100433788D01*
X229977002Y-100516006D01*
X229830505Y-100622441D01*
X229830500Y-100622445D01*
X229702445Y-100750500D01*
X229702441Y-100750505D01*
X229596006Y-100897002D01*
X229513788Y-101058360D01*
X229513787Y-101058363D01*
X229457829Y-101230589D01*
X229432473Y-101390678D01*
X229402544Y-101453813D01*
X229343232Y-101490744D01*
X229273369Y-101489746D01*
X229215137Y-101451136D01*
X229187527Y-101390678D01*
X229173740Y-101303639D01*
X229162171Y-101230591D01*
X229119820Y-101100245D01*
X229106212Y-101058363D01*
X229106211Y-101058360D01*
X229066256Y-100979945D01*
X229023996Y-100897006D01*
X228982767Y-100840259D01*
X228917558Y-100750505D01*
X228917554Y-100750500D01*
X228789499Y-100622445D01*
X228789494Y-100622441D01*
X228642997Y-100516006D01*
X228642996Y-100516005D01*
X228642994Y-100516004D01*
X228566906Y-100477235D01*
X228481639Y-100433788D01*
X228481636Y-100433787D01*
X228309410Y-100377829D01*
X228130551Y-100349500D01*
X228130546Y-100349500D01*
X227949454Y-100349500D01*
X227949449Y-100349500D01*
X227770589Y-100377829D01*
X227598363Y-100433787D01*
X227598360Y-100433788D01*
X227437002Y-100516006D01*
X227290505Y-100622441D01*
X227290500Y-100622445D01*
X227162445Y-100750500D01*
X227162441Y-100750505D01*
X227056006Y-100897002D01*
X226973788Y-101058360D01*
X226973787Y-101058363D01*
X226917829Y-101230589D01*
X226889500Y-101409448D01*
X226889500Y-101590551D01*
X226917829Y-101769410D01*
X226964575Y-101913281D01*
X226966570Y-101983122D01*
X226934325Y-102039280D01*
X225264822Y-103708784D01*
X225264820Y-103708787D01*
X225212091Y-103800113D01*
X225200032Y-103845125D01*
X225200032Y-103845126D01*
X225184800Y-103901973D01*
X225184800Y-115552102D01*
X225165115Y-115619141D01*
X225148481Y-115639783D01*
X225104781Y-115683482D01*
X225104775Y-115683490D01*
X225025726Y-115820409D01*
X225025723Y-115820416D01*
X224984800Y-115973143D01*
X224984800Y-116131257D01*
X225020381Y-116264045D01*
X225025723Y-116283983D01*
X225025723Y-116283984D01*
X225098478Y-116410001D01*
X225114950Y-116477901D01*
X225092097Y-116543928D01*
X225037175Y-116587118D01*
X224991090Y-116596000D01*
X222860555Y-116596000D01*
X222793516Y-116576315D01*
X222772874Y-116559681D01*
X220817815Y-114604622D01*
X220817813Y-114604620D01*
X220772150Y-114578256D01*
X220726489Y-114551893D01*
X220672850Y-114537521D01*
X220624627Y-114524600D01*
X220624626Y-114524600D01*
X219479170Y-114524600D01*
X219412131Y-114504915D01*
X219366376Y-114452111D01*
X219356432Y-114382953D01*
X219378851Y-114327715D01*
X219439085Y-114244809D01*
X219483996Y-114182994D01*
X219566211Y-114021639D01*
X219622171Y-113849409D01*
X219640755Y-113732073D01*
X219650500Y-113670551D01*
X219650500Y-113489448D01*
X219627407Y-113343650D01*
X219622171Y-113310591D01*
X219566211Y-113138361D01*
X219566211Y-113138360D01*
X219534822Y-113076757D01*
X219521926Y-113008088D01*
X219548202Y-112943348D01*
X219605308Y-112903090D01*
X219675114Y-112900098D01*
X219732988Y-112932781D01*
X220187081Y-113386874D01*
X220220566Y-113448197D01*
X220223400Y-113474555D01*
X220223400Y-113536357D01*
X220259108Y-113669619D01*
X220264323Y-113689083D01*
X220264326Y-113689090D01*
X220343375Y-113826009D01*
X220343379Y-113826014D01*
X220343380Y-113826016D01*
X220455184Y-113937820D01*
X220455186Y-113937821D01*
X220455190Y-113937824D01*
X220562884Y-114000000D01*
X220592116Y-114016877D01*
X220744843Y-114057800D01*
X220744845Y-114057800D01*
X220902955Y-114057800D01*
X220902957Y-114057800D01*
X221055684Y-114016877D01*
X221192616Y-113937820D01*
X221304420Y-113826016D01*
X221383477Y-113689084D01*
X221424400Y-113536357D01*
X221424400Y-113378243D01*
X221383477Y-113225516D01*
X221379998Y-113219490D01*
X221304424Y-113088590D01*
X221304418Y-113088582D01*
X221192617Y-112976781D01*
X221192609Y-112976775D01*
X221055690Y-112897726D01*
X221055686Y-112897724D01*
X221055684Y-112897723D01*
X220902957Y-112856800D01*
X220902956Y-112856800D01*
X220841155Y-112856800D01*
X220774116Y-112837115D01*
X220753474Y-112820481D01*
X219995915Y-112062922D01*
X219995913Y-112062920D01*
X219937509Y-112029200D01*
X219904589Y-112010193D01*
X219838234Y-111992414D01*
X219802727Y-111982900D01*
X219802726Y-111982900D01*
X219480405Y-111982900D01*
X219413366Y-111963215D01*
X219367611Y-111910411D01*
X219357667Y-111841253D01*
X219380087Y-111786015D01*
X219447500Y-111693227D01*
X219483996Y-111642994D01*
X219566211Y-111481639D01*
X219622171Y-111309409D01*
X219640068Y-111196412D01*
X219650500Y-111130551D01*
X219650500Y-110949448D01*
X219630306Y-110821953D01*
X219622171Y-110770591D01*
X219591214Y-110675313D01*
X219566212Y-110598363D01*
X219566211Y-110598360D01*
X219506986Y-110482127D01*
X219483996Y-110437006D01*
X219440162Y-110376673D01*
X219377558Y-110290505D01*
X219377554Y-110290500D01*
X219249499Y-110162445D01*
X219249494Y-110162441D01*
X219102997Y-110056006D01*
X219102996Y-110056005D01*
X219102994Y-110056004D01*
X219043496Y-110025688D01*
X218941639Y-109973788D01*
X218941636Y-109973787D01*
X218769410Y-109917829D01*
X218590551Y-109889500D01*
X218590546Y-109889500D01*
X218409454Y-109889500D01*
X218409449Y-109889500D01*
X218230587Y-109917829D01*
X218086716Y-109964575D01*
X218016875Y-109966570D01*
X217960718Y-109934325D01*
X217767919Y-109741526D01*
X217734434Y-109680203D01*
X217731600Y-109653845D01*
X217731600Y-107706055D01*
X217751285Y-107639016D01*
X217767919Y-107618374D01*
X222297774Y-103088519D01*
X222359097Y-103055034D01*
X222385455Y-103052200D01*
X223012725Y-103052200D01*
X223012727Y-103052200D01*
X223114587Y-103024907D01*
X223205913Y-102972180D01*
X223280480Y-102897613D01*
X223333207Y-102806287D01*
X223350324Y-102742404D01*
X223386687Y-102682746D01*
X223449534Y-102652216D01*
X223470098Y-102650499D01*
X223854856Y-102650499D01*
X223854864Y-102650499D01*
X223854879Y-102650497D01*
X223854882Y-102650497D01*
X223879987Y-102647586D01*
X223879988Y-102647585D01*
X223879991Y-102647585D01*
X223982765Y-102602206D01*
X224062206Y-102522765D01*
X224107585Y-102419991D01*
X224110500Y-102394865D01*
X224110499Y-100605136D01*
X224109508Y-100596590D01*
X224107586Y-100580012D01*
X224107585Y-100580010D01*
X224107585Y-100580009D01*
X224062206Y-100477235D01*
X223982765Y-100397794D01*
X223976111Y-100394856D01*
X223879992Y-100352415D01*
X223854865Y-100349500D01*
X222065143Y-100349500D01*
X222065117Y-100349502D01*
X222040012Y-100352413D01*
X222040008Y-100352415D01*
X221937235Y-100397793D01*
X221857794Y-100477234D01*
X221812415Y-100580006D01*
X221812415Y-100580008D01*
X221809500Y-100605131D01*
X221809500Y-102392643D01*
X221789815Y-102459682D01*
X221773181Y-102480324D01*
X217010622Y-107242884D01*
X217010618Y-107242890D01*
X216957893Y-107334210D01*
X216956103Y-107340893D01*
X216953797Y-107349502D01*
X216953017Y-107352413D01*
X216953016Y-107352415D01*
X216930600Y-107436073D01*
X216930600Y-109923826D01*
X216957893Y-110025689D01*
X216975396Y-110056004D01*
X217010620Y-110117013D01*
X217010622Y-110117015D01*
X217394325Y-110500718D01*
X217427810Y-110562041D01*
X217424575Y-110626716D01*
X217377829Y-110770587D01*
X217349500Y-110949448D01*
X217349500Y-111130551D01*
X217377829Y-111309410D01*
X217433787Y-111481636D01*
X217433788Y-111481639D01*
X217516006Y-111642997D01*
X217619913Y-111786015D01*
X217643393Y-111851822D01*
X217627567Y-111919875D01*
X217577461Y-111968570D01*
X217519595Y-111982900D01*
X215563873Y-111982900D01*
X215462010Y-112010193D01*
X215370687Y-112062919D01*
X215191430Y-112242176D01*
X215130106Y-112275660D01*
X215079560Y-112276112D01*
X215071455Y-112274500D01*
X214928545Y-112274500D01*
X214928543Y-112274500D01*
X214788385Y-112302379D01*
X214788379Y-112302381D01*
X214656349Y-112357069D01*
X214656340Y-112357074D01*
X214537521Y-112436467D01*
X214537517Y-112436470D01*
X214436470Y-112537517D01*
X214436467Y-112537521D01*
X214357074Y-112656340D01*
X214357069Y-112656349D01*
X214302381Y-112788379D01*
X214302379Y-112788385D01*
X214274500Y-112928542D01*
X214274500Y-112928545D01*
X214274500Y-113071455D01*
X214274500Y-113071457D01*
X214274499Y-113071457D01*
X214302379Y-113211614D01*
X214302381Y-113211620D01*
X214357069Y-113343650D01*
X214357073Y-113343657D01*
X214415507Y-113431110D01*
X214436384Y-113497787D01*
X214417899Y-113565167D01*
X214415507Y-113568890D01*
X214357073Y-113656342D01*
X214357069Y-113656349D01*
X214302381Y-113788379D01*
X214302379Y-113788385D01*
X214274500Y-113928542D01*
X214274500Y-113928545D01*
X214274500Y-114071455D01*
X214274500Y-114071457D01*
X214274499Y-114071457D01*
X214302379Y-114211614D01*
X214302381Y-114211620D01*
X214357069Y-114343650D01*
X214357073Y-114343657D01*
X214415507Y-114431110D01*
X214436384Y-114497787D01*
X214417899Y-114565167D01*
X214415507Y-114568890D01*
X214357073Y-114656342D01*
X214357069Y-114656349D01*
X214302381Y-114788379D01*
X214302379Y-114788385D01*
X214274500Y-114928542D01*
X214274500Y-114928545D01*
X214274500Y-115071455D01*
X214274500Y-115071457D01*
X214274499Y-115071457D01*
X214302379Y-115211614D01*
X214302382Y-115211624D01*
X214333558Y-115286890D01*
X214341027Y-115356359D01*
X214326653Y-115391379D01*
X214327435Y-115391725D01*
X214277415Y-115505006D01*
X214277415Y-115505008D01*
X214274500Y-115530131D01*
X214274500Y-116469856D01*
X214274502Y-116469882D01*
X214277413Y-116494987D01*
X214277415Y-116494991D01*
X214322793Y-116597764D01*
X214322794Y-116597765D01*
X214402235Y-116677206D01*
X214505009Y-116722585D01*
X214530135Y-116725500D01*
X215469864Y-116725499D01*
X215469879Y-116725497D01*
X215469882Y-116725497D01*
X215494987Y-116722586D01*
X215494988Y-116722585D01*
X215494991Y-116722585D01*
X215597765Y-116677206D01*
X215629959Y-116645011D01*
X215691279Y-116611527D01*
X215760971Y-116616511D01*
X215805320Y-116645012D01*
X216434484Y-117274176D01*
X216466578Y-117329763D01*
X216487323Y-117407185D01*
X216487326Y-117407190D01*
X216566375Y-117544109D01*
X216566379Y-117544114D01*
X216566380Y-117544116D01*
X216678184Y-117655920D01*
X216678186Y-117655921D01*
X216678190Y-117655924D01*
X216712974Y-117676006D01*
X216815116Y-117734977D01*
X216909656Y-117760308D01*
X216969314Y-117796671D01*
X216999844Y-117859518D01*
X216991550Y-117928894D01*
X216965242Y-117967763D01*
X215724933Y-119208072D01*
X215663610Y-119241557D01*
X215593918Y-119236573D01*
X215537985Y-119194701D01*
X215522690Y-119167841D01*
X215517930Y-119156350D01*
X215517930Y-119156349D01*
X215517929Y-119156347D01*
X215517927Y-119156344D01*
X215517925Y-119156340D01*
X215438532Y-119037521D01*
X215438529Y-119037517D01*
X215337482Y-118936470D01*
X215337478Y-118936467D01*
X215218659Y-118857074D01*
X215218650Y-118857069D01*
X215086620Y-118802381D01*
X215086614Y-118802379D01*
X214946457Y-118774500D01*
X214946455Y-118774500D01*
X214803545Y-118774500D01*
X214803543Y-118774500D01*
X214663385Y-118802379D01*
X214663379Y-118802381D01*
X214531349Y-118857069D01*
X214531340Y-118857074D01*
X214412521Y-118936467D01*
X214412517Y-118936470D01*
X214311470Y-119037517D01*
X214311467Y-119037521D01*
X214232074Y-119156340D01*
X214232069Y-119156349D01*
X214177381Y-119288379D01*
X214177379Y-119288385D01*
X214149500Y-119428542D01*
X214149500Y-119428545D01*
X214149500Y-119571455D01*
X214149500Y-119571457D01*
X214149499Y-119571457D01*
X214177379Y-119711614D01*
X214177381Y-119711620D01*
X214232069Y-119843650D01*
X214232073Y-119843657D01*
X214290507Y-119931110D01*
X214311384Y-119997787D01*
X214292899Y-120065167D01*
X214290507Y-120068890D01*
X214232073Y-120156342D01*
X214232069Y-120156349D01*
X214177381Y-120288379D01*
X214177379Y-120288385D01*
X214149500Y-120428542D01*
X214149500Y-120428545D01*
X214149500Y-120571455D01*
X214149500Y-120571457D01*
X214149499Y-120571457D01*
X214177379Y-120711614D01*
X214177381Y-120711620D01*
X214232069Y-120843650D01*
X214232073Y-120843657D01*
X214290507Y-120931110D01*
X214311384Y-120997787D01*
X214292899Y-121065167D01*
X214290507Y-121068890D01*
X214232073Y-121156342D01*
X214232069Y-121156349D01*
X214177381Y-121288379D01*
X214177379Y-121288385D01*
X214149500Y-121428542D01*
X214149500Y-121428545D01*
X214149500Y-121571455D01*
X214149500Y-121571457D01*
X214149499Y-121571457D01*
X214177379Y-121711614D01*
X214177382Y-121711624D01*
X214208558Y-121786890D01*
X214216027Y-121856359D01*
X214201653Y-121891379D01*
X214202435Y-121891725D01*
X214152415Y-122005006D01*
X214152415Y-122005008D01*
X214149500Y-122030131D01*
X214149500Y-122256245D01*
X214129815Y-122323284D01*
X214077011Y-122369039D01*
X214007853Y-122378983D01*
X213944297Y-122349958D01*
X213937819Y-122343926D01*
X206663519Y-115069626D01*
X206630034Y-115008303D01*
X206627200Y-114981945D01*
X206627200Y-97649500D01*
X206646885Y-97582461D01*
X206699689Y-97536706D01*
X206751200Y-97525500D01*
X208755045Y-97525500D01*
X208822084Y-97545185D01*
X208842726Y-97561819D01*
X209374179Y-98093271D01*
X209374189Y-98093282D01*
X209378519Y-98097612D01*
X209378520Y-98097613D01*
X209453087Y-98172180D01*
X209544413Y-98224907D01*
X209646273Y-98252201D01*
X209646275Y-98252201D01*
X209759323Y-98252201D01*
X209759339Y-98252200D01*
X210353825Y-98252200D01*
X210353827Y-98252200D01*
X210455688Y-98224907D01*
X210547013Y-98172180D01*
X210832375Y-97886816D01*
X210853233Y-97875427D01*
X235099500Y-97875427D01*
X235099500Y-98124558D01*
X235099501Y-98124575D01*
X235130377Y-98359106D01*
X235132018Y-98371565D01*
X235185044Y-98569459D01*
X235196498Y-98612207D01*
X235291830Y-98842361D01*
X235291837Y-98842376D01*
X235416400Y-99058126D01*
X235568060Y-99255774D01*
X235568066Y-99255781D01*
X235744218Y-99431933D01*
X235744225Y-99431939D01*
X235941873Y-99583599D01*
X236157623Y-99708162D01*
X236157638Y-99708169D01*
X236256825Y-99749253D01*
X236387793Y-99803502D01*
X236628435Y-99867982D01*
X236875435Y-99900500D01*
X236875442Y-99900500D01*
X237124558Y-99900500D01*
X237124565Y-99900500D01*
X237371565Y-99867982D01*
X237612207Y-99803502D01*
X237842373Y-99708164D01*
X238058127Y-99583599D01*
X238255776Y-99431938D01*
X238431938Y-99255776D01*
X238583599Y-99058127D01*
X238708164Y-98842373D01*
X238803502Y-98612207D01*
X238867982Y-98371565D01*
X238900500Y-98124565D01*
X238900500Y-97875435D01*
X238867982Y-97628435D01*
X238803502Y-97387793D01*
X238718869Y-97183470D01*
X238708169Y-97157638D01*
X238708162Y-97157623D01*
X238583599Y-96941873D01*
X238431939Y-96744225D01*
X238431933Y-96744218D01*
X238255781Y-96568066D01*
X238255774Y-96568060D01*
X238058126Y-96416400D01*
X237842376Y-96291837D01*
X237842361Y-96291830D01*
X237612207Y-96196498D01*
X237371561Y-96132017D01*
X237124575Y-96099501D01*
X237124570Y-96099500D01*
X237124565Y-96099500D01*
X236875435Y-96099500D01*
X236875429Y-96099500D01*
X236875424Y-96099501D01*
X236628438Y-96132017D01*
X236387792Y-96196498D01*
X236157638Y-96291830D01*
X236157623Y-96291837D01*
X235941873Y-96416400D01*
X235744225Y-96568060D01*
X235744218Y-96568066D01*
X235568066Y-96744218D01*
X235568060Y-96744225D01*
X235416400Y-96941873D01*
X235291837Y-97157623D01*
X235291830Y-97157638D01*
X235196498Y-97387792D01*
X235132017Y-97628437D01*
X235099618Y-97874534D01*
X235099500Y-97875427D01*
X210853233Y-97875427D01*
X210893696Y-97853333D01*
X210920055Y-97850499D01*
X211469856Y-97850499D01*
X211469864Y-97850499D01*
X211469879Y-97850497D01*
X211469882Y-97850497D01*
X211494987Y-97847586D01*
X211494988Y-97847585D01*
X211494991Y-97847585D01*
X211597765Y-97802206D01*
X211677206Y-97722765D01*
X211722585Y-97619991D01*
X211725500Y-97594865D01*
X211725499Y-96655136D01*
X211723824Y-96640689D01*
X211722586Y-96630013D01*
X211722585Y-96630011D01*
X211722585Y-96630009D01*
X211691533Y-96559684D01*
X211682463Y-96490407D01*
X211712287Y-96427223D01*
X211771536Y-96390192D01*
X211804969Y-96385600D01*
X214267845Y-96385600D01*
X214334884Y-96405285D01*
X214355526Y-96421919D01*
X214742175Y-96808568D01*
X214775660Y-96869891D01*
X214776113Y-96920434D01*
X214774500Y-96928545D01*
X214774500Y-97071455D01*
X214774500Y-97071457D01*
X214774499Y-97071457D01*
X214802379Y-97211614D01*
X214802381Y-97211620D01*
X214857069Y-97343650D01*
X214857074Y-97343659D01*
X214936467Y-97462478D01*
X214936470Y-97462482D01*
X215037517Y-97563529D01*
X215037521Y-97563532D01*
X215156340Y-97642925D01*
X215156346Y-97642928D01*
X215156347Y-97642929D01*
X215288380Y-97697619D01*
X215288384Y-97697619D01*
X215288385Y-97697620D01*
X215428542Y-97725500D01*
X215428545Y-97725500D01*
X215571457Y-97725500D01*
X215665751Y-97706742D01*
X215711620Y-97697619D01*
X215786893Y-97666439D01*
X215856358Y-97658971D01*
X215891378Y-97673349D01*
X215891725Y-97672565D01*
X215902234Y-97677205D01*
X215902235Y-97677206D01*
X216005009Y-97722585D01*
X216030135Y-97725500D01*
X216969864Y-97725499D01*
X216969879Y-97725497D01*
X216969882Y-97725497D01*
X216994987Y-97722586D01*
X216994988Y-97722585D01*
X216994991Y-97722585D01*
X217097765Y-97677206D01*
X217177206Y-97597765D01*
X217222585Y-97494991D01*
X217225500Y-97469865D01*
X217225499Y-96530136D01*
X217225497Y-96530117D01*
X217222586Y-96505012D01*
X217222585Y-96505010D01*
X217222585Y-96505009D01*
X217177206Y-96402235D01*
X217097765Y-96322794D01*
X216994992Y-96277415D01*
X216969865Y-96274500D01*
X216030143Y-96274500D01*
X216030117Y-96274502D01*
X216005012Y-96277413D01*
X216005008Y-96277415D01*
X215891724Y-96327435D01*
X215890952Y-96325688D01*
X215837965Y-96342944D01*
X215786890Y-96333558D01*
X215711624Y-96302382D01*
X215711614Y-96302379D01*
X215571457Y-96274500D01*
X215571455Y-96274500D01*
X215428545Y-96274500D01*
X215420434Y-96276113D01*
X215350843Y-96269882D01*
X215308568Y-96242175D01*
X214731015Y-95664622D01*
X214731013Y-95664620D01*
X214685350Y-95638256D01*
X214639689Y-95611893D01*
X214562787Y-95591288D01*
X214537827Y-95584600D01*
X204592827Y-95584600D01*
X204487373Y-95584600D01*
X204385510Y-95611893D01*
X204294187Y-95664620D01*
X204294184Y-95664622D01*
X199857490Y-100101315D01*
X199796167Y-100134800D01*
X199726475Y-100129816D01*
X199670542Y-100087944D01*
X199655248Y-100061087D01*
X199645543Y-100037658D01*
X199642929Y-100031347D01*
X199642927Y-100031344D01*
X199642925Y-100031340D01*
X199563532Y-99912521D01*
X199563529Y-99912517D01*
X199462482Y-99811470D01*
X199462478Y-99811467D01*
X199343659Y-99732074D01*
X199343650Y-99732069D01*
X199211620Y-99677381D01*
X199211614Y-99677379D01*
X199071457Y-99649500D01*
X199071455Y-99649500D01*
X198928545Y-99649500D01*
X198928543Y-99649500D01*
X198788385Y-99677379D01*
X198788379Y-99677381D01*
X198656349Y-99732069D01*
X198656342Y-99732073D01*
X198568890Y-99790507D01*
X198502213Y-99811384D01*
X198434833Y-99792899D01*
X198431110Y-99790507D01*
X198343657Y-99732073D01*
X198343650Y-99732069D01*
X198211620Y-99677381D01*
X198211614Y-99677379D01*
X198071457Y-99649500D01*
X198071455Y-99649500D01*
X198026054Y-99649500D01*
X197959015Y-99629815D01*
X197938373Y-99613181D01*
X197787528Y-99462336D01*
X197600913Y-99275720D01*
X197555250Y-99249356D01*
X197509589Y-99222993D01*
X197458657Y-99209346D01*
X197407727Y-99195700D01*
X195495227Y-99195700D01*
X195389773Y-99195700D01*
X195287910Y-99222993D01*
X195196587Y-99275720D01*
X195196584Y-99275722D01*
X193221422Y-101250884D01*
X193221418Y-101250890D01*
X193168693Y-101342212D01*
X193168692Y-101342215D01*
X193167245Y-101347615D01*
X193141400Y-101444071D01*
X193141400Y-106575245D01*
X193121715Y-106642284D01*
X193105081Y-106662926D01*
X187508481Y-112259526D01*
X187447158Y-112293011D01*
X187377466Y-112288027D01*
X187321533Y-112246155D01*
X187297116Y-112180691D01*
X187296800Y-112171845D01*
X187296800Y-106586254D01*
X187316485Y-106519215D01*
X187333115Y-106498577D01*
X188029373Y-105802318D01*
X188090694Y-105768835D01*
X188160385Y-105773819D01*
X188216319Y-105815690D01*
X188229187Y-105838289D01*
X188229201Y-105838283D01*
X188229461Y-105838770D01*
X188231612Y-105842547D01*
X188232066Y-105843644D01*
X188232074Y-105843659D01*
X188311467Y-105962478D01*
X188311470Y-105962482D01*
X188412517Y-106063529D01*
X188412521Y-106063532D01*
X188531340Y-106142925D01*
X188531346Y-106142928D01*
X188531347Y-106142929D01*
X188663380Y-106197619D01*
X188663384Y-106197619D01*
X188663385Y-106197620D01*
X188803542Y-106225500D01*
X188803545Y-106225500D01*
X188946457Y-106225500D01*
X189040751Y-106206742D01*
X189086620Y-106197619D01*
X189218653Y-106142929D01*
X189337479Y-106063532D01*
X189438532Y-105962479D01*
X189517929Y-105843653D01*
X189572619Y-105711620D01*
X189590566Y-105621397D01*
X189600500Y-105571457D01*
X189600500Y-105428542D01*
X189572620Y-105288385D01*
X189572619Y-105288384D01*
X189572619Y-105288380D01*
X189517929Y-105156347D01*
X189517928Y-105156346D01*
X189517925Y-105156340D01*
X189459493Y-105068891D01*
X189438615Y-105002214D01*
X189457099Y-104934833D01*
X189459493Y-104931109D01*
X189517925Y-104843659D01*
X189517925Y-104843658D01*
X189517929Y-104843653D01*
X189572619Y-104711620D01*
X189595576Y-104596209D01*
X189600500Y-104571457D01*
X189600500Y-104485653D01*
X189620185Y-104418614D01*
X189636815Y-104397976D01*
X189911703Y-104123087D01*
X189911708Y-104123084D01*
X189921911Y-104112880D01*
X189921913Y-104112880D01*
X189996480Y-104038313D01*
X190049207Y-103946987D01*
X190053033Y-103932707D01*
X190076501Y-103845126D01*
X190076501Y-103739673D01*
X190076500Y-103739669D01*
X190076500Y-102120873D01*
X190067370Y-102086800D01*
X190049207Y-102019012D01*
X189996480Y-101927687D01*
X189636819Y-101568026D01*
X189603334Y-101506703D01*
X189600500Y-101480345D01*
X189600500Y-101428542D01*
X189572620Y-101288385D01*
X189572619Y-101288384D01*
X189572619Y-101288380D01*
X189517929Y-101156347D01*
X189517928Y-101156346D01*
X189517925Y-101156340D01*
X189438532Y-101037521D01*
X189438529Y-101037517D01*
X189337482Y-100936470D01*
X189337478Y-100936467D01*
X189218659Y-100857074D01*
X189218650Y-100857069D01*
X189086620Y-100802381D01*
X189086614Y-100802379D01*
X188946457Y-100774500D01*
X188946455Y-100774500D01*
X188803545Y-100774500D01*
X188803543Y-100774500D01*
X188663385Y-100802379D01*
X188663379Y-100802381D01*
X188531349Y-100857069D01*
X188531340Y-100857074D01*
X188412521Y-100936467D01*
X188412517Y-100936470D01*
X188311470Y-101037517D01*
X188311467Y-101037521D01*
X188232074Y-101156340D01*
X188232069Y-101156349D01*
X188177381Y-101288379D01*
X188177379Y-101288385D01*
X188149500Y-101428542D01*
X188149500Y-101428545D01*
X188149500Y-101571455D01*
X188149500Y-101571457D01*
X188149499Y-101571457D01*
X188177379Y-101711614D01*
X188177381Y-101711620D01*
X188232069Y-101843650D01*
X188232073Y-101843657D01*
X188290507Y-101931110D01*
X188311384Y-101997787D01*
X188292899Y-102065167D01*
X188290507Y-102068890D01*
X188232073Y-102156342D01*
X188232069Y-102156349D01*
X188177381Y-102288379D01*
X188177379Y-102288385D01*
X188149500Y-102428542D01*
X188149500Y-102428545D01*
X188149500Y-102571455D01*
X188149500Y-102571457D01*
X188149499Y-102571457D01*
X188177379Y-102711614D01*
X188177381Y-102711620D01*
X188232069Y-102843650D01*
X188232074Y-102843659D01*
X188311467Y-102962478D01*
X188311470Y-102962482D01*
X188412517Y-103063529D01*
X188412521Y-103063532D01*
X188531340Y-103142925D01*
X188531346Y-103142928D01*
X188531347Y-103142929D01*
X188663380Y-103197619D01*
X188663384Y-103197619D01*
X188663385Y-103197620D01*
X188803542Y-103225500D01*
X188803545Y-103225500D01*
X188946457Y-103225500D01*
X189040751Y-103206742D01*
X189086620Y-103197619D01*
X189104048Y-103190399D01*
X189173515Y-103182931D01*
X189235995Y-103214205D01*
X189271648Y-103274294D01*
X189275500Y-103304961D01*
X189275500Y-103575145D01*
X189266855Y-103604584D01*
X189260332Y-103634572D01*
X189256577Y-103639587D01*
X189255815Y-103642184D01*
X189239185Y-103662821D01*
X189190393Y-103711614D01*
X189144335Y-103757672D01*
X189083011Y-103791156D01*
X189032463Y-103791607D01*
X188946459Y-103774500D01*
X188946455Y-103774500D01*
X188803545Y-103774500D01*
X188803543Y-103774500D01*
X188663385Y-103802379D01*
X188663379Y-103802381D01*
X188531349Y-103857069D01*
X188531340Y-103857074D01*
X188412521Y-103936467D01*
X188412517Y-103936470D01*
X188311470Y-104037517D01*
X188311467Y-104037521D01*
X188232074Y-104156340D01*
X188232069Y-104156349D01*
X188177381Y-104288379D01*
X188177379Y-104288385D01*
X188149500Y-104428542D01*
X188149500Y-104498045D01*
X188129815Y-104565084D01*
X188113181Y-104585726D01*
X186575822Y-106123084D01*
X186575820Y-106123087D01*
X186523091Y-106214414D01*
X186506993Y-106274500D01*
X186503506Y-106287515D01*
X186503274Y-106288380D01*
X186495800Y-106316272D01*
X186495800Y-112614944D01*
X186476115Y-112681983D01*
X186459481Y-112702625D01*
X184262824Y-114899281D01*
X184201501Y-114932766D01*
X184131809Y-114927782D01*
X184075876Y-114885910D01*
X184051459Y-114820446D01*
X184053853Y-114785819D01*
X184062599Y-114744675D01*
X184115983Y-114493523D01*
X184150500Y-114165111D01*
X184150500Y-114000000D01*
X184150500Y-113965650D01*
X184150500Y-113965649D01*
X184150500Y-98003478D01*
X184150695Y-97996527D01*
X184154836Y-97922793D01*
X184168027Y-97687898D01*
X184169581Y-97674103D01*
X184220778Y-97372780D01*
X184223867Y-97359245D01*
X184308478Y-97065553D01*
X184313069Y-97052434D01*
X184430029Y-96770068D01*
X184436049Y-96757568D01*
X184583893Y-96490063D01*
X184591288Y-96478295D01*
X184612930Y-96447794D01*
X184768147Y-96229035D01*
X184776802Y-96218181D01*
X184980468Y-95990280D01*
X184990280Y-95980468D01*
X185218181Y-95776802D01*
X185229035Y-95768147D01*
X185478300Y-95591284D01*
X185490063Y-95583893D01*
X185757568Y-95436049D01*
X185770068Y-95430029D01*
X186052441Y-95313066D01*
X186065554Y-95308478D01*
X186359245Y-95223867D01*
X186372780Y-95220778D01*
X186674103Y-95169581D01*
X186687898Y-95168027D01*
X186962075Y-95152629D01*
X186996529Y-95150695D01*
X187003481Y-95150500D01*
X187034350Y-95150500D01*
X236965650Y-95150500D01*
X236996519Y-95150500D01*
X237003471Y-95150695D01*
X237041132Y-95152809D01*
X237312099Y-95168027D01*
X237325898Y-95169581D01*
X237627215Y-95220777D01*
X237640758Y-95223868D01*
X237934439Y-95308476D01*
X237947564Y-95313068D01*
X238229924Y-95430026D01*
X238242438Y-95436052D01*
X238445414Y-95548233D01*
X238509930Y-95583890D01*
X238521704Y-95591288D01*
X238770954Y-95768140D01*
X238781826Y-95776810D01*
X239009708Y-95980458D01*
X239019541Y-95990291D01*
X239223189Y-96218173D01*
X239231859Y-96229045D01*
X239408711Y-96478295D01*
X239416109Y-96490069D01*
X239563943Y-96757554D01*
X239569976Y-96770082D01*
X239686930Y-97052434D01*
X239691523Y-97065560D01*
X239776129Y-97359235D01*
X239779223Y-97372791D01*
X239830416Y-97674090D01*
X239831973Y-97687908D01*
X239849305Y-97996526D01*
X239849500Y-98003479D01*
X239849500Y-133996519D01*
X239849305Y-134003472D01*
X239831973Y-134312090D01*
X239830416Y-134325908D01*
X239779223Y-134627204D01*
X239776129Y-134640761D01*
X239691521Y-134934441D01*
X239686928Y-134947566D01*
X239569975Y-135229916D01*
X239563942Y-135242444D01*
X239416108Y-135509929D01*
X239408710Y-135521703D01*
X239231858Y-135770953D01*
X239223188Y-135781825D01*
X239019540Y-136009707D01*
X239009707Y-136019540D01*
X238781825Y-136223188D01*
X238770953Y-136231858D01*
X238521703Y-136408710D01*
X238509929Y-136416108D01*
X238242444Y-136563942D01*
X238229916Y-136569975D01*
X237947566Y-136686928D01*
X237934441Y-136691521D01*
X237640761Y-136776129D01*
X237627204Y-136779223D01*
X237325908Y-136830416D01*
X237312090Y-136831973D01*
X237003472Y-136849305D01*
X236996519Y-136849500D01*
X80003478Y-136849500D01*
X79996526Y-136849305D01*
X79687907Y-136831974D01*
X79674088Y-136830417D01*
X79372791Y-136779225D01*
X79359235Y-136776131D01*
X79065556Y-136691524D01*
X79052431Y-136686931D01*
X78770084Y-136569980D01*
X78757555Y-136563947D01*
X78490067Y-136416112D01*
X78478293Y-136408714D01*
X78229043Y-136231862D01*
X78218171Y-136223192D01*
X77990288Y-136019544D01*
X77980455Y-136009711D01*
X77980451Y-136009707D01*
X77776807Y-135781828D01*
X77768137Y-135770956D01*
X77591285Y-135521706D01*
X77583887Y-135509932D01*
X77436052Y-135242444D01*
X77430019Y-135229915D01*
X77313068Y-134947568D01*
X77308475Y-134934443D01*
X77226385Y-134649501D01*
X77223867Y-134640761D01*
X77220774Y-134627208D01*
X77169580Y-134325898D01*
X77168026Y-134312102D01*
X77150695Y-134003472D01*
X77150500Y-133996521D01*
X77150500Y-98003478D01*
X77150695Y-97996527D01*
X77154835Y-97922793D01*
X77157494Y-97875427D01*
X78099500Y-97875427D01*
X78099500Y-98124558D01*
X78099501Y-98124575D01*
X78130377Y-98359106D01*
X78132018Y-98371565D01*
X78185044Y-98569459D01*
X78196498Y-98612207D01*
X78291830Y-98842361D01*
X78291837Y-98842376D01*
X78416400Y-99058126D01*
X78568060Y-99255774D01*
X78568066Y-99255781D01*
X78744218Y-99431933D01*
X78744225Y-99431939D01*
X78941873Y-99583599D01*
X79157623Y-99708162D01*
X79157638Y-99708169D01*
X79256825Y-99749253D01*
X79387793Y-99803502D01*
X79628435Y-99867982D01*
X79875435Y-99900500D01*
X79875442Y-99900500D01*
X80124558Y-99900500D01*
X80124565Y-99900500D01*
X80371565Y-99867982D01*
X80612207Y-99803502D01*
X80842373Y-99708164D01*
X81058127Y-99583599D01*
X81255776Y-99431938D01*
X81431938Y-99255776D01*
X81583599Y-99058127D01*
X81708164Y-98842373D01*
X81803502Y-98612207D01*
X81805398Y-98605131D01*
X84574500Y-98605131D01*
X84574500Y-100394856D01*
X84574502Y-100394882D01*
X84577413Y-100419987D01*
X84577415Y-100419991D01*
X84622793Y-100522764D01*
X84622794Y-100522765D01*
X84702235Y-100602206D01*
X84805009Y-100647585D01*
X84830135Y-100650500D01*
X86619864Y-100650499D01*
X86619879Y-100650497D01*
X86619882Y-100650497D01*
X86644987Y-100647586D01*
X86644988Y-100647585D01*
X86644991Y-100647585D01*
X86747765Y-100602206D01*
X86827206Y-100522765D01*
X86872585Y-100419991D01*
X86875500Y-100394865D01*
X86875499Y-99657125D01*
X86895183Y-99590089D01*
X86947987Y-99544334D01*
X87017146Y-99534390D01*
X87080702Y-99563415D01*
X87118476Y-99622193D01*
X87121972Y-99637729D01*
X87142829Y-99769410D01*
X87198787Y-99941636D01*
X87198788Y-99941639D01*
X87247718Y-100037667D01*
X87271184Y-100083722D01*
X87281006Y-100102997D01*
X87387441Y-100249494D01*
X87387445Y-100249499D01*
X87515500Y-100377554D01*
X87515505Y-100377558D01*
X87643287Y-100470396D01*
X87662006Y-100483996D01*
X87738094Y-100522765D01*
X87823360Y-100566211D01*
X87823363Y-100566212D01*
X87886156Y-100586614D01*
X87995591Y-100622171D01*
X88078429Y-100635291D01*
X88174449Y-100650500D01*
X88174454Y-100650500D01*
X88355551Y-100650500D01*
X88442259Y-100636765D01*
X88534409Y-100622171D01*
X88706639Y-100566211D01*
X88867994Y-100483996D01*
X89014501Y-100377553D01*
X89142553Y-100249501D01*
X89248996Y-100102994D01*
X89331211Y-99941639D01*
X89387171Y-99769409D01*
X89401765Y-99677259D01*
X89415500Y-99590551D01*
X89415500Y-99409448D01*
X89394319Y-99275722D01*
X89387171Y-99230591D01*
X89331211Y-99058361D01*
X89331211Y-99058360D01*
X89302740Y-99002484D01*
X89248996Y-98897006D01*
X89201693Y-98831898D01*
X95599500Y-98831898D01*
X95599500Y-100168102D01*
X95604917Y-100213214D01*
X95610122Y-100256561D01*
X95610122Y-100256563D01*
X95610123Y-100256564D01*
X95618366Y-100277466D01*
X95665639Y-100397343D01*
X95757077Y-100517922D01*
X95877656Y-100609360D01*
X95877657Y-100609360D01*
X95877658Y-100609361D01*
X96018436Y-100664877D01*
X96106898Y-100675500D01*
X96106903Y-100675500D01*
X96893097Y-100675500D01*
X96893102Y-100675500D01*
X96981564Y-100664877D01*
X96989754Y-100661646D01*
X97059341Y-100655365D01*
X97121278Y-100687701D01*
X97122926Y-100689319D01*
X97360319Y-100926712D01*
X97360320Y-100926713D01*
X97434887Y-101001280D01*
X97526213Y-101054007D01*
X97628073Y-101081300D01*
X97628075Y-101081300D01*
X105871925Y-101081300D01*
X105871927Y-101081300D01*
X105973788Y-101054007D01*
X106065113Y-101001280D01*
X106377075Y-100689316D01*
X106438395Y-100655834D01*
X106508086Y-100660818D01*
X106510211Y-100661633D01*
X106518436Y-100664877D01*
X106606898Y-100675500D01*
X106606903Y-100675500D01*
X107393097Y-100675500D01*
X107393102Y-100675500D01*
X107481564Y-100664877D01*
X107622342Y-100609361D01*
X107742922Y-100517922D01*
X107834361Y-100397342D01*
X107889877Y-100256564D01*
X107900500Y-100168102D01*
X107900500Y-100097080D01*
X107920185Y-100030041D01*
X107972989Y-99984286D01*
X108042147Y-99974342D01*
X108105703Y-100003367D01*
X108139060Y-100049627D01*
X108143807Y-100061087D01*
X108201983Y-100201541D01*
X108201990Y-100201553D01*
X108300535Y-100349034D01*
X108300538Y-100349038D01*
X108425961Y-100474461D01*
X108425965Y-100474464D01*
X108573446Y-100573009D01*
X108573459Y-100573016D01*
X108696363Y-100623923D01*
X108737334Y-100640894D01*
X108737336Y-100640894D01*
X108737341Y-100640896D01*
X108911304Y-100675499D01*
X108911307Y-100675500D01*
X108911309Y-100675500D01*
X109088693Y-100675500D01*
X109088694Y-100675499D01*
X109162502Y-100660818D01*
X109262658Y-100640896D01*
X109262661Y-100640894D01*
X109262666Y-100640894D01*
X109426547Y-100573013D01*
X109574035Y-100474464D01*
X109699464Y-100349035D01*
X109798013Y-100201547D01*
X109865894Y-100037666D01*
X109866819Y-100033019D01*
X109893700Y-99897878D01*
X109900500Y-99863691D01*
X109900500Y-99136309D01*
X109900500Y-99136306D01*
X109900499Y-99136304D01*
X109865896Y-98962341D01*
X109865893Y-98962332D01*
X109798016Y-98798459D01*
X109798009Y-98798446D01*
X109699464Y-98650965D01*
X109699461Y-98650961D01*
X109574038Y-98525538D01*
X109574034Y-98525535D01*
X109426553Y-98426990D01*
X109426540Y-98426983D01*
X109262667Y-98359106D01*
X109262658Y-98359103D01*
X109088694Y-98324500D01*
X109088691Y-98324500D01*
X108911309Y-98324500D01*
X108911306Y-98324500D01*
X108737341Y-98359103D01*
X108737332Y-98359106D01*
X108573459Y-98426983D01*
X108573446Y-98426990D01*
X108476148Y-98492004D01*
X108409471Y-98512882D01*
X108342091Y-98494398D01*
X108319576Y-98476583D01*
X107818515Y-97975522D01*
X107818513Y-97975520D01*
X107772850Y-97949156D01*
X107727189Y-97922793D01*
X107676257Y-97909146D01*
X107625327Y-97895500D01*
X100658427Y-97895500D01*
X100552973Y-97895500D01*
X100451110Y-97922793D01*
X100359787Y-97975520D01*
X100359784Y-97975522D01*
X99499191Y-98836114D01*
X99437868Y-98869599D01*
X99368176Y-98864615D01*
X99312243Y-98822743D01*
X99301334Y-98803581D01*
X99300883Y-98803823D01*
X99298009Y-98798446D01*
X99199464Y-98650965D01*
X99199461Y-98650961D01*
X99074038Y-98525538D01*
X99074034Y-98525535D01*
X98926553Y-98426990D01*
X98926540Y-98426983D01*
X98762667Y-98359106D01*
X98762658Y-98359103D01*
X98588694Y-98324500D01*
X98588691Y-98324500D01*
X98411309Y-98324500D01*
X98411306Y-98324500D01*
X98237341Y-98359103D01*
X98237332Y-98359106D01*
X98073459Y-98426983D01*
X98073446Y-98426990D01*
X97925965Y-98525535D01*
X97925961Y-98525538D01*
X97800538Y-98650961D01*
X97800535Y-98650965D01*
X97701990Y-98798446D01*
X97701983Y-98798459D01*
X97639061Y-98950371D01*
X97595221Y-99004775D01*
X97528927Y-99026840D01*
X97461227Y-99009561D01*
X97413616Y-98958424D01*
X97400500Y-98902919D01*
X97400500Y-98831903D01*
X97400500Y-98831898D01*
X97389877Y-98743436D01*
X97334361Y-98602658D01*
X97334360Y-98602657D01*
X97334360Y-98602656D01*
X97242922Y-98482077D01*
X97122343Y-98390639D01*
X96981561Y-98335122D01*
X96935926Y-98329642D01*
X96893102Y-98324500D01*
X96106898Y-98324500D01*
X96067853Y-98329188D01*
X96018438Y-98335122D01*
X95877656Y-98390639D01*
X95757077Y-98482077D01*
X95665639Y-98602656D01*
X95610122Y-98743438D01*
X95604188Y-98792853D01*
X95599500Y-98831898D01*
X89201693Y-98831898D01*
X89142558Y-98750505D01*
X89142554Y-98750500D01*
X89014499Y-98622445D01*
X89014494Y-98622441D01*
X88867997Y-98516006D01*
X88867996Y-98516005D01*
X88867994Y-98516004D01*
X88791906Y-98477235D01*
X88706639Y-98433788D01*
X88706636Y-98433787D01*
X88534410Y-98377829D01*
X88355551Y-98349500D01*
X88355546Y-98349500D01*
X88174454Y-98349500D01*
X88174449Y-98349500D01*
X87995589Y-98377829D01*
X87823363Y-98433787D01*
X87823360Y-98433788D01*
X87662002Y-98516006D01*
X87515505Y-98622441D01*
X87515500Y-98622445D01*
X87387445Y-98750500D01*
X87387441Y-98750505D01*
X87281006Y-98897002D01*
X87198788Y-99058360D01*
X87198787Y-99058363D01*
X87142829Y-99230589D01*
X87121972Y-99362271D01*
X87092042Y-99425405D01*
X87032731Y-99462336D01*
X86962868Y-99461338D01*
X86904636Y-99422728D01*
X86876522Y-99358764D01*
X86875499Y-99342872D01*
X86875499Y-98605143D01*
X86875499Y-98605136D01*
X86875212Y-98602658D01*
X86872586Y-98580012D01*
X86872585Y-98580010D01*
X86872585Y-98580009D01*
X86827206Y-98477235D01*
X86747765Y-98397794D01*
X86747763Y-98397793D01*
X86644992Y-98352415D01*
X86619865Y-98349500D01*
X84830143Y-98349500D01*
X84830117Y-98349502D01*
X84805012Y-98352413D01*
X84805008Y-98352415D01*
X84702235Y-98397793D01*
X84622794Y-98477234D01*
X84577415Y-98580006D01*
X84577415Y-98580008D01*
X84574500Y-98605131D01*
X81805398Y-98605131D01*
X81867982Y-98371565D01*
X81900500Y-98124565D01*
X81900500Y-97875435D01*
X81867982Y-97628435D01*
X81803502Y-97387793D01*
X81718869Y-97183470D01*
X81708169Y-97157638D01*
X81708162Y-97157623D01*
X81583599Y-96941873D01*
X81431939Y-96744225D01*
X81431933Y-96744218D01*
X81255781Y-96568066D01*
X81255774Y-96568060D01*
X81058126Y-96416400D01*
X80842376Y-96291837D01*
X80842361Y-96291830D01*
X80612207Y-96196498D01*
X80371561Y-96132017D01*
X80124575Y-96099501D01*
X80124570Y-96099500D01*
X80124565Y-96099500D01*
X79875435Y-96099500D01*
X79875429Y-96099500D01*
X79875424Y-96099501D01*
X79628438Y-96132017D01*
X79387792Y-96196498D01*
X79157638Y-96291830D01*
X79157623Y-96291837D01*
X78941873Y-96416400D01*
X78744225Y-96568060D01*
X78744218Y-96568066D01*
X78568066Y-96744218D01*
X78568060Y-96744225D01*
X78416400Y-96941873D01*
X78291837Y-97157623D01*
X78291830Y-97157638D01*
X78196498Y-97387792D01*
X78132017Y-97628437D01*
X78099618Y-97874534D01*
X78099500Y-97875427D01*
X77157494Y-97875427D01*
X77168024Y-97687893D01*
X77169580Y-97674090D01*
X77220772Y-97372784D01*
X77223865Y-97359233D01*
X77228354Y-97343653D01*
X77308472Y-97065548D01*
X77313064Y-97052428D01*
X77350066Y-96963097D01*
X77430017Y-96770076D01*
X77436048Y-96757553D01*
X77492651Y-96655136D01*
X77583885Y-96490056D01*
X77591276Y-96478295D01*
X77768139Y-96229028D01*
X77776794Y-96218174D01*
X77980460Y-95990272D01*
X77990275Y-95980458D01*
X78218174Y-95776794D01*
X78229028Y-95768139D01*
X78478302Y-95591271D01*
X78490056Y-95583885D01*
X78670924Y-95483925D01*
X78757553Y-95436048D01*
X78770076Y-95430017D01*
X79052432Y-95313062D01*
X79065548Y-95308472D01*
X79359238Y-95223863D01*
X79372784Y-95220772D01*
X79674102Y-95169578D01*
X79687893Y-95168024D01*
X79975916Y-95151852D01*
X79996527Y-95150695D01*
X80003478Y-95150500D01*
X80034349Y-95150500D01*
X129965650Y-95150500D01*
X129996519Y-95150500D01*
X130003471Y-95150695D01*
G37*
%TD.AperFunction*%
%TA.AperFunction,Conductor*%
G36*
X106399281Y-120605674D02*
G01*
X107314881Y-121521273D01*
X108228618Y-122435010D01*
X108228620Y-122435013D01*
X108303187Y-122509580D01*
X108351352Y-122537388D01*
X108394513Y-122562307D01*
X108496373Y-122589601D01*
X108496375Y-122589601D01*
X108609423Y-122589601D01*
X108609439Y-122589600D01*
X146612202Y-122589600D01*
X146679241Y-122609285D01*
X146699883Y-122625919D01*
X146743584Y-122669620D01*
X146743586Y-122669621D01*
X146743590Y-122669624D01*
X146858084Y-122735726D01*
X146880516Y-122748677D01*
X147033243Y-122789600D01*
X147033245Y-122789600D01*
X147191355Y-122789600D01*
X147191357Y-122789600D01*
X147344084Y-122748677D01*
X147481016Y-122669620D01*
X147592820Y-122557816D01*
X147671877Y-122420884D01*
X147712800Y-122268157D01*
X147712800Y-122110043D01*
X147712800Y-122107200D01*
X147732485Y-122040161D01*
X147785289Y-121994406D01*
X147836800Y-121983200D01*
X178108645Y-121983200D01*
X178175684Y-122002885D01*
X178221439Y-122055689D01*
X178231383Y-122124847D01*
X178202358Y-122188403D01*
X178196326Y-122194881D01*
X177547726Y-122843481D01*
X177486403Y-122876966D01*
X177460045Y-122879800D01*
X175666973Y-122879800D01*
X175565110Y-122907093D01*
X175473787Y-122959820D01*
X175473784Y-122959822D01*
X165039280Y-133394325D01*
X164977957Y-133427810D01*
X164913281Y-133424575D01*
X164769410Y-133377829D01*
X164590551Y-133349500D01*
X164590546Y-133349500D01*
X164409454Y-133349500D01*
X164409449Y-133349500D01*
X164230589Y-133377829D01*
X164058363Y-133433787D01*
X164058360Y-133433788D01*
X163897002Y-133516006D01*
X163750505Y-133622441D01*
X163750500Y-133622445D01*
X163622445Y-133750500D01*
X163622441Y-133750505D01*
X163516006Y-133897002D01*
X163433788Y-134058360D01*
X163433787Y-134058363D01*
X163377829Y-134230589D01*
X163356972Y-134362271D01*
X163327042Y-134425405D01*
X163267731Y-134462336D01*
X163197868Y-134461338D01*
X163139636Y-134422728D01*
X163111522Y-134358764D01*
X163110499Y-134342872D01*
X163110499Y-133605143D01*
X163110499Y-133605136D01*
X163110497Y-133605117D01*
X163107586Y-133580012D01*
X163107585Y-133580010D01*
X163107585Y-133580009D01*
X163062206Y-133477235D01*
X162982765Y-133397794D01*
X162980971Y-133397002D01*
X162879992Y-133352415D01*
X162854865Y-133349500D01*
X161065143Y-133349500D01*
X161065117Y-133349502D01*
X161040012Y-133352413D01*
X161040008Y-133352415D01*
X160937235Y-133397793D01*
X160857794Y-133477234D01*
X160812415Y-133580006D01*
X160812415Y-133580008D01*
X160809500Y-133605131D01*
X160809500Y-135394856D01*
X160809502Y-135394882D01*
X160812413Y-135419987D01*
X160812415Y-135419991D01*
X160855379Y-135517297D01*
X160857794Y-135522765D01*
X160857796Y-135522767D01*
X160861670Y-135528422D01*
X160883317Y-135594854D01*
X160865613Y-135662443D01*
X160814177Y-135709731D01*
X160759371Y-135722500D01*
X157391401Y-135722500D01*
X157324362Y-135702815D01*
X157278607Y-135650011D01*
X157268663Y-135580853D01*
X157297688Y-135517297D01*
X157335106Y-135488015D01*
X157342994Y-135483996D01*
X157489501Y-135377553D01*
X157617553Y-135249501D01*
X157723996Y-135102994D01*
X157806211Y-134941639D01*
X157862171Y-134769409D01*
X157876765Y-134677259D01*
X157890500Y-134590551D01*
X157890500Y-134409448D01*
X157868319Y-134269409D01*
X157862171Y-134230591D01*
X157816670Y-134090551D01*
X157806212Y-134058363D01*
X157806211Y-134058360D01*
X157758972Y-133965650D01*
X157723996Y-133897006D01*
X157707648Y-133874505D01*
X157617558Y-133750505D01*
X157617554Y-133750500D01*
X157489499Y-133622445D01*
X157489494Y-133622441D01*
X157342997Y-133516006D01*
X157342996Y-133516005D01*
X157342994Y-133516004D01*
X157291300Y-133489664D01*
X157181639Y-133433788D01*
X157181636Y-133433787D01*
X157009410Y-133377829D01*
X156830551Y-133349500D01*
X156830546Y-133349500D01*
X156649454Y-133349500D01*
X156649449Y-133349500D01*
X156470589Y-133377829D01*
X156298363Y-133433787D01*
X156298360Y-133433788D01*
X156137002Y-133516006D01*
X155990505Y-133622441D01*
X155990500Y-133622445D01*
X155862445Y-133750500D01*
X155862441Y-133750505D01*
X155756006Y-133897002D01*
X155673788Y-134058360D01*
X155673787Y-134058363D01*
X155617829Y-134230589D01*
X155592473Y-134390678D01*
X155562544Y-134453813D01*
X155503232Y-134490744D01*
X155433369Y-134489746D01*
X155375137Y-134451136D01*
X155347527Y-134390678D01*
X155328319Y-134269409D01*
X155322171Y-134230591D01*
X155276670Y-134090551D01*
X155266212Y-134058363D01*
X155266211Y-134058360D01*
X155218972Y-133965650D01*
X155183996Y-133897006D01*
X155167648Y-133874505D01*
X155077558Y-133750505D01*
X155077554Y-133750500D01*
X154949499Y-133622445D01*
X154949494Y-133622441D01*
X154802997Y-133516006D01*
X154802996Y-133516005D01*
X154802994Y-133516004D01*
X154751300Y-133489664D01*
X154641639Y-133433788D01*
X154641636Y-133433787D01*
X154469410Y-133377829D01*
X154290551Y-133349500D01*
X154290546Y-133349500D01*
X154109454Y-133349500D01*
X154109449Y-133349500D01*
X153930589Y-133377829D01*
X153758363Y-133433787D01*
X153758360Y-133433788D01*
X153597002Y-133516006D01*
X153450505Y-133622441D01*
X153450500Y-133622445D01*
X153322445Y-133750500D01*
X153322441Y-133750505D01*
X153216006Y-133897002D01*
X153133788Y-134058360D01*
X153133787Y-134058363D01*
X153077829Y-134230589D01*
X153052473Y-134390678D01*
X153022544Y-134453813D01*
X152963232Y-134490744D01*
X152893369Y-134489746D01*
X152835137Y-134451136D01*
X152807527Y-134390678D01*
X152788319Y-134269409D01*
X152782171Y-134230591D01*
X152736670Y-134090551D01*
X152726212Y-134058363D01*
X152726211Y-134058360D01*
X152678972Y-133965650D01*
X152643996Y-133897006D01*
X152627648Y-133874505D01*
X152537558Y-133750505D01*
X152537554Y-133750500D01*
X152409499Y-133622445D01*
X152409494Y-133622441D01*
X152262997Y-133516006D01*
X152262996Y-133516005D01*
X152262994Y-133516004D01*
X152211300Y-133489664D01*
X152101639Y-133433788D01*
X152101636Y-133433787D01*
X151929410Y-133377829D01*
X151750551Y-133349500D01*
X151750546Y-133349500D01*
X151569454Y-133349500D01*
X151569449Y-133349500D01*
X151390589Y-133377829D01*
X151218363Y-133433787D01*
X151218360Y-133433788D01*
X151057002Y-133516006D01*
X150910505Y-133622441D01*
X150910500Y-133622445D01*
X150782445Y-133750500D01*
X150782441Y-133750505D01*
X150676006Y-133897002D01*
X150593788Y-134058360D01*
X150593787Y-134058363D01*
X150537829Y-134230589D01*
X150509500Y-134409448D01*
X150509500Y-134590551D01*
X150537829Y-134769410D01*
X150593787Y-134941636D01*
X150593788Y-134941639D01*
X150635125Y-135022765D01*
X150675602Y-135102206D01*
X150676006Y-135102997D01*
X150782441Y-135249494D01*
X150782445Y-135249499D01*
X150910500Y-135377554D01*
X150910505Y-135377558D01*
X150985347Y-135431933D01*
X151057006Y-135483996D01*
X151064894Y-135488015D01*
X151115690Y-135535990D01*
X151132485Y-135603811D01*
X151109948Y-135669946D01*
X151055232Y-135713397D01*
X151008599Y-135722500D01*
X145880254Y-135722500D01*
X145813215Y-135702815D01*
X145792573Y-135686181D01*
X145145674Y-135039281D01*
X145112189Y-134977958D01*
X145115423Y-134913284D01*
X145162171Y-134769409D01*
X145165324Y-134749501D01*
X145190500Y-134590551D01*
X145190500Y-134409448D01*
X145168319Y-134269409D01*
X145162171Y-134230591D01*
X145116670Y-134090551D01*
X145106212Y-134058363D01*
X145106211Y-134058360D01*
X145058972Y-133965650D01*
X145023996Y-133897006D01*
X145007648Y-133874505D01*
X144917558Y-133750505D01*
X144917554Y-133750500D01*
X144789499Y-133622445D01*
X144789494Y-133622441D01*
X144642997Y-133516006D01*
X144642996Y-133516005D01*
X144642994Y-133516004D01*
X144591300Y-133489664D01*
X144481639Y-133433788D01*
X144481636Y-133433787D01*
X144309410Y-133377829D01*
X144130551Y-133349500D01*
X144130546Y-133349500D01*
X143949454Y-133349500D01*
X143949449Y-133349500D01*
X143770589Y-133377829D01*
X143598363Y-133433787D01*
X143598360Y-133433788D01*
X143437002Y-133516006D01*
X143290505Y-133622441D01*
X143290500Y-133622445D01*
X143162445Y-133750500D01*
X143162441Y-133750505D01*
X143056006Y-133897002D01*
X142973788Y-134058360D01*
X142973787Y-134058363D01*
X142917829Y-134230589D01*
X142896972Y-134362271D01*
X142867042Y-134425405D01*
X142807731Y-134462336D01*
X142737868Y-134461338D01*
X142679636Y-134422728D01*
X142651522Y-134358764D01*
X142650499Y-134342872D01*
X142650499Y-133605143D01*
X142650499Y-133605136D01*
X142650497Y-133605117D01*
X142647586Y-133580012D01*
X142647585Y-133580010D01*
X142647585Y-133580009D01*
X142602206Y-133477235D01*
X142522765Y-133397794D01*
X142520971Y-133397002D01*
X142419992Y-133352415D01*
X142394865Y-133349500D01*
X140605143Y-133349500D01*
X140605117Y-133349502D01*
X140580012Y-133352413D01*
X140580008Y-133352415D01*
X140477235Y-133397793D01*
X140397794Y-133477234D01*
X140352415Y-133580006D01*
X140352415Y-133580008D01*
X140349500Y-133605131D01*
X140349500Y-133975500D01*
X140329815Y-134042539D01*
X140277011Y-134088294D01*
X140225500Y-134099500D01*
X119444455Y-134099500D01*
X119377416Y-134079815D01*
X119356774Y-134063181D01*
X106111240Y-120817647D01*
X106109921Y-120815231D01*
X106107565Y-120813811D01*
X106093275Y-120784747D01*
X106077755Y-120756324D01*
X106077951Y-120753579D01*
X106076737Y-120751110D01*
X106080428Y-120718937D01*
X106082739Y-120686632D01*
X106084388Y-120684428D01*
X106084702Y-120681696D01*
X106105200Y-120656628D01*
X106124611Y-120630699D01*
X106127721Y-120629085D01*
X106128931Y-120627607D01*
X106160599Y-120612036D01*
X106273284Y-120575423D01*
X106343124Y-120573429D01*
X106399281Y-120605674D01*
G37*
%TD.AperFunction*%
%TA.AperFunction,Conductor*%
G36*
X185268834Y-117240271D02*
G01*
X185324767Y-117282143D01*
X185349184Y-117347607D01*
X185349500Y-117356453D01*
X185349500Y-118394856D01*
X185349502Y-118394882D01*
X185352413Y-118419987D01*
X185352415Y-118419991D01*
X185397793Y-118522764D01*
X185397794Y-118522765D01*
X185477235Y-118602206D01*
X185580009Y-118647585D01*
X185605135Y-118650500D01*
X186342873Y-118650499D01*
X186409910Y-118670183D01*
X186455665Y-118722987D01*
X186465609Y-118792146D01*
X186436584Y-118855702D01*
X186377806Y-118893476D01*
X186362270Y-118896972D01*
X186230589Y-118917829D01*
X186058363Y-118973787D01*
X186058360Y-118973788D01*
X185897002Y-119056006D01*
X185750505Y-119162441D01*
X185750500Y-119162445D01*
X185622445Y-119290500D01*
X185622441Y-119290505D01*
X185516006Y-119437002D01*
X185433788Y-119598360D01*
X185433787Y-119598363D01*
X185377829Y-119770589D01*
X185349500Y-119949448D01*
X185349500Y-120130551D01*
X185377829Y-120309412D01*
X185411221Y-120412183D01*
X185413216Y-120482024D01*
X185377135Y-120541856D01*
X185314434Y-120572684D01*
X185293290Y-120574500D01*
X183494873Y-120574500D01*
X183393010Y-120601793D01*
X183301687Y-120654520D01*
X183301684Y-120654522D01*
X182371526Y-121584681D01*
X182310203Y-121618166D01*
X182283845Y-121621000D01*
X182222043Y-121621000D01*
X182069316Y-121661923D01*
X182069309Y-121661926D01*
X181932390Y-121740975D01*
X181932382Y-121740981D01*
X181820581Y-121852782D01*
X181820575Y-121852790D01*
X181741526Y-121989709D01*
X181741523Y-121989716D01*
X181700600Y-122142443D01*
X181700600Y-122300557D01*
X181736765Y-122435525D01*
X181741523Y-122453283D01*
X181741526Y-122453290D01*
X181820575Y-122590209D01*
X181820579Y-122590214D01*
X181820580Y-122590216D01*
X181932384Y-122702020D01*
X181932386Y-122702021D01*
X181932390Y-122702024D01*
X182013190Y-122748673D01*
X182069316Y-122781077D01*
X182222043Y-122822000D01*
X182222045Y-122822000D01*
X182380155Y-122822000D01*
X182380157Y-122822000D01*
X182532884Y-122781077D01*
X182669816Y-122702020D01*
X182781620Y-122590216D01*
X182860677Y-122453284D01*
X182901600Y-122300557D01*
X182901600Y-122238755D01*
X182921285Y-122171716D01*
X182937919Y-122151074D01*
X183677174Y-121411819D01*
X183738497Y-121378334D01*
X183764855Y-121375500D01*
X184847508Y-121375500D01*
X184856571Y-121378161D01*
X184865930Y-121376876D01*
X184889556Y-121387847D01*
X184914547Y-121395185D01*
X184920732Y-121402323D01*
X184929301Y-121406302D01*
X184943246Y-121428305D01*
X184960302Y-121447989D01*
X184962641Y-121458908D01*
X184966703Y-121465317D01*
X184968130Y-121484527D01*
X184971506Y-121500283D01*
X184971443Y-121510215D01*
X184970900Y-121512243D01*
X184970900Y-121596248D01*
X184970898Y-121596565D01*
X184968979Y-121602948D01*
X184954287Y-121657782D01*
X184923094Y-121711809D01*
X184923093Y-121711810D01*
X184909376Y-121763004D01*
X184902528Y-121788565D01*
X184902518Y-121788601D01*
X184895800Y-121813672D01*
X184895800Y-123057726D01*
X184923093Y-123159589D01*
X184936608Y-123182997D01*
X184975820Y-123250913D01*
X184975822Y-123250915D01*
X185773437Y-124048530D01*
X185806922Y-124109853D01*
X185801938Y-124179545D01*
X185760066Y-124235478D01*
X185758649Y-124236523D01*
X185750510Y-124242437D01*
X185750500Y-124242445D01*
X185622445Y-124370500D01*
X185622441Y-124370505D01*
X185516006Y-124517002D01*
X185433788Y-124678360D01*
X185433787Y-124678363D01*
X185377829Y-124850589D01*
X185349500Y-125029448D01*
X185349500Y-125210551D01*
X185377829Y-125389410D01*
X185433787Y-125561636D01*
X185433788Y-125561639D01*
X185516003Y-125722993D01*
X185566586Y-125792615D01*
X185590065Y-125858422D01*
X185574239Y-125926476D01*
X185524133Y-125975170D01*
X185466267Y-125989500D01*
X181772173Y-125989500D01*
X181670310Y-126016793D01*
X181578987Y-126069520D01*
X181578984Y-126069522D01*
X178921626Y-128726881D01*
X178860303Y-128760366D01*
X178833945Y-128763200D01*
X178772143Y-128763200D01*
X178619416Y-128804123D01*
X178619409Y-128804126D01*
X178482490Y-128883175D01*
X178482486Y-128883178D01*
X178372059Y-128993605D01*
X178310736Y-129027089D01*
X178241044Y-129022105D01*
X178196697Y-128993604D01*
X176915463Y-127712370D01*
X176881978Y-127651047D01*
X176886962Y-127581355D01*
X176895759Y-127562686D01*
X176912674Y-127533390D01*
X176912677Y-127533384D01*
X176953600Y-127380657D01*
X176953600Y-127222543D01*
X176912677Y-127069816D01*
X176905279Y-127057002D01*
X176833624Y-126932890D01*
X176833618Y-126932882D01*
X176721817Y-126821081D01*
X176721809Y-126821075D01*
X176584890Y-126742026D01*
X176584886Y-126742024D01*
X176584884Y-126742023D01*
X176432157Y-126701100D01*
X176274043Y-126701100D01*
X176121316Y-126742023D01*
X176121309Y-126742026D01*
X175984390Y-126821075D01*
X175984382Y-126821081D01*
X175872581Y-126932882D01*
X175872575Y-126932890D01*
X175793526Y-127069809D01*
X175793523Y-127069816D01*
X175752600Y-127222543D01*
X175752600Y-127380657D01*
X175788161Y-127513370D01*
X175793523Y-127533383D01*
X175793526Y-127533390D01*
X175872575Y-127670309D01*
X175872581Y-127670317D01*
X175922227Y-127719963D01*
X175954321Y-127775550D01*
X175979893Y-127870988D01*
X176032620Y-127962313D01*
X178590787Y-130520480D01*
X178682112Y-130573207D01*
X178783973Y-130600500D01*
X185336840Y-130600500D01*
X185403879Y-130620185D01*
X185447325Y-130668205D01*
X185516003Y-130802993D01*
X185566586Y-130872615D01*
X185590065Y-130938422D01*
X185574239Y-131006476D01*
X185524133Y-131055170D01*
X185466267Y-131069500D01*
X180177273Y-131069500D01*
X180075410Y-131096793D01*
X179984087Y-131149520D01*
X179984084Y-131149522D01*
X177739280Y-133394325D01*
X177677957Y-133427810D01*
X177613281Y-133424575D01*
X177469410Y-133377829D01*
X177290551Y-133349500D01*
X177290546Y-133349500D01*
X177109454Y-133349500D01*
X177109449Y-133349500D01*
X176930589Y-133377829D01*
X176758363Y-133433787D01*
X176758360Y-133433788D01*
X176597002Y-133516006D01*
X176450505Y-133622441D01*
X176450500Y-133622445D01*
X176322445Y-133750500D01*
X176322441Y-133750505D01*
X176216006Y-133897002D01*
X176133788Y-134058360D01*
X176133787Y-134058363D01*
X176077829Y-134230589D01*
X176052473Y-134390678D01*
X176022544Y-134453813D01*
X175963232Y-134490744D01*
X175893369Y-134489746D01*
X175835137Y-134451136D01*
X175807527Y-134390678D01*
X175788319Y-134269409D01*
X175782171Y-134230591D01*
X175736670Y-134090551D01*
X175726212Y-134058363D01*
X175726211Y-134058360D01*
X175678972Y-133965650D01*
X175643996Y-133897006D01*
X175627648Y-133874505D01*
X175537558Y-133750505D01*
X175537554Y-133750500D01*
X175409499Y-133622445D01*
X175409494Y-133622441D01*
X175262997Y-133516006D01*
X175262996Y-133516005D01*
X175262994Y-133516004D01*
X175211300Y-133489664D01*
X175101639Y-133433788D01*
X175101636Y-133433787D01*
X174929410Y-133377829D01*
X174750551Y-133349500D01*
X174750546Y-133349500D01*
X174569454Y-133349500D01*
X174569449Y-133349500D01*
X174390589Y-133377829D01*
X174218363Y-133433787D01*
X174218360Y-133433788D01*
X174057002Y-133516006D01*
X173910505Y-133622441D01*
X173910500Y-133622445D01*
X173782445Y-133750500D01*
X173782441Y-133750505D01*
X173676006Y-133897002D01*
X173593788Y-134058360D01*
X173593787Y-134058363D01*
X173537829Y-134230589D01*
X173512473Y-134390678D01*
X173482544Y-134453813D01*
X173423232Y-134490744D01*
X173353369Y-134489746D01*
X173295137Y-134451136D01*
X173267527Y-134390678D01*
X173248319Y-134269409D01*
X173242171Y-134230591D01*
X173196670Y-134090551D01*
X173186212Y-134058363D01*
X173186211Y-134058360D01*
X173138972Y-133965650D01*
X173103996Y-133897006D01*
X173087648Y-133874505D01*
X172997558Y-133750505D01*
X172997554Y-133750500D01*
X172869499Y-133622445D01*
X172869494Y-133622441D01*
X172722997Y-133516006D01*
X172722996Y-133516005D01*
X172722994Y-133516004D01*
X172671300Y-133489664D01*
X172561639Y-133433788D01*
X172561636Y-133433787D01*
X172389410Y-133377829D01*
X172210551Y-133349500D01*
X172210546Y-133349500D01*
X172029454Y-133349500D01*
X172029449Y-133349500D01*
X171850589Y-133377829D01*
X171678363Y-133433787D01*
X171678360Y-133433788D01*
X171517002Y-133516006D01*
X171370505Y-133622441D01*
X171370500Y-133622445D01*
X171242445Y-133750500D01*
X171242441Y-133750505D01*
X171136006Y-133897002D01*
X171053788Y-134058360D01*
X171053787Y-134058363D01*
X170997829Y-134230589D01*
X170969500Y-134409448D01*
X170969500Y-134590551D01*
X170997829Y-134769410D01*
X171053787Y-134941636D01*
X171053788Y-134941639D01*
X171095125Y-135022765D01*
X171135602Y-135102206D01*
X171136006Y-135102997D01*
X171242441Y-135249494D01*
X171242445Y-135249499D01*
X171370500Y-135377554D01*
X171370505Y-135377558D01*
X171445347Y-135431933D01*
X171517006Y-135483996D01*
X171524894Y-135488015D01*
X171575690Y-135535990D01*
X171592485Y-135603811D01*
X171569948Y-135669946D01*
X171515232Y-135713397D01*
X171468599Y-135722500D01*
X165151401Y-135722500D01*
X165084362Y-135702815D01*
X165038607Y-135650011D01*
X165028663Y-135580853D01*
X165057688Y-135517297D01*
X165095106Y-135488015D01*
X165102994Y-135483996D01*
X165249501Y-135377553D01*
X165377553Y-135249501D01*
X165483996Y-135102994D01*
X165566211Y-134941639D01*
X165622171Y-134769409D01*
X165636765Y-134677259D01*
X165650500Y-134590551D01*
X165650500Y-134409448D01*
X165628319Y-134269409D01*
X165622171Y-134230591D01*
X165575424Y-134086716D01*
X165573429Y-134016875D01*
X165605672Y-133960719D01*
X175849274Y-123717119D01*
X175910597Y-123683634D01*
X175936955Y-123680800D01*
X177293645Y-123680800D01*
X177360684Y-123700485D01*
X177406439Y-123753289D01*
X177416383Y-123822447D01*
X177387358Y-123886003D01*
X177381326Y-123892481D01*
X168380426Y-132893381D01*
X168319103Y-132926866D01*
X168292745Y-132929700D01*
X168230943Y-132929700D01*
X168078216Y-132970623D01*
X168078209Y-132970626D01*
X167941290Y-133049675D01*
X167941282Y-133049681D01*
X167829481Y-133161482D01*
X167829475Y-133161490D01*
X167750426Y-133298409D01*
X167750423Y-133298416D01*
X167709500Y-133451143D01*
X167709500Y-133609257D01*
X167742012Y-133730591D01*
X167750423Y-133761983D01*
X167750426Y-133761990D01*
X167829475Y-133898909D01*
X167829479Y-133898914D01*
X167829480Y-133898916D01*
X167941284Y-134010720D01*
X167941286Y-134010721D01*
X167941290Y-134010724D01*
X168032150Y-134063181D01*
X168078216Y-134089777D01*
X168230943Y-134130700D01*
X168230945Y-134130700D01*
X168389055Y-134130700D01*
X168389057Y-134130700D01*
X168541784Y-134089777D01*
X168678716Y-134010720D01*
X168790520Y-133898916D01*
X168869577Y-133761984D01*
X168910500Y-133609257D01*
X168910500Y-133547454D01*
X168930185Y-133480415D01*
X168946814Y-133459778D01*
X185137821Y-117268770D01*
X185199142Y-117235287D01*
X185268834Y-117240271D01*
G37*
%TD.AperFunction*%
%TA.AperFunction,Conductor*%
G36*
X175966630Y-134510253D02*
G01*
X176024863Y-134548863D01*
X176052473Y-134609321D01*
X176077829Y-134769410D01*
X176133787Y-134941636D01*
X176133788Y-134941639D01*
X176175125Y-135022765D01*
X176215602Y-135102206D01*
X176216006Y-135102997D01*
X176322441Y-135249494D01*
X176322445Y-135249499D01*
X176450500Y-135377554D01*
X176450505Y-135377558D01*
X176525347Y-135431933D01*
X176597006Y-135483996D01*
X176604894Y-135488015D01*
X176655690Y-135535990D01*
X176672485Y-135603811D01*
X176649948Y-135669946D01*
X176595232Y-135713397D01*
X176548599Y-135722500D01*
X175311401Y-135722500D01*
X175244362Y-135702815D01*
X175198607Y-135650011D01*
X175188663Y-135580853D01*
X175217688Y-135517297D01*
X175255106Y-135488015D01*
X175262994Y-135483996D01*
X175409501Y-135377553D01*
X175537553Y-135249501D01*
X175643996Y-135102994D01*
X175726211Y-134941639D01*
X175782171Y-134769409D01*
X175796422Y-134679425D01*
X175807527Y-134609321D01*
X175837456Y-134546186D01*
X175896768Y-134509255D01*
X175966630Y-134510253D01*
G37*
%TD.AperFunction*%
%TA.AperFunction,Conductor*%
G36*
X204657258Y-96493225D02*
G01*
X204686308Y-96492432D01*
X204691692Y-96495688D01*
X204697969Y-96496137D01*
X204721231Y-96513551D01*
X204746096Y-96528588D01*
X204748865Y-96534238D01*
X204753902Y-96538009D01*
X204764056Y-96565233D01*
X204776845Y-96591327D01*
X204777086Y-96600168D01*
X204778319Y-96603473D01*
X204777809Y-96626608D01*
X204774500Y-96655126D01*
X204774500Y-97594856D01*
X204774502Y-97594882D01*
X204777413Y-97619987D01*
X204777415Y-97619991D01*
X204822793Y-97722764D01*
X204822794Y-97722765D01*
X204902235Y-97802206D01*
X205005009Y-97847585D01*
X205030135Y-97850500D01*
X205702200Y-97850499D01*
X205769239Y-97870183D01*
X205814994Y-97922987D01*
X205826200Y-97974499D01*
X205826200Y-112377382D01*
X205806515Y-112444421D01*
X205753711Y-112490176D01*
X205684553Y-112500120D01*
X205640201Y-112484770D01*
X205542084Y-112428123D01*
X205455276Y-112404863D01*
X205389357Y-112387200D01*
X205231243Y-112387200D01*
X205078516Y-112428123D01*
X205078509Y-112428126D01*
X204941590Y-112507175D01*
X204941582Y-112507181D01*
X204829781Y-112618982D01*
X204829775Y-112618990D01*
X204750726Y-112755909D01*
X204750723Y-112755916D01*
X204709800Y-112908643D01*
X204709800Y-113066757D01*
X204748615Y-113211614D01*
X204750723Y-113219483D01*
X204750726Y-113219490D01*
X204829775Y-113356409D01*
X204829781Y-113356417D01*
X204873481Y-113400117D01*
X204906966Y-113461440D01*
X204909800Y-113487798D01*
X204909800Y-115365245D01*
X204890115Y-115432284D01*
X204873481Y-115452926D01*
X184640226Y-135686181D01*
X184578903Y-135719666D01*
X184552545Y-135722500D01*
X177851401Y-135722500D01*
X177784362Y-135702815D01*
X177738607Y-135650011D01*
X177728663Y-135580853D01*
X177757688Y-135517297D01*
X177795106Y-135488015D01*
X177802994Y-135483996D01*
X177949501Y-135377553D01*
X178077553Y-135249501D01*
X178183996Y-135102994D01*
X178266211Y-134941639D01*
X178322171Y-134769409D01*
X178336765Y-134677259D01*
X178350500Y-134590551D01*
X178350500Y-134409448D01*
X178328319Y-134269409D01*
X178322171Y-134230591D01*
X178275424Y-134086716D01*
X178273429Y-134016875D01*
X178305672Y-133960719D01*
X180359574Y-131906819D01*
X180420897Y-131873334D01*
X180447255Y-131870500D01*
X186965525Y-131870500D01*
X186965527Y-131870500D01*
X187067388Y-131843207D01*
X187158713Y-131790480D01*
X196320480Y-122628713D01*
X196343062Y-122589600D01*
X196373207Y-122537387D01*
X196400500Y-122435527D01*
X196400500Y-121708016D01*
X196420185Y-121640977D01*
X196472989Y-121595222D01*
X196542147Y-121585278D01*
X196605703Y-121614303D01*
X196643477Y-121673081D01*
X196644266Y-121675892D01*
X196661705Y-121740975D01*
X196664923Y-121752983D01*
X196664926Y-121752990D01*
X196743975Y-121889909D01*
X196743979Y-121889914D01*
X196743980Y-121889916D01*
X196855784Y-122001720D01*
X196855786Y-122001721D01*
X196855790Y-122001724D01*
X196987140Y-122077558D01*
X196992716Y-122080777D01*
X197145443Y-122121700D01*
X197145445Y-122121700D01*
X197303555Y-122121700D01*
X197303557Y-122121700D01*
X197456284Y-122080777D01*
X197593216Y-122001720D01*
X197705020Y-121889916D01*
X197784077Y-121752984D01*
X197825000Y-121600257D01*
X197825000Y-121538453D01*
X197844685Y-121471414D01*
X197861314Y-121450777D01*
X202996503Y-116315587D01*
X202996508Y-116315584D01*
X203006711Y-116305380D01*
X203006713Y-116305380D01*
X203081280Y-116230813D01*
X203134007Y-116139487D01*
X203138410Y-116123054D01*
X203142420Y-116108092D01*
X203153320Y-116067408D01*
X203161301Y-116037627D01*
X203161301Y-115932173D01*
X203161301Y-115924578D01*
X203161300Y-115924560D01*
X203161300Y-100864898D01*
X203180985Y-100797859D01*
X203197619Y-100777217D01*
X203218638Y-100756198D01*
X203241320Y-100733516D01*
X203320377Y-100596584D01*
X203361300Y-100443857D01*
X203361300Y-100285743D01*
X203320377Y-100133016D01*
X203320373Y-100133009D01*
X203241324Y-99996090D01*
X203241318Y-99996082D01*
X203174098Y-99928862D01*
X203140613Y-99867539D01*
X203145597Y-99797847D01*
X203187469Y-99741914D01*
X203229682Y-99721407D01*
X203346984Y-99689977D01*
X203483916Y-99610920D01*
X203595720Y-99499116D01*
X203674777Y-99362184D01*
X203715700Y-99209457D01*
X203715700Y-99051343D01*
X203674777Y-98898616D01*
X203674773Y-98898609D01*
X203595724Y-98761690D01*
X203595718Y-98761682D01*
X203483917Y-98649881D01*
X203483909Y-98649875D01*
X203346990Y-98570826D01*
X203346986Y-98570824D01*
X203346984Y-98570823D01*
X203194257Y-98529900D01*
X203036143Y-98529900D01*
X202883416Y-98570823D01*
X202883411Y-98570825D01*
X202841070Y-98595270D01*
X202773169Y-98611741D01*
X202707143Y-98588888D01*
X202663953Y-98533966D01*
X202657313Y-98464412D01*
X202689331Y-98402310D01*
X202691348Y-98400244D01*
X204566956Y-96524636D01*
X204592455Y-96510713D01*
X204616465Y-96494340D01*
X204622755Y-96494168D01*
X204628277Y-96491153D01*
X204657258Y-96493225D01*
G37*
%TD.AperFunction*%
%TA.AperFunction,Conductor*%
G36*
X135056498Y-117006068D02*
G01*
X135183472Y-117047325D01*
X135183475Y-117047325D01*
X135183476Y-117047326D01*
X135214184Y-117053853D01*
X135506477Y-117115982D01*
X135834889Y-117150500D01*
X135834894Y-117150500D01*
X181165107Y-117150500D01*
X181165111Y-117150500D01*
X181493523Y-117115983D01*
X181785820Y-117053853D01*
X181855486Y-117059169D01*
X181911220Y-117101306D01*
X181935325Y-117166886D01*
X181920148Y-117235087D01*
X181899281Y-117262824D01*
X181120826Y-118041281D01*
X181059503Y-118074766D01*
X181033145Y-118077600D01*
X177024273Y-118077600D01*
X176922410Y-118104893D01*
X176831087Y-118157620D01*
X176831084Y-118157622D01*
X175724651Y-119264054D01*
X175663328Y-119297539D01*
X175593636Y-119292555D01*
X175541508Y-119253531D01*
X175540719Y-119254206D01*
X175537722Y-119250697D01*
X175537703Y-119250683D01*
X175537658Y-119250623D01*
X175537551Y-119250497D01*
X175409499Y-119122445D01*
X175409494Y-119122441D01*
X175262997Y-119016006D01*
X175262996Y-119016005D01*
X175262994Y-119016004D01*
X175211300Y-118989664D01*
X175101639Y-118933788D01*
X175101636Y-118933787D01*
X174929410Y-118877829D01*
X174750551Y-118849500D01*
X174750546Y-118849500D01*
X174569454Y-118849500D01*
X174569449Y-118849500D01*
X174390589Y-118877829D01*
X174218363Y-118933787D01*
X174218360Y-118933788D01*
X174057002Y-119016006D01*
X173910505Y-119122441D01*
X173910500Y-119122445D01*
X173782445Y-119250500D01*
X173782441Y-119250505D01*
X173676006Y-119397002D01*
X173593788Y-119558360D01*
X173593787Y-119558363D01*
X173537829Y-119730589D01*
X173512473Y-119890678D01*
X173482544Y-119953813D01*
X173423232Y-119990744D01*
X173353369Y-119989746D01*
X173295137Y-119951136D01*
X173267527Y-119890678D01*
X173250340Y-119782170D01*
X173242171Y-119730591D01*
X173200616Y-119602695D01*
X173186212Y-119558363D01*
X173186211Y-119558360D01*
X173151250Y-119489746D01*
X173103996Y-119397006D01*
X173068711Y-119348440D01*
X172997558Y-119250505D01*
X172997554Y-119250500D01*
X172869499Y-119122445D01*
X172869494Y-119122441D01*
X172722997Y-119016006D01*
X172722996Y-119016005D01*
X172722994Y-119016004D01*
X172671300Y-118989664D01*
X172561639Y-118933788D01*
X172561636Y-118933787D01*
X172389410Y-118877829D01*
X172210551Y-118849500D01*
X172210546Y-118849500D01*
X172029454Y-118849500D01*
X172029449Y-118849500D01*
X171850589Y-118877829D01*
X171678363Y-118933787D01*
X171678360Y-118933788D01*
X171517002Y-119016006D01*
X171370505Y-119122441D01*
X171370500Y-119122445D01*
X171242445Y-119250500D01*
X171242441Y-119250505D01*
X171136006Y-119397002D01*
X171053788Y-119558360D01*
X171053787Y-119558363D01*
X170997829Y-119730589D01*
X170969500Y-119909448D01*
X170969500Y-120090551D01*
X170997829Y-120269410D01*
X171053787Y-120441636D01*
X171053788Y-120441639D01*
X171095125Y-120522765D01*
X171117261Y-120566210D01*
X171119654Y-120570905D01*
X171132550Y-120639574D01*
X171106274Y-120704314D01*
X171049168Y-120744572D01*
X171009169Y-120751200D01*
X165868954Y-120751200D01*
X165839513Y-120742555D01*
X165809527Y-120736032D01*
X165804511Y-120732277D01*
X165801915Y-120731515D01*
X165781273Y-120714881D01*
X165605674Y-120539282D01*
X165572189Y-120477959D01*
X165575424Y-120413283D01*
X165575782Y-120412183D01*
X165622171Y-120269409D01*
X165625324Y-120249501D01*
X165650500Y-120090551D01*
X165650500Y-119909448D01*
X165630340Y-119782170D01*
X165622171Y-119730591D01*
X165580616Y-119602695D01*
X165566212Y-119558363D01*
X165566211Y-119558360D01*
X165531250Y-119489746D01*
X165483996Y-119397006D01*
X165448711Y-119348440D01*
X165377558Y-119250505D01*
X165377554Y-119250500D01*
X165249499Y-119122445D01*
X165249494Y-119122441D01*
X165102997Y-119016006D01*
X165102996Y-119016005D01*
X165102994Y-119016004D01*
X165051300Y-118989664D01*
X164941639Y-118933788D01*
X164941636Y-118933787D01*
X164769410Y-118877829D01*
X164590551Y-118849500D01*
X164590546Y-118849500D01*
X164409454Y-118849500D01*
X164409449Y-118849500D01*
X164230589Y-118877829D01*
X164058363Y-118933787D01*
X164058360Y-118933788D01*
X163897002Y-119016006D01*
X163750505Y-119122441D01*
X163750500Y-119122445D01*
X163622445Y-119250500D01*
X163622441Y-119250505D01*
X163516006Y-119397002D01*
X163433788Y-119558360D01*
X163433787Y-119558363D01*
X163377829Y-119730589D01*
X163356972Y-119862271D01*
X163327042Y-119925405D01*
X163267731Y-119962336D01*
X163197868Y-119961338D01*
X163139636Y-119922728D01*
X163111522Y-119858764D01*
X163110499Y-119842872D01*
X163110499Y-119105143D01*
X163110499Y-119105137D01*
X163110499Y-119105136D01*
X163110242Y-119102918D01*
X163107586Y-119080012D01*
X163107585Y-119080010D01*
X163107585Y-119080009D01*
X163062206Y-118977235D01*
X162982765Y-118897794D01*
X162962713Y-118888940D01*
X162879992Y-118852415D01*
X162854865Y-118849500D01*
X161065143Y-118849500D01*
X161065117Y-118849502D01*
X161040012Y-118852413D01*
X161040008Y-118852415D01*
X160937235Y-118897793D01*
X160857794Y-118977234D01*
X160812415Y-119080006D01*
X160812415Y-119080008D01*
X160809500Y-119105131D01*
X160809500Y-119489901D01*
X160803669Y-119509757D01*
X160802690Y-119530428D01*
X160794024Y-119542602D01*
X160789815Y-119556940D01*
X160774176Y-119570491D01*
X160762176Y-119587352D01*
X160744507Y-119596199D01*
X160737011Y-119602695D01*
X160731615Y-119605007D01*
X160724743Y-119607759D01*
X160653712Y-119626793D01*
X160608050Y-119653156D01*
X160600386Y-119657581D01*
X160562387Y-119679520D01*
X160562384Y-119679522D01*
X159527026Y-120714881D01*
X159465703Y-120748366D01*
X159439345Y-120751200D01*
X157850831Y-120751200D01*
X157783792Y-120731515D01*
X157738037Y-120678711D01*
X157728093Y-120609553D01*
X157740346Y-120570905D01*
X157742739Y-120566210D01*
X157806211Y-120441639D01*
X157862171Y-120269409D01*
X157879060Y-120162774D01*
X157890500Y-120090551D01*
X157890500Y-119909448D01*
X157870340Y-119782170D01*
X157862171Y-119730591D01*
X157820616Y-119602695D01*
X157806212Y-119558363D01*
X157806211Y-119558360D01*
X157771250Y-119489746D01*
X157723996Y-119397006D01*
X157688711Y-119348440D01*
X157617558Y-119250505D01*
X157617554Y-119250500D01*
X157489499Y-119122445D01*
X157489494Y-119122441D01*
X157342997Y-119016006D01*
X157342996Y-119016005D01*
X157342994Y-119016004D01*
X157291300Y-118989664D01*
X157181639Y-118933788D01*
X157181636Y-118933787D01*
X157009410Y-118877829D01*
X156830551Y-118849500D01*
X156830546Y-118849500D01*
X156649454Y-118849500D01*
X156649449Y-118849500D01*
X156470589Y-118877829D01*
X156298363Y-118933787D01*
X156298360Y-118933788D01*
X156137002Y-119016006D01*
X155990505Y-119122441D01*
X155990500Y-119122445D01*
X155862445Y-119250500D01*
X155862441Y-119250505D01*
X155756006Y-119397002D01*
X155673788Y-119558360D01*
X155673787Y-119558363D01*
X155617829Y-119730589D01*
X155592473Y-119890678D01*
X155562544Y-119953813D01*
X155503232Y-119990744D01*
X155433369Y-119989746D01*
X155375137Y-119951136D01*
X155347527Y-119890678D01*
X155330340Y-119782170D01*
X155322171Y-119730591D01*
X155280616Y-119602695D01*
X155266212Y-119558363D01*
X155266211Y-119558360D01*
X155231250Y-119489746D01*
X155183996Y-119397006D01*
X155148711Y-119348440D01*
X155077558Y-119250505D01*
X155077554Y-119250500D01*
X154949499Y-119122445D01*
X154949494Y-119122441D01*
X154802997Y-119016006D01*
X154802996Y-119016005D01*
X154802994Y-119016004D01*
X154751300Y-118989664D01*
X154641639Y-118933788D01*
X154641636Y-118933787D01*
X154469410Y-118877829D01*
X154290551Y-118849500D01*
X154290546Y-118849500D01*
X154109454Y-118849500D01*
X154109449Y-118849500D01*
X153930589Y-118877829D01*
X153758363Y-118933787D01*
X153758360Y-118933788D01*
X153597002Y-119016006D01*
X153450505Y-119122441D01*
X153450500Y-119122445D01*
X153322445Y-119250500D01*
X153322441Y-119250505D01*
X153216006Y-119397002D01*
X153133788Y-119558360D01*
X153133787Y-119558363D01*
X153077829Y-119730589D01*
X153052473Y-119890678D01*
X153022544Y-119953813D01*
X152963232Y-119990744D01*
X152893369Y-119989746D01*
X152835137Y-119951136D01*
X152807527Y-119890678D01*
X152790340Y-119782170D01*
X152782171Y-119730591D01*
X152740616Y-119602695D01*
X152726212Y-119558363D01*
X152726211Y-119558360D01*
X152691250Y-119489746D01*
X152643996Y-119397006D01*
X152608711Y-119348440D01*
X152537558Y-119250505D01*
X152537554Y-119250500D01*
X152409499Y-119122445D01*
X152409494Y-119122441D01*
X152262997Y-119016006D01*
X152262996Y-119016005D01*
X152262994Y-119016004D01*
X152211300Y-118989664D01*
X152101639Y-118933788D01*
X152101636Y-118933787D01*
X151929410Y-118877829D01*
X151750551Y-118849500D01*
X151750546Y-118849500D01*
X151569454Y-118849500D01*
X151569449Y-118849500D01*
X151390589Y-118877829D01*
X151218363Y-118933787D01*
X151218360Y-118933788D01*
X151057002Y-119016006D01*
X150910505Y-119122441D01*
X150910500Y-119122445D01*
X150782445Y-119250500D01*
X150782441Y-119250505D01*
X150676006Y-119397002D01*
X150593788Y-119558360D01*
X150593787Y-119558363D01*
X150537829Y-119730589D01*
X150509500Y-119909448D01*
X150509500Y-120090551D01*
X150537829Y-120269410D01*
X150593787Y-120441636D01*
X150593788Y-120441639D01*
X150635125Y-120522765D01*
X150657261Y-120566210D01*
X150659654Y-120570905D01*
X150672550Y-120639574D01*
X150646274Y-120704314D01*
X150589168Y-120744572D01*
X150549169Y-120751200D01*
X145150831Y-120751200D01*
X145083792Y-120731515D01*
X145038037Y-120678711D01*
X145028093Y-120609553D01*
X145040346Y-120570905D01*
X145042739Y-120566210D01*
X145106211Y-120441639D01*
X145162171Y-120269409D01*
X145179060Y-120162774D01*
X145190500Y-120090551D01*
X145190500Y-119909448D01*
X145170340Y-119782170D01*
X145162171Y-119730591D01*
X145120616Y-119602695D01*
X145106212Y-119558363D01*
X145106211Y-119558360D01*
X145071250Y-119489746D01*
X145023996Y-119397006D01*
X144988711Y-119348440D01*
X144917558Y-119250505D01*
X144917554Y-119250500D01*
X144789499Y-119122445D01*
X144789494Y-119122441D01*
X144642997Y-119016006D01*
X144642996Y-119016005D01*
X144642994Y-119016004D01*
X144591300Y-118989664D01*
X144481639Y-118933788D01*
X144481636Y-118933787D01*
X144309410Y-118877829D01*
X144130551Y-118849500D01*
X144130546Y-118849500D01*
X143949454Y-118849500D01*
X143949449Y-118849500D01*
X143770589Y-118877829D01*
X143598363Y-118933787D01*
X143598360Y-118933788D01*
X143437002Y-119016006D01*
X143290505Y-119122441D01*
X143290500Y-119122445D01*
X143162445Y-119250500D01*
X143162441Y-119250505D01*
X143056006Y-119397002D01*
X142973788Y-119558360D01*
X142973787Y-119558363D01*
X142917829Y-119730589D01*
X142896972Y-119862271D01*
X142867042Y-119925405D01*
X142807731Y-119962336D01*
X142737868Y-119961338D01*
X142679636Y-119922728D01*
X142651522Y-119858764D01*
X142650499Y-119842872D01*
X142650499Y-119105143D01*
X142650499Y-119105137D01*
X142650499Y-119105136D01*
X142650242Y-119102918D01*
X142647586Y-119080012D01*
X142647585Y-119080010D01*
X142647585Y-119080009D01*
X142602206Y-118977235D01*
X142522765Y-118897794D01*
X142502713Y-118888940D01*
X142419992Y-118852415D01*
X142394865Y-118849500D01*
X140605143Y-118849500D01*
X140605117Y-118849502D01*
X140580012Y-118852413D01*
X140580008Y-118852415D01*
X140477235Y-118897793D01*
X140397794Y-118977234D01*
X140352415Y-119080006D01*
X140352415Y-119080008D01*
X140349906Y-119101639D01*
X140349500Y-119105135D01*
X140349500Y-119925405D01*
X140349501Y-120627200D01*
X140329816Y-120694239D01*
X140277013Y-120739994D01*
X140225501Y-120751200D01*
X136455075Y-120751200D01*
X136388036Y-120731515D01*
X136342281Y-120678711D01*
X136332337Y-120609553D01*
X136361362Y-120545997D01*
X136398780Y-120516716D01*
X136462992Y-120483997D01*
X136462991Y-120483997D01*
X136462994Y-120483996D01*
X136609501Y-120377553D01*
X136737553Y-120249501D01*
X136843996Y-120102994D01*
X136926211Y-119941639D01*
X136982171Y-119769409D01*
X137000925Y-119650999D01*
X137010500Y-119590551D01*
X137010500Y-119409448D01*
X136991660Y-119290505D01*
X136982171Y-119230591D01*
X136954191Y-119144476D01*
X136926212Y-119058363D01*
X136926211Y-119058360D01*
X136883119Y-118973789D01*
X136843996Y-118897006D01*
X136822226Y-118867042D01*
X136737558Y-118750505D01*
X136737554Y-118750500D01*
X136609499Y-118622445D01*
X136609494Y-118622441D01*
X136462997Y-118516006D01*
X136462996Y-118516005D01*
X136462994Y-118516004D01*
X136410367Y-118489189D01*
X136301639Y-118433788D01*
X136301636Y-118433787D01*
X136129410Y-118377829D01*
X135950551Y-118349500D01*
X135950546Y-118349500D01*
X135769454Y-118349500D01*
X135769449Y-118349500D01*
X135590589Y-118377829D01*
X135418363Y-118433787D01*
X135418360Y-118433788D01*
X135257002Y-118516006D01*
X135110505Y-118622441D01*
X135110500Y-118622445D01*
X134982449Y-118750496D01*
X134982437Y-118750510D01*
X134982031Y-118751070D01*
X134981822Y-118751230D01*
X134979283Y-118754204D01*
X134978658Y-118753670D01*
X134926695Y-118793728D01*
X134857081Y-118799697D01*
X134795291Y-118767082D01*
X134794043Y-118765851D01*
X133239873Y-117211681D01*
X133206388Y-117150358D01*
X133211372Y-117080666D01*
X133253244Y-117024733D01*
X133318708Y-117000316D01*
X133327554Y-117000000D01*
X135018182Y-117000000D01*
X135056498Y-117006068D01*
G37*
%TD.AperFunction*%
%TA.AperFunction,Conductor*%
G36*
X111743862Y-114054685D02*
G01*
X111789617Y-114107489D01*
X111799561Y-114176647D01*
X111798440Y-114183192D01*
X111774500Y-114303542D01*
X111774500Y-114303545D01*
X111774500Y-114446455D01*
X111774500Y-114446457D01*
X111774499Y-114446457D01*
X111802379Y-114586614D01*
X111802381Y-114586620D01*
X111857069Y-114718650D01*
X111857074Y-114718659D01*
X111936467Y-114837478D01*
X111936470Y-114837482D01*
X112037517Y-114938529D01*
X112037521Y-114938532D01*
X112156340Y-115017925D01*
X112156349Y-115017930D01*
X112174499Y-115025448D01*
X112288380Y-115072619D01*
X112288384Y-115072619D01*
X112288385Y-115072620D01*
X112428542Y-115100500D01*
X112428545Y-115100500D01*
X112515545Y-115100500D01*
X112582584Y-115120185D01*
X112603226Y-115136819D01*
X115288787Y-117822380D01*
X115380112Y-117875107D01*
X115481973Y-117902400D01*
X115587427Y-117902400D01*
X118811845Y-117902400D01*
X118878884Y-117922085D01*
X118924639Y-117974889D01*
X118934583Y-118044047D01*
X118905558Y-118107603D01*
X118899526Y-118114081D01*
X118619281Y-118394325D01*
X118557958Y-118427810D01*
X118493283Y-118424575D01*
X118349411Y-118377829D01*
X118349412Y-118377829D01*
X118170551Y-118349500D01*
X118170546Y-118349500D01*
X117989454Y-118349500D01*
X117989449Y-118349500D01*
X117810589Y-118377829D01*
X117638363Y-118433787D01*
X117638360Y-118433788D01*
X117477002Y-118516006D01*
X117330505Y-118622441D01*
X117330500Y-118622445D01*
X117202445Y-118750500D01*
X117202441Y-118750505D01*
X117096006Y-118897002D01*
X117013788Y-119058360D01*
X117013787Y-119058363D01*
X116957829Y-119230589D01*
X116929500Y-119409448D01*
X116929500Y-119590551D01*
X116957829Y-119769410D01*
X117013787Y-119941636D01*
X117013788Y-119941639D01*
X117067059Y-120046186D01*
X117094288Y-120099627D01*
X117096006Y-120102997D01*
X117202441Y-120249494D01*
X117202445Y-120249499D01*
X117302465Y-120349519D01*
X117335950Y-120410842D01*
X117330966Y-120480534D01*
X117289094Y-120536467D01*
X117223630Y-120560884D01*
X117214784Y-120561200D01*
X114270420Y-120561200D01*
X114203381Y-120541515D01*
X114157626Y-120488711D01*
X114147246Y-120422908D01*
X114147584Y-120419992D01*
X114147585Y-120419991D01*
X114150500Y-120394865D01*
X114150499Y-118605136D01*
X114150159Y-118602205D01*
X114147586Y-118580012D01*
X114147585Y-118580010D01*
X114147585Y-118580009D01*
X114102206Y-118477235D01*
X114022765Y-118397794D01*
X114015577Y-118394620D01*
X113919992Y-118352415D01*
X113894868Y-118349500D01*
X113894865Y-118349500D01*
X113510098Y-118349500D01*
X113443059Y-118329815D01*
X113397304Y-118277011D01*
X113390323Y-118257591D01*
X113383516Y-118232186D01*
X113373208Y-118193713D01*
X113352369Y-118157620D01*
X113320480Y-118102387D01*
X110936819Y-115718726D01*
X110903334Y-115657403D01*
X110900500Y-115631045D01*
X110900500Y-115046224D01*
X110920185Y-114979185D01*
X110955614Y-114943119D01*
X110962479Y-114938532D01*
X111063532Y-114837479D01*
X111142929Y-114718653D01*
X111197619Y-114586620D01*
X111210473Y-114522000D01*
X111225500Y-114446457D01*
X111225500Y-114303542D01*
X111207977Y-114215452D01*
X111208684Y-114207542D01*
X111205910Y-114200102D01*
X111211753Y-114173242D01*
X111214204Y-114145860D01*
X111219454Y-114137848D01*
X111220764Y-114131830D01*
X111241910Y-114103581D01*
X111274177Y-114071316D01*
X111335502Y-114037833D01*
X111361856Y-114035000D01*
X111676823Y-114035000D01*
X111743862Y-114054685D01*
G37*
%TD.AperFunction*%
%TA.AperFunction,Conductor*%
G36*
X122032484Y-100068485D02*
G01*
X122053126Y-100085119D01*
X127363181Y-105395173D01*
X127396666Y-105456496D01*
X127399500Y-105482854D01*
X127399500Y-105571455D01*
X127399500Y-105571457D01*
X127399499Y-105571457D01*
X127427379Y-105711614D01*
X127427381Y-105711620D01*
X127482069Y-105843650D01*
X127482073Y-105843657D01*
X127540507Y-105931110D01*
X127561384Y-105997787D01*
X127542899Y-106065167D01*
X127540507Y-106068890D01*
X127482073Y-106156342D01*
X127482069Y-106156349D01*
X127427381Y-106288379D01*
X127427379Y-106288385D01*
X127399500Y-106428542D01*
X127399500Y-106571455D01*
X127401112Y-106579560D01*
X127394883Y-106649152D01*
X127367175Y-106691430D01*
X122953522Y-111105084D01*
X122953518Y-111105090D01*
X122900792Y-111196412D01*
X122900793Y-111196413D01*
X122873500Y-111298273D01*
X122873500Y-112509502D01*
X122865771Y-112535821D01*
X122861408Y-112562912D01*
X122855265Y-112571600D01*
X122853815Y-112576541D01*
X122841827Y-112592277D01*
X122839574Y-112594789D01*
X122793480Y-112640884D01*
X122784853Y-112655825D01*
X122776240Y-112665433D01*
X122757056Y-112677308D01*
X122740728Y-112692876D01*
X122727922Y-112695343D01*
X122716832Y-112702209D01*
X122694271Y-112701827D01*
X122672120Y-112706096D01*
X122660013Y-112701248D01*
X122646973Y-112701028D01*
X122628202Y-112688511D01*
X122607257Y-112680125D01*
X122596232Y-112670339D01*
X121436819Y-111510926D01*
X121403334Y-111449603D01*
X121400500Y-111423245D01*
X121400500Y-108843063D01*
X121420185Y-108776024D01*
X121472989Y-108730269D01*
X121491954Y-108723410D01*
X121494979Y-108722586D01*
X121494991Y-108722585D01*
X121597765Y-108677206D01*
X121677206Y-108597765D01*
X121722585Y-108494991D01*
X121725500Y-108469865D01*
X121725499Y-107530136D01*
X121725021Y-107526011D01*
X121722586Y-107505012D01*
X121722585Y-107505010D01*
X121722585Y-107505009D01*
X121677206Y-107402235D01*
X121597765Y-107322794D01*
X121578655Y-107314356D01*
X121494992Y-107277415D01*
X121469865Y-107274500D01*
X120530143Y-107274500D01*
X120530117Y-107274502D01*
X120505012Y-107277413D01*
X120505008Y-107277415D01*
X120402235Y-107322793D01*
X120322794Y-107402234D01*
X120277415Y-107505006D01*
X120277415Y-107505008D01*
X120274500Y-107530131D01*
X120274500Y-108469856D01*
X120274502Y-108469882D01*
X120277413Y-108494987D01*
X120277415Y-108494991D01*
X120322793Y-108597764D01*
X120322794Y-108597765D01*
X120402235Y-108677206D01*
X120462823Y-108703958D01*
X120505006Y-108722584D01*
X120505007Y-108722584D01*
X120505009Y-108722585D01*
X120505010Y-108722585D01*
X120508053Y-108723413D01*
X120511032Y-108725245D01*
X120513542Y-108726353D01*
X120513391Y-108726694D01*
X120567573Y-108760007D01*
X120597861Y-108822970D01*
X120599500Y-108843064D01*
X120599500Y-111693226D01*
X120626793Y-111795089D01*
X120653156Y-111840750D01*
X120679520Y-111886413D01*
X120679522Y-111886415D01*
X121413726Y-112620619D01*
X121447211Y-112681942D01*
X121442227Y-112751634D01*
X121400355Y-112807567D01*
X121334891Y-112831984D01*
X121326045Y-112832300D01*
X110476873Y-112832300D01*
X110375010Y-112859593D01*
X110283687Y-112912320D01*
X110283684Y-112912322D01*
X109582826Y-113613181D01*
X109521503Y-113646666D01*
X109495145Y-113649500D01*
X109428543Y-113649500D01*
X109288385Y-113677379D01*
X109288379Y-113677381D01*
X109156349Y-113732069D01*
X109156340Y-113732074D01*
X109037521Y-113811467D01*
X109037517Y-113811470D01*
X108936470Y-113912517D01*
X108936467Y-113912521D01*
X108857074Y-114031340D01*
X108857069Y-114031349D01*
X108802381Y-114163379D01*
X108802379Y-114163385D01*
X108774500Y-114303542D01*
X108774500Y-114303545D01*
X108774500Y-114446455D01*
X108774500Y-114446457D01*
X108774499Y-114446457D01*
X108802379Y-114586614D01*
X108802381Y-114586620D01*
X108857069Y-114718650D01*
X108857074Y-114718659D01*
X108936467Y-114837478D01*
X108936470Y-114837482D01*
X109037517Y-114938529D01*
X109037521Y-114938532D01*
X109156340Y-115017925D01*
X109156349Y-115017930D01*
X109174499Y-115025448D01*
X109288380Y-115072619D01*
X109288384Y-115072619D01*
X109288385Y-115072620D01*
X109428542Y-115100500D01*
X109428545Y-115100500D01*
X109571457Y-115100500D01*
X109679717Y-115078965D01*
X109711620Y-115072619D01*
X109843653Y-115017929D01*
X109906610Y-114975862D01*
X109973286Y-114954985D01*
X110040666Y-114973469D01*
X110087357Y-115025448D01*
X110099500Y-115078965D01*
X110099500Y-115795573D01*
X110099500Y-115901027D01*
X110102760Y-115913192D01*
X110126793Y-116002889D01*
X110146850Y-116037627D01*
X110179520Y-116094213D01*
X110179522Y-116094215D01*
X112223126Y-118137819D01*
X112256611Y-118199142D01*
X112251627Y-118268834D01*
X112209755Y-118324767D01*
X112144291Y-118349184D01*
X112135449Y-118349500D01*
X112105145Y-118349500D01*
X112105117Y-118349502D01*
X112080012Y-118352413D01*
X112080008Y-118352415D01*
X111977235Y-118397793D01*
X111897794Y-118477234D01*
X111852415Y-118580006D01*
X111852415Y-118580008D01*
X111849500Y-118605131D01*
X111849500Y-119691745D01*
X111829815Y-119758784D01*
X111777011Y-119804539D01*
X111707853Y-119814483D01*
X111644297Y-119785458D01*
X111637819Y-119779426D01*
X108210119Y-116351726D01*
X108176634Y-116290403D01*
X108173800Y-116264045D01*
X108173800Y-114012954D01*
X108193485Y-113945915D01*
X108210119Y-113925273D01*
X110334473Y-111800919D01*
X110395796Y-111767434D01*
X110422154Y-111764600D01*
X115779225Y-111764600D01*
X115779227Y-111764600D01*
X115881088Y-111737307D01*
X115972413Y-111684580D01*
X118895174Y-108761819D01*
X118956497Y-108728334D01*
X118982855Y-108725500D01*
X119071457Y-108725500D01*
X119179752Y-108703958D01*
X119211620Y-108697619D01*
X119343653Y-108642929D01*
X119462479Y-108563532D01*
X119563532Y-108462479D01*
X119642929Y-108343653D01*
X119697619Y-108211620D01*
X119725500Y-108071455D01*
X119725500Y-107928545D01*
X119725500Y-107928542D01*
X119697620Y-107788385D01*
X119697619Y-107788384D01*
X119697619Y-107788380D01*
X119651569Y-107677206D01*
X119642930Y-107656349D01*
X119642925Y-107656340D01*
X119563532Y-107537521D01*
X119563529Y-107537517D01*
X119471383Y-107445371D01*
X119437898Y-107384048D01*
X119442882Y-107314356D01*
X119471381Y-107270011D01*
X121320480Y-105420913D01*
X121373207Y-105329588D01*
X121400500Y-105227727D01*
X121400500Y-105122273D01*
X121400500Y-101046224D01*
X121420185Y-100979185D01*
X121455614Y-100943119D01*
X121456630Y-100942440D01*
X121462479Y-100938532D01*
X121563532Y-100837479D01*
X121642929Y-100718653D01*
X121697619Y-100586620D01*
X121718033Y-100483993D01*
X121725500Y-100446457D01*
X121725500Y-100303542D01*
X121704305Y-100196992D01*
X121706182Y-100176007D01*
X121703184Y-100155153D01*
X121709234Y-100141905D01*
X121710532Y-100127400D01*
X121723456Y-100110762D01*
X121732209Y-100091597D01*
X121744461Y-100083722D01*
X121753395Y-100072223D01*
X121773261Y-100065214D01*
X121790987Y-100053823D01*
X121815569Y-100050288D01*
X121819284Y-100048978D01*
X121825922Y-100048800D01*
X121965445Y-100048800D01*
X122032484Y-100068485D01*
G37*
%TD.AperFunction*%
%TA.AperFunction,Conductor*%
G36*
X197204784Y-100016385D02*
G01*
X197225426Y-100033019D01*
X197264374Y-100071967D01*
X197297859Y-100133290D01*
X197298310Y-100183839D01*
X197274500Y-100303540D01*
X197274500Y-100303545D01*
X197274500Y-100446455D01*
X197274500Y-100446457D01*
X197274499Y-100446457D01*
X197302379Y-100586614D01*
X197302381Y-100586620D01*
X197357069Y-100718650D01*
X197357074Y-100718659D01*
X197436467Y-100837478D01*
X197436470Y-100837482D01*
X197537517Y-100938529D01*
X197537521Y-100938532D01*
X197656340Y-101017925D01*
X197656349Y-101017930D01*
X197686258Y-101030318D01*
X197788380Y-101072619D01*
X197788384Y-101072619D01*
X197788385Y-101072620D01*
X197928542Y-101100500D01*
X197928545Y-101100500D01*
X198071457Y-101100500D01*
X198189721Y-101076975D01*
X198211620Y-101072619D01*
X198343653Y-101017929D01*
X198400500Y-100979945D01*
X198431109Y-100959493D01*
X198447073Y-100954494D01*
X198460815Y-100944949D01*
X198479727Y-100944269D01*
X198497786Y-100938615D01*
X198514439Y-100943022D01*
X198530639Y-100942440D01*
X198557514Y-100954421D01*
X198563250Y-100955939D01*
X198566116Y-100957639D01*
X198656347Y-101017929D01*
X198694267Y-101033636D01*
X198701884Y-101038153D01*
X198719905Y-101057500D01*
X198740490Y-101074089D01*
X198743344Y-101082664D01*
X198749506Y-101089280D01*
X198754205Y-101115297D01*
X198762555Y-101140383D01*
X198760319Y-101149142D01*
X198761926Y-101158037D01*
X198751814Y-101182463D01*
X198745276Y-101208083D01*
X198736571Y-101219287D01*
X198735203Y-101222594D01*
X198732596Y-101224404D01*
X198726315Y-101232490D01*
X197679522Y-102279284D01*
X197679518Y-102279290D01*
X197626792Y-102370612D01*
X197626793Y-102370613D01*
X197599500Y-102472473D01*
X197599500Y-106296034D01*
X197579815Y-106363073D01*
X197527011Y-106408828D01*
X197457853Y-106418772D01*
X197406609Y-106399136D01*
X197343659Y-106357074D01*
X197343650Y-106357069D01*
X197211620Y-106302381D01*
X197211614Y-106302379D01*
X197071457Y-106274500D01*
X197071455Y-106274500D01*
X197016055Y-106274500D01*
X196949016Y-106254815D01*
X196928374Y-106238181D01*
X196596815Y-105906622D01*
X196596813Y-105906620D01*
X196551150Y-105880256D01*
X196505489Y-105853893D01*
X196447229Y-105838283D01*
X196403627Y-105826600D01*
X196403626Y-105826600D01*
X195996755Y-105826600D01*
X195929716Y-105806915D01*
X195883961Y-105754111D01*
X195874017Y-105684953D01*
X195903042Y-105621397D01*
X195909074Y-105614919D01*
X196103081Y-105420912D01*
X196320480Y-105203513D01*
X196373207Y-105112188D01*
X196400500Y-105010327D01*
X196400500Y-104904873D01*
X196400500Y-101218063D01*
X196420185Y-101151024D01*
X196472989Y-101105269D01*
X196491954Y-101098410D01*
X196494979Y-101097586D01*
X196494991Y-101097585D01*
X196597765Y-101052206D01*
X196677206Y-100972765D01*
X196722585Y-100869991D01*
X196725500Y-100844865D01*
X196725499Y-100120699D01*
X196745183Y-100053661D01*
X196797987Y-100007906D01*
X196849499Y-99996700D01*
X197137745Y-99996700D01*
X197204784Y-100016385D01*
G37*
%TD.AperFunction*%
%TA.AperFunction,Conductor*%
G36*
X123962084Y-99619885D02*
G01*
X123982726Y-99636519D01*
X127153887Y-102807680D01*
X127245212Y-102860407D01*
X127347073Y-102887700D01*
X127429587Y-102887700D01*
X127496626Y-102907385D01*
X127542381Y-102960189D01*
X127552325Y-103029347D01*
X127532689Y-103080591D01*
X127482074Y-103156340D01*
X127482069Y-103156349D01*
X127427381Y-103288379D01*
X127427379Y-103288385D01*
X127399500Y-103428542D01*
X127399500Y-103428545D01*
X127399500Y-103571455D01*
X127399500Y-103571457D01*
X127399499Y-103571457D01*
X127427379Y-103711614D01*
X127427381Y-103711620D01*
X127482069Y-103843650D01*
X127482074Y-103843659D01*
X127561467Y-103962478D01*
X127561470Y-103962482D01*
X127662517Y-104063529D01*
X127662521Y-104063532D01*
X127781340Y-104142925D01*
X127781346Y-104142928D01*
X127781347Y-104142929D01*
X127913380Y-104197619D01*
X127913384Y-104197619D01*
X127913385Y-104197620D01*
X128053542Y-104225500D01*
X128053545Y-104225500D01*
X128196456Y-104225500D01*
X128219942Y-104220828D01*
X128284214Y-104208043D01*
X128292120Y-104208750D01*
X128299559Y-104205976D01*
X128326423Y-104211820D01*
X128353804Y-104214270D01*
X128361813Y-104219518D01*
X128367832Y-104220828D01*
X128396086Y-104241979D01*
X128498581Y-104344474D01*
X128532066Y-104405797D01*
X128534900Y-104432155D01*
X128534900Y-104698932D01*
X128515215Y-104765971D01*
X128462411Y-104811726D01*
X128393253Y-104821670D01*
X128363448Y-104813493D01*
X128336624Y-104802382D01*
X128336614Y-104802379D01*
X128196457Y-104774500D01*
X128196455Y-104774500D01*
X128053545Y-104774500D01*
X128053540Y-104774500D01*
X127969871Y-104791143D01*
X127900279Y-104784916D01*
X127857999Y-104757207D01*
X122912674Y-99811881D01*
X122879189Y-99750558D01*
X122884173Y-99680866D01*
X122926045Y-99624933D01*
X122991509Y-99600516D01*
X123000355Y-99600200D01*
X123895045Y-99600200D01*
X123962084Y-99619885D01*
G37*
%TD.AperFunction*%
%TA.AperFunction,Conductor*%
G36*
X119241117Y-100068485D02*
G01*
X119286872Y-100121289D01*
X119296816Y-100190447D01*
X119295695Y-100196992D01*
X119274500Y-100303542D01*
X119274500Y-100303545D01*
X119274500Y-100446455D01*
X119274500Y-100446457D01*
X119274499Y-100446457D01*
X119302379Y-100586614D01*
X119302381Y-100586620D01*
X119357069Y-100718650D01*
X119357074Y-100718659D01*
X119382157Y-100756198D01*
X119403035Y-100822876D01*
X119384550Y-100890256D01*
X119366736Y-100912770D01*
X117907181Y-102372326D01*
X117845858Y-102405811D01*
X117776166Y-102400827D01*
X117720233Y-102358955D01*
X117695816Y-102293491D01*
X117695500Y-102284645D01*
X117695500Y-102023953D01*
X117715185Y-101956914D01*
X117731815Y-101936276D01*
X118235703Y-101432387D01*
X118235708Y-101432384D01*
X118245911Y-101422180D01*
X118245913Y-101422180D01*
X118320480Y-101347613D01*
X118373207Y-101256287D01*
X118391385Y-101188445D01*
X118427749Y-101128787D01*
X118486098Y-101100442D01*
X118485987Y-101100035D01*
X118488148Y-101099446D01*
X118490596Y-101098258D01*
X118494616Y-101097687D01*
X118494984Y-101097585D01*
X118494991Y-101097585D01*
X118597765Y-101052206D01*
X118677206Y-100972765D01*
X118722585Y-100869991D01*
X118725500Y-100844865D01*
X118725499Y-100172799D01*
X118745183Y-100105761D01*
X118797987Y-100060006D01*
X118849499Y-100048800D01*
X119174078Y-100048800D01*
X119241117Y-100068485D01*
G37*
%TD.AperFunction*%
%TA.AperFunction,Conductor*%
G36*
X209873085Y-96388150D02*
G01*
X209882047Y-96386862D01*
X209906087Y-96397840D01*
X209931439Y-96405285D01*
X209937366Y-96412125D01*
X209945603Y-96415887D01*
X209959892Y-96438121D01*
X209977194Y-96458089D01*
X209979481Y-96468603D01*
X209983377Y-96474665D01*
X209988400Y-96509600D01*
X209988400Y-96538827D01*
X210002046Y-96589757D01*
X210015693Y-96640689D01*
X210042056Y-96686350D01*
X210068420Y-96732013D01*
X210068422Y-96732015D01*
X210238181Y-96901774D01*
X210271666Y-96963097D01*
X210274500Y-96989455D01*
X210274500Y-97260543D01*
X210265856Y-97289979D01*
X210259333Y-97319969D01*
X210255577Y-97324986D01*
X210254815Y-97327582D01*
X210238182Y-97348224D01*
X210171526Y-97414881D01*
X210110203Y-97448366D01*
X210083844Y-97451200D01*
X209916254Y-97451200D01*
X209849215Y-97431515D01*
X209828573Y-97414881D01*
X209577956Y-97164264D01*
X209298973Y-96885280D01*
X209298263Y-96884470D01*
X209218314Y-96804521D01*
X209218313Y-96804520D01*
X209151459Y-96765922D01*
X209126989Y-96751794D01*
X209126988Y-96751793D01*
X209126987Y-96751793D01*
X209025127Y-96724500D01*
X209025126Y-96724500D01*
X206343064Y-96724500D01*
X206276025Y-96704815D01*
X206230270Y-96652011D01*
X206223414Y-96633055D01*
X206222586Y-96630014D01*
X206222585Y-96630012D01*
X206222585Y-96630009D01*
X206191533Y-96559684D01*
X206182463Y-96490407D01*
X206212287Y-96427223D01*
X206271536Y-96390192D01*
X206304969Y-96385600D01*
X209864400Y-96385600D01*
X209873085Y-96388150D01*
G37*
%TD.AperFunction*%
%TD*%
M02*
