M48
; DRILL file KiCad 10.0.3 date 2026-07-09T23:27:49
; FORMAT={-:-/ absolute / metric / decimal}
; #@! TF.CreationDate,2026-07-09T23:27:49-06:00
; #@! TF.GenerationSoftware,Kicad,Pcbnew,10.0.3
; #@! TF.FileFunction,MixedPlating,1,4
FMAT,2
METRIC
; #@! TA.AperFunction,Plated,PTH,ViaDrill
T1C0.300
; #@! TA.AperFunction,Plated,PTH,ViaDrill
T2C0.350
; #@! TA.AperFunction,Plated,PTH,ViaDrill
T3C0.400
; #@! TA.AperFunction,Plated,PTH,ViaDrill
T4C0.500
; #@! TA.AperFunction,Plated,PTH,ComponentDrill
T5C0.600
; #@! TA.AperFunction,Plated,PTH,ComponentDrill
T6C0.950
; #@! TA.AperFunction,Plated,PTH,ComponentDrill
T7C1.000
; #@! TA.AperFunction,Plated,PTH,ComponentDrill
T8C1.020
%
G90
G05
T1
X13.956Y-32.178
X15.577Y-53.977
X17.912Y-71.112
X18.945Y-16.755
X19.576Y-46.399
X19.991Y-55.298
X20.267Y-32.725
X20.877Y-17.307
X21.143Y-30.324
X22.356Y-25.234
X22.362Y-74.999
X24.006Y-34.198
X25.2Y-77.6
X25.306Y-74.29
X25.915Y-40.719
X25.99Y-26.604
X26.155Y-47.133
X26.166Y-32.064
X26.474Y-33.187
X26.572Y-75.746
X26.6Y-60.014
X26.8Y-65.934
X27.1Y-35.022
X27.106Y-33.691
X27.281Y-50.116
X28.03Y-42.597
X28.055Y-36.1
X28.092Y-31.901
X28.206Y-55.51
X28.8Y-63.2
X29.128Y-71.085
X29.191Y-65.27
X29.29Y-60.401
X29.3Y-68.3
X30.374Y-44.541
X30.802Y-53.802
X30.945Y-16.755
X31.091Y-38.306
X31.75Y-43.512
X31.902Y-31.738
X32.42Y-29.354
X33.0Y-17.305
X33.14Y-39.492
X33.363Y-35.832
X34.164Y-39.496
X34.82Y-38.293
X35.324Y-41.216
X35.73Y-39.642
X36.8Y-32.582
X37.293Y-48.218
X37.318Y-51.009
X39.015Y-43.5
X39.037Y-39.485
X44.217Y-36.569
X44.453Y-44.32
X44.767Y-34.667
X47.201Y-37.714
X47.692Y-44.32
X47.726Y-43.111
X48.181Y-46.314
X49.223Y-31.53
X50.112Y-32.774
X50.564Y-47.312
X50.945Y-40.728
X55.692Y-39.555
X56.125Y-37.713
X56.396Y-46.422
X56.935Y-40.702
X57.579Y-34.4
X58.5Y-28.712
X59.138Y-26.805
X60.161Y-31.998
X61.025Y-31.606
X61.432Y-29.968
X62.122Y-50.305
X62.293Y-31.802
X62.562Y-33.005
X64.067Y-23.008
X64.142Y-37.364
X64.165Y-35.627
X65.015Y-35.739
X65.958Y-26.516
X67.208Y-30.088
X67.217Y-25.708
X67.43Y-30.897
X68.657Y-19.133
X70.668Y-30.466
X70.75Y-25.575
X70.844Y-24.044
X71.377Y-26.255
X71.794Y-45.94
X72.06Y-26.944
X80.748Y-45.17
X83.01Y-52.447
X83.4Y-25.504
X85.855Y-16.42
X86.755Y-28.509
X90.831Y-22.607
X90.985Y-24.152
X91.149Y-16.493
X91.19Y-21.453
X91.699Y-22.093
X91.798Y-24.223
X92.635Y-23.2
X93.832Y-20.84
X93.9Y-25.381
X95.128Y-23.7
X95.4Y-47.0
X100.3Y-47.9
X102.341Y-53.398
X102.5Y-47.9
X108.733Y-53.298
X117.889Y-14.389
X118.483Y-30.081
X119.131Y-26.361
X124.059Y-18.36
X127.868Y-17.674
X128.125Y-14.546
X128.504Y-24.43
X130.128Y-29.003
X130.196Y-44.546
X130.221Y-25.361
X130.465Y-36.429
X132.769Y-33.9
X132.785Y-27.25
X132.802Y-34.85
X132.871Y-43.123
X133.528Y-17.649
X133.975Y-38.674
X134.159Y-25.987
X134.167Y-35.204
X134.511Y-29.627
X134.641Y-20.902
X136.195Y-41.992
X136.931Y-16.775
X137.002Y-45.15
X137.005Y-43.378
X137.675Y-26.812
X138.75Y-19.537
X139.082Y-17.326
X139.457Y-50.305
X139.555Y-37.769
X139.815Y-41.776
X139.885Y-27.219
X139.942Y-29.354
X140.594Y-21.248
X141.759Y-56.168
X142.362Y-59.284
X142.562Y-20.373
X142.993Y-57.028
X144.257Y-28.175
X144.45Y-50.305
X144.534Y-53.241
X144.588Y-42.174
X145.322Y-65.626
X145.463Y-59.284
X145.599Y-40.866
X146.022Y-20.375
X146.166Y-37.555
X146.309Y-71.537
X146.485Y-28.416
X147.579Y-37.714
X147.863Y-26.513
X148.935Y-16.48
X148.998Y-68.31
X149.439Y-50.929
X149.749Y-23.931
X151.0Y-14.593
X151.646Y-66.068
X153.177Y-25.671
X153.343Y-67.31
X154.433Y-50.305
X154.838Y-41.065
X155.159Y-21.185
X155.166Y-22.034
X157.613Y-61.915
X157.776Y-21.279
X158.21Y-17.715
X158.432Y-25.238
X159.464Y-20.169
X160.597Y-55.922
X162.195Y-20.631
X162.348Y-14.843
T2
X38.249Y-23.942
X73.896Y-29.411
X143.759Y-17.326
T3
X20.546Y-59.116
X26.494Y-62.625
X28.824Y-58.918
X38.082Y-57.289
X41.95Y-41.512
X77.042Y-30.417
X88.979Y-53.816
T4
X21.206Y-68.263
X21.896Y-52.664
X23.723Y-41.452
X74.76Y-48.507
X77.938Y-48.65
T6
X65.6Y-16.5
X68.1Y-16.5
X70.6Y-16.5
T7
X122.6Y-24.8
X122.6Y-27.34
X122.6Y-29.88
X122.6Y-32.42
X123.0Y-38.86
X123.0Y-41.4
T8
X39.65Y-12.38
X39.65Y-14.92
X39.65Y-17.46
X39.65Y-20.0
X39.65Y-27.62
X52.35Y-12.38
X52.35Y-14.92
X52.35Y-17.46
X52.35Y-20.0
X82.9Y-31.8
X82.9Y-34.34
X82.9Y-36.88
X82.9Y-39.42
X82.9Y-47.04
X95.6Y-31.8
X95.6Y-34.34
X95.6Y-36.88
X95.6Y-39.42
T5
X71.96Y-49.9G85X71.96Y-50.5
G05
X71.96Y-53.7G85X71.96Y-54.3
G05
X80.6Y-49.9G85X80.6Y-50.5
G05
X80.6Y-53.7G85X80.6Y-54.3
G05
M30
